<?xml version="1.0" encoding="UTF-8" standalone="no"?>
<svg
   xmlns:dc="http://purl.org/dc/elements/1.1/"
   xmlns:cc="http://creativecommons.org/ns#"
   xmlns:rdf="http://www.w3.org/1999/02/22-rdf-syntax-ns#"
   xmlns:svg="http://www.w3.org/2000/svg"
   xmlns="http://www.w3.org/2000/svg"
   viewBox="0 0 300 300"
   height="300"
   width="300"
   id="svg152"
   version="1.1">
  <metadata
     id="metadata158">
    <rdf:RDF>
      <cc:Work
         rdf:about="">
        <dc:format>image/svg+xml</dc:format>
        <dc:type
           rdf:resource="http://purl.org/dc/dcmitype/StillImage" />
        <dc:title></dc:title>
      </cc:Work>
    </rdf:RDF>
  </metadata>
  <defs
     id="defs156" />
  <path
     id="path162"
     d="m 123.54132,270.23873 c -7.78229,-10.88424 -13.69212,-19.96295 -17.84138,-33.02326 -5.58232,-17.57104 -4.88659,-15.50934 -4.96442,-55.08616 -0.0758,-38.53399 -0.41459,-54.0449 -4.420271,-63.7024 C 84.194824,86.287243 62.801615,63.187124 38.444029,44.691148 29.086626,37.585588 23.498725,32.19877 21.712009,22.784177 c -1.605832,-8.461476 8.577428,-8.199353 12.460448,-7.431536 26.648735,5.351703 62.049856,44.63645 79.969843,84.822459 12.43319,27.88174 9.71554,58.62043 8.92532,84.81724 -0.39753,14.37455 -1.14532,30.33042 2.83905,40.0824 8.02589,19.64386 15.08156,27.41928 27.26768,44.11701 19.42915,26.62233 -20.05682,14.44019 -29.63303,1.04698 z M 59.076653,256.02821 c -9.323775,-14.96241 -11.120927,-23.503 -8.433966,-36.2424 0.990074,-4.69413 6.212676,-10.90588 10.892949,-8.36457 11.703324,6.35471 27.728803,34.28569 27.369288,45.91334 -0.423579,13.69972 -25.02612,5.75272 -29.828271,-1.30637 z M 178.93008,238.67412 c -6.60724,-10.47605 -9.59054,-20.76071 -8.77002,-28.95295 0.79885,-7.97586 6.60565,-14.10731 12.64859,-11.0779 8.77645,4.39974 16.87015,12.75416 20.98624,22.02099 3.82243,8.60568 6.99825,28.91518 2.10701,28.17049 -8.83122,-1.34454 -23.48687,-4.63511 -26.97182,-10.16063 z m 45.68282,-46.36234 c -2.38926,-9.53126 0.28684,-16.36791 5.17105,-22.17948 6.55082,-7.7946 30.46909,-16.80331 39.53672,-14.53071 10.24224,2.567 24.44707,23.15699 18.52359,28.50474 -9.31706,8.4115 -15.62025,12.05367 -25.00882,15.53752 -9.86387,3.66022 -35.02823,3.24597 -38.22254,-7.33207 z M 25.784607,155.4217 c -6.369036,-6.75712 -10.886461,-14.74949 -13.148584,-22.9606 -2.491742,-9.04458 -3.4219385,-24.23677 3.14368,-29.10241 4.421497,-3.27668 6.037828,-3.609563 10.498017,-2.20361 7.85145,2.47495 13.099424,9.61659 15.847867,21.56637 1.6792,7.30089 1.866995,25.49606 0.172596,30.4045 -2.066615,5.9867 -12.444374,6.6129 -16.513576,2.29575 z M 142.85355,111.06939 c -4.87794,-7.33037 -8.04564,-19.476201 -9.23579,-34.872162 -1.16719,-7.964517 8.78567,-12.313605 12.87176,-10.12875 4.19838,2.244902 12.22212,10.069498 16.97268,16.452051 9.00522,12.098838 13.61568,25.066201 12.06932,33.946081 -3.14548,15.51591 -29.9225,-1.25642 -32.67797,-5.39722 z m 78.38177,-18.84884 c -7.79722,-3.201679 -12.46715,-4.998311 -14.53548,-16.248381 -3.84082,-20.891001 9.24852,-22.414778 22.87078,-26.237415 15.39461,-4.31999 23.56582,-6.138588 35.12582,2.47699 4.83576,3.604056 7.8413,7.696568 9.23881,12.42253 4.74733,16.054172 -9.03759,24.899004 -23.21189,29.698096 -10.043,3.400334 -20.3721,1.63135 -29.48804,-2.11182 z"
     style="fill:#000000;stroke-width:0.71575731" />
</svg>
