<?xml version="1.0" encoding="UTF-8" standalone="no"?>
<svg
   xmlns:dc="http://purl.org/dc/elements/1.1/"
   xmlns:cc="http://creativecommons.org/ns#"
   xmlns:rdf="http://www.w3.org/1999/02/22-rdf-syntax-ns#"
   xmlns:svg="http://www.w3.org/2000/svg"
   xmlns="http://www.w3.org/2000/svg"
   viewBox="0 0 300 300"
   height="300"
   width="300"
   id="svg270"
   version="1.1">
  <metadata
     id="metadata276">
    <rdf:RDF>
      <cc:Work
         rdf:about="">
        <dc:format>image/svg+xml</dc:format>
        <dc:type
           rdf:resource="http://purl.org/dc/dcmitype/StillImage" />
        <dc:title></dc:title>
      </cc:Work>
    </rdf:RDF>
  </metadata>
  <defs
     id="defs274" />
  <path
     id="path280"
     d="m 16.444762,258.73905 c -3.756101,-3.75612 0.659381,-23.46836 3.635,-34.71706 L 54.811209,92.727136 c 0.970465,-6.945661 2.381537,-14.409663 4.469022,-16.142097 7.531714,-6.25076 11.892318,0.9651 27.158482,27.313971 l 22.625307,38.23335 38.1332,-88.646214 c 3.71802,-8.643077 10.96843,-14.714302 18.34218,-13.187202 5.07494,1.051019 5.22951,3.848938 7.98088,13.34326 0,0 14.47103,88.653546 14.4044,88.501226 l 48.09758,-49.380964 c 2.44079,-8.048025 6.01719,-13.469925 11.59232,-13.469925 6.96715,0 10.49681,8.274938 10.49681,24.608739 0,19.86057 18.83553,124.63023 23.33588,129.80203 5.54995,6.37798 4.49702,13.15015 -2.45553,15.79351 -3.39456,1.29062 -60.87555,3.10859 -127.73557,4.03991 l -121.674468,2.71324 c -3.066683,3.06671 -10.527254,5.09877 -13.13694,2.48908 z M 179.76373,231.21373 157.60865,75.006169 C 135.32158,126.96682 112.71482,180.27943 99.779967,231.90072 Z M 100.36548,166.78961 68.801245,118.92537 39.128583,232.09338 78.098228,231.68499 Z m 158.60288,63.53976 -20.37313,-114.61617 -47.0116,53.91662 8.55071,61.52781 z"
     style="fill:#000000;stroke-width:2.70522356" />
</svg>
