<?xml version="1.0" encoding="UTF-8" standalone="no"?>
<!-- Created with Inkscape (http://www.inkscape.org/) -->

<svg
   xmlns:dc="http://purl.org/dc/elements/1.1/"
   xmlns:cc="http://creativecommons.org/ns#"
   xmlns:rdf="http://www.w3.org/1999/02/22-rdf-syntax-ns#"
   xmlns:svg="http://www.w3.org/2000/svg"
   xmlns="http://www.w3.org/2000/svg"
   xmlns:sodipodi="http://sodipodi.sourceforge.net/DTD/sodipodi-0.dtd"
   xmlns:inkscape="http://www.inkscape.org/namespaces/inkscape"
   width="300"
   height="300"
   viewBox="0 0 300 300"
   id="svg2"
   version="1.1"
   inkscape:version="0.91 r13725"
   sodipodi:docname="明-oracle.svg">
  <defs
     id="defs4">
    <clipPath
       clipPathUnits="userSpaceOnUse"
       id="clipPath4204">
      <rect
         style="fill:#0000ff;fill-rule:evenodd;stroke:#000000;stroke-width:1px;stroke-linecap:butt;stroke-linejoin:miter;stroke-opacity:1"
         id="rect4206"
         width="15.451179"
         height="21.584471"
         x="164.41942"
         y="794.64594" />
    </clipPath>
  </defs>
  <sodipodi:namedview
     id="base"
     pagecolor="#ffffff"
     bordercolor="#666666"
     borderopacity="1.0"
     inkscape:pageopacity="0.0"
     inkscape:pageshadow="2"
     inkscape:zoom="1.71"
     inkscape:cx="150"
     inkscape:cy="150"
     inkscape:document-units="px"
     inkscape:current-layer="layer1"
     showgrid="false"
     inkscape:window-width="1280"
     inkscape:window-height="751"
     inkscape:window-x="0"
     inkscape:window-y="1"
     inkscape:window-maximized="1"
     units="px"
     showguides="false" />
  <metadata
     id="metadata7">
    <rdf:RDF>
      <cc:Work
         rdf:about="">
        <dc:format>image/svg+xml</dc:format>
        <dc:type
           rdf:resource="http://purl.org/dc/dcmitype/StillImage" />
        <dc:title></dc:title>
      </cc:Work>
    </rdf:RDF>
  </metadata>
  <g
     inkscape:label="Layer 1"
     inkscape:groupmode="layer"
     id="layer1"
     transform="translate(0,-752.36216)">
    <path
       style="fill:#000000"
       d="M 103.8323,1024.1036 C 74.568725,1012.6543 45.430241,984.50376 30.079253,952.85121 8.8334377,909.04399 10.052434,870.69976 33.646233,840.64942 c 4.280064,-5.45131 8.594551,-12.6455 9.587764,-15.98709 1.192606,-4.01244 3.911431,-6.07561 8.006312,-6.07561 3.410274,0 9.492477,-3.29195 13.515988,-7.3155 4.023511,-4.02351 10.545828,-7.74807 14.494054,-8.27681 3.948227,-0.52874 7.967287,-2.23747 8.931224,-3.7972 3.096803,-5.01073 59.909985,-20.85379 82.373385,-22.97083 13.41535,-1.26429 13.8603,-1.0801 15.27567,6.3239 1.86024,9.7312 -0.49417,13.926 -13.3102,23.71425 -19.15453,14.62929 -40.45198,38.60921 -48.00968,54.05663 -14.81434,30.27941 -15.43432,90.8665 -1.25339,122.4838 4.20686,9.37939 8.43791,21.25984 9.40237,26.40084 0.96448,5.1411 4.04242,10.5723 6.83987,12.0695 2.79748,1.4971 5.0863,3.8944 5.0863,5.3274 0,4.3552 -27.55299,2.6655 -40.7536,-2.4991 z m 4.89482,-26.62393 c -0.76183,-2.59901 -3.27302,-10.19352 -5.58044,-16.8767 -7.120382,-20.62334 -10.697323,-49.35582 -8.948744,-71.88273 2.477015,-31.91144 6.449654,-53.20094 10.506694,-56.30563 1.99426,-1.52614 6.52954,-7.0277 10.07839,-12.22572 3.54885,-5.19802 12.31388,-15.36373 19.4778,-22.59044 14.28957,-14.4148 15.32788,-16.20289 8.29988,-14.29335 -19.71365,5.35637 -37.34919,11.19551 -38.47885,12.74037 -0.74258,1.01552 -7.653403,5.12805 -15.357389,9.13901 -7.703971,4.01098 -15.447271,9.02782 -17.207308,11.14853 -1.760067,2.12073 -4.58968,3.85588 -6.288066,3.85588 -1.698395,0 -7.063023,6.07196 -11.921427,13.49325 -21.156161,32.31641 -10.999261,88.18351 22.258577,122.43088 22.648141,23.32203 36.315343,32.12828 33.160883,21.36665 z M 64.865037,923.82778 c -7.933753,-8.76667 -5.422172,-45.72868 4.444782,-65.41207 8.575841,-17.1078 15.1469,-25.2589 18.023925,-22.35781 2.771424,2.7946 1.295027,34.21384 -2.017074,42.92532 -1.56035,4.10403 -2.875622,14.97724 -2.922851,24.16276 -0.121243,23.59796 -7.263517,32.02481 -17.528782,20.6818 z m 99.940473,50.44169 c -25.32012,-11.77713 -44.52203,-39.8536 -44.52203,-65.0987 0,-9.01699 8.92928,-27.86448 17.66416,-37.28467 14.78893,-15.94918 45.30088,-24.99006 91.39469,-27.08081 l 15.89952,-0.72118 19.87908,19.68648 C 284.40519,882.86802 285,883.85019 285,896.59587 c 0,8.38472 -1.46557,14.3551 -4.05041,16.50034 -2.22772,1.84884 -4.05041,6.87458 -4.05041,11.16834 0,4.29375 -1.01718,9.9168 -2.26039,12.49566 -10.94496,22.70348 -13.49555,26.14946 -23.39218,31.60433 -11.09047,6.1129 -24.66484,8.80137 -55.35555,10.96345 -14.42577,1.01625 -19.96216,0.11531 -31.08555,-5.05852 z m 73.10566,-20.53956 c 13.96827,-14.06509 17.42544,-23.48537 17.18848,-46.83637 -0.36027,-35.5051 -10.7916,-43.49617 -53.3722,-40.88647 -28.04549,1.71885 -39.95832,6.48695 -52.34343,20.95037 -6.12732,7.15553 -7.3652,11.17533 -7.42575,24.11356 -0.0403,8.59928 1.13213,15.52656 2.62763,15.52656 1.48516,0 2.72652,2.12645 2.75863,4.72548 0.0735,5.94391 16.08346,19.89724 27.64206,24.09099 4.81429,1.74676 19.76401,3.26836 33.22158,3.38135 20.84813,0.17497 25.24285,-0.57444 29.703,-5.06547 z m -62.27215,-28.19166 c -2.97029,-2.29321 -8.13457,-4.20814 -11.47615,-4.25536 -6.71068,-0.0948 -7.90745,-3.39846 -2.70027,-7.45394 5.01867,-3.9087 33.19589,-8.83356 50.54038,-8.83356 15.62682,0 21.69187,3.07852 21.69187,11.01049 0,7.64031 -5.83553,9.97307 -29.70298,11.8739 -18.58991,1.48051 -23.97875,1.03548 -28.35285,-2.34153 z"
       id="path5205"
       inkscape:connector-curvature="0"
       sodipodi:nodetypes="ssssssscsssssscsssssssssssssssssssssssssscssssssssssssssssssscsssss" />
  </g>
</svg>
