<?xml version="1.0" encoding="UTF-8" standalone="no"?>
<!-- Created with Inkscape (http://www.inkscape.org/) -->

<svg
   version="1.1"
   id="svg4016"
   width="300"
   height="300"
   viewBox="0 0 300 300"
   sodipodi:docname="果-bronze.svg"
   xml:space="preserve"
   inkscape:version="1.2.2 (732a01da63, 2022-12-09)"
   xmlns:inkscape="http://www.inkscape.org/namespaces/inkscape"
   xmlns:sodipodi="http://sodipodi.sourceforge.net/DTD/sodipodi-0.dtd"
   xmlns="http://www.w3.org/2000/svg"
   xmlns:svg="http://www.w3.org/2000/svg"><defs
     id="defs4020" /><sodipodi:namedview
     id="namedview4018"
     pagecolor="#ffffff"
     bordercolor="#666666"
     borderopacity="1.0"
     inkscape:showpageshadow="2"
     inkscape:pageopacity="0.0"
     inkscape:pagecheckerboard="0"
     inkscape:deskcolor="#d1d1d1"
     showgrid="false"
     inkscape:zoom="1.9736716"
     inkscape:cx="38.760248"
     inkscape:cy="168.72108"
     inkscape:window-width="1920"
     inkscape:window-height="982"
     inkscape:window-x="-10"
     inkscape:window-y="-10"
     inkscape:window-maximized="1"
     inkscape:current-layer="g1008" /><g
     inkscape:groupmode="layer"
     inkscape:label="Image"
     id="g4022"><g
       transform="matrix(0.48684706,0,0,-0.48684706,-27.972563,301.84518)"
       fill="#000000"
       stroke="none"
       id="g312"><g
         transform="matrix(0.63153484,0,0,0.63153484,151.01161,1.0958607)"
         fill="#000000"
         stroke="none"
         id="g1008"><g
           transform="matrix(0.74628278,0,0,0.74628278,40.771381,-18.12237)"
           fill="#000000"
           stroke="none"
           id="g1933"><path
             d="m 409,1336 c -2,-2 -36,-6 -74,-9 -69,-6 -160,-30 -180,-48 -5,-5 -18,-9 -30,-9 -27,-1 -46,-17 -72,-66 -19,-35 -23,-57 -23,-135 0,-195 62,-297 229,-379 94,-47 98,-51 93,-115 0,-11 4,-39 10,-62 10,-39 3,-75 -11,-57 -6,10 -35,27 -90,56 -19,9 -44,26 -55,36 -12,11 -34,24 -51,30 -16,5 -37,13 -46,16 -8,4 -25,-2 -38,-13 -22,-20 -22,-20 16,-55 21,-19 42,-36 46,-36 5,0 28,-14 52,-30 24,-17 48,-30 54,-30 6,0 11,-3 11,-7 0,-5 18,-19 39,-32 22,-13 44,-34 49,-46 9,-19 5,-27 -28,-58 -20,-21 -40,-37 -43,-37 -10,0 -87,-79 -87,-89 0,-27 62,-18 75,11 6,12 19,26 30,32 11,6 22,14 25,18 3,3 17,9 30,13 26,6 26,6 25,-82 -1,-92 7,-123 29,-123 15,0 23,36 32,143 5,54 9,67 21,63 8,-3 21,-6 29,-6 8,0 21,-8 30,-19 17,-20 149,-69 159,-60 13,14 -11,38 -98,94 -51,33 -104,66 -119,74 -23,11 -26,17 -17,32 5,11 13,19 17,19 5,0 17,8 28,19 11,10 30,24 43,30 12,7 30,19 39,26 50,40 113,85 121,85 13,0 20,36 10,51 -6,11 -14,9 -38,-9 -17,-12 -32,-22 -35,-22 -3,0 -47,-25 -97,-55 -51,-30 -94,-54 -95,-52 -1,1 -5,43 -8,94 -7,94 2,133 32,133 7,0 43,14 80,32 91,44 184,138 197,199 4,16 10,29 14,29 18,0 31,58 32,139 1,82 -1,91 -31,134 -35,53 -68,78 -125,98 -22,8 -42,17 -45,20 -6,7 -154,21 -161,15 z m 137,-82 c 124,-50 141,-63 153,-110 8,-31 8,-50 1,-64 -5,-10 -10,-27 -10,-38 0,-11 -6,-22 -12,-24 -11,-4 -115,-3 -238,1 -29,1 -29,1 -15,116 15,133 37,154 121,119 z m -209,0 c 20,-6 21,-11 18,-97 -2,-51 -4,-104 -4,-119 -1,-28 -1,-28 -73,-28 -86,0 -171,26 -176,54 -2,10 -1,38 3,62 5,37 12,48 48,71 23,16 47,29 52,30 6,1 28,9 50,17 46,17 52,18 82,10 z M 638,933 c 12,-11 11,-19 -3,-49 -18,-38 -66,-94 -80,-94 -5,0 -18,-9 -29,-19 -19,-18 -56,-26 -97,-23 -25,3 -31,29 -23,115 6,67 10,80 28,87 31,13 188,-1 204,-17 z M 345,863 c -8,-105 -10,-113 -29,-113 -33,0 -125,42 -131,59 -3,10 -17,31 -30,47 -31,36 -32,68 -2,82 12,6 62,11 110,11 88,1 88,1 82,-86 z"
             id="path1923" /><path
             d="m 536,1151 c -12,-13 -15,-27 -10,-45 9,-37 17,-39 51,-13 32,24 31,34 -8,64 -13,11 -19,10 -33,-6 z"
             id="path1925" /><path
             d="m 192,1154 c -26,-46 32,-99 63,-58 20,27 18,45 -5,51 -11,3 -20,9 -20,14 0,15 -29,10 -38,-7 z"
             id="path1927" /><path
             d="m 485,889 c -4,-5 -4,-21 -1,-35 5,-17 13,-24 32,-24 32,0 41,25 19,50 -20,22 -40,26 -50,9 z"
             id="path1929" /><path
             d="m 210,873 c 0,-10 12,-26 26,-37 25,-18 26,-18 50,5 31,29 16,49 -37,49 -31,0 -39,-4 -39,-17 z"
             id="path1931" /></g></g></g></g></svg>
