<?xml version="1.0" encoding="UTF-8" standalone="no"?>
<svg
   xmlns:dc="http://purl.org/dc/elements/1.1/"
   xmlns:cc="http://creativecommons.org/ns#"
   xmlns:rdf="http://www.w3.org/1999/02/22-rdf-syntax-ns#"
   xmlns:svg="http://www.w3.org/2000/svg"
   xmlns="http://www.w3.org/2000/svg"
   version="1.1"
   id="svg4242"
   width="300"
   height="300"
   viewBox="0 0 300 300">
  <metadata
     id="metadata4248">
    <rdf:RDF>
      <cc:Work
         rdf:about="">
        <dc:format>image/svg+xml</dc:format>
        <dc:type
           rdf:resource="http://purl.org/dc/dcmitype/StillImage" />
        <dc:title></dc:title>
      </cc:Work>
    </rdf:RDF>
  </metadata>
  <defs
     id="defs4246" />
  <path
     style="fill:#000000;stroke-width:0.6988551"
     d="m 136.09531,259.30587 c 26.81679,-59.68105 21.60895,-76.16305 -5.71347,-130.44743 -18.3749,-36.507379 7.66883,-71.668395 23.44218,-106.028918 5.10216,-11.114505 18.90829,-10.670114 12.35224,3.096186 -16.09418,33.79433 -40.49636,65.956809 -22.42145,101.119802 28.24851,54.95476 33.17974,73.02765 6.06868,133.29846 -14.95987,33.25739 -28.94634,32.83006 -13.72818,-1.0381 z m 72.07444,-32.90925 4.2049,-30.99501 c 15.77784,5.18078 11.57265,46.92917 9.30465,61.21995 -2.26799,14.2908 -5.20988,21.84816 -11.17707,22.24466 -8.0558,0.53528 -3.48259,-43.99193 -2.33248,-52.4696 z m -110.991607,5.60913 c 1.199524,-6.89109 6.203037,-40.07252 12.546757,-38.15162 14.70702,4.45333 1.61828,40.99776 -1.93723,52.83884 -1.95863,6.63711 -5.56134,22.82466 -7.957974,24.01764 -7.713769,3.8397 -3.262165,-33.25947 -2.651553,-38.70486 z m 96.946007,-98.63822 c -6.70984,-9.43355 -5.27681,-25.96359 -5.28476,-34.540602 -0.005,-5.392165 0.14574,-21.13998 1.76884,-20.134094 6.52629,4.044538 12.35626,17.526629 13.24895,23.507526 2.26782,15.19425 -4.02821,39.18774 -9.73303,31.16717 z M 77.977404,116.10896 c -6.160611,-12.46055 3.781565,-58.838454 12.226516,-59.379231 4.138216,0.805838 3.599793,5.184557 2.310287,17.987817 -1.36673,13.570011 -2.887141,28.559014 -6.449883,40.141034 -1.873626,6.09092 -6.390574,4.68145 -8.08692,1.25038 z"
     id="path4252" />
</svg>
