<?xml version="1.0" encoding="UTF-8" standalone="no"?>
<svg
   xmlns:dc="http://purl.org/dc/elements/1.1/"
   xmlns:cc="http://creativecommons.org/ns#"
   xmlns:rdf="http://www.w3.org/1999/02/22-rdf-syntax-ns#"
   xmlns:svg="http://www.w3.org/2000/svg"
   xmlns="http://www.w3.org/2000/svg"
   viewBox="0 0 300 300"
   height="300"
   width="300"
   id="svg3728"
   version="1.1">
  <metadata
     id="metadata3734">
    <rdf:RDF>
      <cc:Work
         rdf:about="">
        <dc:format>image/svg+xml</dc:format>
        <dc:type
           rdf:resource="http://purl.org/dc/dcmitype/StillImage" />
        <dc:title></dc:title>
      </cc:Work>
    </rdf:RDF>
  </metadata>
  <defs
     id="defs3732" />
  <path
     id="path3738"
     d="m 99.006108,284.46464 c -0.150609,-0.45239 1.366322,-1.875 3.370942,-3.16136 2.02568,-1.45556 4.0224,-3.04279 5.57434,-4.86865 39.87853,-23.91055 74.30358,-54.90886 78.45114,-97.33699 4.05273,-20.99164 1.44781,-40.72039 3.42102,-61.433 4.25267,-9.7274 1.44549,-7.88033 10.23164,-16.33061 3.75946,-3.497774 24.19869,-29.490361 24.30911,-32.153031 7.45908,-18.045414 -6.99963,-31.440513 -19.37799,-35.564728 -7.38915,-3.083604 -27.5202,-9.745322 -33.24802,-6.050748 -3.61979,-0.320356 -4.46881,-3.654785 -4.40222,-4.039911 0.24749,-3.880334 -1.99983,-6.228674 0.91711,-7.626338 17.05779,-3.88292 32.303,1.575221 41.30511,2.30696 25.49919,5.0974 38.5669,35.568131 36.16436,59.929444 -2.67874,10.138582 -16.33159,22.287662 -23.59331,29.820602 -2.69396,1.59662 -7.25449,8.08296 -7.05652,9.52329 -3.69952,13.1242 -5.72924,24.79876 -8.02388,39.90271 -0.40118,50.62753 -29.55635,94.42904 -71.46069,120.05947 -13.85588,4.97867 -25.6185,10.31889 -36.582142,7.02289 z M 53.996076,257.79505 C 57.848405,247.27519 64.154298,239.97441 69.933271,234.41238 91.460135,205.98661 117.67644,173.32561 117.884,137.48358 113.77573,105.76835 79.446624,97.870452 65.647958,82.963793 24.443575,35.644199 144.28246,5.7387955 148.18348,22.124872 l 0.41958,4.13877 -2.88269,1.29991 c -3.74894,1.527528 -2.99021,1.187163 -7.93448,2.210506 -19.19283,6.037781 -68.220648,19.860784 -60.837062,37.165658 9.004047,8.864332 39.589672,26.508713 53.051712,44.889894 8.67784,12.36834 0.0934,52.82092 -4.22226,65.57902 -13.33847,31.21088 -34.969168,50.42583 -53.039273,71.1221 -2.111226,3.6139 -17.761149,15.44243 -18.742931,9.26432 z m 44.073448,-5.53793 c -16.109662,-17.42531 23.320106,-28.13337 36.065906,-34.71875 6.81916,-4.60611 8.78528,-9.74403 17.55424,-0.22631 -0.94099,3.14878 -1.13172,7.34508 -4.40178,8.8604 -4.50153,2.42297 -13.291,8.76856 -16.92003,10.28076 -6.45295,4.98418 -19.85354,7.8172 -26.2636,13.95252 -3.13936,3.13936 -4.595102,3.58594 -6.034736,1.85128 z m 56.177736,-76.7406 c -1.29689,-3.33025 -2.72764,-9.22817 -3.31778,-12.72447 -1.85238,-7.05152 -1.07898,-29.78334 2.67214,-35.33042 25.37174,-11.28891 19.60116,21.57458 19.35115,35.93276 -0.55286,10.45731 2.3083,20.26634 -18.70551,12.12213 z m -1.20262,-85.66155 c -5.93537,-2.077514 -12.43482,-4.878226 -13.17672,-6.231971 -2.35495,-12.709179 6.90372,-14.982924 14.28824,-21.645313 4.86466,-4.043502 14.63065,3.58153 17.97489,7.003435 4.3905,5.555018 2.38098,14.819078 -1.49476,19.437783 -1.95559,2.316665 -15.64042,1.934287 -17.59165,1.436066 z"
     style="fill:#000000;stroke-width:0.73434407" />
</svg>
