<?xml version="1.0" encoding="UTF-8" standalone="no"?>
<svg
   xmlns:dc="http://purl.org/dc/elements/1.1/"
   xmlns:cc="http://creativecommons.org/ns#"
   xmlns:rdf="http://www.w3.org/1999/02/22-rdf-syntax-ns#"
   xmlns:svg="http://www.w3.org/2000/svg"
   xmlns="http://www.w3.org/2000/svg"
   version="1.1"
   id="svg3833"
   width="300"
   height="300"
   viewBox="0 0 300 300">
  <metadata
     id="metadata3839">
    <rdf:RDF>
      <cc:Work
         rdf:about="">
        <dc:format>image/svg+xml</dc:format>
        <dc:type
           rdf:resource="http://purl.org/dc/dcmitype/StillImage" />
        <dc:title></dc:title>
      </cc:Work>
    </rdf:RDF>
  </metadata>
  <defs
     id="defs3837" />
  <path
     style="fill:#000000;stroke-width:0.72639227"
     d="M 54.024247,256.7619 C 22.744722,232.98431 18.076823,191.34806 16.041927,150.71438 13.929455,108.53162 9.8428047,29.313374 9.8428047,29.313374 32.462216,30.224913 35.657869,75.787621 38.525049,98.397486 c 14.450421,16.744444 38.950039,47.408994 59.59567,49.394674 3.117971,-15.96316 8.286211,-28.84518 14.531311,-44.76558 6.58883,-16.796662 15.4911,-34.685713 29.2117,-34.619445 3.67331,0.01774 24.58552,46.445065 24.58552,46.445065 7.85487,16.5635 16.42081,26.37961 29.66071,17.54995 21.6602,-14.44513 68.92058,-53.539348 68.92058,-53.539348 l 0.40521,11.228573 c 0.96659,26.784645 -57.42646,77.641315 -80.27645,76.938395 -17.86673,-0.54962 -27.72638,-9.43453 -34.89123,-23.00199 -5.2256,-9.89526 -10.4512,-26.90621 -15.6768,-41.87258 0,0 -13.20416,32.63511 -23.59125,48.088 0.88308,6.39076 1.14172,14.33161 -3.54697,17.0392 -7.583037,4.379 -56.778157,-16.94923 -66.003849,-24.66739 2.089313,35.19668 0.117211,82.02557 29.537487,98.41104 51.615722,28.74711 137.164782,4.7147 184.286812,-10.31804 0,0 4.90286,-18.39054 6.78215,-30.72908 7.83448,-51.43759 3.77422,-101.661107 0.8913,-150.361628 -0.66682,-11.264366 0.42492,-18.201737 2.18237,-22.333152 3.50228,-7.758021 8.42384,-5.616056 9.61987,0.723614 8.33225,47.311427 14.82436,100.318436 15.39368,143.896756 0.30563,23.39382 -4.31406,66.6994 -10.55812,69.38879 -66.20865,28.51685 -170.82229,57.07865 -225.560503,15.46859 z"
     id="path3843" />
</svg>
