<?xml version="1.0" encoding="UTF-8" standalone="no"?>
<svg
   xmlns:dc="http://purl.org/dc/elements/1.1/"
   xmlns:cc="http://creativecommons.org/ns#"
   xmlns:rdf="http://www.w3.org/1999/02/22-rdf-syntax-ns#"
   xmlns:svg="http://www.w3.org/2000/svg"
   xmlns="http://www.w3.org/2000/svg"
   viewBox="0 0 300 300"
   height="300"
   width="300"
   id="svg16"
   version="1.1">
  <metadata
     id="metadata22">
    <rdf:RDF>
      <cc:Work
         rdf:about="">
        <dc:format>image/svg+xml</dc:format>
        <dc:type
           rdf:resource="http://purl.org/dc/dcmitype/StillImage" />
        <dc:title></dc:title>
      </cc:Work>
    </rdf:RDF>
  </metadata>
  <defs
     id="defs20" />
  <path
     id="path26"
     d="M 73.141342,276.96193 C 27.642686,276.09039 17.91102,247.23492 17.890609,208.07532 l -0.01224,-51.92563 c -6.673537,-3.62647 -6.737104,-19.16741 0.500582,-22.09716 l 0.13345,-91.530869 C 2.6066875,41.166421 4.8822679,23.536578 34.016382,23.289655 164.36968,21.570732 195.14702,24.889563 263.74354,32.709138 c 23.99916,-7.836189 25.608,31.688853 25.77642,46.874251 l 1.76093,158.774941 c 0.28615,25.80082 -4.80478,37.06541 -26.05581,29.1794 -29.06179,10.24756 -49.88573,9.64196 -81.90871,9.59292 z m 82.676758,-24.12299 -4.22025,-105.55558 -113.809969,7.1109 0.186417,53.28004 c 0.105886,30.26336 4.729841,45.56403 33.009309,45.46418 z m 109.72988,-3.10475 -1.20731,-110.12628 -90.18457,6.03594 6.9224,107.02028 z M 150.62501,126.27978 147.17854,45.180089 37.387323,42.984907 l 0.35786,89.779513 z m 113.49627,-6.70613 -0.91821,-67.66127 -95.22281,-6.61636 5.92217,79.87151 z"
     style="fill:#000000;stroke-width:0.72639227" />
</svg>
