<?xml version="1.0" encoding="UTF-8" standalone="no"?>
<svg
   xmlns:dc="http://purl.org/dc/elements/1.1/"
   xmlns:cc="http://creativecommons.org/ns#"
   xmlns:rdf="http://www.w3.org/1999/02/22-rdf-syntax-ns#"
   xmlns:svg="http://www.w3.org/2000/svg"
   xmlns="http://www.w3.org/2000/svg"
   viewBox="0 0 300 300"
   height="300"
   width="300"
   id="svg76"
   version="1.1">
  <metadata
     id="metadata82">
    <rdf:RDF>
      <cc:Work
         rdf:about="">
        <dc:format>image/svg+xml</dc:format>
        <dc:type
           rdf:resource="http://purl.org/dc/dcmitype/StillImage" />
        <dc:title></dc:title>
      </cc:Work>
    </rdf:RDF>
  </metadata>
  <defs
     id="defs80" />
  <path
     id="path86"
     d="m 142.51186,284.10103 c -1.48598,-14.80501 -1.38291,-26.85091 -1.65102,-49.50787 -0.22413,-18.94003 0.77052,-40.58571 4.24108,-45.30944 8.15789,5.60992 8.44971,14.44103 8.14408,31.60879 -0.672,37.74792 -0.30265,52.07544 -6.99498,63.51325 -1.36061,0.86395 -3.40519,0.69732 -3.73916,-0.30473 z m -85.037661,-6.73632 0.280449,-71.56408 c 0.04151,-10.59239 1.081345,-16.78502 3.367341,-15.66968 8.886313,5.20679 8.077081,21.63458 8.358509,33.41766 l -1.119184,58.36819 c -0.134586,7.01902 -10.907128,0.55478 -10.887115,-4.55209 z M 230.44574,208.79123 c -0.0546,-7.32606 0.16885,-13.16483 3.77399,-18.85013 5.84315,3.28943 7.54646,5.9685 7.55474,11.60613 0.0871,59.21267 1.80628,81.36029 -3.48711,82.7705 -8.51318,0.57703 -7.38542,-14.30425 -7.84162,-75.5265 z M 146.5647,28.558756 70.326387,29.160959 68.897854,122.37646 c -0.118129,7.7082 -3.777849,13.55236 -7.020414,13.68094 -4.352364,0.17257 -4.189779,-1.11843 -4.134545,-22.59317 l 0.269142,-90.328148 c 0.05867,-11.70631 12.094025,-8.264351 12.007355,-5.045058 L 209.36273,17.651925 c 27.28551,-0.08598 33.16525,0.08088 33.1631,2.710907 l -0.0842,102.611848 c -0.004,4.74503 0.34306,9.07615 -2.74973,11.92165 -6.62551,6.09574 -8.10779,-11.54788 -8.16192,-15.89279 l -1.13656,-91.227278 -72.12131,0.618687 -2.0423,99.230311 c -0.24548,11.92721 -10.67804,10.48497 -10.60364,2.43848 z"
     style="fill:#000000;stroke-width:0.71512562" />
</svg>
