<?xml version="1.0" encoding="UTF-8" standalone="no"?>
<!-- Created with Inkscape (http://www.inkscape.org/) -->

<svg
   xmlns:dc="http://purl.org/dc/elements/1.1/"
   xmlns:cc="http://creativecommons.org/ns#"
   xmlns:rdf="http://www.w3.org/1999/02/22-rdf-syntax-ns#"
   xmlns:svg="http://www.w3.org/2000/svg"
   xmlns="http://www.w3.org/2000/svg"
   xmlns:sodipodi="http://sodipodi.sourceforge.net/DTD/sodipodi-0.dtd"
   xmlns:inkscape="http://www.inkscape.org/namespaces/inkscape"
   width="300"
   height="300"
   id="svg2"
   version="1.1"
   inkscape:version="0.48.4 r9939"
   sodipodi:docname="image-seal.svg">
  <defs
     id="defs4" />
  <sodipodi:namedview
     id="base"
     pagecolor="#ffffff"
     bordercolor="#666666"
     borderopacity="1.0"
     inkscape:pageopacity="0.0"
     inkscape:pageshadow="2"
     inkscape:zoom="1.979899"
     inkscape:cx="200.43343"
     inkscape:cy="134.48103"
     inkscape:document-units="px"
     inkscape:current-layer="layer1"
     showgrid="false"
     inkscape:window-width="1215"
     inkscape:window-height="1000"
     inkscape:window-x="65"
     inkscape:window-y="24"
     inkscape:window-maximized="1" />
  <metadata
     id="metadata7">
    <rdf:RDF>
      <cc:Work
         rdf:about="">
        <dc:format>image/svg+xml</dc:format>
        <dc:type
           rdf:resource="http://purl.org/dc/dcmitype/StillImage" />
        <dc:title />
      </cc:Work>
    </rdf:RDF>
  </metadata>
  <g
     inkscape:label="Calque 1"
     inkscape:groupmode="layer"
     id="layer1"
     transform="translate(0,-752.36218)">
    <path
       style="fill:#000000"
       d="m 99.407217,1022.8684 c -0.04646,-3.4363 3.304743,-13.7174 7.447363,-22.847 10.02198,-22.08641 9.60868,-32.63745 -2.35945,-60.23361 -5.532288,-12.75643 -8.792211,-24.43566 -7.244213,-25.95388 1.54796,-1.51818 7.976763,3.23696 14.286183,10.56704 l 11.47167,13.32742 -2.65338,-15.11783 c -1.45935,-8.31478 -5.19833,-22.61384 -8.30887,-31.77567 -7.06806,-20.81849 -3.43753,-25.16417 8.54149,-10.22399 l 9.15936,11.4235 0.019,-27.60679 c 0.0114,-15.49567 1.65758,-27.60678 3.75417,-27.60678 15.02552,0 5.14552,122.92859 -12.88315,160.2942 -9.25204,19.17549 -21.124096,33.57699 -21.230106,25.75339 z m 47.250243,-0.68 c -1.06033,-2.7632 2.40373,-14.3295 7.69795,-25.70283 10.76425,-23.12439 11.76944,-36.79032 4.25518,-57.84862 -5.56381,-15.5922 -2.34147,-21.47857 6.77002,-12.36708 3.16073,3.1607 6.72593,5.74675 7.92265,5.74675 4.46568,0 1.7275,-21.21568 -3.65692,-28.33458 -8.1851,-10.82167 -7.19457,-18.38166 2.025,-15.4555 4.18861,1.32943 7.69555,1.87326 7.79319,1.20858 0.0975,-0.66474 1.16329,-12.34649 2.36812,-25.95949 1.20484,-13.61299 2.93165,-25.55805 3.83739,-26.54455 9.73768,-10.60641 11.72796,76.44738 2.47859,108.41294 -3.03,10.47154 -7.44855,25.89327 -9.81899,34.27049 -3.9732,14.04143 -23.64538,47.59789 -27.90383,47.59789 -1.01228,0 -2.70803,-2.2608 -3.76835,-5.024 z M 53.190567,982.47039 c -3.371112,-21.98106 6.128477,-92.33993 12.467414,-92.33993 6.103802,0 5.456966,76.25149 -0.745155,87.84029 -3.907026,7.30034 -10.882137,9.97777 -11.722259,4.49964 z m 164.331793,-32.9055 c -5.62931,-14.80621 -4.64921,-74.66576 1.2225,-74.66576 7.53716,0 14.05483,35.01851 11.34433,60.95117 -2.51853,24.09626 -6.83056,28.8021 -12.56683,13.71459 z M 100.82114,836.76464 c 3.47259,-46.0004 3.26545,-45.63781 26.07379,-45.63781 10.52808,0 25.33808,-1.58517 32.91112,-3.52264 7.57306,-1.93742 21.12734,-5.45593 30.12064,-7.81888 25.33549,-6.65682 31.24646,-3.0821 31.24646,18.89644 0,11.20931 1.87037,19.21996 4.75979,20.38588 3.80784,1.5365 3.80784,1.98072 0,2.22122 -2.96443,0.18735 -4.75979,6.04578 -4.75979,15.53196 0,8.37723 -1.4879,15.23133 -3.30645,15.23133 -3.01576,0 -4.71824,-7.11311 -10.80742,-45.15438 -2.01972,-12.6179 -2.25424,-12.75468 -17.65137,-10.29257 -8.58243,1.37238 -16.91469,4.55661 -18.51611,7.07606 -1.60142,2.51945 -2.96417,15.71873 -3.02829,29.33172 -0.064,13.613 -1.80393,27.3212 -3.86613,30.46266 -6.90151,10.51321 -11.55327,-3.86403 -10.47223,-32.36657 l 1.01095,-26.65482 -17.13525,1.34847 c -9.42439,0.74169 -18.42039,2.12792 -19.99112,3.08061 -1.57073,0.95268 -2.85587,13.28297 -2.85587,27.40066 0,24.16039 -3.89431,34.80732 -12.73141,34.80732 -2.177549,0 -2.571927,-13.52067 -1.00131,-34.32666 z"
       id="path3039"
       inkscape:connector-curvature="0" />
  </g>
</svg>
