<?xml version="1.0" encoding="UTF-8" standalone="no"?>
<svg
   xmlns:dc="http://purl.org/dc/elements/1.1/"
   xmlns:cc="http://creativecommons.org/ns#"
   xmlns:rdf="http://www.w3.org/1999/02/22-rdf-syntax-ns#"
   xmlns:svg="http://www.w3.org/2000/svg"
   xmlns="http://www.w3.org/2000/svg"
   viewBox="0 0 300 300"
   height="300"
   width="300"
   id="svg188"
   version="1.1">
  <metadata
     id="metadata194">
    <rdf:RDF>
      <cc:Work
         rdf:about="">
        <dc:format>image/svg+xml</dc:format>
        <dc:type
           rdf:resource="http://purl.org/dc/dcmitype/StillImage" />
        <dc:title></dc:title>
      </cc:Work>
    </rdf:RDF>
  </metadata>
  <defs
     id="defs192" />
  <path
     id="path198"
     d="m 219.63459,281.23961 c -1.51399,-3.20033 -1.77912,-4.71952 -1.78004,-10.1996 -6.8e-4,-4.75436 -0.31742,-7.06593 -1.21011,-8.83456 l -1.20906,-2.39538 -14.8672,-2.57144 c -23.69213,-4.09777 -34.2903,-4.99197 -52.89959,-4.46322 -8.74745,0.24854 -18.70502,0.84129 -22.12793,1.31725 -5.07913,0.70623 -7.49459,0.69447 -13.13633,-0.064 -6.30472,-0.84757 -7.85594,-0.8036 -17.633195,0.49971 -8.087623,1.07809 -10.932514,1.71602 -11.584246,2.59764 -1.337792,1.80964 -3.604109,8.28305 -4.654961,13.29624 -1.218436,5.81266 -3.399971,7.99346 -7.452455,7.4499 -3.312161,-0.44425 -4.827114,-1.75755 -6.752533,-5.85371 -1.883181,-4.00629 -1.948562,-9.76476 -0.217733,-19.17622 0.909714,-4.94665 1.239731,-9.76271 1.160699,-16.93858 -0.168383,-15.28721 1.09112,-48.35802 2.222917,-58.36717 0.55507,-4.90878 1.664963,-11.71819 2.466429,-15.13201 l 1.457216,-6.20695 4.934162,0.4224 4.934163,0.42241 5.877728,6.16718 5.877737,6.16718 53.936832,2.14397 c 29.66526,1.17918 56.58182,2.2227 59.81457,2.31895 l 5.87774,0.17498 2.07448,-4.21039 c 1.14098,-2.31571 2.63915,-6.33184 3.32925,-8.92474 1.37011,-5.14774 4.48418,-11.83352 7.18865,-15.43372 1.61398,-2.14857 1.79987,-2.22118 2.97156,-1.16082 2.60831,2.3605 6.81869,15.39368 8.23766,25.49958 l 0.66826,4.7594 -2.99661,5.96659 -2.99659,5.96658 -1.49494,48.37542 c -0.82221,26.60649 -1.55655,48.41677 -1.63185,48.46731 -0.55166,0.37022 -5.01276,1.6802 -5.72187,1.6802 -0.48612,0 -1.68438,-1.69218 -2.66281,-3.76041 z m -16.30042,-41.6848 c 5.75445,-1.87063 8.52508,-4.00639 12.67578,-9.77121 3.88175,-5.39129 3.969,-5.60969 2.99445,-7.49585 -1.52857,-2.95843 -2.41301,-6.82283 -3.21425,-14.044 -0.40089,-3.61307 -1.18493,-8.15803 -1.74229,-10.0999 -0.96037,-3.34593 -1.24006,-3.64165 -5.34492,-5.65127 -8.54609,-4.18393 -11.2178,-4.55072 -34.06593,-4.67681 -12.87502,-0.071 -21.79426,-0.4089 -23.51093,-0.89059 -5.27862,-1.48113 -45.37994,1.22602 -53.651925,3.62193 -8.560357,2.47943 -9.6869,3.54949 -12.376926,11.75629 -2.123161,6.47738 -2.292229,7.67163 -2.358286,16.65857 -0.07301,9.9316 0.815708,14.86721 2.676984,14.86721 0.501684,0 10.668497,1.13744 22.592933,2.52763 19.34714,2.25558 24.47192,2.58983 47.61196,3.1053 14.26215,0.3177 28.26497,0.84439 31.11741,1.17042 6.18721,0.70721 12.33286,0.3081 16.59594,-1.07772 z m -39.06963,-18.83722 c -3.04259,-0.27321 -13.87229,-0.34109 -24.06601,-0.15084 l -18.53403,0.34592 -3.47528,-3.3956 c -4.23334,-4.13626 -5.44127,-6.31272 -5.44127,-9.80419 0,-2.62511 0.0676,-2.69534 3.69114,-3.83758 4.10566,-1.29419 19.61946,-1.45515 52.66593,-0.54645 16.06549,0.44177 17.5452,0.58989 20.93377,2.09566 4.96229,2.20505 7.0719,4.82668 7.0719,8.78829 0,3.09363 -0.004,3.09893 -3.97612,4.95612 -3.67843,1.71998 -4.70088,1.86615 -13.65707,1.95229 -5.32454,0.0512 -12.17037,-0.13042 -15.21296,-0.40362 z m -39.40937,-67.13072 c -5.68429,-0.89854 -7.97545,-3.92913 -6.98039,-9.23324 0.37084,-1.97671 0.94324,-2.55281 3.70648,-3.73041 5.35248,-2.28103 8.4212,-2.9319 15.97613,-3.38845 9.34119,-0.56451 10.5967,-1.46704 11.00712,-7.91246 0.155,-2.4343 -0.067,-5.72142 -0.49333,-7.30468 -0.63183,-2.34647 -1.18817,-3.01121 -3.0091,-3.59544 -2.96526,-0.95138 -10.5863,-2.1359 -13.78402,-2.14243 -3.54762,-0.008 -5.89417,-1.2342 -6.68188,-3.49384 -0.76423,-2.19228 0.0213,-6.62 1.41222,-7.96048 0.50339,-0.48512 5.09306,-1.5488 10.19927,-2.36372 5.1062,-0.81494 9.81888,-1.76796 10.47261,-2.11782 1.73635,-0.929275 2.78209,-4.421265 3.20838,-10.713601 l 0.37623,-5.553558 -9.59612,-4.056797 c -5.27787,-2.231238 -11.152,-4.985341 -13.05362,-6.120226 -8.80104,-5.252459 -14.67887,-12.510654 -18.06435,-22.306603 -1.64863,-4.770364 -1.9085,-6.613775 -1.94591,-13.80359 -0.0253,-4.858223 0.34373,-9.802865 0.89016,-11.928338 0.84034,-3.268565 1.12209,-3.630364 2.82715,-3.630364 1.78928,0 2.32934,0.906017 9.78487,16.415285 6.0227,12.528625 8.57259,17.10295 10.76944,19.31963 3.28823,3.317915 8.39053,6.120457 12.37278,6.795984 1.50029,0.254503 3.2307,0.598896 3.84536,0.76532 2.61719,0.708624 5.73008,-11.314675 6.46526,-24.971525 0.53649,-9.966024 1.6928,-23.041013 2.18723,-24.732392 0.33281,-1.138493 0.4944,-1.123682 2.3787,0.218061 2.61017,1.858601 5.37575,6.609979 6.52071,11.202806 0.49779,1.996805 1.06868,9.542862 1.26864,16.769015 0.36109,13.049886 1.21656,18.322423 3.44007,21.20218 0.82492,1.068393 1.27171,1.0586 6.38759,-0.140008 l 5.50064,-1.288751 9.10159,-9.540962 9.10161,-9.540962 1.83948,-6.22348 C 205.86343,26.3781 206.85013,24.452032 210.9793,21.5118 l 2.05337,-1.46212 2.53105,5.329681 c 2.05926,4.336215 2.58964,6.34173 2.84535,10.759069 0.40413,6.981008 -1.6827,16.296174 -5.23791,23.381033 l -2.57626,5.133987 -15.42819,8.801825 c -12.2531,6.990424 -16.52237,9.073963 -20.74493,10.124189 l -5.31676,1.322359 0.23911,7.215503 c 0.1315,3.968539 0.36343,7.343709 0.51539,7.500399 0.15196,0.15669 4.05959,1.007935 8.68363,1.891645 9.05275,1.73009 11.32728,2.75561 12.4063,5.59366 1.40291,3.68994 0.85254,4.16153 -8.60706,7.37488 -13.03844,4.42905 -15.139,6.36122 -15.09559,13.8855 0.0148,2.54916 0.18423,4.79233 0.37672,4.98482 0.19249,0.19249 4.64984,1.2385 9.90521,2.32449 9.05913,1.872 9.66765,2.10286 11.72013,4.44642 2.16198,2.46858 3.50822,6.4005 2.51137,7.3348 -1.8425,1.72687 -13.31768,4.12826 -26.1127,5.46456 -9.77664,1.02105 -35.85778,1.44839 -40.79236,0.66837 z"
     style="fill:#000000;stroke-width:0.69149792" />
</svg>
