<?xml version="1.0" encoding="UTF-8" standalone="no"?>
<svg
   xmlns:dc="http://purl.org/dc/elements/1.1/"
   xmlns:cc="http://creativecommons.org/ns#"
   xmlns:rdf="http://www.w3.org/1999/02/22-rdf-syntax-ns#"
   xmlns:svg="http://www.w3.org/2000/svg"
   xmlns="http://www.w3.org/2000/svg"
   version="1.1"
   id="svg387"
   width="300"
   height="300"
   viewBox="0 0 300 300">
  <metadata
     id="metadata393">
    <rdf:RDF>
      <cc:Work
         rdf:about="">
        <dc:format>image/svg+xml</dc:format>
        <dc:type
           rdf:resource="http://purl.org/dc/dcmitype/StillImage" />
        <dc:title></dc:title>
      </cc:Work>
    </rdf:RDF>
  </metadata>
  <defs
     id="defs391" />
  <path
     style="fill:#000000;stroke-width:0.69243759"
     d="m 154.36657,273.55816 c 0,0 0.85032,-45.34229 4.25184,-67.69412 3.71739,-24.42746 16.30461,-62.50017 17.57076,-72.0135 1.77019,-13.30058 0.44977,-27.21811 -8.71309,-36.197276 L 138.87599,140.8189 c -6.04355,9.12144 -15.54417,23.09506 -17.38442,27.84438 -2.47654,6.39153 -12.42977,16.74507 -12.51104,6.69486 -0.0156,-4.63016 2.56712,-11.29784 5.58889,-14.91807 7.83296,-9.3843 11.31352,-21.74732 17.23936,-32.47524 l 22.41864,-40.58579 c -7.638,-7.542434 -15.80923,-12.224182 -24.76597,-15.847686 -11.76307,-4.758825 -23.47698,-18.352136 -26.78348,-31.159851 -1.14216,-4.424121 -0.79953,-20.204383 1.22864,-23.176763 4.70156,-6.890384 11.37221,4.379554 12.89744,7.291624 9.9394,18.976844 27.06797,23.896939 42.79569,35.774496 16.68535,12.600756 25.46678,23.013389 32.12184,37.062374 6.72181,14.189856 8.00397,25.568446 3.92548,40.468356 -5.77502,21.09787 -17.5774,50.06389 -23.66741,75.83483 -3.96862,16.7939 -6.5572,34.50756 -8.32953,51.09485 -0.58884,5.51093 -1.62738,20.61807 -5.38163,20.27338 -2.8322,-0.26003 -3.98365,-8.66832 -3.90192,-11.43649 z"
     id="path397" />
</svg>
