<?xml version="1.0" encoding="UTF-8" standalone="no"?>
<svg
   xmlns:dc="http://purl.org/dc/elements/1.1/"
   xmlns:cc="http://creativecommons.org/ns#"
   xmlns:rdf="http://www.w3.org/1999/02/22-rdf-syntax-ns#"
   xmlns:svg="http://www.w3.org/2000/svg"
   xmlns="http://www.w3.org/2000/svg"
   viewBox="0 0 300 300"
   height="300"
   width="300"
   id="svg103"
   version="1.1">
  <metadata
     id="metadata109">
    <rdf:RDF>
      <cc:Work
         rdf:about="">
        <dc:format>image/svg+xml</dc:format>
        <dc:type
           rdf:resource="http://purl.org/dc/dcmitype/StillImage" />
        <dc:title></dc:title>
      </cc:Work>
    </rdf:RDF>
  </metadata>
  <defs
     id="defs107" />
  <path
     id="path113"
     d="m 134.14337,283.98513 c -4.74132,-19.85414 -6.25735,-39.84471 -5.70985,-59.89164 0.61996,-22.70005 2.65749,-44.87681 10.15747,-67.36405 3.42995,-10.28406 3.7533,-23.49674 -0.95899,-33.6596 -7.59181,-16.37307 -15.66663,-32.827065 -20.76734,-50.214833 L 102.0976,106.27952 c -8.17025,18.49297 -16.824663,40.31175 -24.083928,51.95965 -3.048036,4.89074 -6.125847,3.7946 -4.56522,-0.85985 C 85.159404,122.45233 100.35737,84.884831 114.26599,55.523579 l 0.0322,-15.012645 c 0.0147,-6.840675 -0.46597,-13.415604 2.04238,-19.225374 1.77271,-4.105883 4.21569,-9.336181 7.34074,-4.059042 0.37146,0.62726 0.55967,7.037338 0.66069,18.250842 0.10103,11.213503 -0.33859,17.449118 1.01619,27.743736 2.33981,17.779508 12.44851,38.972614 20.55449,52.754714 13.60853,23.13775 5.1551,42.26223 0.38639,57.05941 -9.47391,29.39724 -8.47879,62.55881 -8.67432,91.64086 -0.0844,13.8134 -0.25888,16.20337 -1.32531,18.15526 -1.40215,2.56631 -1.79656,2.72694 -2.15605,1.15379 z m 73.98937,-11.08953 -3.90831,-43.93432 c -0.9375,-10.53866 -2.26324,-21.85313 -1.15122,-31.54812 1.98458,-17.3021 6.64285,-32.56316 12.21425,-48.90203 2.65815,-7.79535 3.15157,-14.96973 1.21622,-22.08348 -1.8415,-6.76881 -6.59557,-11.44269 -11.64312,-17.53022 L 193.81222,95.572735 c -8.6238,23.756365 -18.03398,50.467895 -25.71001,72.502285 -1.57184,4.51753 -4.73896,12.56811 -6.9247,12.56811 -0.40203,0 -0.96143,-2.82817 -0.29494,-7.08919 2.08395,-13.32312 6.04967,-27.21679 9.81061,-40.63321 4.32342,-15.42297 12.91992,-43.009125 14.64548,-45.766251 l 1.58929,-2.539412 C 176.8886,66.632911 169.79812,51.010196 168.46392,33.935645 c -0.47274,-7.638629 1.68639,-13.189655 4.16585,-10.710195 5.25274,12.698797 7.22229,23.160254 12.93794,36.571737 8.17794,19.18915 20.98587,35.481078 34.39078,52.834533 8.84552,11.45106 8.21352,26.47518 4.17544,38.96299 -4.40382,13.61884 -11.3722,29.14886 -12.8978,40.25967 -1.92616,14.02811 -0.51074,29.33898 0.37968,42.0442 0.80595,11.75532 2.28065,33.18091 2.31136,35.27309 0.0525,3.57039 -2.59172,15.21585 -3.45479,15.21585 -0.21701,0 -1.77162,-5.10669 -2.33964,-11.49192 z"
     style="fill:#000000;stroke-width:0.69162923" />
</svg>
