<?xml version="1.0" encoding="UTF-8" standalone="no"?>
<!-- Created with Inkscape (http://www.inkscape.org/) -->

<svg
   xmlns:dc="http://purl.org/dc/elements/1.1/"
   xmlns:cc="http://creativecommons.org/ns#"
   xmlns:rdf="http://www.w3.org/1999/02/22-rdf-syntax-ns#"
   xmlns:svg="http://www.w3.org/2000/svg"
   xmlns="http://www.w3.org/2000/svg"
   xmlns:sodipodi="http://sodipodi.sourceforge.net/DTD/sodipodi-0.dtd"
   xmlns:inkscape="http://www.inkscape.org/namespaces/inkscape"
   width="300"
   height="300"
   viewBox="0 0 300.00001 300.00001"
   id="svg2"
   version="1.1"
   inkscape:version="0.91 r13725"
   sodipodi:docname="休-oracle.svg">
  <defs
     id="defs4" />
  <sodipodi:namedview
     id="base"
     pagecolor="#ffffff"
     bordercolor="#666666"
     borderopacity="1.0"
     inkscape:pageopacity="0.0"
     inkscape:pageshadow="2"
     inkscape:zoom="1.33"
     inkscape:cx="137.94865"
     inkscape:cy="133.29041"
     inkscape:document-units="px"
     inkscape:current-layer="layer1"
     showgrid="false"
     units="px"
     inkscape:window-width="990"
     inkscape:window-height="650"
     inkscape:window-x="146"
     inkscape:window-y="22"
     inkscape:window-maximized="0" />
  <metadata
     id="metadata7">
    <rdf:RDF>
      <cc:Work
         rdf:about="">
        <dc:format>image/svg+xml</dc:format>
        <dc:type
           rdf:resource="http://purl.org/dc/dcmitype/StillImage" />
        <dc:title></dc:title>
      </cc:Work>
    </rdf:RDF>
  </metadata>
  <g
     inkscape:label="Layer 1"
     inkscape:groupmode="layer"
     id="layer1"
     transform="translate(0,-752.36208)">
    <path
       style="fill:#000000"
       d="m 89.376107,1038.9147 c -7.178648,-7.179 3.03424,-107.36838 12.478843,-122.41569 9.53122,-15.18557 12.70651,-47.11992 5.41068,-54.4158 -4.16856,-4.16857 -15.614433,7.75351 -27.773777,28.92936 -2.866588,4.99223 -7.405279,6.88347 -10.085971,4.20281 -2.680667,-2.68064 2.915275,-19.75137 12.435446,-37.93454 10.695569,-20.42805 15.998339,-38.074 13.878189,-46.18153 -4.23643,-16.20006 1.60454,-47.82162 8.833353,-47.82162 2.92839,0 5.42143,14.37588 5.54005,31.94636 0.11818,17.57047 4.12885,38.79204 8.91175,47.15899 11.14444,19.49492 11.55713,60.74121 0.76289,76.23004 -8.92386,12.80483 -15.02215,42.60024 -18.37887,89.79562 -2.174333,30.5687 -4.935783,37.5822 -12.012583,30.506 z m 87.436423,-37.8234 c 0,-40.39013 -4.71108,-44.82235 -24.31845,-22.8781 -24.33601,27.2368 -30.47634,15.2844 -7.09503,-13.81048 34.79474,-43.29719 39.13078,-79.9033 13.02939,-109.99817 -12.48708,-14.39807 -16.00012,-30.27656 -6.6982,-30.27656 2.93849,0 9.64048,6.16095 14.89315,13.69128 9.47817,13.5872 9.55376,13.52931 9.96309,-7.6063 0.22673,-11.7137 3.06672,-25.40493 6.31098,-30.42502 6.77987,-10.49118 7.70367,-6.36176 6.12675,27.38253 l -1.13761,24.3401 15.76049,-14.75198 c 13.64256,-12.76958 15.76062,-13.29647 15.76062,-3.92097 0,5.95716 -6.84588,18.96659 -15.21258,28.91026 -11.79229,14.01415 -15.21262,24.92627 -15.21262,48.53444 0,25.79884 3.25641,34.42933 21.2976,56.44636 25.68482,31.34491 28.60964,49.23211 4.23085,25.87584 -9.38681,-8.993 -18.97068,-16.351 -21.29762,-16.351 -2.32694,0 -4.23083,10.95297 -4.23083,24.34007 0,13.3871 -2.7382,24.3402 -6.08505,24.3402 -3.34667,0 -6.08493,-10.7292 -6.08493,-23.8425 z"
       id="path3475"
       inkscape:connector-curvature="0" />
  </g>
</svg>
