<?xml version="1.0" encoding="UTF-8" standalone="no"?>
<!-- Created with Inkscape (http://www.inkscape.org/) -->

<svg
   xmlns:dc="http://purl.org/dc/elements/1.1/"
   xmlns:cc="http://creativecommons.org/ns#"
   xmlns:rdf="http://www.w3.org/1999/02/22-rdf-syntax-ns#"
   xmlns:svg="http://www.w3.org/2000/svg"
   xmlns="http://www.w3.org/2000/svg"
   xmlns:sodipodi="http://sodipodi.sourceforge.net/DTD/sodipodi-0.dtd"
   xmlns:inkscape="http://www.inkscape.org/namespaces/inkscape"
   width="300"
   height="300"
   id="svg2"
   version="1.1"
   inkscape:version="0.48.2 r9819"
   sodipodi:docname="å‹-bronze.svg">
  <defs
     id="defs4" />
  <sodipodi:namedview
     id="base"
     pagecolor="#ffffff"
     bordercolor="#666666"
     borderopacity="1.0"
     inkscape:pageopacity="0.0"
     inkscape:pageshadow="2"
     inkscape:zoom="1.979899"
     inkscape:cx="89.221356"
     inkscape:cy="165.12851"
     inkscape:document-units="px"
     inkscape:current-layer="layer1"
     showgrid="false"
     inkscape:window-width="1280"
     inkscape:window-height="999"
     inkscape:window-x="0"
     inkscape:window-y="24"
     inkscape:window-maximized="1" />
  <metadata
     id="metadata7">
    <rdf:RDF>
      <cc:Work
         rdf:about="">
        <dc:format>image/svg+xml</dc:format>
        <dc:type
           rdf:resource="http://purl.org/dc/dcmitype/StillImage" />
        <dc:title></dc:title>
      </cc:Work>
    </rdf:RDF>
  </metadata>
  <g
     inkscape:label="Calque 1"
     inkscape:groupmode="layer"
     id="layer1"
     transform="translate(0,-752.36218)">
    <path
       style="fill:#000000"
       d="m 134.99037,1016.3699 c -5.54626,-3.8795 -11.84576,-10.0588 -13.99889,-13.7319 -15.24057,-19.58336 -18.62183,-67.41469 -23.630951,-85.04558 -7.527242,0.61222 -19.332039,9.52941 -28.201654,8.7132 -19.660003,-1.67954 -35.561963,-8.97061 -35.561963,-16.30521 0,-1.67266 9.857454,-3.0874 21.905453,-3.14386 21.991578,-0.10307 30.213932,-3.73747 30.213932,-13.35501 0,-5.91882 -6.914091,-14.89828 -11.47152,-14.89828 -4.781948,0 -31.250581,-16.58563 -33.543654,-21.01894 -1.438151,-2.78044 4.657555,-3.19525 21.918958,-1.49155 22.467286,2.21753 23.779276,1.97607 21.727408,-3.99873 -2.707628,-12.44773 -12.887439,-27.11856 -24.006574,-29.89476 -7.665792,-1.83193 -20.95296,-12.94358 -20.95296,-17.52231 0,-1.20396 5.386513,-2.18902 11.970027,-2.18902 26.63858,0 48.110502,15.10494 54.099578,38.05765 1.73782,6.66009 5.98711,34.68437 9.44287,62.27617 6.52787,52.12057 13.67325,76.63152 27.55373,94.51817 3.82999,4.93536 6.96361,10.46856 6.96361,12.29586 0,1.8274 1.53368,3.9334 3.40817,4.68 4.1796,1.6647 0.4857,9.6939 -4.30294,9.353 -1.89668,-0.135 -7.98637,-3.4195 -13.53263,-7.2989 z m 91.75434,-28.24484 c -11.65394,-15.74077 -24.97561,-47.74803 -25.20756,-68.16715 0,-7.16235 -4.24051,-9.09374 -7.2388,-3.29699 -3.09229,5.97848 -27.16163,3.81122 -39.20489,-3.53011 -17.07181,-10.40663 -14.83385,-15.17508 5.90639,-12.58485 12.40246,1.67137 33.86747,-3.65432 34.74626,-18.61866 0,-1.13073 -9.82442,-5.65771 -21.83205,-10.05994 -28.10035,-10.30215 -27.07351,-16.12501 2.58448,-14.65573 l 22.14309,1.09698 0,-9.84157 c -1.41164,-15.80267 -15.45919,-31.91797 -30.76421,-32.13994 -8.45664,0 -18.45965,-5.69039 -18.45965,-10.50109 0,-1.83594 8.34627,-3.33806 18.54726,-3.33806 21.62322,0 39.55848,9.43033 45.28354,23.81001 2.03049,5.09999 4.18606,28.71127 4.93312,54.03519 0.29345,40.08686 5.56653,75.96377 28.91203,104.77388 11.72848,14.08612 11.89429,18.04857 0.7552,18.04857 -6.43527,0 -11.93462,-3.91668 -21.10421,-15.03054 z"
       id="path3064"
       inkscape:connector-curvature="0"
       sodipodi:nodetypes="scccssssssccssssssscsccssccsscccsssccsc" />
  </g>
</svg>
