<?xml version="1.0" encoding="UTF-8" standalone="no"?>
<svg
   xmlns:dc="http://purl.org/dc/elements/1.1/"
   xmlns:cc="http://creativecommons.org/ns#"
   xmlns:rdf="http://www.w3.org/1999/02/22-rdf-syntax-ns#"
   xmlns:svg="http://www.w3.org/2000/svg"
   xmlns="http://www.w3.org/2000/svg"
   viewBox="0 0 300 300"
   height="300"
   width="300"
   id="svg10"
   version="1.1">
  <metadata
     id="metadata16">
    <rdf:RDF>
      <cc:Work
         rdf:about="">
        <dc:format>image/svg+xml</dc:format>
        <dc:type
           rdf:resource="http://purl.org/dc/dcmitype/StillImage" />
        <dc:title></dc:title>
      </cc:Work>
    </rdf:RDF>
  </metadata>
  <defs
     id="defs14" />
  <path
     id="path20"
     d="m 147.04934,241.43915 5.30374,-35.4879 c 0,0 -40.18236,11.89422 -46.7946,20.17409 -1.40988,1.76546 -2.38667,2.32517 -4.06531,2.32518 -4.1477,5e-5 -5.928391,-4.81086 -5.891947,-15.91811 0.02736,-8.33838 1.398492,-15.78357 3.722515,-20.21319 8.868012,-16.94781 29.639082,-17.57648 39.994052,-27.99333 5.16858,-5.19947 8.36499,-13.65952 10.49082,-22.53373 1.56357,-6.78806 3.8745,-23.51284 3.8745,-23.51284 -9.57464,0.81512 -16.45543,1.35968 -25.39309,2.2917 -0.83913,6.20813 -2.8178,24.05211 -5.50952,24.13629 -1.91146,0.0495 -2.71302,-3.53364 -2.08231,-10.25359 0.61687,-6.57254 1.1894,-12.95313 1.1894,-12.95313 -4.6808,0.83143 -11.14826,6.16318 -14.23845,4.24628 -6.68239,-4.14522 11.72532,-11.2608 14.98277,-11.92215 1.76161,-10.87745 4.83563,-20.017992 11.13738,-26.215022 7.50267,-7.377999 16.78398,-13.433619 23.95135,-17.540101 l 0.9019,-34.398358 c 0.39782,-15.172943 0.86255,-17.432754 1.71813,-19.270974 1.89954,-4.081165 4.78348,1.879485 5.36123,3.678997 0.43442,1.353085 0.99014,11.3279 1.28814,22.149683 0.51997,18.881586 0.44268,23.302726 0.44268,23.302726 0,0 20.31953,-9.237961 28.04016,-12.746676 5.62066,-2.54468 8.96944,-2.624055 8.92603,-0.9911 -0.13131,4.940087 -3.08639,6.585461 -6.04808,9.009192 -0.39304,12.542335 -1.61907,26.805371 -6.10211,38.433087 -5.07422,13.161076 -18.05459,15.947876 -28.71127,17.821426 -2.72332,17.5376 -6.27751,46.04821 -18.61341,56.58553 -8.17416,6.60191 -19.83893,8.61024 -27.78957,13.30546 -14.071,8.30956 -13.32734,14.92118 -14.46929,28.21285 20.83861,-8.94325 56.36874,-19.23921 56.36874,-19.23921 4.39815,-0.75138 2.99182,3.43143 1.81952,5.89906 l -11.46592,69.53905 c -1.54288,9.49855 -2.9364,13.57669 -3.9882,13.63863 -4.00159,0.23565 1.09928,-39.87477 1.65002,-43.55982 z m 7.77052,-131.5511 c 1.72877,-10.803837 1.93742,-20.094391 2.3538,-30.24792 0,0 -10.58054,5.439438 -16.3579,10.391852 -7.28678,6.246303 -9.94517,12.612438 -11.43338,23.035348 z m 29.70762,-11.397627 c 6.79013,-10.195886 6.17705,-33.890973 6.17705,-33.890973 l -23.78895,10.182361 c -0.17781,12.470621 -0.947,24.408076 -2.18302,34.251219 12.18877,-1.23805 16.21872,-5.17267 19.79492,-10.542607 z"
     style="fill:#000000;stroke-width:0.69209278" />
</svg>
