<?xml version="1.0" encoding="UTF-8" standalone="no"?>
<!-- Created with Inkscape (http://www.inkscape.org/) -->

<svg
   xmlns:dc="http://purl.org/dc/elements/1.1/"
   xmlns:cc="http://creativecommons.org/ns#"
   xmlns:rdf="http://www.w3.org/1999/02/22-rdf-syntax-ns#"
   xmlns:svg="http://www.w3.org/2000/svg"
   xmlns="http://www.w3.org/2000/svg"
   xmlns:sodipodi="http://sodipodi.sourceforge.net/DTD/sodipodi-0.dtd"
   xmlns:inkscape="http://www.inkscape.org/namespaces/inkscape"
   width="300"
   height="300"
   id="svg2"
   version="1.1"
   inkscape:version="0.48.3.1 r9886"
   sodipodi:docname="好-.svg">
  <defs
     id="defs4" />
  <sodipodi:namedview
     id="base"
     pagecolor="#ffffff"
     bordercolor="#666666"
     borderopacity="1.0"
     inkscape:pageopacity="0.0"
     inkscape:pageshadow="2"
     inkscape:zoom="1.979899"
     inkscape:cx="131.26344"
     inkscape:cy="173.2831"
     inkscape:document-units="px"
     inkscape:current-layer="layer1"
     showgrid="false"
     inkscape:window-width="1215"
     inkscape:window-height="1000"
     inkscape:window-x="65"
     inkscape:window-y="24"
     inkscape:window-maximized="1" />
  <metadata
     id="metadata7">
    <rdf:RDF>
      <cc:Work
         rdf:about="">
        <dc:format>image/svg+xml</dc:format>
        <dc:type
           rdf:resource="http://purl.org/dc/dcmitype/StillImage" />
        <dc:title></dc:title>
      </cc:Work>
    </rdf:RDF>
  </metadata>
  <g
     inkscape:label="Calque 1"
     inkscape:groupmode="layer"
     id="layer1"
     transform="translate(0,-752.36218)">
    <path
       style="fill:#000000"
       d="m 203.18049,1029.5983 c -0.1872,-1.9899 -0.79032,-14.0384 -1.3403,-26.7743 -2.14648,-49.70763 -1.09817,-45.47511 -10.32373,-41.68096 -4.5308,1.86334 -11.63044,5.81677 -15.77703,8.78543 -4.14656,2.96862 -9.62087,5.39751 -12.16512,5.39751 -2.54424,0 -5.19087,0.97691 -5.88145,2.17089 -1.84432,3.18888 -37.73659,23.87983 -41.42391,23.87983 -3.69019,0 -4.3248,-50.23272 -0.6701,-53.04119 1.36317,-1.04751 4.67009,-0.50684 7.34873,1.20151 3.62005,2.30874 9.20149,0.81618 21.74203,-5.81415 9.27943,-4.90616 18.50581,-8.92026 20.50306,-8.92026 1.99725,0 8.68636,-3.62872 14.86474,-8.06379 10.18632,-7.31222 11.18894,-9.6729 10.75671,-25.32712 -0.52888,-19.15532 -7.35046,-26.24622 -9.16197,-9.52365 -0.63356,5.84879 -3.59982,12.19534 -6.5917,14.1034 -4.58368,2.92331 -5.43974,1.69325 -5.43974,-7.8161 l 0,-11.28539 -16.00842,1.12567 c -21.1067,1.4842 -25.36871,4.62039 -25.7117,18.91976 -0.339,14.14217 -7.56905,30.95692 -12.89684,29.99474 -2.25914,-0.40799 -3.39856,-11.39046 -2.8469,-27.44052 l 0.91983,-26.76027 -19.753258,0.25819 c -20.361428,0.26629 -51.078155,-7.29132 -40.469997,-9.95724 3.107516,-0.78094 17.332597,-2.14911 31.611277,-3.04043 14.27868,-0.89128 26.782838,-2.25185 27.786958,-3.02347 2.93775,-2.25756 7.22496,-23.16064 5.54472,-27.03428 -0.8454,-1.94891 -4.9069,-3.54344 -9.02559,-3.54344 -13.559015,0 -18.197652,-6.72361 -15.721734,-22.78831 1.851816,-12.01531 1.136146,-15.05224 -3.896863,-16.53638 -16.367082,-4.82639 4.633439,-12.77679 33.749207,-12.77679 23.97142,0 42.95262,6.33089 42.95262,14.32615 0,9.82925 -8.93066,36.27196 -12.99224,38.46857 -2.17681,1.17726 -6.36483,1.45878 -9.30673,0.62558 -7.53767,-2.1348 -11.47642,3.96164 -11.54354,17.86714 -0.0557,11.58988 0.40925,12.04074 15.45185,14.97486 18.81031,3.66904 25.90566,1.96246 25.98076,-6.24887 0.0629,-6.88852 7.04175,-22.9633 14.32381,-32.99311 2.60692,-3.59064 5.67444,-17.26728 6.81668,-30.39254 1.14225,-13.12525 2.80095,-24.42852 3.68597,-25.11838 4.49562,-3.5042 11.05331,7.63107 12.75148,21.6526 l 1.91555,15.81655 11.0437,-7.31864 c 6.07404,-4.02523 12.76164,-6.87854 14.86138,-6.34071 6.08301,1.55818 10.16957,16.94892 7.84503,29.54596 -4.81333,26.08405 -5.10989,26.50196 -22.77821,32.10102 -18.34809,5.81444 -21.62229,10.56798 -20.03105,29.08124 2.14042,24.90266 -0.27007,44.46795 -5.47853,44.46795 -6.18968,0 -52.74563,17.92045 -54.51823,20.98532 -0.69059,1.19399 -4.61175,2.17088 -8.7137,2.17088 -6.14208,0 -7.24986,1.65584 -6.27783,9.38352 1.55135,12.33322 9.34417,13.01054 25.23255,2.19318 7.01368,-4.7752 13.79372,-8.70714 15.06674,-8.73768 1.27303,-0.0304 9.0761,-4.58945 17.34017,-10.13085 8.26407,-5.54142 17.97809,-10.07532 21.58669,-10.07532 6.54647,0 13.08348,11.77752 9.21012,16.59356 -1.08372,1.3475 -2.37927,16.72634 -2.87899,34.17521 -0.49973,17.44882 -1.66533,34.00462 -2.5902,36.79062 -1.92949,5.8121 -8.16821,6.8528 -8.67676,1.4473 z m 21.75609,-182.13602 c 6.54721,-4.72661 8.7178,-9.46018 8.7178,-19.01153 l 0,-12.71791 -11.29105,6.17834 c -6.2101,3.39808 -12.30016,9.67381 -13.53352,13.94608 -1.23333,4.2723 -3.04661,10.04722 -4.02949,12.83321 -2.55924,7.25403 9.39694,6.52477 20.13626,-1.22819 z m -74.28279,-43.94666 c 0.10848,-6.72725 -1.09592,-7.89601 -6.45821,-6.26642 -3.62544,1.10174 -12.10049,2.71408 -18.83344,3.58294 -10.93047,1.41052 -12.24173,2.60559 -12.24173,11.15712 0,8.9778 0.88427,9.63361 14.12508,10.47572 16.04085,1.02024 23.17928,-4.75843 23.4083,-18.94936 z"
       id="path3056"
       inkscape:connector-curvature="0" />
  </g>
</svg>
