<?xml version="1.0" encoding="UTF-8" standalone="no"?>
<svg
   xmlns:dc="http://purl.org/dc/elements/1.1/"
   xmlns:cc="http://creativecommons.org/ns#"
   xmlns:rdf="http://www.w3.org/1999/02/22-rdf-syntax-ns#"
   xmlns:svg="http://www.w3.org/2000/svg"
   xmlns="http://www.w3.org/2000/svg"
   version="1.1"
   id="svg10"
   width="300"
   height="300"
   viewBox="0 0 300 300">
  <metadata
     id="metadata16">
    <rdf:RDF>
      <cc:Work
         rdf:about="">
        <dc:format>image/svg+xml</dc:format>
        <dc:type
           rdf:resource="http://purl.org/dc/dcmitype/StillImage" />
        <dc:title></dc:title>
      </cc:Work>
    </rdf:RDF>
  </metadata>
  <defs
     id="defs14" />
  <path
     style="fill:#000000;stroke-width:0.70045716"
     d="m 138.46208,269.34118 c 1.46703,-11.60192 3.39431,-22.24639 4.54513,-33.47473 1.79016,-17.46623 3.73385,-34.67597 3.46418,-51.87232 -12.45648,-0.81532 -25.41494,-3.78356 -34.30391,-12.01649 -14.918654,-13.81762 -23.449259,-35.94604 -24.513952,-55.86146 0.04638,-4.05635 8.393196,6.28725 11.926171,13.50493 5.774811,11.79762 13.359361,24.13625 24.387871,31.56203 6.36407,4.28509 13.85632,6.65758 22.1689,6.18964 -0.43338,-21.67171 -1.52287,-43.13011 -4.55442,-65.16729 -14.8522,0.81548 -39.09508,1.76106 -49.121459,-14.994604 -0.953985,-1.594259 -2.002722,-8.927245 -2.436641,-13.46916 -1.555776,-16.284558 -4.335381,-45.37467 -0.565627,-49.072858 10.054224,-9.863355 40.871497,-9.641982 61.299057,-9.668773 39.518,-0.05183 34.69254,20.992932 37.07861,65.217657 0.40802,7.562332 -16.53407,14.328332 -29.90163,18.471882 l 4.434,66.253386 c 22.55314,-9.2274 35.62351,-31.22389 40.49718,-54.68735 0.9124,-4.39258 2.64775,-6.27608 6.73809,-5.83433 3.15168,0.34038 4.38976,22.8098 -0.1313,32.91371 -10.38808,23.2158 -24.5712,34.5553 -47.24742,44.00172 -4.8e-4,19.42093 -1.58128,38.47311 -3.6806,55.41661 -2.20592,17.8037 -6.21154,37.13441 -13.48302,44.6112 -10.03795,10.32136 -7.64203,-3.77627 -6.59921,-12.0234 z M 173.0448,79.54259 169.17144,32.387445 C 147.62787,29.191659 120.51877,29.100713 99.889807,36.03066 l 4.628643,42.435951 c 12.58304,18.360244 50.67433,9.243934 68.52635,1.075979 z"
     id="path20" />
</svg>
