<?xml version="1.0" encoding="UTF-8" standalone="no"?>
<!-- Created with Inkscape (http://www.inkscape.org/) -->
<svg
   xmlns:svg="http://www.w3.org/2000/svg"
   xmlns="http://www.w3.org/2000/svg"
   version="1.0"
   width="300"
   height="300"
   id="svg2">
  <defs
     id="defs5" />
  <path
     d="M 223.47027,264.59592 C 219.71932,255.57013 216.65036,245.51781 216.65036,242.25745 C 216.65036,233.36227 207.43599,235.06022 197.11834,245.85665 C 190.40205,252.88461 185.10523,255.38379 176.92632,255.38379 C 170.82827,255.38379 165.83895,253.95472 165.83895,252.20808 C 165.83895,250.46144 166.91075,249.01973 168.22074,249.0043 C 169.53072,248.98886 178.94193,241.43544 189.13453,232.21891 C 207.18863,215.89374 207.61083,215.13692 205.50579,202.87164 C 204.31738,195.94715 202.08708,185.99446 200.54956,180.75453 C 199.01206,175.51461 196.94427,163.3552 195.95449,153.73362 C 193.19897,126.94734 191.74738,126.08109 171.41338,139.08859 C 161.75547,145.26668 151.90578,152.2196 149.52518,154.53951 C 147.14458,156.85943 136.36884,164.91298 125.57909,172.43628 C 108.50936,184.3384 104.95082,188.6542 98.180968,205.66477 C 93.901758,216.41713 89.119148,229.50173 87.552948,234.74166 C 82.146978,252.82803 78.510908,244.41527 77.601818,211.71774 C 77.096588,193.54607 75.342998,179.16668 73.632178,179.16668 C 71.946638,179.16668 70.567558,180.40522 70.567558,181.91899 C 70.567558,185.19244 40.195848,198.253 32.829438,198.14727 C 26.827898,198.06113 46.600258,179.24698 64.842598,167.68553 C 75.718848,160.7925 83.189708,146.44307 83.252698,132.32491 C 83.279378,126.34599 74.269308,127.5482 63.942608,134.90146 C 58.886308,138.50186 49.734008,142.26152 43.604168,143.25626 C 26.774098,145.9874 29.421018,137.83432 48.386948,128.5243 C 57.092998,124.25065 64.216128,119.95502 64.216128,118.97845 C 64.216128,118.00188 68.503348,115.30517 73.743268,112.98575 C 80.255728,110.10305 83.270408,106.50811 83.270408,101.62481 C 83.270408,91.239716 81.713578,90.757179 63.473168,95.48868 C 43.021088,100.79388 38.808208,100.8478 38.818618,95.80421 C 38.823128,93.620907 49.870068,86.118285 63.367378,79.131716 C 86.606048,67.102756 88.151448,65.628619 92.498148,51.344227 C 95.022768,43.047676 98.216258,36.25959 99.594798,36.25959 C 105.42412,36.25959 109.3711,50.838275 107.7622,66.427012 C 106.82996,75.459502 107.0162,84.3852 108.17606,86.261897 C 109.33592,88.138591 119.56915,91.301992 130.91657,93.291674 C 179.83142,101.86852 185.871,102.72011 188.084,101.3524 C 189.36706,100.55943 189.23626,93.806305 187.79334,86.345459 C 186.35041,78.884617 185.1076,61.704991 185.03153,48.168514 C 184.90569,25.773859 185.45532,23.556737 191.13292,23.556737 C 198.65719,23.556737 203.03357,31.013537 205.85137,48.635086 C 208.32382,64.096941 211.6405,67.128826 218.53746,60.231863 C 221.29522,57.474109 228.78688,51.317576 235.1856,46.550672 C 241.58432,41.783772 247.81373,36.487766 249.02875,34.78177 C 250.24376,33.075774 252.22367,32.665778 253.42856,33.870666 C 256.5322,36.974298 248.71367,47.943378 228.1233,69.372937 C 216.72517,81.235604 210.29893,90.632393 210.29893,95.436659 C 210.29893,102.60563 211.29493,102.94956 232.05504,102.94956 C 282.32267,102.94956 290.01248,120.79651 240.54459,122.6526 L 215.51623,123.5917 L 216.25293,145.82169 C 216.65811,158.04819 218.54416,173.05343 220.44415,179.16668 C 222.34414,185.27992 224.40552,192.16952 225.02498,194.47689 C 225.88357,197.67493 228.23024,197.23163 234.8976,192.61188 C 258.08617,176.54475 263.10836,187.52106 241.89427,207.90354 C 230.78241,218.57982 229.50667,221.15524 232.53088,226.80602 C 237.30193,235.72081 238.31237,278.1819 233.79134,279.77372 C 231.8657,280.45173 227.22122,273.62172 223.47027,264.59592 z M 116.82277,160.90633 C 120.21549,157.8497 131.56025,148.92162 142.03336,141.06614 C 171.45552,118.99771 171.28647,117.91902 137.83703,114.28965 C 126.80257,113.09238 115.85638,111.37679 113.51215,110.47722 C 108.17469,108.42904 106.37918,114.43725 103.66148,143.43991 C 101.3144,168.4874 104.18284,172.29411 116.82277,160.90633 z "
     style="fill:black;fill-opacity:1"
     id="path1875" />
</svg>
