<?xml version="1.0" encoding="UTF-8" standalone="no"?>
<svg
   xmlns:dc="http://purl.org/dc/elements/1.1/"
   xmlns:cc="http://creativecommons.org/ns#"
   xmlns:rdf="http://www.w3.org/1999/02/22-rdf-syntax-ns#"
   xmlns:svg="http://www.w3.org/2000/svg"
   xmlns="http://www.w3.org/2000/svg"
   viewBox="0 0 300 300"
   height="300"
   width="300"
   id="svg412"
   version="1.1">
  <metadata
     id="metadata418">
    <rdf:RDF>
      <cc:Work
         rdf:about="">
        <dc:format>image/svg+xml</dc:format>
        <dc:type
           rdf:resource="http://purl.org/dc/dcmitype/StillImage" />
        <dc:title></dc:title>
      </cc:Work>
    </rdf:RDF>
  </metadata>
  <defs
     id="defs416" />
  <path
     id="path422"
     d="m 129.97506,284.48102 c 0.031,-3.31219 4.3013,-12.91049 6.95157,-20.31419 7.55892,-21.1164 12.70011,-37.03837 13.39456,-60.04831 -9.57791,-1.0971 -20.33248,-3.95198 -26.60662,-7.36939 -14.2854,-7.78101 -32.941492,-22.83422 -33.866796,-39.80736 -0.902812,-16.56058 8.962683,-11.67807 13.706396,-3.75804 14.26353,23.86091 20.64434,32.73135 45.73388,36.97876 -2.97431,-20.37453 -7.62602,-38.94547 -12.08105,-59.35787 -4.63283,-2.97704 -6.73109,-4.30783 -14.37942,-8.49387 C 95.783414,107.50907 84.561711,85.843058 83.994803,55.790537 c -0.03496,-4.395185 -0.572009,-8.013133 4.043398,-8.344567 5.040724,-1.144178 6.761828,10.65371 7.755751,15.374944 4.088473,19.420667 12.070348,31.797331 17.866148,37.882266 5.74724,6.03395 12.24952,10.13168 19.77989,13.08217 -2.06702,-14.799355 -4.67696,-30.926408 -2.20226,-43.346551 2.34767,-11.782659 3.07334,-12.822465 31.25919,-34.05633 13.51243,-10.179616 25.5977,-19.508117 27.11627,-20.304242 8.6068,-4.512198 9.03703,6.240988 6.84799,11.904409 -1.68026,4.347124 -7.71612,6.374107 -12.52977,8.577532 -8.43858,3.86271 -12.69297,6.3063 -18.27003,10.493762 -18.50124,15.603869 -25.41206,25.354981 -21.04761,50.955085 0.68236,4.002415 0.97931,6.299935 2.722,16.018325 12.82978,-2.50006 25.74244,-13.38551 34.53878,-20.440485 3.75953,-3.015276 17.52571,-12.44892 19.00054,-6.738669 0.43709,1.692309 0.12413,3.902282 -13.24709,15.578464 -13.9968,12.22246 -16.3793,13.76492 -36.37383,29.11349 3.58774,18.04048 7.53436,35.61015 11.33274,52.84933 15.30161,-11.81214 22.69854,-17.59721 40.80957,-33.36134 3.92666,-3.41783 6.94535,-4.92109 10.07061,-4.32254 2.48911,4.51213 3.45893,12.49987 1.61985,14.07011 -17.4082,14.86344 -34.55652,30.0336 -52.02004,44.83216 -0.2838,10.55477 -1.79041,22.49019 -3.37637,31.64022 -3.21016,14.27467 -11.42345,40.97063 -23.11713,46.45114 -2.81625,1.3199 -6.60722,1.73363 -6.59832,0.7818 z"
     style="fill:#000000;stroke-width:0.69205779" />
</svg>
