<?xml version="1.0" encoding="UTF-8" standalone="no"?>
<!-- Created with Inkscape (http://www.inkscape.org/) -->

<svg
   width="300"
   height="300"
   viewBox="0 0 79.374998 79.375002"
   version="1.1"
   id="svg5"
   inkscape:version="1.1 (c68e22c387, 2021-05-23)"
   sodipodi:docname="绘图-1 - 副本.svg"
   xmlns:inkscape="http://www.inkscape.org/namespaces/inkscape"
   xmlns:sodipodi="http://sodipodi.sourceforge.net/DTD/sodipodi-0.dtd"
   xmlns="http://www.w3.org/2000/svg"
   xmlns:svg="http://www.w3.org/2000/svg"
   xmlns:rdf="http://www.w3.org/1999/02/22-rdf-syntax-ns#">
  <sodipodi:namedview
     id="namedview7"
     pagecolor="#ffffff"
     bordercolor="#666666"
     borderopacity="1.0"
     inkscape:pageshadow="2"
     inkscape:pageopacity="0.0"
     inkscape:pagecheckerboard="0"
     inkscape:document-units="px"
     showgrid="false"
     units="px"
     width="300px"
     inkscape:zoom="1.2350798"
     inkscape:cx="191.89044"
     inkscape:cy="76.513275"
     inkscape:window-width="1280"
     inkscape:window-height="778"
     inkscape:window-x="-6"
     inkscape:window-y="-6"
     inkscape:window-maximized="1"
     inkscape:current-layer="layer1"
     showguides="false"
     inkscape:lockguides="false" />
  <defs
     id="defs2">
    <inkscape:perspective
       sodipodi:type="inkscape:persp3d"
       inkscape:vp_x="0 : 39.687501 : 1"
       inkscape:vp_y="0 : 1000 : 0"
       inkscape:vp_z="79.374998 : 39.687501 : 1"
       inkscape:persp3d-origin="39.687499 : 26.458334 : 1"
       id="perspective29286" />
    <pattern
       id="EMFhbasepattern"
       patternUnits="userSpaceOnUse"
       width="6"
       height="6"
       x="0"
       y="0" />
    <pattern
       id="EMFhbasepattern-3"
       patternUnits="userSpaceOnUse"
       width="6"
       height="6"
       x="0"
       y="0" />
    <pattern
       id="EMFhbasepattern-9"
       patternUnits="userSpaceOnUse"
       width="6"
       height="6"
       x="0"
       y="0" />
    <pattern
       id="EMFhbasepattern-98"
       patternUnits="userSpaceOnUse"
       width="6"
       height="6"
       x="0"
       y="0" />
    <pattern
       id="EMFhbasepattern-6"
       patternUnits="userSpaceOnUse"
       width="6"
       height="6"
       x="0"
       y="0" />
    <pattern
       id="EMFhbasepattern-69"
       patternUnits="userSpaceOnUse"
       width="6"
       height="6"
       x="0"
       y="0" />
    <pattern
       id="EMFhbasepattern-36"
       patternUnits="userSpaceOnUse"
       width="6"
       height="6"
       x="0"
       y="0" />
    <pattern
       id="EMFhbasepattern-60"
       patternUnits="userSpaceOnUse"
       width="6"
       height="6"
       x="0"
       y="0" />
    <pattern
       id="EMFhbasepattern-5"
       patternUnits="userSpaceOnUse"
       width="6"
       height="6"
       x="0"
       y="0" />
    <pattern
       id="EMFhbasepattern-981"
       patternUnits="userSpaceOnUse"
       width="6"
       height="6"
       x="0"
       y="0" />
    <pattern
       id="EMFhbasepattern-980"
       patternUnits="userSpaceOnUse"
       width="6"
       height="6"
       x="0"
       y="0" />
    <pattern
       id="EMFhbasepattern-2"
       patternUnits="userSpaceOnUse"
       width="6"
       height="6"
       x="0"
       y="0" />
    <pattern
       id="EMFhbasepattern-7"
       patternUnits="userSpaceOnUse"
       width="6"
       height="6"
       x="0"
       y="0" />
    <pattern
       id="EMFhbasepattern-0"
       patternUnits="userSpaceOnUse"
       width="6"
       height="6"
       x="0"
       y="0" />
    <pattern
       id="EMFhbasepattern-01"
       patternUnits="userSpaceOnUse"
       width="6"
       height="6"
       x="0"
       y="0" />
    <pattern
       id="EMFhbasepattern-61"
       patternUnits="userSpaceOnUse"
       width="6"
       height="6"
       x="0"
       y="0" />
    <pattern
       id="EMFhbasepattern-93"
       patternUnits="userSpaceOnUse"
       width="6"
       height="6"
       x="0"
       y="0" />
    <pattern
       id="EMFhbasepattern-8"
       patternUnits="userSpaceOnUse"
       width="6"
       height="6"
       x="0"
       y="0" />
    <pattern
       id="EMFhbasepattern-38"
       patternUnits="userSpaceOnUse"
       width="6"
       height="6"
       x="0"
       y="0" />
    <pattern
       id="EMFhbasepattern-71"
       patternUnits="userSpaceOnUse"
       width="6"
       height="6"
       x="0"
       y="0" />
    <pattern
       id="EMFhbasepattern-06"
       patternUnits="userSpaceOnUse"
       width="6"
       height="6"
       x="0"
       y="0" />
    <pattern
       id="EMFhbasepattern-51"
       patternUnits="userSpaceOnUse"
       width="6"
       height="6"
       x="0"
       y="0" />
    <pattern
       id="EMFhbasepattern-80"
       patternUnits="userSpaceOnUse"
       width="6"
       height="6"
       x="0"
       y="0" />
    <pattern
       id="EMFhbasepattern-85"
       patternUnits="userSpaceOnUse"
       width="6"
       height="6"
       x="0"
       y="0" />
  </defs>
  <g
     inkscape:label="图层 1"
     inkscape:groupmode="layer"
     id="layer1">
    <path
       style="fill:#000000;stroke-width:0.816267"
       d="m 39.938787,77.37844 c -0.228983,-0.370504 -0.861528,-4.77835 -1.405655,-9.795213 -0.544126,-5.016863 -1.320356,-9.12157 -1.724955,-9.12157 -0.4046,0 -3.694008,2.938565 -7.309796,6.530142 -5.98219,5.942138 -8.830031,7.804071 -8.830031,5.773119 0,-0.416363 0.8356,-1.426493 1.856889,-2.244736 4.541908,-4.265989 7.235124,-9.249462 11.93444,-13.680378 0.98952,-0.93619 2.643862,-2.386406 2.643862,-2.386406 0,0 -0.109843,-2.779451 -0.109843,-6.297629 V 39.869186 L 33.97066,39.302061 c -3.707705,-0.695571 -8.359841,-3.006077 -10.142873,-5.03751 -2.053543,-2.339627 -3.978468,-6.539048 -3.949911,-8.617134 -0.0186,-0.950747 0.211531,-1.251876 0.582755,-1.140862 1.185008,0.354379 3.807793,4.908491 4.367597,5.937852 1.472049,2.706787 5.453434,4.882112 9.716676,5.293921 l 2.856937,0.275967 -0.243136,-4.897606 c -0.239066,-4.815641 -0.466945,-8.81715 -0.466945,-8.81715 0,0 -2.5045,-0.763625 -4.359268,-1.2597 C 27.038171,19.623823 22.071219,14.512998 20.347107,8.7072815 18.877505,3.7585935 19.79907,1.3017405 21.526562,5.5629095 24.106544,11.926901 28.959353,16.776575 33.9327,17.961033 l 2.244735,0.534608 V 9.9092795 c 0,-6.865002 0.231904,-8.586363 1.156764,-8.586363 1.400955,0 2.924576,6.445815 2.924576,12.3726825 0,2.32769 -0.03542,4.272321 -0.03542,4.272321 0,0 1.316653,-0.464239 2.275582,-0.704916 4.020988,-1.009206 6.372299,-4.315735 7.415826,-10.4285025 0.313849,-1.838447 1.072051,-3.509772 1.684899,-3.714055 0.885751,-0.29525 1.039921,0.656408 0.751748,4.640367 C 51.924372,13.66454 50.366497,16.17231 44.941422,19.68894 l -3.777746,2.448804 -0.04433,6.190029 c -0.02437,3.404518 0.149167,7.474263 0.149167,7.474263 0,0 3.838119,-1.428197 6.675682,-4.102815 2.710636,-2.55498 5.392122,-5.778198 6.201095,-7.928943 0.823589,-2.189603 1.008262,-2.293024 1.744722,-0.977072 1.930544,3.449613 -2.893242,10.782589 -9.572815,14.552306 -2.43422,1.373789 -4.778965,2.398159 -4.778965,2.398159 0,0 0.126696,8.837445 0.578607,13.824505 l 4.988898,4.847507 c 2.743892,2.666129 6.733668,6.473734 8.866168,8.461345 4.785368,4.460237 5.069654,6.102668 0.667584,3.8569 C 54.87416,69.833324 53.193622,68.714323 52.90496,68.24726 52.143794,67.015659 42.736575,59.277926 42.000416,59.277926 c -0.342311,0 -0.478543,4.224185 -0.302735,9.387078 0.205502,6.034957 0.02286,9.387079 -0.511465,9.387079 -0.457113,0 -1.018466,-0.303139 -1.24745,-0.673643 z"
       id="path36613"
       sodipodi:nodetypes="ssssscccscsscssscscsssscssscssssscccssssccsssssssss" />
  </g>
  <g
     inkscape:groupmode="layer"
     id="layer2"
     inkscape:label="图层 2" />
  <metadata
     id="metadata822">
    <rdf:RDF />
  </metadata>
</svg>
