<?xml version="1.0" encoding="UTF-8" standalone="no"?>
<svg
   xmlns:dc="http://purl.org/dc/elements/1.1/"
   xmlns:cc="http://creativecommons.org/ns#"
   xmlns:rdf="http://www.w3.org/1999/02/22-rdf-syntax-ns#"
   xmlns:svg="http://www.w3.org/2000/svg"
   xmlns="http://www.w3.org/2000/svg"
   version="1.1"
   id="svg342"
   width="300"
   height="300"
   viewBox="0 0 300 300">
  <metadata
     id="metadata348">
    <rdf:RDF>
      <cc:Work
         rdf:about="">
        <dc:format>image/svg+xml</dc:format>
        <dc:type
           rdf:resource="http://purl.org/dc/dcmitype/StillImage" />
        <dc:title></dc:title>
      </cc:Work>
    </rdf:RDF>
  </metadata>
  <defs
     id="defs346" />
  <path
     style="fill:#000000;stroke-width:0.91092098"
     d="m 182.13551,284.48841 c -46.74206,-14.12194 -45.4805,-54.00805 -51.89268,-105.05175 -0.77487,-15.59008 -1.85469,-23.47572 -3.56987,-36.79199 -1.4608,-11.34136 -7.41654,-16.96925 -14.55062,-23.52935 -9.4762,-8.71377 -17.346042,-15.62679 -18.19533,-22.897909 l -0.411338,-3.521642 c -0.0066,-0.0565 -0.01022,-0.128045 -0.05705,-0.160216 l -6.263877,-4.319572 -3.216848,3.98615 c -4.629867,5.20044 -12.980339,5.81908 -15.106258,0.78825 C 61.627445,75.847547 56.38911,49.68042 65.004403,32.171321 69.241457,23.560239 86.214547,15.935948 90.230821,19.877476 c 11.828359,11.608226 8.819097,31.928103 9.300804,46.149325 7.440635,6.089628 17.998005,6.541624 17.998005,6.541624 1.44993,-18.604115 11.77915,-58.466052 28.36373,-57.553004 4.05769,1.274453 6.02487,4.991278 7.6282,8.423218 7.20915,15.431204 7.6553,50.60934 7.0385,50.60934 l 24.89154,0.896014 c 1.20599,-7.240186 -0.63393,-16.219938 -1.24901,-22.125346 -0.97798,-9.796249 3.12185,-21.057502 10.07838,-27.810117 6.89364,-6.248733 13.92317,-3.492184 19.56105,2.759785 7.52186,8.46638 12.01686,23.706575 12.72167,34.987842 0.31803,5.090457 -0.0526,12.099364 1.09441,15.613651 2.49649,7.648848 5.6117,19.380786 6.49176,29.367602 1.05963,12.02453 -2.08864,24.84734 -1.51194,36.18182 1.10901,23.48357 3.06878,35.17669 4.73631,49.6117 2.13466,18.47866 4.48166,42.71271 -3.13956,58.18746 -12.42855,21.88534 -39.03379,36.71739 -52.09916,32.77002 z"
     id="path354" />
</svg>
