<?xml version="1.0" encoding="UTF-8" standalone="no"?>
<svg
   xmlns:dc="http://purl.org/dc/elements/1.1/"
   xmlns:cc="http://creativecommons.org/ns#"
   xmlns:rdf="http://www.w3.org/1999/02/22-rdf-syntax-ns#"
   xmlns:svg="http://www.w3.org/2000/svg"
   xmlns="http://www.w3.org/2000/svg"
   version="1.1"
   id="svg37"
   width="300"
   height="300"
   viewBox="0 0 300 300">
  <metadata
     id="metadata43">
    <rdf:RDF>
      <cc:Work
         rdf:about="">
        <dc:format>image/svg+xml</dc:format>
        <dc:type
           rdf:resource="http://purl.org/dc/dcmitype/StillImage" />
        <dc:title></dc:title>
      </cc:Work>
    </rdf:RDF>
  </metadata>
  <defs
     id="defs41" />
  <path
     style="fill:#000000;stroke-width:0.71097553"
     d="m 155.50773,283.53786 c -2.91448,-1.222 -4.43891,-2.50484 -6.93083,-5.83241 -3.69906,-4.93957 -8.17741,-13.72857 -10.20023,-20.01857 -3.36142,-10.45241 -5.55958,-28.12691 -6.28632,-50.54576 l -0.44365,-13.68628 h 1.83165 c 1.00743,0 2.2668,-0.16697 2.79862,-0.37104 1.52809,-0.58639 6.57077,25.9309 6.0841,31.9937 -0.36447,4.54054 -0.35697,4.56343 1.64156,5.00237 1.55125,0.34071 2.89562,-0.12702 5.91316,-2.05732 2.148,-1.37406 4.24574,-3.13413 4.66165,-3.91127 1.90654,-3.56237 0.51054,-13.25232 -3.69959,-25.67961 -2.72218,-8.03523 -3.13325,-16.42766 -1.00122,-20.44055 1.41044,-2.65467 1.83772,-2.74532 5.26777,-1.11766 3.29771,1.56486 4.85506,5.16798 5.78406,13.382 0.39804,3.51932 1.38163,8.2885 2.18578,10.59818 0.80415,2.30968 1.46208,5.44364 1.46208,6.96434 0,2.02796 0.49155,3.25646 1.84419,4.60911 l 1.8442,1.84419 7.7668,-7.74205 c 5.98225,-5.96322 8.40579,-8.96725 10.54787,-13.07439 1.52959,-2.93277 3.90578,-6.41784 5.28045,-7.74461 l 2.49936,-2.41228 0.47812,1.90496 c 1.09879,4.37799 -0.0309,9.91832 -3.42822,16.81202 -2.94477,5.97548 -4.38469,7.83641 -12.90608,16.67955 l -9.59154,9.95365 -0.0371,11.7311 c -0.0765,24.17757 -2.38864,37.76679 -7.34909,43.19176 -1.7463,1.90984 -1.37872,1.91186 -6.01758,-0.0332 z m 1.66746,-24.78835 c 0.53435,-4.04258 0.97847,-9.04012 0.98695,-11.10562 0.017,-4.16263 -1.5396,-8.70142 -2.96996,-8.65951 -0.50876,0.0148 -2.60468,1.59408 -4.65762,3.50928 -3.32865,3.10529 -3.73262,3.79737 -3.73262,6.39451 0,3.4131 1.11065,6.30096 5.13946,13.36335 1.80623,3.16627 3.20068,4.90974 3.60416,4.50627 0.36195,-0.36195 1.09528,-3.96567 1.62963,-8.00828 z m -31.46776,-85.6157 c -0.96928,-2.52592 2.52355,-9.4151 11.39275,-22.47076 4.94492,-7.27904 8.99077,-13.84807 8.99077,-14.59785 0,-2.40165 -2.1704,-8.84681 -6.05267,-17.97376 -3.35739,-7.89299 -5.02549,-12.97168 -6.3634,-19.374073 -0.38506,-1.842683 -0.63068,-1.955181 -4.26869,-1.955181 -2.16111,0 -6.38085,0.796297 -9.58717,1.809169 -6.59746,2.084135 -9.60076,1.866855 -12.93126,-0.935569 l -2.13082,-1.792978 3.07037,-1.974968 c 1.68869,-1.086218 6.22104,-2.991426 10.07186,-4.233757 4.20216,-1.355694 7.82447,-3.011693 9.05986,-4.141881 2.02233,-1.850114 2.06628,-2.051035 2.51106,-11.481237 0.32271,-6.841901 0.0942,-13.332269 -0.79605,-22.601447 -1.54869,-16.126144 -1.22214,-26.484763 1.01892,-32.321409 0.86331,-2.248461 1.97082,-4.08811 2.46112,-4.08811 1.40884,0 3.95185,3.099381 4.70894,5.739167 0.46679,1.627659 0.41215,4.926371 -0.16805,10.144322 -0.80166,7.209521 -0.77281,7.795952 0.42684,8.673151 1.79781,1.314595 2.9395,0.716731 8.61367,-4.510677 2.73725,-2.521738 6.80697,-5.995486 9.04381,-7.719438 6.82584,-5.260719 13.3519,-7.522214 13.3519,-4.626874 0,0.71548 -3.67571,6.234428 -8.16826,12.264328 -6.00514,8.06008 -9.9824,12.574579 -15.0186,17.04723 l -6.85032,6.083776 0.12758,8.015517 c 0.19644,12.34244 0.3145,12.467713 11.77973,12.501101 6.91619,0.02013 7.11619,0.06627 7.34643,1.692712 0.51966,3.671321 -0.41969,4.891184 -5.60796,7.282609 -9.2291,4.253967 -10.25602,8.145768 -5.65448,21.428977 2.15484,6.22034 3.61089,9.28053 5.07931,10.67524 1.13219,1.07535 2.37109,1.95519 2.75313,1.95519 0.38202,0 3.29314,-2.3928 6.46914,-5.31734 6.29617,-5.79765 12.15729,-9.97707 14.98793,-10.68753 4.62418,-1.16059 1.79822,7.51207 -5.09835,15.64638 -4.10575,4.84263 -7.1221,10.41894 -7.1221,13.1666 0,4.07865 2.03831,8.83102 4.50136,10.49505 3.97627,2.68634 10.09966,9.04881 11.45243,11.89958 0.69957,1.47427 1.43395,3.88818 1.63193,5.36428 l 0.35998,2.68382 -6.05799,-1.54036 c -5.932,-1.50834 -6.21481,-1.68085 -13.59831,-8.29464 -4.14718,-3.71486 -7.80123,-6.84185 -8.12011,-6.94889 -0.31887,-0.10707 -5.03611,5.56947 -10.48275,12.6145 -8.11877,10.5013 -10.22323,12.81183 -11.68043,12.82414 -0.97759,0.008 -2.49342,0.20693 -3.3685,0.44147 -1.13749,0.30488 -1.73173,0.0599 -2.08455,-0.85958 z"
     id="path47" />
</svg>
