<?xml version="1.0" encoding="UTF-8" standalone="no"?>
<!-- Created with Inkscape (http://www.inkscape.org/) -->

<svg
   version="1.1"
   id="svg4016"
   width="300"
   height="300"
   viewBox="0 0 300 300"
   xml:space="preserve"
   sodipodi:docname="眾-oracle.svg"
   inkscape:version="1.2.2 (732a01da63, 2022-12-09)"
   xmlns:inkscape="http://www.inkscape.org/namespaces/inkscape"
   xmlns:sodipodi="http://sodipodi.sourceforge.net/DTD/sodipodi-0.dtd"
   xmlns="http://www.w3.org/2000/svg"
   xmlns:svg="http://www.w3.org/2000/svg"><sodipodi:namedview
     id="namedview24"
     pagecolor="#ffffff"
     bordercolor="#666666"
     borderopacity="1.0"
     inkscape:showpageshadow="2"
     inkscape:pageopacity="0.0"
     inkscape:pagecheckerboard="0"
     inkscape:deskcolor="#d1d1d1"
     showgrid="false"
     inkscape:zoom="1.6685877"
     inkscape:cx="20.076859"
     inkscape:cy="159.41625"
     inkscape:window-width="1920"
     inkscape:window-height="982"
     inkscape:window-x="-10"
     inkscape:window-y="-10"
     inkscape:window-maximized="1"
     inkscape:current-layer="g1855" /><defs
     id="defs4020"><pattern
       id="EMFhbasepattern"
       patternUnits="userSpaceOnUse"
       width="6"
       height="6"
       x="0"
       y="0" /><pattern
       id="EMFhbasepattern-5"
       patternUnits="userSpaceOnUse"
       width="6"
       height="6"
       x="0"
       y="0" /><pattern
       id="EMFhbasepattern-2"
       patternUnits="userSpaceOnUse"
       width="6"
       height="6"
       x="0"
       y="0" /><pattern
       id="EMFhbasepattern-25"
       patternUnits="userSpaceOnUse"
       width="6"
       height="6"
       x="0"
       y="0" /><pattern
       id="EMFhbasepattern-5-1"
       patternUnits="userSpaceOnUse"
       width="6"
       height="6"
       x="0"
       y="0" /><pattern
       id="EMFhbasepattern-2-9"
       patternUnits="userSpaceOnUse"
       width="6"
       height="6"
       x="0"
       y="0" /><pattern
       id="EMFhbasepattern-8"
       patternUnits="userSpaceOnUse"
       width="6"
       height="6"
       x="0"
       y="0" /><pattern
       id="EMFhbasepattern-5-5"
       patternUnits="userSpaceOnUse"
       width="6"
       height="6"
       x="0"
       y="0" /><pattern
       id="EMFhbasepattern-2-95"
       patternUnits="userSpaceOnUse"
       width="6"
       height="6"
       x="0"
       y="0" /><pattern
       id="EMFhbasepattern-4"
       patternUnits="userSpaceOnUse"
       width="6"
       height="6"
       x="0"
       y="0" /><pattern
       id="EMFhbasepattern-1"
       patternUnits="userSpaceOnUse"
       width="6"
       height="6"
       x="0"
       y="0" /><pattern
       id="EMFhbasepattern-7"
       patternUnits="userSpaceOnUse"
       width="6"
       height="6"
       x="0"
       y="0" /><pattern
       id="EMFhbasepattern-87"
       patternUnits="userSpaceOnUse"
       width="6"
       height="6"
       x="0"
       y="0" /><pattern
       id="EMFhbasepattern-0"
       patternUnits="userSpaceOnUse"
       width="6"
       height="6"
       x="0"
       y="0" /><pattern
       id="EMFhbasepattern-80"
       patternUnits="userSpaceOnUse"
       width="6"
       height="6"
       x="0"
       y="0" /><pattern
       id="EMFhbasepattern-81"
       patternUnits="userSpaceOnUse"
       width="6"
       height="6"
       x="0"
       y="0" /><pattern
       id="EMFhbasepattern-72"
       patternUnits="userSpaceOnUse"
       width="6"
       height="6"
       x="0"
       y="0" /><pattern
       id="EMFhbasepattern-9"
       patternUnits="userSpaceOnUse"
       width="6"
       height="6"
       x="0"
       y="0" /><pattern
       id="EMFhbasepattern-13"
       patternUnits="userSpaceOnUse"
       width="6"
       height="6"
       x="0"
       y="0" /><pattern
       id="EMFhbasepattern-96"
       patternUnits="userSpaceOnUse"
       width="6"
       height="6"
       x="0"
       y="0" /><pattern
       id="EMFhbasepattern-54"
       patternUnits="userSpaceOnUse"
       width="6"
       height="6"
       x="0"
       y="0" /><pattern
       id="EMFhbasepattern-97"
       patternUnits="userSpaceOnUse"
       width="6"
       height="6"
       x="0"
       y="0" /><pattern
       id="EMFhbasepattern-09"
       patternUnits="userSpaceOnUse"
       width="6"
       height="6"
       x="0"
       y="0" /><pattern
       id="EMFhbasepattern-3"
       patternUnits="userSpaceOnUse"
       width="6"
       height="6"
       x="0"
       y="0" /><pattern
       id="EMFhbasepattern-95"
       patternUnits="userSpaceOnUse"
       width="6"
       height="6"
       x="0"
       y="0" /><pattern
       id="EMFhbasepattern-545"
       patternUnits="userSpaceOnUse"
       width="6"
       height="6"
       x="0"
       y="0" /><pattern
       id="EMFhbasepattern-877"
       patternUnits="userSpaceOnUse"
       width="6"
       height="6"
       x="0"
       y="0" /><pattern
       id="EMFhbasepattern-12"
       patternUnits="userSpaceOnUse"
       width="6"
       height="6"
       x="0"
       y="0" /><pattern
       id="EMFhbasepattern-14"
       patternUnits="userSpaceOnUse"
       width="6"
       height="6"
       x="0"
       y="0" /></defs><g
     transform="matrix(0.14672507,0,0,-0.14672507,63.041979,300.64171)"
     fill="#000000"
     stroke="none"
     id="g1732"><g
       transform="matrix(2.3440564,0,0,2.3440564,-135.69915,-127.22848)"
       fill="#000000"
       stroke="none"
       id="g1855"><path
         style="fill:#010101;stroke:none;stroke-width:6.65864"
         d="m 877.85697,837.06471 6.6807,-6.63669 -6.6807,6.63669"
         id="path4854" /><path
         style="fill:#010101;stroke:none;stroke-width:1.63432"
         d="M 183.58254,926.46213 C 149.43129,907.92977 109.57856,923.42338 76.395881,908.72421 60.811711,875.77099 50.749321,833.37204 54.816611,797.013 c 8.3341,-34.6898 9.80589,-71.38373 20.1884,-106.49355 12.74541,-46.32921 68.687859,-11.46482 98.320779,-38.33421 36.60561,-4.24156 71.19335,-6.0626 106.56521,5.76438 46.74009,5.84847 95.99824,-0.20519 140.86903,14.56246 31.79244,-1.91367 55.84062,17.96678 85.68621,18.6549 33.26318,14.01654 16.79415,52.10512 25.90838,78.7052 -2.00506,35.03751 -0.99936,70.23503 0.92616,105.56578 -9.74278,45.90313 -72.25476,41.43421 -109.45331,46.27009 -49.53416,11.67179 -101.27155,4.28324 -151.78121,5.50232 -29.48451,-0.87282 -59.08822,3.02226 -88.46372,-0.74824 z m 134.01418,-43.89962 c 34.67277,-6.58978 69.76338,-7.24435 104.02055,-13.10152 30.08994,-12.4676 79.48076,-26.7352 57.60413,-70.19924 3.32744,-31.9303 16.9347,-78.70996 -34.14778,-73.345 -47.60762,-9.21367 -95.63552,-20.17486 -144.47735,-14.04314 -38.51085,8.12444 -73.63067,-13.63526 -111.79345,-6.02177 -29.48781,4.56657 -82.35073,2.148 -69.2141,46.0537 4.47258,36.95167 -14.03398,83.56308 3.57355,114.31326 34.96508,8.8639 71.28266,4.83033 106.18121,11.8369 29.4329,1.0835 58.97543,0.88204 88.25324,4.50681 z m 49.03121,-50.89091 c -58.73656,-11.49673 -117.16407,-28.07658 -177.45021,-28.54146 -38.28666,-3.83025 -28.12893,-59.59712 9.73851,-50.29372 41.68681,0.61039 76.22324,29.33858 120.31481,19.33974 29.42481,11.76455 60.90213,21.30767 93.10035,19.92211 27.17011,19.33795 -28.11008,47.71165 -45.70346,39.57333 z M 302.88784,369.85412 c 10.59329,-29.00212 6.59625,-70.86412 38.98706,-86.1753 28.63867,15.56987 8.29077,63.45067 5.29971,91.17659 -7.80288,49.81029 -10.57645,101.53404 -34.04809,147.26512 2.56711,31.75209 -50.06086,57.43648 -39.37601,11.85787 6.42846,-44.56659 18.11784,-94.16364 -9.19338,-134.53779 -31.40971,-34.73642 -14.52215,-77.24759 -17.78036,-117.64871 -13.46055,-33.00475 18.12105,-57.9885 2.99156,-88.64665 23.11989,-28.57245 -1.51405,-62.81674 15.69773,-93.341428 0.16243,-18.870456 30.75655,-69.444101 35.78746,-27.395841 -11.00019,40.531399 -5.48073,82.208109 -8.12443,123.726129 -6.57522,33.97216 7.5409,68.54429 -2.89438,101.81119 -3.94376,23.22298 -9.94149,56.22091 12.65313,71.90882 z m 192.84967,187.94673 c -4.87016,-35.53447 -2.80809,-71.57511 -2.1834,-107.1188 -11.18302,-34.95369 -34.46089,-64.24834 -63.29129,-86.44927 -39.57269,-24.19394 -23.67446,-66.65438 -12.41234,-101.28878 2.55063,-34.8583 18.05946,-67.63309 21.91849,-102.96663 15.76116,-18.64678 12.23083,-72.586202 40.27418,-68.377573 13.9649,35.383923 -8.10928,71.054243 -14.53556,105.594973 3.78951,35.64944 -17.78235,62.88817 -25.31487,95.72601 -6.75549,40.3149 34.87704,65.27285 52.99314,96.2716 31.53171,5.79819 24.88107,-44.82952 38.17414,-64.25544 2.62996,-17.42448 32.39653,-70.62405 36.18055,-32.52233 -12.95873,29.38051 -21.95418,58.7982 -25.14321,90.80731 -10.93255,41.05888 -25.95129,82.36958 -20.53523,125.54935 -1.39896,17.31165 -1.22789,50.67295 -26.1246,49.02958 z M 144.35888,379.66003 c 14.23607,-17.76546 16.42167,-72.09293 53.48637,-54.75869 -0.82665,29.83446 -0.44011,63.58066 -20.85269,87.72668 -23.96291,24.75191 -14.92602,59.837 -15.19886,90.4294 -8.1074,16.48417 -9.44159,51.5674 -27.93499,53.11488 -34.168379,-20.22248 -4.335,-56.06635 -4.22299,-83.72078 C 116.8503,423.89691 80.959051,376.53563 94.696331,324.09318 107.2065,291.44961 109.89309,255.0524 115.08151,219.80761 c -1.04297,-40.25811 14.44318,-78.0507 18.11286,-117.53004 -7.66939,-29.569015 37.25202,-40.0952 27.64272,-4.283246 -2.37859,34.355726 -10.51499,68.551536 -4.2201,103.074046 -1.04108,40.20255 -29.26556,75.39291 -23.66443,117.02481 -1.19455,23.0441 -4.58872,42.06643 11.40632,61.56685 z m 94.79051,-27.78343 c 2.4113,-2.4113 1.64538,-1.64538 0,0 z"
         id="path612" /></g></g></svg>
