<?xml version="1.0" encoding="UTF-8" standalone="no"?>
<svg
   xmlns:dc="http://purl.org/dc/elements/1.1/"
   xmlns:cc="http://creativecommons.org/ns#"
   xmlns:rdf="http://www.w3.org/1999/02/22-rdf-syntax-ns#"
   xmlns:svg="http://www.w3.org/2000/svg"
   xmlns="http://www.w3.org/2000/svg"
   version="1.1"
   id="svg2"
   viewBox="0 0 300 300"
   height="300"
   width="300">
  <defs
     id="defs4">
    <clipPath
       id="clipPath4204"
       clipPathUnits="userSpaceOnUse">
      <rect
         y="794.64594"
         x="164.41942"
         height="21.584471"
         width="15.451179"
         id="rect4206"
         style="fill:#0000ff;fill-rule:evenodd;stroke:#000000;stroke-width:1px;stroke-linecap:butt;stroke-linejoin:miter;stroke-opacity:1" />
    </clipPath>
  </defs>
  <metadata
     id="metadata7">
    <rdf:RDF>
      <cc:Work
         rdf:about="">
        <dc:format>image/svg+xml</dc:format>
        <dc:type
           rdf:resource="http://purl.org/dc/dcmitype/StillImage" />
        <dc:title></dc:title>
      </cc:Work>
    </rdf:RDF>
  </metadata>
  <g
     transform="translate(0,-752.36216)"
     id="layer1">
    <path
       id="path4969"
       d="m 171.51622,1032.4353 c 4.55048,-18.7947 5.89593,-36.62275 6.37965,-55.64519 -16.51128,10.98915 -35.25573,22.37636 -49.83411,30.47589 -1.91551,2.1166 -4.09262,3.8483 -4.8381,3.8483 -3.2296,0 -5.24571,-15.70596 -5.36876,-23.85587 -0.22783,-15.09055 3.66331,-22.5369 15.51863,-29.01363 2.20151,-38.16293 8.38617,-74.40927 14.8921,-110.75519 -6.55609,0.66163 -15.10811,0.0449 -20.94968,-3.32678 -15.1111,2.87876 -29.620655,16.56587 -35.599082,27.14471 -1.691364,2.99287 -4.482018,3.17633 -5.61221,2.18966 -3.068225,-2.67858 -2.2769,-16.40386 -1.155769,-25.0331 2.669647,-20.54802 7.159352,-37.17023 12.191487,-48.30194 4.816704,-10.65515 12.955864,-15.42444 22.435644,-17.13208 l 88.91164,-13.22675 c 0.9834,-2.24563 8.20945,-3.73991 7.51229,-0.82681 -9.48026,25.18213 -24.30123,42.07633 -46.49034,58.92027 -0.76701,3.60194 -4.95835,11.68011 -12.78375,17.0283 0,0 17.91672,73.99251 18.97654,86.46701 1.01438,11.93953 0.18689,17.13031 -19.03057,27.67443 l -14.36571,7.88211 c -14.13359,7.75474 -14.67511,9.62885 -14.18645,26.99088 11.72529,-4.51698 23.16997,-11.66432 34.176,-18.49436 7.976,-4.94968 20.26852,-16.24301 23.00451,-16.24301 2.35424,0 3.52192,2.53737 2.88972,13.59582 -1.39773,24.44891 -4.95713,46.16333 -10.51981,59.17393 -2.73884,6.4059 -7.86365,7.7541 -6.15387,0.4634 z M 153.44279,872.94145 c -4.24731,14.74654 -9.28729,48.33433 -11.43947,81.18481 11.8071,-6.14614 24.8256,-11.11594 24.12452,-22.32741 -0.69896,-11.17759 -12.68505,-58.8574 -12.68505,-58.8574 z m -31.9716,-36.48057 c -5.617,-12.6589 -3.82089,-36.77126 -1.75521,-43.37905 -7.73706,1.10985 -12.11661,2.38217 -15.68769,9.54692 -7.629856,15.30796 -12.031337,43.02502 -13.996668,58.50876 8.451422,-11.57299 19.504908,-21.03802 31.439568,-24.67663 z m 41.06714,-21.68368 c 0.62749,-7.8395 -0.7173,-19.1541 -6.80171,-27.34986 l -27.54815,4.37611 c -2.08719,7.79595 -4.58017,28.40319 0.28326,38.97558 3.22481,7.01024 9.88946,8.61919 17.78828,7.09987 9.80546,-1.88606 15.07115,-8.01986 16.27832,-23.1017 z m 1.68632,-28.77002 c 4.8462,8.25062 7.133,19.77228 6.86752,31.14404 14.04292,-11.35673 26.99365,-24.41597 31.86879,-37.27569 z"
       style="fill:#000000;stroke-width:1.00354373" />
  </g>
</svg>
