<?xml version="1.0" encoding="UTF-8" standalone="no"?>
<!-- Created with Inkscape (http://www.inkscape.org/) -->

<svg
   xmlns:dc="http://purl.org/dc/elements/1.1/"
   xmlns:cc="http://creativecommons.org/ns#"
   xmlns:rdf="http://www.w3.org/1999/02/22-rdf-syntax-ns#"
   xmlns:svg="http://www.w3.org/2000/svg"
   xmlns="http://www.w3.org/2000/svg"
   xmlns:sodipodi="http://sodipodi.sourceforge.net/DTD/sodipodi-0.dtd"
   xmlns:inkscape="http://www.inkscape.org/namespaces/inkscape"
   width="300"
   height="300"
   id="svg2"
   version="1.1"
   inkscape:version="0.48.4 r9939"
   sodipodi:docname="image-seal.svg">
  <defs
     id="defs4" />
  <sodipodi:namedview
     id="base"
     pagecolor="#ffffff"
     bordercolor="#666666"
     borderopacity="1.0"
     inkscape:pageopacity="0.0"
     inkscape:pageshadow="2"
     inkscape:zoom="2.7366667"
     inkscape:cx="150"
     inkscape:cy="150"
     inkscape:document-units="px"
     inkscape:current-layer="layer1"
     showgrid="false"
     inkscape:window-width="1215"
     inkscape:window-height="1000"
     inkscape:window-x="65"
     inkscape:window-y="24"
     inkscape:window-maximized="1" />
  <metadata
     id="metadata7">
    <rdf:RDF>
      <cc:Work
         rdf:about="">
        <dc:format>image/svg+xml</dc:format>
        <dc:type
           rdf:resource="http://purl.org/dc/dcmitype/StillImage" />
        <dc:title />
      </cc:Work>
    </rdf:RDF>
  </metadata>
  <g
     inkscape:label="Calque 1"
     inkscape:groupmode="layer"
     id="layer1"
     transform="translate(0,-752.36218)">
    <path
       style="fill:#000000"
       d="m 173.81383,1037.461 c -2.2534,-5.4457 -6.15905,-14.5239 -8.67921,-20.1739 -7.77199,-17.42412 -10.46147,-28.23009 -14.76205,-59.31212 -2.28143,-16.48889 -5.92167,-34.04653 -8.08937,-39.01692 -3.4088,-7.81607 -5.17628,-8.82003 -13.08094,-7.43032 -5.02679,0.88374 -21.18561,1.90174 -35.908486,2.26217 -24.07108,0.58936 -27.44844,-0.0244 -33.5119,-6.1033 -5.77812,-5.79156 -6.08911,-7.17362 -2.17321,-9.65828 2.51339,-1.59477 11.42451,-2.90923 19.80248,-2.92099 18.81845,-0.0274 80.457456,-5.09646 124.003936,-10.19977 42.77848,-5.01332 52.22064,-1.42429 40.45297,15.37641 -4.57614,6.53336 -14.28804,7.62064 -65.93139,7.38112 -12.14169,-0.0564 -9.71187,52.69318 4.82111,104.662 9.20679,32.9228 9.35768,35.0351 2.50255,35.0351 -3.16374,0 -7.02336,-4.0454 -9.44649,-9.9012 z M 85.885874,862.02979 c -8.8766,-20.72049 -14.35467,-43.73445 -20.71044,-87.00671 -1.64534,-11.20214 0.87113,-15.36365 6.47706,-10.71113 3.11222,2.58291 11.98044,2.98128 30.955786,1.39056 14.6267,-1.2262 34.81962,-2.78569 44.87319,-3.46559 10.05357,-0.67989 29.92865,-2.36874 44.16688,-3.75299 17.59669,-1.71082 26.92586,-1.46895 29.12938,0.75517 1.78299,1.79962 4.91858,17.66692 6.96798,35.26066 2.0494,17.59375 4.44828,37.81513 5.3308,44.9364 1.06037,8.55647 0.43422,12.94778 -1.84626,12.94778 -1.89793,0 -5.41019,1.95938 -7.80501,4.3542 -7.20735,7.20734 -34.44825,13.36805 -68.32743,15.4527 -17.59374,1.08256 -38.99362,2.43772 -47.5553,3.01144 l -15.566666,1.04316 -6.08997,-14.21565 z m 92.060956,-13.74551 c 36.08572,-5.88962 37.96559,-7.37978 36.13139,-28.64054 -1.98518,-23.0107 -7.638,-43.42319 -12.02516,-43.42319 -1.92809,0 -14.99548,1.91121 -29.03861,4.24718 -14.04312,2.33593 -30.74149,4.35313 -37.10741,4.48267 -6.36595,0.12948 -13.06735,1.15817 -14.89201,2.28584 -1.82467,1.12771 -8.81936,2.51684 -15.54376,3.08694 -6.724416,0.57013 -12.777606,1.58794 -13.451526,2.26187 -1.53857,1.53856 7.29889,52.76423 9.801436,56.81344 2.62148,4.24163 47.31885,3.58739 76.12565,-1.11421 z m -63.97725,-27.63101 c -5.02679,-4.03048 -7.99755,-8.47921 -6.60172,-9.8861 3.37074,-3.39747 77.791,-3.95873 86.66906,-0.65367 6.67009,2.48311 6.74814,2.89634 1.93452,10.24282 -4.86123,7.41917 -6.06251,7.65488 -38.93911,7.64019 -31.25283,-0.0152 -34.64258,-0.59197 -43.06275,-7.34324 z"
       id="path3236"
       inkscape:connector-curvature="0" />
  </g>
</svg>
