<?xml version="1.0" encoding="UTF-8" standalone="no"?>
<svg
   xmlns:dc="http://purl.org/dc/elements/1.1/"
   xmlns:cc="http://creativecommons.org/ns#"
   xmlns:rdf="http://www.w3.org/1999/02/22-rdf-syntax-ns#"
   xmlns:svg="http://www.w3.org/2000/svg"
   xmlns="http://www.w3.org/2000/svg"
   viewBox="0 0 300 300"
   height="300"
   width="300"
   id="svg166"
   version="1.1">
  <metadata
     id="metadata172">
    <rdf:RDF>
      <cc:Work
         rdf:about="">
        <dc:format>image/svg+xml</dc:format>
        <dc:type
           rdf:resource="http://purl.org/dc/dcmitype/StillImage" />
        <dc:title></dc:title>
      </cc:Work>
    </rdf:RDF>
  </metadata>
  <defs
     id="defs170" />
  <path
     id="path176"
     d="m 27.580682,281.49274 c -8.758839,-3.66862 -8.800849,-17.72594 -2.842048,-20.95403 3.118773,-1.68956 15.331742,-3.05801 25.985446,-4.61607 44.88069,-6.56363 101.17707,-16.41575 145.80997,-23.50266 12.72594,-2.02065 55.94722,-10.52344 65.56061,-1.78535 7.23696,6.57804 -41.29046,23.01113 -49.17375,25.28461 -34.18646,9.59693 -64.76,15.56709 -104.29392,21.68209 -34.097789,5.27415 -63.082483,11.4155 -81.046308,3.89141 z M 50.52607,220.89542 c -10.230321,-1.52533 -3.078601,-19.90916 0.298209,-21.6747 12.438145,-6.50321 53.641211,-10.4018 81.352191,-14.51341 31.16397,-4.62395 47.44084,-7.70864 84.09319,-12.0669 24.69859,-2.93686 53.45835,1.85757 40.38509,11.05651 -14.85561,10.45309 -50.71169,15.25327 -76.64926,20.36221 -42.70266,8.41117 -100.520015,19.99005 -129.47942,16.83629 z M 40.8062,135.63865 C 27.730788,109.22049 33.661864,78.141591 37.240137,48.568304 38.425298,38.773326 42.733641,13.285037 54.144068,15.091268 62.09603,16.350035 65.879392,27.597665 65.265036,36.531598 63.60631,60.652711 54.924631,118.5794 80.171109,122.76235 c 50.600371,8.38368 97.946081,-3.3127 145.622051,-13.16123 20.88909,-4.3151 80.40772,-5.22995 39.71299,12.42715 -18.06593,7.83865 -37.92065,12.74408 -71.07761,20.40995 -33.0838,7.64895 -55.96484,14.24752 -88.58118,16.36434 -22.552126,1.46364 -54.988669,-2.85339 -65.04116,-23.16391 z"
     style="fill:#000000;stroke-width:0.71126813" />
</svg>
