<?xml version="1.0" encoding="UTF-8" standalone="no"?>
<!-- Created with Inkscape (http://www.inkscape.org/) -->

<svg
   width="300mm"
   height="300mm"
   viewBox="0 0 300 300"
   version="1.1"
   id="svg1"
   xml:space="preserve"
   inkscape:version="1.3.2 (091e20e, 2023-11-25, custom)"
   sodipodi:docname="æ±-seal.svg"
   xmlns:inkscape="http://www.inkscape.org/namespaces/inkscape"
   xmlns:sodipodi="http://sodipodi.sourceforge.net/DTD/sodipodi-0.dtd"
   xmlns="http://www.w3.org/2000/svg"
   xmlns:svg="http://www.w3.org/2000/svg"><sodipodi:namedview
     id="namedview1"
     pagecolor="#ffffff"
     bordercolor="#000000"
     borderopacity="0.25"
     inkscape:showpageshadow="2"
     inkscape:pageopacity="0.0"
     inkscape:pagecheckerboard="0"
     inkscape:deskcolor="#d1d1d1"
     inkscape:document-units="mm"
     inkscape:zoom="0.74029882"
     inkscape:cx="430.23167"
     inkscape:cy="559.90904"
     inkscape:window-width="1920"
     inkscape:window-height="1009"
     inkscape:window-x="-8"
     inkscape:window-y="-8"
     inkscape:window-maximized="1"
     inkscape:current-layer="layer1" /><defs
     id="defs1" /><g
     inkscape:label="Layer 1"
     inkscape:groupmode="layer"
     id="layer1"><path
       style="fill:#000000"
       d="m 191.34323,287.50192 c -1.42627,-2.18577 -2.67563,-25.71225 -3.34439,-62.97781 -0.91272,-50.85964 -1.4215,-71.18081 -2.24592,-89.70406 -0.69767,-15.67535 -0.69368,-15.65058 -2.64887,-16.46751 -1.83841,-0.76814 -8.70038,-1.58461 -16.75882,-1.99404 -8.46431,-0.43006 -9.97436,-0.89761 -9.22918,-2.85758 0.36434,-0.95828 -0.36623,-1.977 -1.43226,-1.9972 -0.791,-0.015 -1.67892,-0.69544 -2.21079,-1.69423 -1.19119,-2.23691 2.06318,-3.01786 14.53684,-3.48841 9.30904,-0.35116 14.21984,-0.92433 15.05235,-1.75684 0.38888,-0.38888 0.61546,-8.436771 1.75502,-62.335591 0.23535,-11.13161 0.5401,-18.70506 0.76996,-19.13456 0.57654,-1.07727 1.78503,-1.56911 3.93164,-1.60014 1.63596,-0.0237 2.16363,0.15018 3.34845,1.10309 3.74071,3.00852 3.48992,7.75121 -0.55536,10.50248 -1.04235,0.70893 -1.98716,1.51756 -2.09958,1.79695 -0.12262,0.30476 0.67275,1.3407 1.98809,2.5894 2.60388,2.47195 2.76542,2.76434 3.50438,6.34274 0.80181,3.88273 1.25359,11.78936 1.70109,29.77072 0.53008,21.29915 0.75713,23.83159 2.45928,27.429941 1.63327,3.45273 3.17903,3.9991 13.4591,4.75728 9.41004,0.69401 12.68842,1.34441 14.15155,2.80754 0.81542,0.81542 1.00426,1.26303 0.8022,1.90145 -1.17152,3.70144 -6.99113,5.53472 -19.41717,6.11677 -4.20024,0.19675 -7.15194,0.49905 -7.68604,0.78719 -1.37104,0.73966 -2.22965,3.22731 -2.64397,7.66042 -0.63149,6.75683 -0.90112,39.81362 -0.42507,52.11524 0.93472,24.15421 1.65681,57.66249 1.68598,78.23675 0.0278,19.59305 -0.0329,21.93486 -0.64131,24.75774 -0.83058,3.85366 -1.23801,4.65528 -3.3604,6.61163 -1.97493,1.82043 -3.5614,2.07753 -4.4468,0.72064 z m -76.40031,-4.08987 c -2.03004,-0.64707 -5.25422,-4.22188 -6.97425,-7.73267 -2.85905,-5.83566 -4.21193,-11.39599 -4.68887,-19.27109 -0.29615,-4.89 -0.93051,-7.14311 -2.56038,-9.09394 -1.714324,-2.05191 -2.255954,-4.4763 -2.240404,-10.02821 0.0153,-5.46415 0.66808,-8.15159 2.377924,-9.78972 1.37284,-1.31527 1.41604,-2.34105 0.1869,-4.43842 -0.655,-1.11768 -1.04323,-2.52701 -1.291894,-4.68979 -1.32655,-11.53803 1.395054,-53.28539 5.362294,-82.25347 2.32558,-16.98101 2.80787,-24.65093 2.81584,-44.780491 0.007,-17.52536 -0.67898,-29.80406 -2.07233,-37.09642 -0.93901,-4.91456 -3.63649,-13.48219 -6.316264,-20.06155 -5.53874,-13.59861 -6.06926,-15.23924 -6.06926,-18.76902 0,-4.491366 1.26702,-4.892442 5.07682,-1.607074 6.494084,5.600144 14.986684,17.008784 16.877944,22.673184 1.90447,5.70398 3.2492,21.08039 3.9747,45.44902 0.42491,14.27232 0.25723,28.674801 -0.42614,36.602331 -0.20079,2.32918 -1.18168,9.65347 -2.17976,16.2762 -4.9591,32.90583 -7.04887,54.74591 -7.04585,73.63607 0.002,14.48703 0.85627,23.4627 3.36067,35.32264 2.73511,12.95248 4.77592,27.58097 4.77592,34.23364 0,3.81533 -0.11333,4.85274 -0.58129,5.3207 -0.65541,0.65541 -0.61864,0.65388 -2.36232,0.0981 z M 82.909466,269.85374 c -2.74439,-1.11146 -6.45311,-8.98657 -7.75939,-16.47636 -1.63689,-9.38528 -2.39302,-24.6161 -2.39302,-48.20273 0,-23.40284 0.73353,-37.25721 2.38935,-45.12873 0.70622,-3.35723 2.73263,-7.73537 4.47078,-9.65929 1.78203,-1.9725 3.20942,-1.99405 4.50291,-0.068 0.74747,1.11302 0.84412,1.70836 0.84412,5.19999 0,3.88876 -0.83081,11.69656 -2.20601,20.73174 -1.47851,9.71394 -2.05868,23.01693 -1.51647,34.77188 0.70376,15.25744 1.88986,25.02176 4.67316,38.47103 2.32824,11.25028 2.17038,17.89068 -0.47478,19.97136 -1.02452,0.80589 -1.37026,0.85905 -2.53065,0.38909 z m 60.293504,-11.80592 c -1.6169,-0.986 -3.74686,-3.57428 -5.04923,-6.13572 -1.7021,-3.34759 -7.23874,-17.29291 -8.24676,-20.77137 -2.24378,-7.74282 -3.46243,-16.95848 -3.761,-28.44152 -0.53033,-20.39674 2.05354,-46.3997 5.2998,-53.33483 1.03356,-2.20802 4.56979,-5.12479 6.69702,-5.52386 2.72472,-0.51116 4.71412,2.39667 4.71095,6.88581 -0.002,2.3531 -0.18247,3.15608 -1.19079,5.28837 -2.16634,4.58116 -3.46283,14.19203 -3.45333,25.59943 0.0125,14.98794 2.80101,38.36707 5.98899,50.21184 0.60301,2.24047 1.07553,3.17716 2.17343,4.30847 2.1499,2.21533 3.39739,7.28689 3.46795,14.09868 0.0489,4.724 -0.28342,5.77883 -2.37547,7.53916 -1.35704,1.14188 -2.69864,1.22862 -4.26156,0.27554 z M 77.036506,128.85535 c -2.15427,-1.69455 -3.53962,-5.1234 -3.53962,-8.76081 0,-1.99924 1.02487,-3.77018 2.18185,-3.77018 3.28807,0 6.71705,-13.35295 7.36191,-28.668311 0.5923,-14.06702 -0.7009,-24.831 -4.11512,-34.25243 -1.58379,-4.37043 -2.48268,-6.17523 -4.49617,-9.02747 -1.68267,-2.38362 -2.78204,-4.34975 -2.78204,-4.97547 0,-0.81878 2.0099,-0.3336 3.67184,0.88637 2.47206,1.81467 7.34341,6.98873 9.61779,10.21546 4.52009,6.41279 6.47145,10.68088 7.85384,17.1782 0.79612,3.74184 0.86491,4.9317 0.85544,14.79655 -0.0111,11.59153 -0.50827,16.50093 -2.64079,26.078911 -2.06711,9.28417 -5.45753,17.30515 -8.36773,19.79618 -1.83897,1.57408 -3.99356,1.76757 -5.6012,0.503 z m 57.449324,-2.57257 c -0.81691,-0.5054 -0.61668,-11.40967 0.34589,-18.83635 2.2781,-17.576711 3.28741,-37.344921 2.3182,-45.404281 -0.93662,-7.78842 -3.46132,-18.51551 -5.37754,-22.84843 -0.45141,-1.02072 -1.33119,-2.3663 -1.95507,-2.99018 -0.89764,-0.89764 -1.19029,-1.58235 -1.4026,-3.28156 -0.53924,-4.31594 0.32482,-8.35166 1.91911,-8.96344 1.8277,-0.70136 5.36563,3.06655 8.05666,8.58037 4.0261,8.2493 6.61531,18.86892 8.61314,35.32676 0.81966,6.7522 0.93152,27.77459 0.17715,33.292231 -1.19623,8.7495 -3.1531,16.13212 -5.23877,19.76412 -2.05036,3.57052 -5.88894,6.33034 -7.45617,5.36076 z"
       id="path1" /></g></svg>
