<?xml version="1.0" encoding="UTF-8" standalone="no"?>
<!-- Created with Inkscape (http://www.inkscape.org/) -->

<svg
   xmlns:dc="http://purl.org/dc/elements/1.1/"
   xmlns:cc="http://creativecommons.org/ns#"
   xmlns:rdf="http://www.w3.org/1999/02/22-rdf-syntax-ns#"
   xmlns:svg="http://www.w3.org/2000/svg"
   xmlns="http://www.w3.org/2000/svg"
   xmlns:sodipodi="http://sodipodi.sourceforge.net/DTD/sodipodi-0.dtd"
   xmlns:inkscape="http://www.inkscape.org/namespaces/inkscape"
   width="300"
   height="300"
   id="svg2"
   version="1.1"
   inkscape:version="0.48.2 r9819"
   sodipodi:docname="å¤-bigseal.svg">
  <defs
     id="defs4" />
  <sodipodi:namedview
     id="base"
     pagecolor="#ffffff"
     bordercolor="#666666"
     borderopacity="1.0"
     inkscape:pageopacity="0.0"
     inkscape:pageshadow="2"
     inkscape:zoom="1.979899"
     inkscape:cx="161.69077"
     inkscape:cy="131.22658"
     inkscape:document-units="px"
     inkscape:current-layer="layer1"
     showgrid="false"
     inkscape:window-width="1280"
     inkscape:window-height="999"
     inkscape:window-x="0"
     inkscape:window-y="24"
     inkscape:window-maximized="1" />
  <metadata
     id="metadata7">
    <rdf:RDF>
      <cc:Work
         rdf:about="">
        <dc:format>image/svg+xml</dc:format>
        <dc:type
           rdf:resource="http://purl.org/dc/dcmitype/StillImage" />
        <dc:title></dc:title>
      </cc:Work>
    </rdf:RDF>
  </metadata>
  <g
     inkscape:label="Calque 1"
     inkscape:groupmode="layer"
     id="layer1"
     transform="translate(0,-752.36218)">
    <path
       style="fill:#000000"
       d="m 111.96147,1022.3702 c -4.77995,-0.4772 -11.29809,-1.641 -14.484737,-2.5864 -23.510362,-6.974 -28.842727,-9.0884 -36.110937,-14.3182 -5.0052,-3.6015 -8.991926,-9.17485 -10.219361,-14.28644 -3.255971,-13.55935 -5.026934,-126.90926 -1.982823,-126.90926 7.587577,0 14.998211,17.16866 14.998211,34.74725 l 0,11.07027 40.557277,0 c 22.30651,0 40.55728,-0.81174 40.55728,-1.80382 0,-0.99208 -2.47245,-5.25012 -5.49437,-9.46232 -26.93743,-37.54747 -29.751,-55.68496 -16.09267,-103.7395 7.89129,-27.76408 11.80926,-30.3787 20.94999,-13.98062 14.12021,25.33119 20.69741,46.01577 22.91393,72.06194 1.5441,18.14448 -0.51488,26.21931 -10.7053,41.98383 -9.79382,15.151 -10.4121,14.37115 12.54003,15.81763 24.79399,1.56254 41.5978,1.60567 50.48483,0.12975 5.91951,-0.9832 6.54468,-2.31408 6.80691,-14.49112 0.51371,-23.85363 7.70537,-31.05906 12.79365,-12.8182 1.6187,5.80285 4.87776,11.39181 7.24237,12.41991 2.56783,1.11646 2.91676,1.88156 0.86648,1.8998 -2.52898,0.0226 -3.40549,10.12685 -3.32909,38.37775 0.1118,41.31293 -3.37159,56.11987 -15.41467,65.52485 -3.3069,2.5825 -7.88338,6.624 -10.16991,8.9811 -6.88072,7.0931 -30.5622,11.3215 -66.14981,11.8112 -17.52653,0.2412 -35.7773,0.048 -40.55728,-0.4292 z m 69.52678,-18.6947 c 1.59332,-0.772 6.54426,-2.0033 11.00209,-2.7362 4.45785,-0.7331 12.46621,-4.42068 17.79636,-8.1948 11.12814,-7.87967 16.10426,-22.22536 16.10426,-46.42711 0,-13.17215 -0.48935,-14.3094 -6.51814,-15.14787 -17.59783,-2.44748 -57.77199,-4.03346 -103.56592,-4.08855 l -50.696606,-0.0609 -0.871518,20.91668 c -0.479334,11.50418 -0.04844,23.9989 0.957844,27.76605 2.273097,8.51069 26.68559,25.954 36.61132,26.1597 3.71612,0.077 9.36384,0.9382 12.55049,1.9137 6.73389,2.0614 62.34114,1.9774 66.62982,-0.1007 z"
       id="path3060"
       inkscape:connector-curvature="0" />
  </g>
</svg>
