<?xml version="1.0" encoding="UTF-8" standalone="no"?>
<svg
   xmlns:dc="http://purl.org/dc/elements/1.1/"
   xmlns:cc="http://creativecommons.org/ns#"
   xmlns:rdf="http://www.w3.org/1999/02/22-rdf-syntax-ns#"
   xmlns:svg="http://www.w3.org/2000/svg"
   xmlns="http://www.w3.org/2000/svg"
   viewBox="0 0 300 300"
   height="300"
   width="300"
   id="svg4297"
   version="1.1">
  <metadata
     id="metadata4303">
    <rdf:RDF>
      <cc:Work
         rdf:about="">
        <dc:format>image/svg+xml</dc:format>
        <dc:type
           rdf:resource="http://purl.org/dc/dcmitype/StillImage" />
        <dc:title></dc:title>
      </cc:Work>
    </rdf:RDF>
  </metadata>
  <defs
     id="defs4301" />
  <path
     id="path4307"
     d="m 143.04927,291.3624 c -7.55058,-1.37775 -16.14597,-4.23102 -23.63231,-7.84484 -5.37099,-2.5927 -8.25259,-4.7734 -18.34034,-13.87939 L 89.108461,258.83478 83.734844,247.33409 c -3.782701,-8.09579 -6.292843,-12.47496 -8.478466,-14.79146 -2.650903,-2.80964 -3.376565,-4.30648 -4.963283,-10.23794 -3.990711,-14.91802 -6.241228,-28.09041 -8.121096,-47.5333 -4.455851,-46.08528 -5.407574,-52.96526 -7.919821,-57.2521 -1.287327,-2.19666 -3.221719,-4.12608 -5.449836,-5.43584 -3.321276,-1.95235 -3.932381,-2.04459 -15.885941,-2.39761 -10.252153,-0.30277 -12.764611,-0.59305 -14.330098,-1.65564 -2.145464,-1.45625 -3.586297,-4.15888 -3.586297,-6.72697 0,-1.597455 0.560598,-1.858161 7.13,-3.315743 3.921488,-0.870087 8.270434,-1.877402 9.664313,-2.238466 1.39388,-0.361064 18.834947,-1.497532 38.757918,-2.525464 19.922981,-1.02794 38.758333,-2.172001 41.856343,-2.542351 6.03043,-0.720912 11.03159,-2.782409 11.91688,-4.912186 0.55939,-1.34574 2.46862,-38.300891 2.52766,-48.925124 l 0.0329,-5.931185 -4.20487,-2.234621 C 115.49552,24.859378 111.25982,24.38603 98.104949,25.931654 86.752046,27.265555 79.328665,27.142559 76.393904,25.571929 72.678543,23.583525 76.825298,15.931283 83.153869,13.097396 133.73806,10.562181 204.88902,7.5627533 251.60288,7.5435927 c 0.7987,2.0949571 2.17732,10.1315373 1.78011,10.3770293 -0.30483,0.188391 -3.30563,1.531932 -6.66846,2.985646 -6.01909,2.60199 -6.37994,2.661836 -23.19125,3.846228 l -17.07705,1.203113 -1.39272,2.717813 c -3.18304,6.211476 -5.00697,24.100958 -5.029,49.325397 l -0.0104,11.822722 3.83923,0.828257 c 2.11157,0.455543 6.3073,1.15111 9.32383,1.545709 8.40126,1.098978 46.48641,2.145047 59.41662,1.631977 l 11.51769,-0.457015 0.0581,1.759715 c 0.0319,0.967851 0.28268,4.457489 0.55712,7.754766 0.49117,5.90116 0.47021,6.00845 -1.33789,6.8509 -1.01027,0.4707 -4.79855,0.99657 -8.4184,1.16858 -9.57742,0.4551 -11.09473,0.81061 -13.87379,3.25065 -5.84779,5.13445 -13.24572,33.313 -14.66612,55.86299 -0.42679,6.77582 -1.47097,11.68557 -6.62277,31.14046 -4.20473,15.87845 -6.31602,25.27117 -6.75581,30.05543 -0.73696,8.0171 -2.73785,12.40417 -10.82625,23.73731 -19.71972,27.6305 -50.27924,41.68398 -79.17654,36.41113 z m 19.04134,-19.41249 c 8.5623,-1.51197 15.04772,-3.61734 18.54464,-6.02018 3.98484,-2.7381 12.18761,-11.01553 14.99836,-15.13488 1.52061,-2.22852 3.74456,-6.21283 4.94213,-8.85403 2.90966,-6.4171 7.19673,-13.67708 12.168,-20.60599 l 4.08994,-5.70055 v -7.62008 c 0,-7.31393 -0.0661,-7.63376 -1.64538,-7.9605 -0.90496,-0.18723 -12.7818,-1.242 -26.39298,-2.34396 -23.85157,-1.93101 -24.96361,-1.9602 -30.71382,-0.80627 -12.92516,2.59376 -17.35677,2.90943 -33.75492,2.40443 -12.85057,-0.39577 -17.63342,-0.2645 -23.76665,0.65227 -12.445807,1.86034 -12.624009,1.92386 -13.359325,4.76153 -0.922488,3.56001 0.500547,12.84402 2.880438,18.79225 4.400269,10.99795 19.272767,29.65858 28.739747,36.05995 17.98724,12.05619 27.90379,15.44181 43.26982,12.37601 z m 9.95209,-90.63724 8.95819,-0.91447 v -33.87893 -33.87893 l -1.64538,-0.36618 c -0.90496,-0.20141 -9.00379,-1.23762 -17.99741,-2.30268 -18.41345,-2.18062 -17.04063,-2.47201 -18.48265,3.923 0.27707,17.25021 -0.27114,28.76844 -1.26476,40.41836 -1.25288,14.63891 -2.03451,26.85079 -1.73695,27.13752 1.53863,1.48258 16.94262,1.41665 32.16895,-0.13769 z m -59.47404,-1.46363 c 7.46464,-2.79287 6.65708,0.26161 9.62878,-36.41956 1.44541,-17.84137 2.35123,-32.68368 2.01294,-32.98292 -0.3383,-0.29924 -5.55124,-1.24159 -11.5843,-2.09408 -5.65642,-0.64433 -35.604781,-0.0129 -36.198431,4.32312 0,0.36517 2.836348,8.97497 4.387605,19.49654 0.875745,11.50543 0.444078,36.41355 6.116242,44.26494 3.354689,4.53777 17.571274,6.4298 25.637164,3.41196 z m 114.1077,-0.87278 c 0.82705,-4.88614 8.494,-66.5489 8.28817,-66.65907 -12.09108,-0.83012 -26.48049,-0.6813 -35.1204,-0.26645 l 0.53326,33.37136 c 0.29329,18.35424 0.66742,33.51524 0.83141,33.69113 0.33132,0.35537 17.16671,1.99799 21.99046,2.1456 2.92437,0.0895 3.0945,-0.0221 3.4771,-2.28257 z M 183.92602,87.959026 c 0.2011,-0.18312 0.35667,-9.601726 0.34572,-20.93024 -0.0201,-20.773398 -0.85925,-31.17034 -2.91243,-36.084315 l -1.01507,-2.429377 h -15.4922 c -9.97001,0 -16.54053,0.314085 -18.43321,0.881146 l -2.94099,0.881144 0.47948,19.713545 c 0.26373,10.842449 0.4795,24.12867 0.4795,29.524932 v 9.8114 l 19.56178,-0.517652 c 10.75898,-0.284704 19.72632,-0.667471 19.92742,-0.850583 z"
     style="fill:#000000;stroke-width:0.73128146" />
</svg>
