<?xml version="1.0" encoding="UTF-8" standalone="no"?>
<!-- Created with Inkscape (http://www.inkscape.org/) -->

<svg
   width="300mm"
   height="300mm"
   viewBox="0 0 300 300"
   version="1.1"
   id="svg1"
   xml:space="preserve"
   inkscape:version="1.3.2 (091e20e, 2023-11-25, custom)"
   sodipodi:docname="酒-seal.svg"
   xmlns:inkscape="http://www.inkscape.org/namespaces/inkscape"
   xmlns:sodipodi="http://sodipodi.sourceforge.net/DTD/sodipodi-0.dtd"
   xmlns="http://www.w3.org/2000/svg"
   xmlns:svg="http://www.w3.org/2000/svg"><sodipodi:namedview
     id="namedview1"
     pagecolor="#ffffff"
     bordercolor="#000000"
     borderopacity="0.25"
     inkscape:showpageshadow="2"
     inkscape:pageopacity="0.0"
     inkscape:pagecheckerboard="0"
     inkscape:deskcolor="#d1d1d1"
     inkscape:document-units="mm"
     inkscape:zoom="0.74029882"
     inkscape:cx="396.46153"
     inkscape:cy="561.25984"
     inkscape:window-width="1920"
     inkscape:window-height="1009"
     inkscape:window-x="-8"
     inkscape:window-y="-8"
     inkscape:window-maximized="1"
     inkscape:current-layer="layer1" /><defs
     id="defs1" /><g
     inkscape:label="Layer 1"
     inkscape:groupmode="layer"
     id="layer1"><path
       style="fill:#000000"
       d="m 235.66926,288.93268 c -0.57911,-1.2204 -1.45682,-6.07316 -1.88839,-10.44072 -0.12091,-1.22373 -0.63414,-11.7484 -1.14051,-23.38815 -0.50636,-11.63975 -1.17228,-25.40675 -1.47981,-30.59333 -0.74452,-12.5566 -1.20195,-23.90663 -1.47105,-36.50059 -0.98914,-46.2921 -2.8164,-68.06579 -6.32009,-75.31073 -1.52484,-3.15306 -4.49175,-4.33597 -16.6769,-6.6491 -8.01769,-1.52202 -11.75582,-1.67519 -17.98359,-0.7369 -3.70043,0.55752 -5.32093,0.87418 -11.31184,2.21045 -4.32552,0.96481 -7.91016,1.1227 -10.21259,0.44984 -2.74242,-0.80145 -7.74716,-3.94842 -9.56669,-6.01551 -2.29067,-2.602345 -2.74074,-4.278015 -2.93292,-10.919625 -0.25153,-8.69288 1.26656,-15.94111 4.33216,-20.6842 1.81974,-2.81548 3.63383,-4.05254 6.72834,-4.58816 2.64316,-0.45749 4.95846,-1.47391 5.28281,-2.31915 0.70902,-1.84767 10.30484,-4.02775 28.76384,-6.53486 18.00683,-2.44569 21.94349,-3.76583 24.48151,-8.20973 1.37828,-2.41329 3.66617,-9.27562 3.75024,-11.24857 0.12047,-2.82693 -0.0132,-3.47135 -0.95111,-4.58601 -1.1637,-1.38298 -3.90084,-2.43836 -8.20462,-3.16353 -9.64602,-1.62531 -48.06791,-2.50935 -52.4104,-1.20589 -3.97238,1.19236 -5.84783,1.42377 -7.96938,0.98334 -2.72931,-0.56661 -3.89712,-1.53848 -3.89712,-3.24324 0,-1.09336 0.29526,-1.61746 1.63379,-2.89999 3.56147,-3.41249 11.67117,-4.87439 16.30337,-2.93894 0.74273,0.31034 2.30893,0.65983 3.48043,0.77665 1.82328,0.18181 2.38379,0.0756 3.89246,-0.73769 5.08261,-2.73989 17.53691,-4.17405 33.2808,-3.83242 14.46207,0.31381 21.22936,2.05619 24.00958,6.18176 2.22549,3.30241 3.20988,10.70126 2.938,22.08252 -0.24722,10.34861 -0.85063,12.77568 -3.82574,15.38785 -1.87383,1.64525 -3.84326,2.46286 -7.97274,3.30991 -11.76062,2.41236 -31.16483,4.44616 -49.82153,5.22192 -5.09889,0.21202 -9.72712,0.56799 -10.28495,0.79105 -1.40003,0.55983 -3.04824,3.39901 -3.82249,6.58457 -1.49441,6.14857 0.44562,16.69766 3.59631,19.5552 2.18854,1.98491 5.69786,2.09701 26.45674,0.84508 23.90609,-1.44173 30.64209,-0.55841 36.20551,4.747805 2.87871,2.74563 6.11422,8.07271 6.6047,10.87429 2.03291,11.61174 4.02881,91.30701 3.60807,144.06905 -0.20523,25.7378 -0.47581,32.29129 -1.37811,33.37849 -0.2454,0.2957 -1.07423,0.53763 -1.84184,0.53763 -1.21817,0 -1.4705,-0.15774 -1.98425,-1.24037 z M 96.429037,275.88799 c -2.48508,-2.09105 -4.01349,-7.08966 -5.2402,-17.13786 -1.2513,-10.24966 -2.24313,-14.31054 -3.92362,-16.06459 -1.85841,-1.93976 -2.7189,-11.06651 -2.01086,-21.32822 0.58827,-8.52591 1.67981,-12.79917 3.4096,-13.34817 0.83509,-0.26505 0.89066,-2.10386 0.0838,-2.77348 -2.26319,-1.87828 -3.5015,-6.88297 -3.5015,-14.15147 0,-6.04926 0.78227,-11.40769 2.47361,-16.94385 2.08123,-6.81238 2.60869,-9.3773 4.1809,-20.33058 1.71702,-11.96218 3.8481,-23.76612 7.24785,-40.14547 4.464423,-21.508725 5.661283,-29.767755 6.003573,-41.428185 0.2515,-8.5677 -0.0735,-12.7754 -1.56006,-20.19554 -1.5594,-7.78387 -4.139483,-15.01431 -9.183183,-25.73505 -3.13848,-6.67106 -3.97109,-9.3672 -3.97109,-12.85906 0,-2.46422 0.60755,-3.61952 1.90344,-3.61952 1.75518,0 8.987943,6.42443 11.398983,10.12503 1.7374,2.66666 3.01402,5.9427 3.01402,7.73451 0,2.64285 2.13898,8.64126 6.39204,17.92538 2.51371,5.48726 3.53879,8.44673 3.85366,11.12576 0.21541,1.83277 0.14628,2.1669 -0.61624,2.97856 -0.47238,0.50282 -1.13163,0.91422 -1.46501,0.91422 -0.33337,0 -0.92329,0.23191 -1.31092,0.51535 -0.68147,0.49831 -0.66004,0.61179 0.64779,3.43016 1.7836,3.84369 2.14021,6.0953 2.14021,13.51303 0,13.66045 -2.71611,27.606845 -12.63274,64.865325 -7.702573,28.93984 -8.334453,34.76342 -7.262583,66.93448 0.65651,19.70453 1.3029,29.15904 2.48168,36.29886 0.91325,5.53143 1.659563,7.94835 4.091303,13.24955 3.25994,7.10672 4.02005,10.8897 2.78293,13.85055 -0.80212,1.91975 -3.14515,3.28906 -5.931493,3.46647 -2.06686,0.13162 -2.41161,0.0462 -3.4959,-0.86619 z m -28.09594,-7.75388 c -2.91455,-1.26864 -5.14416,-4.86793 -6.62037,-10.68732 -2.81814,-11.10942 -3.29088,-27.21566 -1.85305,-63.13282 1.13098,-28.25191 2.18106,-35.77092 6.07815,-43.52185 1.57238,-3.1273 3.28063,-4.91264 5.35581,-5.59751 1.11484,-0.36793 1.55701,-0.32665 2.90573,0.27131 0.87493,0.3879 1.82296,0.9865 2.10673,1.33022 0.85073,1.03046 0.28291,5.71209 -1.37807,11.36208 -3.21658,10.94157 -4.59782,17.02457 -5.24354,23.09261 -0.21111,1.98386 -0.55333,5.20397 -0.7605,7.15579 -0.43821,4.1285 -0.99298,5.65202 -2.77729,7.62704 -0.71279,0.78897 -1.29595,1.55916 -1.29591,1.71154 3e-5,0.15238 0.23947,1.5286 0.53208,3.05827 1.31046,6.85063 2.80531,22.45316 2.80531,29.28048 0,6.16895 -0.84102,7.43151 -4.95027,7.43151 -1.74271,0 -1.47836,0.43428 0.68574,1.12656 4.24627,1.35834 7.89291,7.05416 9.83112,15.35559 2.02461,8.67142 0.82834,14.69288 -2.91105,14.6529 -0.74671,-0.008 -1.87648,-0.24036 -2.51062,-0.5164 z m 58.913683,-11.53194 c -1.7622,-1.23429 -1.99817,-4.93658 -0.78631,-12.33696 l 0.80753,-4.93133 -0.74612,-1.00192 c -0.56411,-0.7575 -1.16528,-1.05117 -2.46433,-1.20381 -5.76392,-0.67727 -6.82226,-6.08872 -7.17669,-36.69551 -0.29956,-25.86842 0.5324,-37.47801 3.55644,-49.62831 1.55329,-6.24098 4.11736,-10.07503 6.73781,-10.07503 5.1204,0 6.68697,9.00403 3.06463,17.61433 -2.73145,6.49269 -3.89375,9.79884 -4.65651,13.24552 -0.79963,3.6132 -0.84179,4.53978 -0.8063,17.71864 0.0374,13.87205 0.59115,28.68088 1.28273,34.3016 0.71512,5.81212 1.43613,7.91744 3.89607,11.37638 2.93013,4.12007 4.61069,9.16199 4.61069,13.83276 0,3.48147 -1.3103,6.27488 -3.52286,7.51036 -1.75145,0.97798 -2.69383,1.04581 -3.79678,0.27328 z m 41.57009,-10.92161 c -5.07583,-1.33071 -9.98,-4.37399 -14.45268,-8.96861 -3.35843,-3.45 -5.05075,-5.90621 -6.76149,-9.81354 -2.85444,-6.5195 -3.29972,-12.26772 -2.48877,-32.12786 0.81816,-20.03679 1.97314,-38.2596 2.6712,-42.14506 0.31439,-1.74995 0.69227,-4.14195 0.83973,-5.31556 0.32304,-2.57095 1.2344,-3.661 5.03922,-6.0272 2.96715,-1.84527 5.70069,-3.00275 8.89987,-3.76855 9.74758,-2.3333 29.80632,-2.5847 39.26118,-0.49203 7.47053,1.65346 10.46379,4.2045 11.68612,9.95965 0.9623,4.53087 3.7405,52.46487 3.74273,64.57567 0.002,12.20428 -0.60193,14.86584 -4.57147,20.13887 -4.5733,6.07507 -8.61846,9.46018 -13.11484,10.97488 -1.22096,0.41132 -5.37385,1.17079 -9.22864,1.68772 -3.85478,0.51693 -8.42712,1.19086 -10.16074,1.49762 -4.16358,0.73674 -8.1132,0.67555 -11.36142,-0.176 z m 20.34045,-14.25708 c 5.40017,-0.97268 6.05101,-1.4696 5.86321,-4.47663 -0.26834,-4.29651 -5.94571,-15.5267 -8.71457,-17.23794 -3.19869,-1.9769 -5.89221,-0.17299 -14.388,9.63596 -3.3421,3.85868 -6.62065,6.56035 -8.60461,7.09058 -1.96131,0.52418 -2.41812,0.94282 -2.41812,2.21601 0,1.28936 1.06909,1.92726 4.26926,2.54738 6.21098,1.20355 17.94797,1.31344 23.99283,0.22464 z m -27.48323,-12.02249 c 2.1347,-1.35379 3.30099,-2.85051 6.83429,-8.77058 3.03382,-5.0832 6.54618,-10.20615 8.56557,-12.4933 3.15754,-3.57621 3.10875,-5.23455 -0.30942,-10.51648 -2.65648,-4.10492 -4.58234,-6.47106 -5.26696,-6.47106 -0.62217,0 -4.94219,3.60957 -9.08243,7.58877 -4.26104,4.0953 -7.40509,7.97138 -8.78972,10.83622 -0.96826,2.00337 -1.04095,2.47096 -1.02696,6.60591 0.0381,11.25722 3.71824,16.61807 9.07563,13.22052 z m 43.14814,-9.66644 c 1.52525,-2.94952 2.18871,-14.67615 1.15741,-20.4572 -1.40204,-7.85922 -4.62994,-7.71564 -8.51388,0.37869 -2.60373,5.42633 -2.2739,9.35875 1.3353,15.92041 2.81167,5.11172 4.81325,6.49397 6.02117,4.1581 z m -12.22119,-27.23744 c 7.04269,-3.30529 13.59478,-18.33046 11.1103,-25.47802 -1.52033,-4.37383 -6.26938,-6.4056 -10.36865,-4.43595 -2.14764,1.03191 -2.84452,1.75124 -4.88256,5.03983 -5.59773,9.03251 -7.47427,17.62885 -4.83238,22.1369 1.99151,3.39825 5.36936,4.42864 8.97329,2.73724 z m -32.50682,-6.15634 c 2.41612,-1.90983 4.19348,-4.51102 4.41197,-6.45696 0.20222,-1.80108 -0.88323,-4.51126 -3.46908,-8.66168 -4.21477,-6.76492 -6.10446,-4.69815 -6.11391,6.68685 -0.006,6.86528 0.85989,9.83893 2.87939,9.89186 0.23663,0.006 1.26787,-0.65083 2.29163,-1.46007 z m 19.57989,-19.72927 c 2.12913,-1.00081 5.1088,-3.69517 6.2313,-5.63465 1.98039,-3.42174 1.07695,-6.62489 -2.3636,-8.38012 -4.87955,-2.48935 -12.3725,-1.50953 -14.17626,1.85379 -1.54902,2.88831 -0.33798,7.78389 2.66951,10.79138 2.65115,2.65115 4.28825,2.94467 7.63905,1.3696 z m -47.53493,-36.81714 c -1.20713,-1.20713 -1.19425,-3.11951 0.0459,-6.81179 1.45981,-4.34638 2.66643,-9.75735 3.36365,-15.083935 0.88725,-6.77844 0.88873,-25.54383 0.003,-33.50093 -1.79937,-16.15826 -4.32864,-25.82937 -9.71364,-37.14183 -3.51601,-7.38619 -3.74401,-8.06722 -3.02825,-9.04499 1.67965,-2.2945 9.31787,3.60517 14.04733,10.84997 5.68308,8.7056 10.76221,23.68086 12.15469,35.83678 1.59895,13.95829 -2.94994,41.518665 -8.39752,50.878065 -1.54038,2.64651 -4.68646,4.92888 -6.79412,4.92888 -0.42373,0 -1.18002,-0.4096 -1.68064,-0.91022 z m -62.464323,-1.4961 c -0.65795,-0.79278 -0.20058,-2.67517 1.12723,-4.63942 0.62043,-0.9178 1.37542,-2.24253 1.67775,-2.94385 1.76948,-4.10463 2.31787,-14.434015 1.95026,-36.734765 -0.33881,-20.55401 -1.09542,-27.22617 -3.31127,-29.2005 -2.09069,-1.86282 -2.9432,-7.56514 -1.42043,-9.50104 0.86385,-1.09821 1.7657,-1.22377 3.23625,-0.45058 2.20957,1.16175 5.87349,5.91053 8.34651,10.81784 4.21387,8.36173 5.89854,28.33876 2.96796,35.1946 -1.58793,3.71484 -2.61334,8.2707 -3.04644,13.53523 -1.16507,14.162015 -2.27572,18.884635 -5.1752,22.005535 -1.98379,2.13527 -5.33273,3.14584 -6.35262,1.91695 z"
       id="path2" /></g></svg>
