<?xml version="1.0" encoding="UTF-8" standalone="no"?>
<!-- Created with Inkscape (http://www.inkscape.org/) -->

<svg
   xmlns:dc="http://purl.org/dc/elements/1.1/"
   xmlns:cc="http://creativecommons.org/ns#"
   xmlns:rdf="http://www.w3.org/1999/02/22-rdf-syntax-ns#"
   xmlns:svg="http://www.w3.org/2000/svg"
   xmlns="http://www.w3.org/2000/svg"
   xmlns:sodipodi="http://sodipodi.sourceforge.net/DTD/sodipodi-0.dtd"
   xmlns:inkscape="http://www.inkscape.org/namespaces/inkscape"
   width="300"
   height="300"
   id="svg2"
   version="1.1"
   inkscape:version="0.48.3.1 r9886"
   sodipodi:docname="ä¼-.svg">
  <defs
     id="defs4" />
  <sodipodi:namedview
     id="base"
     pagecolor="#ffffff"
     bordercolor="#666666"
     borderopacity="1.0"
     inkscape:pageopacity="0.0"
     inkscape:pageshadow="2"
     inkscape:zoom="1.979899"
     inkscape:cx="160.99503"
     inkscape:cy="168.72649"
     inkscape:document-units="px"
     inkscape:current-layer="layer1"
     showgrid="false"
     inkscape:window-width="1215"
     inkscape:window-height="1000"
     inkscape:window-x="65"
     inkscape:window-y="24"
     inkscape:window-maximized="1" />
  <metadata
     id="metadata7">
    <rdf:RDF>
      <cc:Work
         rdf:about="">
        <dc:format>image/svg+xml</dc:format>
        <dc:type
           rdf:resource="http://purl.org/dc/dcmitype/StillImage" />
        <dc:title></dc:title>
      </cc:Work>
    </rdf:RDF>
  </metadata>
  <g
     inkscape:label="Calque 1"
     inkscape:groupmode="layer"
     id="layer1"
     transform="translate(0,-752.36218)">
    <path
       style="fill:#000000"
       d="m 104.29607,1027.0408 c -7.420446,-16.7383 -3.37304,-77.10269 6.28259,-93.70206 4.54665,-7.81631 6.01223,-16.00277 3.49118,-19.5011 -5.83782,-8.10092 -6.9648,-6.51271 -20.553122,28.96614 -11.749308,30.67717 -18.187572,39.16297 -23.802188,31.37182 -3.212274,-4.45754 10.379535,-89.10256 15.433802,-96.11611 1.680732,-2.33233 -6.672215,-6.74021 -18.562138,-9.7953 -23.923593,-6.14712 -27.581737,-18.82972 -6.18466,-21.44186 11.765202,-1.43633 11.904408,-1.93111 3.601156,-12.79917 -4.750433,-6.2178 -7.891519,-14.31483 -6.980199,-17.99343 1.421125,-5.73641 3.405991,-5.63254 13.94513,0.7299 6.758503,4.08004 14.468689,12.33691 17.133757,18.3485 4.36407,9.84401 7.983079,10.93024 36.416922,10.93024 17.36422,0 35.35263,1.24443 39.97435,2.76545 18.00251,5.92461 7.31798,-40.45044 -11.50848,-49.95126 -6.26823,-3.16325 -5.36529,-4.94506 4.75979,-9.39268 8.219,-3.61026 12.06246,-8.90114 11.23012,-15.45913 -1.57932,-12.44269 9.23834,-13.2183 12.98495,-0.93097 2.5042,8.21255 28.75981,18.19746 48.04477,18.27122 17.98072,0.0688 0.70357,16.50505 -19.92143,18.95186 -11.47624,1.36147 -13.50292,4.20668 -14.91447,20.93852 -1.51653,17.97549 -0.68476,19.36299 11.60703,19.36299 19.98397,0 40.49417,8.01946 40.49417,15.83323 0,5.06885 -5.75257,6.94674 -21.28019,6.94674 l -21.28018,0 1.0647,46.44677 c 1.13845,49.66386 7.63353,62.89712 30.87091,62.89712 5.84362,0 10.62476,2.05019 10.62476,4.556 0,2.50579 -9.56235,4.55598 -21.24953,4.55598 -11.68724,0 -21.24954,1.84618 -21.24954,4.10258 0,4.32621 -29.2604,3.22497 -47.70399,-1.79534 -13.34353,-3.63208 -8.95991,-11.41922 6.42821,-11.41922 16.29982,0 31.40537,-13.04884 25.71576,-22.21445 -4.3033,-6.93222 -12.43645,-54.01569 -13.2799,-76.87846 -0.29484,-7.98833 -3.50687,-10.25098 -14.5528,-10.25098 -7.79598,0 -17.93577,-1.23782 -22.53285,-2.75068 -12.63694,-4.15886 -15.92493,9.47897 -6.28205,26.05641 11.20547,19.26372 10.66733,32.42161 -2.16576,52.95621 -7.47127,11.95503 -10.64892,25.81063 -10.70614,46.68245 -0.0972,35.53367 -7.082,49.47257 -15.39444,30.72207 z"
       id="path3056"
       inkscape:connector-curvature="0" />
  </g>
</svg>
