<?xml version="1.0" encoding="UTF-8" standalone="no"?>
<svg
   xmlns:dc="http://purl.org/dc/elements/1.1/"
   xmlns:cc="http://creativecommons.org/ns#"
   xmlns:rdf="http://www.w3.org/1999/02/22-rdf-syntax-ns#"
   xmlns:svg="http://www.w3.org/2000/svg"
   xmlns="http://www.w3.org/2000/svg"
   version="1.1"
   id="svg5169"
   width="300"
   height="300"
   viewBox="0 0 300 300">
  <metadata
     id="metadata5175">
    <rdf:RDF>
      <cc:Work
         rdf:about="">
        <dc:format>image/svg+xml</dc:format>
        <dc:type
           rdf:resource="http://purl.org/dc/dcmitype/StillImage" />
        <dc:title></dc:title>
      </cc:Work>
    </rdf:RDF>
  </metadata>
  <defs
     id="defs5173" />
  <path
     style="fill:#000000;stroke-width:0.6885255"
     d="M 65.323024,231.03654 C 75.216984,197.6003 81.764977,162.94927 81.588162,127.7007 81.44894,99.946297 79.881506,64.839055 75.007206,42.358057 c -1.483525,-7.033145 4.042827,-14.873951 9.250577,-11.027325 16.622397,12.277886 21.622597,59.453443 22.773967,78.240188 1.80598,29.46798 -5.68985,92.66371 -21.356465,142.62054 -2.39461,7.6358 -6.608396,19.64531 -11.942052,28.20612 -1.523593,2.44545 -5.213915,6.76022 -7.978471,3.32535 -8.7518,-10.87382 -7.577222,-28.53852 -0.431738,-52.68639 z m 158.054526,45.55223 c -21.92735,-39.40046 -39.01879,-97.77268 -42.0088,-139.06657 -2.12513,-32.58817 1.06704,-70.784586 7.07616,-99.89343 0.71175,-3.447808 8.61895,-27.8777228 13.99274,-21.603376 2.8138,3.28534 8.26155,11.690902 7.92857,18.04041 -1.62737,31.032095 -2.32779,57.794029 -0.93625,91.341206 1.46901,35.4148 11.7865,64.3014 20.54388,93.98373 4.27106,14.51258 16.70691,50.30662 6.57231,58.15776 -4.7119,3.65024 -11.22017,2.54135 -13.16861,-0.95973 z"
     id="path5179" />
</svg>
