<?xml version="1.0" encoding="UTF-8" standalone="no"?>
<!-- Created with Inkscape (http://www.inkscape.org/) -->

<svg
   xmlns:dc="http://purl.org/dc/elements/1.1/"
   xmlns:cc="http://creativecommons.org/ns#"
   xmlns:rdf="http://www.w3.org/1999/02/22-rdf-syntax-ns#"
   xmlns:svg="http://www.w3.org/2000/svg"
   xmlns="http://www.w3.org/2000/svg"
   xmlns:sodipodi="http://sodipodi.sourceforge.net/DTD/sodipodi-0.dtd"
   xmlns:inkscape="http://www.inkscape.org/namespaces/inkscape"
   width="300"
   height="300"
   id="svg2"
   version="1.1"
   inkscape:version="0.48.2 r9819"
   sodipodi:docname="兵-bronze.svg">
  <defs
     id="defs4" />
  <sodipodi:namedview
     id="base"
     pagecolor="#ffffff"
     bordercolor="#666666"
     borderopacity="1.0"
     inkscape:pageopacity="0.0"
     inkscape:pageshadow="2"
     inkscape:zoom="1.979899"
     inkscape:cx="201.23135"
     inkscape:cy="139.41443"
     inkscape:document-units="px"
     inkscape:current-layer="layer1"
     showgrid="false"
     inkscape:window-width="1280"
     inkscape:window-height="999"
     inkscape:window-x="0"
     inkscape:window-y="24"
     inkscape:window-maximized="1" />
  <metadata
     id="metadata7">
    <rdf:RDF>
      <cc:Work
         rdf:about="">
        <dc:format>image/svg+xml</dc:format>
        <dc:type
           rdf:resource="http://purl.org/dc/dcmitype/StillImage" />
        <dc:title></dc:title>
      </cc:Work>
    </rdf:RDF>
  </metadata>
  <g
     inkscape:label="Calque 1"
     inkscape:groupmode="layer"
     id="layer1"
     transform="translate(0,-752.36218)">
    <path
       style="fill:#000000"
       d="m 235.62193,1034.2702 c -1.40355,-0.789 -2.55186,-16.2388 -2.55186,-34.33289 0,-20.54698 -1.38753,-32.89824 -3.69577,-32.89824 -2.03266,0 -3.69576,0.95507 -3.69576,2.12234 0,3.23294 -18.98057,18.6555 -22.95936,18.6555 -4.86569,0 -0.0503,-11.2249 10.68339,-24.90381 6.09846,-7.77175 8.11712,-13.06033 6.34479,-16.62227 -5.1084,-10.26651 0.31043,-21.70665 7.61985,-16.08675 3.56705,2.74254 5.04968,1.76157 9.15659,-6.05825 4.26066,-8.11268 4.07001,-11.0553 -1.46071,-22.54236 -10.96822,-22.78057 2.93872,-31.24558 15.38492,-9.3646 8.16668,14.35735 9.20993,29.8334 2.73401,40.55712 -4.42014,7.31946 -5.34045,12.77038 -3.30837,19.59451 6.34028,21.29169 1.50491,75.5718 -7.18601,80.6677 -2.48264,1.4557 -5.66221,2.0011 -7.06571,1.212 z m -120.81638,-30.5234 c 0,-2.6663 1.58689,-9.9126 3.52638,-16.1028 1.93954,-6.1902 5.42461,-17.31353 7.74459,-24.7185 2.32003,-7.40499 7.20793,-15.82411 10.86202,-18.7092 3.6541,-2.88506 7.39748,-10.38399 8.31868,-16.66425 0.92118,-6.28028 4.42494,-16.84057 7.78621,-23.46731 3.36123,-6.62674 6.11132,-13.76942 6.11132,-15.87263 0,-2.10321 3.29241,-6.03133 7.31644,-8.72921 6.24417,-4.18628 7.86081,-4.44842 11.03071,-1.78853 5.02202,4.21404 4.77156,13.82049 -0.57718,22.13644 -2.42253,3.76645 -3.02638,7.57284 -1.34192,8.45867 1.68449,0.8858 3.80516,0.44179 4.71261,-0.98668 0.90742,-1.42847 4.83751,-2.59724 8.73343,-2.59724 11.40666,0 8.60737,8.42105 -5.87834,17.68388 -17.40521,11.12969 -18.99025,15.74376 -9.71761,28.28799 10.09876,13.66175 14.8153,37.13948 7.46113,37.13948 -2.83354,0 -7.31663,-3.03876 -9.96246,-6.7528 -2.64583,-3.71403 -8.63829,-11.419 -13.31661,-17.12211 l -8.50608,-10.36936 -6.06437,11.72801 c -3.33539,6.45042 -6.0894,14.38913 -6.12002,17.64159 -0.055,5.86365 -6.51123,18.06056 -12.2036,23.05526 -4.75367,4.1711 -9.91533,2.9994 -9.91533,-2.2507 z m 76.66121,-31.73527 c -1.13779,-1.03501 0.22617,-11.6935 3.03115,-23.68553 2.8049,-11.99204 4.17826,-23.48481 3.05186,-25.53954 -1.12644,-2.0547 -0.0758,-5.07189 2.33483,-6.70486 2.74251,-1.85783 4.50525,-11.49756 4.70981,-25.7566 0.30195,-21.03503 -0.46998,-23.67311 -10.0354,-34.30201 -5.69929,-6.33294 -12.73448,-19.19943 -15.63372,-28.59218 -2.89926,-9.39274 -6.01579,-17.49622 -6.92557,-18.0077 -0.90979,-0.51149 -5.31674,1.68775 -9.7932,4.88723 -15.70087,11.22186 -63.22159,33.0203 -79.68364,36.55204 -7.443372,1.59686 -8.026506,2.73067 -5.896959,11.46546 1.899473,7.79114 1.344671,9.50635 -2.827113,8.7404 -2.854677,-0.52412 -7.359928,-3.45516 -10.011721,-6.51343 -2.651742,-3.05827 -7.225257,-5.56049 -10.163361,-5.56049 -3.641258,0 -5.341969,-2.31523 -5.341969,-7.27223 0,-3.99974 1.698752,-7.27225 3.77501,-7.27225 2.07624,0 5.619778,-2.57126 7.874491,-5.71391 10.183532,-14.19379 34.083503,-39.99733 37.046684,-39.99733 6.215028,0 7.768138,6.62079 3.332888,14.20793 -2.446373,4.18484 -5.899363,10.19727 -7.67333,13.36098 l -3.22542,5.75217 11.61539,-3.6744 c 9.68638,-3.06416 54.65325,-27.10289 75.8623,-40.55504 7.37452,-4.67739 12.83794,-4.59489 20.73845,0.31316 4.16148,2.58524 4.99756,4.42173 2.4207,5.3171 -9.46749,3.2896 0.16593,38.15578 15.97062,57.80137 8.61569,10.70965 9.659,14.58579 9.659,35.8856 0,17.77454 -1.98404,27.98444 -7.76096,39.93807 -4.2685,8.83247 -9.45806,19.79903 -11.53234,24.37016 -6.13623,13.5225 -12.70321,22.57101 -14.91848,20.55583 z"
       id="path3092"
       inkscape:connector-curvature="0" />
  </g>
</svg>
