<?xml version="1.0" encoding="UTF-8" standalone="no"?>
<svg
   xmlns:dc="http://purl.org/dc/elements/1.1/"
   xmlns:cc="http://creativecommons.org/ns#"
   xmlns:rdf="http://www.w3.org/1999/02/22-rdf-syntax-ns#"
   xmlns:svg="http://www.w3.org/2000/svg"
   xmlns="http://www.w3.org/2000/svg"
   viewBox="0 0 300 300"
   height="300"
   width="300"
   id="svg262"
   version="1.1">
  <metadata
     id="metadata268">
    <rdf:RDF>
      <cc:Work
         rdf:about="">
        <dc:format>image/svg+xml</dc:format>
        <dc:type
           rdf:resource="http://purl.org/dc/dcmitype/StillImage" />
        <dc:title></dc:title>
      </cc:Work>
    </rdf:RDF>
  </metadata>
  <defs
     id="defs266" />
  <path
     id="path272"
     d="m 153.74102,283.34084 c -0.0358,-0.91253 -0.28766,-4.62035 -0.55972,-8.2396 -0.27206,-3.61925 -0.23003,-7.51558 0.0935,-8.65849 1.80127,-6.36513 3.68764,-26.88663 3.59749,-39.13641 -0.15525,-21.09439 -2.05357,-26.78634 -12.08197,-36.22665 -8.87868,-8.35801 -13.38326,-10.46856 -26.31081,-12.32751 -5.52411,-0.79435 -10.08306,-1.49397 -10.13096,-1.55469 -0.048,-0.0607 -0.27789,-0.73385 -0.51104,-1.49579 -0.35078,-1.14636 0.26176,-1.73823 3.55051,-3.43072 5.95944,-3.06692 12.39533,-9.93924 15.9235,-17.00333 4.7152,-9.44072 5.06732,-11.69077 4.98646,-31.86327 -0.0389,-9.71483 0.031,-29.992092 0.15534,-45.060571 l 0.22613,-27.397235 2.60426,-5.268891 c 4.81041,-9.732425 17.30596,-21.369507 29.38602,-27.367153 L 171.33758,15 h 8.99198 8.99198 l 1.46416,1.956344 1.46417,1.956344 -2.94389,5.43321 c -1.82409,3.366539 -2.94389,6.330828 -2.94389,7.793018 0,1.297893 -0.76519,4.609562 -1.70042,7.359262 -1.86691,5.488936 -2.6196,10.284143 -4.14612,26.413782 -2.13947,22.606364 -2.75885,35.08709 -1.92132,38.71546 0.63,2.72929 0.58447,4.62809 -0.22065,9.20301 -1.23922,7.04152 -1.37374,29.65949 -0.21172,35.5954 0.44254,2.26056 0.86585,8.1623 0.94069,13.11495 0.46315,30.65072 1.84218,63.29972 3.48166,82.42889 2.83545,33.08351 2.83348,33.00507 0.88209,35.2737 -2.34839,2.73017 -7.52051,3.88897 -19.44313,4.35622 L 153.80615,285 l -0.065,-1.65916 z m 21.55658,-7.90279 c 1.68834,-0.87308 2.12409,-1.48794 1.87254,-2.64221 -3.35371,-15.3884 -3.42715,-15.98992 -3.02976,-24.81721 0.23318,-5.17952 0.0869,-10.42292 -0.35757,-12.81457 -0.43542,-2.3431 -0.69736,-11.04964 -0.62193,-20.67229 0.0717,-9.14338 -0.38546,-25.66379 -1.01584,-36.71203 -0.63039,-11.04825 -0.96439,-22.26965 -0.74221,-24.93647 0.22217,-2.66682 0.11393,-11.23873 -0.24054,-19.0487 -0.54798,-12.07347 -0.48091,-14.92603 0.44791,-19.04868 0.90241,-4.00545 1.02617,-7.92085 0.7116,-22.5121 -0.39785,-18.454641 0.0367,-25.246351 2.92525,-45.718963 0.77958,-5.525275 2.04084,-12.22596 2.80281,-14.89041 1.63119,-5.703987 1.68329,-6.601059 0.47896,-8.248068 -0.84355,-1.153619 -1.69644,-0.823914 -12.29506,4.752892 -8.78299,4.621453 -12.29647,6.887046 -15.35653,9.902326 -4.67414,4.605754 -8.16493,11.254607 -9.91009,18.875556 -1.50086,6.554114 -2.02912,21.19941 -1.07436,29.785229 0.40248,3.619251 1.10059,15.016408 1.55137,25.327028 0.73895,16.90166 0.70649,19.19687 -0.32981,23.3224 -0.63218,2.51671 -0.96728,5.4865 -0.74468,6.59954 0.55808,2.79043 -5.60312,19.95528 -8.01563,22.33116 -0.96711,0.95244 -3.12728,2.83621 -4.80038,4.18615 -2.72603,2.1995 -2.95851,2.61049 -2.23806,3.95665 0.55747,1.04165 2.34044,1.95391 5.81557,2.97556 2.75638,0.81034 8.15537,3.14944 11.99775,5.19801 l 6.98616,3.72464 5.44236,8.50868 c 2.99331,4.67977 5.85021,9.68299 6.34867,11.11826 1.95978,5.64294 3.13707,15.8966 2.72256,23.71225 -1.0882,20.51782 -1.98656,30.72316 -3.21809,36.55723 -1.99653,9.45808 -1.80745,11.70148 1.05402,12.50586 2.47597,0.69603 10.57572,-0.11043 12.83301,-1.27772 z"
     style="fill:#000000;stroke-width:0.69267976" />
</svg>
