<?xml version="1.0" encoding="UTF-8" standalone="no"?>
<svg
   xmlns:dc="http://purl.org/dc/elements/1.1/"
   xmlns:cc="http://creativecommons.org/ns#"
   xmlns:rdf="http://www.w3.org/1999/02/22-rdf-syntax-ns#"
   xmlns:svg="http://www.w3.org/2000/svg"
   xmlns="http://www.w3.org/2000/svg"
   version="1.1"
   id="svg2"
   width="300"
   height="300"
   viewBox="0 0 300 300">
  <metadata
     id="metadata8">
    <rdf:RDF>
      <cc:Work
         rdf:about="">
        <dc:format>image/svg+xml</dc:format>
        <dc:type
           rdf:resource="http://purl.org/dc/dcmitype/StillImage" />
        <dc:title></dc:title>
      </cc:Work>
    </rdf:RDF>
  </metadata>
  <defs
     id="defs6" />
  <path
     style="fill:#000000;stroke-width:0.68949348"
     d="m 42.080584,284.72441 c -9.929191,-0.91199 -12.919569,-1.8253 -15.870279,-4.84711 -1.461041,-1.49624 -2.521462,-2.84485 -2.35649,-2.9969 0.164962,-0.15206 2.471847,-1.66956 5.126396,-3.37223 l 4.826449,-3.09577 26.672888,-4.56961 c 19.390226,-2.60612 52.509522,-4.93685 69.197802,-7.88534 1.85807,-1.85194 1.86088,-1.87048 1.48708,-9.78463 -0.38809,-67.39781 -2.44861,-141.85906 -2.51472,-206.83014 -20.44507,4.988916 -32.580751,7.563353 -48.469935,9.473556 -8.712542,-3.33827 -9.476261,-3.771135 -9.480532,-5.373436 -0.0066,-2.644982 -1.823352,-4.698155 -4.62032,-5.222874 -2.372399,-0.445062 -2.436375,-0.525365 -1.186797,-1.489584 2.349665,-1.81311 12.263223,-6.254713 17.897434,-8.018645 25.62637,-5.524361 42.1418,-9.219048 66.16255,-15.711696 l 14.13461,0.308424 c 12.54417,0.273712 15.27063,0.552398 24.23064,2.476736 13.52291,2.904304 24.7234,6.663687 24.7234,8.298262 0,0.319872 -1.00839,0.76015 -2.24086,0.9784 -1.23247,0.218259 -8.44629,1.473001 -16.03073,2.788321 -22.24828,4.66217 -25.58021,5.653876 -41.81408,8.848191 l -3.97496,0.821013 c 2.97707,43.953867 9.69358,175.136482 11.84292,213.515572 4.72128,2.51476 8.51687,2.79979 17.15211,1.2881 26.55721,-3.11985 44.23462,-3.87818 69.19498,-6.84239 15.81861,-1.43856 16.17431,-1.72321 28.95873,-5.49204 l 0.45671,3.26449 c 0.25119,1.79546 0.4839,4.87311 0.51712,6.8392 l 0.0604,3.57473 c -73.86877,12.1214 -166.57914,23.34457 -234.083023,29.0574 z"
     id="path12" />
</svg>
