<?xml version="1.0" encoding="UTF-8" standalone="no"?>
<svg
   xmlns:dc="http://purl.org/dc/elements/1.1/"
   xmlns:cc="http://creativecommons.org/ns#"
   xmlns:rdf="http://www.w3.org/1999/02/22-rdf-syntax-ns#"
   xmlns:svg="http://www.w3.org/2000/svg"
   xmlns="http://www.w3.org/2000/svg"
   viewBox="0 0 300 300"
   height="300"
   width="300"
   id="svg173"
   version="1.1">
  <metadata
     id="metadata179">
    <rdf:RDF>
      <cc:Work
         rdf:about="">
        <dc:format>image/svg+xml</dc:format>
        <dc:type
           rdf:resource="http://purl.org/dc/dcmitype/StillImage" />
        <dc:title></dc:title>
      </cc:Work>
    </rdf:RDF>
  </metadata>
  <defs
     id="defs177" />
  <path
     id="path183"
     d="m 114.69419,238.44355 c 14.97891,-2.30241 28.05959,-6.36893 38.68039,-12.40502 9.06533,-5.43862 18.52034,-12.22272 24.1929,-21.85318 -18.87639,-4.25707 -37.56696,-8.68297 -50.34302,-10.93182 -17.04765,-3.00074 -10.52901,-13.75372 1.64115,-12.81605 18.93417,1.45882 36.41391,3.18316 57.70293,7.14557 4.92234,-9.37814 7.23874,-18.76482 2.76721,-23.33267 -8.41173,-8.59291 -33.78642,-10.25305 -47.36108,-11.83268 -10.50372,-0.82953 -6.46326,-29.01352 -5.69367,-34.63277 l 2.93477,-21.428571 c 0.59812,-4.367278 6.19056,-48.77487 15.23594,-41.69392 7.76968,6.082304 10.37195,16.714883 9.47344,23.76774 l -3.36313,20.308639 26.87098,-1.212579 c 8.14846,-0.367707 33.29335,0.384253 30.33267,10.830641 -2.85202,10.06298 -27.19968,11.2952 -39.59033,11.32299 l -21.08973,0.0473 c -1.2841,7.8095 -2.41014,13.8804 -4.80062,19.16103 18.24698,0.24095 42.35651,4.00193 53.80581,16.06597 10.73881,11.3154 6.53122,25.05313 0.91558,36.87596 23.04151,6.00697 36.19165,11.5768 52.39077,18.72595 4.58149,2.02195 43.73948,21.58641 29.93931,28.90697 -7.64626,4.0561 -19.88682,0.57346 -28.09263,-4.03164 -19.95028,-11.56161 -42.57294,-20.24096 -64.49583,-26.50916 -19.88192,27.90875 -45.13614,36.575 -78.06189,36.56501 -8.22746,-0.002 -10.51697,-5.98966 -3.99192,-7.04371 z M 7.7329456,233.37068 c 0.071284,-7.68094 27.2637404,-13.68735 30.5084714,-14.42814 33.79362,-7.71529 40.634261,-38.56634 41.592461,-64.3323 -12.522401,1.62359 -42.126154,6.0021 -50.785797,2.19988 -24.2224796,-10.63546 -2.544454,-60.076115 3.186376,-74.281701 3.764351,-9.341102 13.849912,-6.415178 15.91549,0.44013 2.373514,7.877296 -1.29626,22.315731 -4.83241,36.849631 -4.157624,17.08822 23.822263,14.18633 36.732351,13.18971 L 79.413977,93.148119 c -0.182252,-11.423835 -0.114,-15.592312 4.50372,-18.57403 14.539087,-9.388065 23.059703,1.341151 22.512223,12.78262 -1.79069,31.017531 -2.93606,65.100731 -8.838273,91.473701 -3.802559,16.99103 -12.167884,32.29443 -25.07319,42.14423 -14.707435,11.22526 -40.906673,15.10887 -59.514717,15.29248 -3.9646263,-0.0277 -5.3010309,0.36156 -5.2707944,-2.89644 z"
     style="fill:#000000;stroke-width:0.72639227" />
</svg>
