<?xml version="1.0" encoding="UTF-8" standalone="no"?>
<svg
   xmlns:dc="http://purl.org/dc/elements/1.1/"
   xmlns:cc="http://creativecommons.org/ns#"
   xmlns:rdf="http://www.w3.org/1999/02/22-rdf-syntax-ns#"
   xmlns:svg="http://www.w3.org/2000/svg"
   xmlns="http://www.w3.org/2000/svg"
   viewBox="0 0 300 300"
   height="300"
   width="300"
   id="svg148"
   version="1.1">
  <metadata
     id="metadata154">
    <rdf:RDF>
      <cc:Work
         rdf:about="">
        <dc:format>image/svg+xml</dc:format>
        <dc:type
           rdf:resource="http://purl.org/dc/dcmitype/StillImage" />
        <dc:title></dc:title>
      </cc:Work>
    </rdf:RDF>
  </metadata>
  <defs
     id="defs152" />
  <path
     id="path158"
     d="m 77.048321,282.05159 c -6.193282,-0.77022 -11.679563,-1.84289 -12.205156,-2.2791 -1.097699,-1.59171 -0.955623,-3.03504 -0.955623,-4.89899 13.424101,0.49755 26.853644,0.55082 40.284508,0.64293 -0.51556,-27.06996 1.52393,-55.28497 8.35285,-80.75462 7.57944,-28.26885 14.65945,-47.9838 26.87915,-66.67475 l -5.84564,-88.046199 c 0,0 -39.339684,56.888726 -51.602609,82.901659 -1.856442,4.19678 -3.130478,5.21259 -4.149517,3.3085 -0.630718,-1.17851 -0.77317,-3.50469 2.317995,-11.34076 12.266665,-31.095867 35.690901,-64.950476 52.345011,-89.582508 0.37791,-4.056505 0.51146,-7.183389 2.39003,-10.327775 3.75526,1.668256 4.51019,5.813522 4.84115,8.34157 l 1.0131,8.804253 c 0,0 33.14725,30.126889 49.30991,45.626607 8.32159,7.980264 22.92881,21.55268 24.53362,24.382423 2.23347,3.93821 2.13893,5.3731 -0.69512,4.81398 -5.45285,-1.07578 -9.9677,-3.7568 -19.90763,-12.724713 l -52.50081,-47.366812 5.09262,71.271335 c 0.56717,8.11643 1.57476,9.17943 3.42191,11.12209 5.49531,6.41302 12.0756,15.5181 15.77282,24.7554 11.49023,28.70768 15.56878,60.79925 18.68793,91.40967 0.96804,9.50005 2.82322,30.32986 2.82322,30.32986 13.63321,0.26986 21.68872,-0.034 28.00019,0.0877 16.15197,0.31708 19.9337,0.94456 20.72535,3.43882 0.63157,1.98991 -0.76511,2.83223 -6.13177,4.10801 -6.88236,1.63609 -17.9839,1.23333 -27.90825,1.25508 -23.38966,0.0512 -40.36827,0.18105 -69.66954,0.33685 -19.0695,0.1014 -37.722949,-0.7645 -55.219699,-2.94043 z m 104.111449,-6.56471 c -3.5386,-3.58698 -4.80283,-19.60268 -5.42196,-28.00635 -2.42197,-32.87397 -7.39548,-64.40163 -17.79235,-91.02147 -3.09448,-7.92304 -9.5385,-15.93188 -13.18212,-19.40394 -10.96674,15.54575 -17.35372,31.86011 -24.84593,58.45493 -7.38996,26.23184 -8.64886,55.59536 -8.81302,80.13396 z"
     style="fill:#000000;stroke-width:0.69513065" />
</svg>
