<?xml version="1.0" encoding="UTF-8" standalone="no"?>
<svg
   xmlns:dc="http://purl.org/dc/elements/1.1/"
   xmlns:cc="http://creativecommons.org/ns#"
   xmlns:rdf="http://www.w3.org/1999/02/22-rdf-syntax-ns#"
   xmlns:svg="http://www.w3.org/2000/svg"
   xmlns="http://www.w3.org/2000/svg"
   version="1.1"
   id="svg4507"
   width="300"
   height="300"
   viewBox="0 0 300 300">
  <metadata
     id="metadata4513">
    <rdf:RDF>
      <cc:Work
         rdf:about="">
        <dc:format>image/svg+xml</dc:format>
        <dc:type
           rdf:resource="http://purl.org/dc/dcmitype/StillImage" />
        <dc:title></dc:title>
      </cc:Work>
    </rdf:RDF>
  </metadata>
  <defs
     id="defs4511" />
  <path
     style="fill:#000000;stroke-width:0.72639227"
     d="M 36.750224,247.39199 C 15.239221,206.44229 24.228738,184.33035 31.120554,141.43339 81.888622,130.62631 139.53734,128.8053 177.10839,130.02 c 37.91469,1.26034 50.45162,2.41201 74.77339,6.86888 12.87052,2.62853 31.54491,14.10494 36.43803,22.95717 14.76085,46.97038 -57.48897,92.48386 -91.20515,100.05338 -25.65935,4.93748 -51.0527,8.09399 -77.69466,11.57089 -31.142576,2.12467 -66.34968,2.82709 -82.669776,-24.07833 z m 92.534936,-5.04579 c 1.64585,-9.79945 3.62631,-25.23185 3.06153,-32.37206 -14.56947,-0.67375 -56.564744,3.25438 -81.315246,5.55673 0.482041,19.13434 14.010867,29.13065 33.82513,30.98939 14.776052,0.2927 31.888936,2.15631 44.428586,-4.17406 z m 85.23243,-9.07454 c 7.53963,-7.86069 20.70918,-16.60741 25.45942,-24.42292 -23.30193,-0.76263 -63.27233,-1.48437 -82.99145,0.53502 -1.05124,10.24716 -2.1616,19.47964 -2.22609,32.66061 20.65171,-0.93726 43.71664,-3.6834 59.75812,-8.77271 z m 45.954,-46.26404 c 3.17637,-12.3079 10.3908,-19.37147 1.15132,-28.92331 -11.11976,-6.49276 -94.60071,-6.88212 -107.76574,-4.24969 0.92225,4.98487 1.03059,29.53823 2.71154,29.6533 31.54257,1.19367 68.40387,2.62406 103.90288,3.5197 z m -128.26197,-4.42 c 1.0761,-11.14239 -1.61786,-22.8094 -1.83193,-29.40891 -18.48476,-1.22718 -64.653012,3.19968 -86.518026,4.60416 1.125321,8.09649 1.531431,21.0841 5.326216,28.86699 25.888898,-1.71204 59.9773,-1.34193 83.02374,-4.06224 z m 51.0731,-86.170019 c -9.56227,-1.426694 -18.12369,-1.70068 -26.8344,-5.035215 -3.11338,-1.300852 -6.25257,-6.512673 -8.78922,-14.592254 -2.87814,-14.328464 2.27361,-20.000285 11.88728,-27.36289 8.12926,6.697276 18.53253,16.925354 29.59762,17.556595 4.62885,-9.586982 8.23053,-20.894239 13.04455,-29.477068 l 5.58788,-9.899527 3.51225,3.459432 c 8.29736,9.103794 11.08191,20.81138 10.47409,30.58119 -0.45538,7.074726 -0.41212,7.395774 1.0595,7.862847 14.67915,-1.518998 28.10304,-11.287187 42.61827,-18.686207 8.03633,0.06434 10.06066,12.226078 8.93599,18.391693 -10.66115,22.632249 -38.90865,17.943954 -56.23823,20.24863 -6.47168,13.437843 -15.40546,31.782943 -30.563,34.005523 l -3.20299,0.36102 c -0.3855,-9.8007 -0.69367,-17.48479 -1.08959,-27.413769 z M 77.930974,119.97456 c -7.8204,-11.28483 -27.58439,-18.31564 -41.96935,-14.93012 -12.403984,3.07024 -18.830162,-3.44048 -23.72947,-12.69333 -4.6218451,-9.275914 -1.96469,-19.823169 0.75225,-27.741594 9.126786,2.888696 36.010211,11.743943 45.90069,13.804735 2.762568,-13.231037 5.754251,-35.926803 7.48361,-48.476418 12.562492,0.341943 15.98804,37.286588 20.34692,39.50439 11.318868,-0.341061 32.449366,-18.403554 38.466626,-10.733022 4.30649,5.646086 4.95333,10.37685 2.45814,17.977744 -4.70465,12.057573 -17.50153,16.746123 -24.45876,19.730126 -15.746826,6.743319 -15.931586,6.930019 -16.682366,16.857079 -0.127623,6.57119 -4.579966,12.36062 -8.56829,6.70041 z"
     id="path4517" />
</svg>
