<?xml version="1.0" encoding="UTF-8" standalone="no"?>
<!-- Created with Inkscape (http://www.inkscape.org/) -->

<svg
   width="300mm"
   height="300mm"
   viewBox="0 0 300 300"
   version="1.1"
   id="svg1"
   xml:space="preserve"
   inkscape:version="1.3.2 (091e20e, 2023-11-25, custom)"
   sodipodi:docname="èœ-seal.svg"
   xmlns:inkscape="http://www.inkscape.org/namespaces/inkscape"
   xmlns:sodipodi="http://sodipodi.sourceforge.net/DTD/sodipodi-0.dtd"
   xmlns="http://www.w3.org/2000/svg"
   xmlns:svg="http://www.w3.org/2000/svg"><sodipodi:namedview
     id="namedview1"
     pagecolor="#ffffff"
     bordercolor="#000000"
     borderopacity="0.25"
     inkscape:showpageshadow="2"
     inkscape:pageopacity="0.0"
     inkscape:pagecheckerboard="0"
     inkscape:deskcolor="#d1d1d1"
     inkscape:document-units="mm"
     inkscape:zoom="0.74029882"
     inkscape:cx="407.26797"
     inkscape:cy="476.15907"
     inkscape:window-width="1920"
     inkscape:window-height="1009"
     inkscape:window-x="-8"
     inkscape:window-y="-8"
     inkscape:window-maximized="1"
     inkscape:current-layer="layer1" /><defs
     id="defs1" /><g
     inkscape:label="Layer 1"
     inkscape:groupmode="layer"
     id="layer1"><path
       style="fill:#000000;stroke-width:0.937095"
       d="m 136.91359,288.80917 c -0.50944,-4.63659 -0.88595,-19.37736 -1.1918,-46.65997 -0.36773,-32.80374 -0.88801,-58.1593 -1.21848,-59.38245 -0.19221,-0.71146 -0.34099,-0.76566 -1.56465,-0.56999 -3.22583,0.51583 -10.96101,4.91943 -11.53537,6.56701 -0.39121,1.12224 -2.02889,2.37335 -4.56216,3.48527 -1.09237,0.47947 -2.48407,1.34832 -3.09266,1.93078 -3.64138,3.48501 -6.14655,12.25838 -11.09083,38.8414 -5.094547,27.39085 -8.047126,39.50593 -11.222171,46.04696 -2.211337,4.55567 -5.499227,5.9656 -8.346664,3.57925 -1.384464,-1.16027 -1.939421,-2.75788 -1.947911,-5.6076 -0.0066,-2.31314 0.132955,-2.96844 1.043605,-4.89053 2.779704,-5.86699 6.192331,-20.21571 11.48491,-48.28947 2.844878,-15.09025 3.718072,-18.99839 5.387703,-24.1136 2.765768,-8.47346 7.557628,-15.03206 13.961538,-19.10913 2.87656,-1.83138 7.41652,-3.99217 12.70559,-6.04719 5.38101,-2.09076 7.52535,-3.29558 8.63231,-4.85016 1.48198,-2.08125 1.19268,-5.08616 -0.69686,-7.23824 -1.45912,-1.66183 -5.74448,-3.63213 -10.12376,-4.65464 -2.02,-0.47164 -5.0034,-1.17429 -6.62978,-1.56144 -5.60393,-1.33398 -11.7488,-4.87109 -16.71062,-9.61899 -5.419347,-5.18571 -8.583372,-10.2501 -9.726084,-15.56777 -1.344703,-6.25766 1.052329,-9.03145 5.83317,-6.75002 2.104443,1.00425 5.311314,4.40871 6.582664,6.98825 0.57843,1.1736 1.81112,3.71141 2.73932,5.63957 3.72844,7.74509 7.2545,9.81484 19.07671,11.19776 7.59122,0.88799 10.56721,0.57183 11.76053,-1.24941 0.87557,-1.33628 1.19694,-3.04547 1.93334,-10.28223 1.12996,-11.10439 1.97852,-15.77008 3.0817,-16.94436 1.35071,-1.43777 2.57615,-0.6897 3.50318,2.13852 0.42509,1.29689 0.56942,3.93392 0.72807,13.30337 0.19668,11.61613 0.20285,11.69571 1.03257,13.33791 0.45908,0.90864 1.26002,1.96036 1.77984,2.33717 2.01442,1.46022 8.70498,0.45972 14.50148,-2.16854 6.89762,-3.12753 13.42652,-10.48088 17.89733,-20.15737 3.1056,-6.72166 6.9982,-11.54573 9.31638,-11.54573 1.81242,0 2.38985,0.91919 2.53108,4.02911 0.16274,3.58372 -0.97938,7.49712 -3.93988,13.49969 -3.90175,7.91103 -7.61656,12.75382 -12.03785,15.69308 -3.18324,2.11621 -9.9558,5.3013 -13.36041,6.2833 -1.55754,0.44924 -4.17327,0.99369 -5.81275,1.20988 -4.54792,0.59971 -6.69174,1.71494 -7.91826,4.11914 -0.99761,1.95546 -0.74025,4.97561 0.59159,6.94276 1.47063,2.17212 2.36319,2.67155 5.37703,3.00874 3.50221,0.39182 6.5416,1.34614 10.48529,3.29218 8.25654,4.07427 15.90423,11.36488 17.00478,16.2108 0.20852,0.91818 0.48167,2.12015 0.60701,2.67105 0.16501,0.72535 0.57634,1.16648 1.49114,1.5992 1.89394,0.89586 2.63452,2.95058 4.05676,11.25525 1.28853,7.52391 2.00318,10.83894 3.69845,17.156 5.93548,22.11727 9.8436,42.52964 9.94767,51.95751 0.0384,3.48033 -0.036,3.99586 -0.79525,5.50904 -1.16702,2.32587 -2.19406,2.43313 -4.24905,0.44377 -0.82121,-0.79497 -1.86033,-2.01719 -2.30916,-2.71602 -1.98155,-3.0853 -3.91651,-11.13297 -8.2842,-34.45473 -3.6532,-19.50664 -4.76358,-24.64527 -7.00764,-32.42988 -3.00287,-10.4169 -5.37606,-16.11183 -8.37859,-20.10608 -1.6554,-2.20216 -5.4229,-5.27849 -9.12049,-7.44725 -4.70982,-2.76247 -10.88038,-3.86979 -12.59393,-2.26 -3.11564,2.92699 -3.88564,13.61475 -4.82108,66.91756 -0.46856,26.69946 -1.10884,34.74564 -3.08198,38.73027 -1.09725,2.21582 -1.49435,2.50411 -3.44925,2.50411 h -1.76058 z M 214.33408,121.6623 c -3.57001,-1.73716 -6.14561,-3.69811 -11.50125,-8.75651 -5.2799,-4.98686 -7.32514,-6.68969 -14.52386,-12.09224 -3.50394,-2.629668 -6.78975,-5.472588 -9.54926,-8.262148 -2.31394,-2.339132 -4.64276,-4.471847 -5.17517,-4.739369 -2.87033,-1.442282 -9.03203,-2.031696 -16.66039,-1.593707 -5.80649,0.33339 -9.18181,1.002419 -9.18181,1.81995 0,1.072945 4.0596,6.245536 11.0249,14.047564 5.03415,5.63887 6.82078,8.02002 8.5738,11.42682 1.16723,2.26839 1.43585,3.12589 1.43585,4.58347 0,1.57769 -0.1189,1.89306 -0.99006,2.62609 -1.22703,1.03248 -3.18189,1.39059 -4.96702,0.90991 -1.49468,-0.40248 -3.39161,-1.81839 -3.39161,-2.53158 0,-0.25008 -0.16348,-1.21703 -0.36331,-2.14878 -0.3166,-1.47624 -0.52653,-1.77734 -1.6327,-2.34166 -1.45367,-0.7416 -4.33703,-4.18682 -7.15608,-8.55052 -1.05603,-1.63466 -3.69229,-5.71831 -5.85834,-9.074778 -7.04297,-10.913629 -9.43314,-13.726843 -12.73076,-14.983965 -1.16423,-0.443827 -2.99773,-0.591756 -8.73655,-0.704873 -16.80834,-0.331319 -25.157723,1.711819 -27.493272,6.727758 -2.066059,4.43717 -0.124099,9.11202 8.338002,20.071968 4.02473,5.21276 5.20267,7.23547 5.21083,8.94792 0.0115,2.42682 -2.0457,5.24206 -3.83069,5.24206 -2.41855,0 -6.782365,-4.18113 -11.709224,-11.21902 -4.870315,-6.95713 -7.033232,-11.692548 -7.380791,-16.159288 -0.165407,-2.12581 -0.07009,-2.86232 0.631105,-4.875343 1.077302,-3.09289 2.513756,-5.180962 6.615766,-9.616858 5.981756,-6.468661 7.620424,-9.006192 7.915194,-12.256935 0.30239,-3.334695 -1.536213,-5.868333 -7.153964,-9.858396 -5.646632,-4.010575 -11.376525,-10.729402 -13.140803,-15.408801 -0.395144,-1.048053 -1.113437,-3.558265 -1.5962,-5.578249 -0.766487,-3.207106 -0.878826,-4.39225 -0.886144,-9.348687 -0.0075,-5.018547 0.06897,-5.83068 0.659386,-7.011515 0.855811,-1.71163 1.962942,-2.26583 3.615124,-1.809639 3.14383,0.868054 4.764732,4.941051 5.104963,12.827735 0.225709,5.231935 1.009579,8.136653 2.973354,11.018094 2.248718,3.299536 6.635267,5.351059 8.823308,4.126522 1.528496,-0.855428 1.939106,-2.364988 2.308966,-8.488808 0.402,-6.655857 0.91071,-8.678087 2.54377,-10.111928 2.12595,-1.866604 5.85806,-2.331273 7.23241,-0.900476 0.77174,0.803438 0.78627,0.940767 0.78627,7.428867 0,6.985207 0.16139,8.047972 1.72622,11.367799 1.10275,2.339484 1.86011,2.521486 4.32563,1.039488 4.81242,-2.89269 6.46313,-6.250617 8.6206,-17.536316 1.02346,-5.353746 1.82589,-7.582712 3.38586,-9.405183 2.07213,-2.420827 3.94637,-1.704594 5.07605,1.939802 0.45448,1.466147 0.56875,3.105508 0.55906,8.01967 -0.0133,6.747952 -0.52607,10.585907 -2.00734,15.024676 -1.59892,4.791365 -3.82583,6.868424 -11.81175,11.017003 -5.31778,2.762513 -8.02282,5.011777 -9.34389,7.769519 -2.18533,4.561908 -0.64766,7.341331 4.65368,8.411793 7.51352,1.517165 51.52645,6.23404 53.51423,5.735141 2.43364,-0.610808 3.20639,-10.44778 1.10273,-14.037417 -0.89593,-1.528778 -2.86716,-2.988115 -5.71529,-4.231139 -2.61546,-1.141475 -5.41446,-3.299899 -8.73171,-6.733374 -2.52159,-2.609949 -3.32649,-3.716325 -4.58327,-6.299967 -2.35615,-4.843685 -2.97079,-7.56349 -3.00955,-13.317418 -0.0289,-4.286283 0.0466,-4.992218 0.65805,-6.157884 0.95002,-1.810968 2.03771,-2.52614 4.17025,-2.742013 1.6111,-0.163087 1.8965,-0.09497 2.5217,0.60183 1.22029,1.360062 1.5107,2.934369 1.83874,9.967476 0.50283,10.780835 0.85468,11.733707 4.48995,12.159555 1.08962,0.127642 3.0721,0.524018 4.4055,0.880835 3.29202,0.880942 3.88661,0.84464 4.41285,-0.269416 0.26552,-0.562091 0.5988,-3.831589 0.85938,-8.430512 0.62775,-11.078885 1.46671,-15.734017 3.56787,-19.797081 1.58585,-3.066599 2.77462,-3.969066 4.09156,-3.106171 0.42971,0.281559 1.12312,1.380627 1.54088,2.442372 0.72465,1.84165 0.76817,2.47565 0.94614,13.783246 0.16432,10.439737 0.25632,11.98038 0.77169,12.922942 1.02709,1.878469 4.03477,1.913469 6.57068,0.07647 1.50513,-1.090307 4.19037,-4.971909 6.16363,-8.909725 4.47872,-8.937679 9.79299,-13.158171 12.72057,-10.102436 0.86138,0.899084 0.97136,1.274625 1.10196,3.762987 0.30718,5.852474 -2.51659,12.884948 -6.93623,17.274444 -2.92689,2.906905 -4.63486,4.089431 -10.35221,7.167417 -8.80344,4.739401 -10.67625,6.929525 -11.87997,13.892778 -0.58513,3.384889 -0.49153,5.892554 0.23721,6.354279 0.82249,0.521147 2.08729,0.300236 4.88929,-0.853955 4.31336,-1.77676 8.10529,-4.485 12.29418,-8.78062 3.57115,-3.662145 3.75526,-3.798936 4.97506,-3.696402 2.07748,0.174629 2.58809,1.201961 2.76802,5.569145 0.13859,3.363598 0.0851,3.787596 -0.69294,5.486932 -1.68046,3.670628 -5.12316,5.925615 -13.11029,8.587338 -5.98587,1.994803 -6.97093,3.159658 -5.45561,6.451381 1.71842,3.732878 8.42471,9.121398 19.82713,15.931126 1.65271,0.98703 3.98153,2.47426 5.17516,3.30495 2.60943,1.81598 7.55483,6.48671 8.21033,7.75429 0.27287,0.52768 0.47059,1.8882 0.47059,3.23817 0,2.01754 -0.11531,2.46518 -0.86438,3.3554 -1.24226,1.47634 -2.89718,1.40737 -6.33174,-0.26388 z M 106.50795,23.134769 c -2.36218,-0.989085 -3.88726,-4.233071 -4.10376,-8.729035 -0.15273,-3.171734 -0.1357,-3.267064 0.74,-4.142761 0.85552,-0.8555165 1.02599,-0.8909955 3.74489,-0.7793355 2.61852,0.107537 2.91192,0.190632 3.63297,1.0288975 0.99553,1.157374 1.26688,2.996155 1.1116,7.532726 -0.1588,4.639624 -0.57633,5.421163 -2.87969,5.390276 -0.86803,-0.01164 -1.87873,-0.146985 -2.24601,-0.300768 z"
       id="path1" /></g></svg>
