<?xml version="1.0" encoding="UTF-8" standalone="no"?>
<!-- Created with Inkscape (http://www.inkscape.org/) -->

<svg
   width="300mm"
   height="300mm"
   viewBox="0 0 300 300"
   version="1.1"
   id="svg1"
   xml:space="preserve"
   inkscape:version="1.3.2 (091e20e, 2023-11-25, custom)"
   sodipodi:docname="è½-seal.svg"
   xmlns:inkscape="http://www.inkscape.org/namespaces/inkscape"
   xmlns:sodipodi="http://sodipodi.sourceforge.net/DTD/sodipodi-0.dtd"
   xmlns="http://www.w3.org/2000/svg"
   xmlns:svg="http://www.w3.org/2000/svg"><sodipodi:namedview
     id="namedview1"
     pagecolor="#ffffff"
     bordercolor="#000000"
     borderopacity="0.25"
     inkscape:showpageshadow="2"
     inkscape:pageopacity="0.0"
     inkscape:pagecheckerboard="0"
     inkscape:deskcolor="#d1d1d1"
     inkscape:document-units="mm"
     inkscape:zoom="0.52347032"
     inkscape:cx="568.32258"
     inkscape:cy="455.61323"
     inkscape:window-width="1920"
     inkscape:window-height="1009"
     inkscape:window-x="-8"
     inkscape:window-y="-8"
     inkscape:window-maximized="1"
     inkscape:current-layer="layer1" /><defs
     id="defs1" /><g
     inkscape:label="Layer 1"
     inkscape:groupmode="layer"
     id="layer1"><path
       style="fill:#000000"
       d="m 117.20907,292.03038 c -0.8886,-0.27721 -2.00639,-0.87111 -2.48399,-1.31979 -1.12331,-1.0553 -1.93461,-4.60663 -2.3959,-10.48765 -0.19463,-2.48139 -0.51565,-28.20754 -0.71339,-57.16922 -0.56908,-83.35309 -0.73905,-87.85406 -3.5412,-93.77732 -0.53756,-1.13632 -1.58337,-2.56553 -2.32402,-3.17604 -2.64533,-2.1805 -5.55186,-2.68659 -19.359544,-3.37093 -17.607378,-0.87266 -22.802869,-2.48946 -22.802869,-7.09607 0,-1.293 0.206048,-1.69521 1.394898,-2.72289 2.844575,-2.45894 10.873431,-3.98895 24.360801,-4.64227 8.87033,-0.42967 19.870614,-1.34519 22.039004,-1.83424 0.77762,-0.17539 1.58349,-0.48852 1.79082,-0.69585 0.73272,-0.73271 0.9921,-8.75835 1.36794,-42.325925 0.45829,-40.930755 0.79512,-50.653068 1.85113,-53.4322595 1.21067,-3.18625 1.80738,-3.249645 7.54279,-0.801362 5.19653,2.2182515 7.03434,3.8285355 7.63886,6.6931595 0.26831,1.271417 0.4147,7.517429 0.4147,17.693999 V 49.29462 l 0.83437,0.476582 c 0.99738,0.569695 6.7502,0.626007 15.11125,0.147918 7.49552,-0.428598 10.72729,0.04236 12.50765,1.822721 1.50262,1.502623 1.51955,2.409197 0.0915,4.899288 -0.85319,1.487685 -1.54657,2.162332 -2.95692,2.877008 -3.20176,1.622459 -5.70877,2.067215 -13.60439,2.413493 -10.31287,0.452291 -10.98062,0.849858 -11.95632,7.118571 -1.11677,7.175149 -2.72676,23.325539 -2.76497,27.736519 -0.073,8.42901 0.32897,8.73724 13.30645,10.20317 6.26698,0.70792 12.95282,2.02864 15.85596,3.13219 1.17443,0.44643 2.718,1.36123 3.43016,2.03288 1.14936,1.08399 1.29484,1.43304 1.29484,3.1068 0,5.04465 -2.25433,5.86629 -17.40159,6.34239 -8.39475,0.26385 -9.25289,0.3532 -10.8932,1.13414 -0.97931,0.46625 -2.20328,1.40193 -2.71992,2.07928 -2.1811,2.85957 -3.45846,8.85346 -4.23522,19.87336 -0.23491,3.3327 -0.53667,29.51322 -0.73011,63.34425 -0.36485,63.81038 -0.6014,71.38549 -2.45999,78.77874 -1.34741,5.35979 -3.10531,6.58416 -7.48957,5.21646 z m 112.75525,-1.90118 c -3.54442,-1.79956 -9.32443,-11.11419 -13.04778,-21.02681 -1.20774,-3.21535 -8.44201,-25.96577 -11.63686,-36.59574 -1.72373,-5.73522 -3.58791,-14.52357 -3.80705,-17.94771 -0.70303,-10.98459 -5.38475,-18.24133 -11.84639,-18.36205 -2.19139,-0.041 -4.97174,0.99658 -6.46285,2.41171 -2.22902,2.11543 -4.47866,2.88284 -8.94731,3.05213 -5.03836,0.19088 -7.2684,-0.4113 -10.11725,-2.73196 -2.89788,-2.36059 -2.86327,-3.23038 0.24503,-6.15767 4.07655,-3.83916 9.53212,-6.98561 12.1122,-6.98561 3.63776,0 13.5967,-5.55451 15.41473,-8.59743 1.49134,-2.49611 1.20333,-11.68802 -0.92738,-29.59788 -1.8411,-15.47554 -2.47624,-19.0462 -3.93778,-22.13776 -1.29498,-2.73925 -2.48282,-3.36144 -7.21466,-3.77906 -4.26536,-0.37645 -7.19477,-1.30331 -9.57983,-3.03104 -1.65081,-1.19584 -3.06266,-3.16272 -2.90198,-4.0428 0.32928,-1.80359 9.31116,-4.42299 16.22506,-4.73174 4.55967,-0.20362 5.76952,0.18217 9.57593,3.05353 4.23186,3.19229 6.43976,6.94679 8.04663,13.68315 1.70756,7.15847 2.83154,17.12886 3.35874,29.79409 0.2722,6.53917 0.6597,7.97998 2.40657,8.94818 2.74645,1.52222 5.36014,-1.59953 7.16533,-8.55813 3.58901,-13.83489 8.08337,-59.85319 6.55611,-67.129 -0.86899,-4.13987 -4.00466,-8.92157 -7.15427,-10.909838 -2.41786,-1.52633 -6.51959,-2.352539 -13.6386,-2.747215 -18.83092,-1.043983 -22.52692,-1.491453 -25.36485,-3.070892 -1.95654,-1.088904 -2.81809,-2.820115 -2.81809,-5.662686 0,-3.76729 1.11242,-4.563022 7.41656,-5.305189 5.06964,-0.596832 28.18009,-1.261101 35.04327,-1.007256 4.9876,0.184474 12.91503,0.737395 13.44145,0.937512 0.0504,0.01916 0.77321,0.650599 1.60625,1.403197 1.97315,1.78262 3.46567,4.799232 4.59474,9.286671 1.70516,6.77703 1.86136,8.558636 1.8456,21.050776 -0.0135,10.69823 -0.16828,13.67368 -1.5722,30.2225 -2.39287,28.20615 -3.08188,32.55928 -5.87251,37.10233 -0.76395,1.24367 -1.4004,2.89214 -1.60721,4.16281 -0.4931,3.0297 -2.6259,6.49624 -7.8078,12.69036 -6.53988,7.81736 -8.29512,12.49761 -7.40216,19.73748 0.52259,4.23707 1.0868,6.40168 6.16427,23.64942 8.98352,30.51629 12.11489,40.42051 15.35884,48.57849 2.93796,7.38848 4.01841,12.68112 3.33901,16.35634 -0.68238,3.69134 -3.41275,5.43608 -6.25151,3.99479 z m -79.35105,-14.70062 c -1.85296,-1.97238 -3.05952,-6.21089 -4.88095,-17.14618 -2.7017,-16.22018 -3.65276,-34.88844 -3.97673,-78.05934 -0.21541,-28.70451 0.0387,-39.64553 1.00076,-43.09279 0.53513,-1.91745 2.17573,-2.99856 4.84314,-3.19151 1.71753,-0.12423 2.41424,0.01 3.64314,0.70039 1.97935,1.11246 2.52383,2.0043 2.96338,4.8539 0.92094,5.97044 2.02604,23.50345 2.62564,41.65708 1.22322,37.03449 2.73148,65.91934 3.9114,74.9073 0.70216,5.34866 0.70149,10.58029 -0.002,12.26295 -1.47987,3.54183 -5.9973,7.94718 -8.14937,7.94718 -0.75723,0 -1.47758,-0.30541 -1.97884,-0.83898 z M 79.012686,274.5857 c -2.35329,-1.98017 -2.37423,-7.43273 -0.0804,-20.93866 1.39592,-8.2191 2.04751,-14.20611 2.98657,-27.44128 1.33049,-18.75214 2.57385,-43.12188 4.3049,-84.37566 0.13722,-3.27002 0.43647,-6.51826 0.66502,-7.21831 1.17534,-3.60013 7.48283,-4.38491 10.21673,-1.27117 2.79956,3.18853 2.67128,8.09707 -2.20405,84.33609 -2.08737,32.64149 -2.78775,39.75148 -4.6409,47.11209 -1.97812,7.85701 -4.19265,10.73711 -8.25586,10.73711 -1.46557,0 -2.11845,-0.20517 -2.992,-0.94021 z"
       id="path1" /></g></svg>
