<?xml version="1.0" encoding="UTF-8" standalone="no"?>
<svg
   xmlns:dc="http://purl.org/dc/elements/1.1/"
   xmlns:cc="http://creativecommons.org/ns#"
   xmlns:rdf="http://www.w3.org/1999/02/22-rdf-syntax-ns#"
   xmlns:svg="http://www.w3.org/2000/svg"
   xmlns="http://www.w3.org/2000/svg"
   version="1.1"
   id="svg30"
   width="300"
   height="300"
   viewBox="0 0 300 300">
  <metadata
     id="metadata36">
    <rdf:RDF>
      <cc:Work
         rdf:about="">
        <dc:format>image/svg+xml</dc:format>
        <dc:type
           rdf:resource="http://purl.org/dc/dcmitype/StillImage" />
        <dc:title></dc:title>
      </cc:Work>
    </rdf:RDF>
  </metadata>
  <defs
     id="defs34" />
  <path
     style="fill:#000000;stroke-width:0.71049184"
     d="m 18.44309,279.63235 c -2.406044,-0.73463 -6.607562,-4.98023 -6.607562,-6.62696 0,-1.69881 8.638523,-2.32138 13.072496,-2.57359 29.994644,-1.81231 57.124911,-2.34 88.304736,-2.84953 l 8.16939,-83.93158 C 94.089741,180.48568 87.884269,178.26726 72.453313,171.68399 62.215779,167.31637 61.308886,154.22635 61.214707,144.28987 61.05555,127.49766 60.778517,103.10861 61.109736,85.39079 61.44528,67.441683 61.88347,39.511796 68.291571,26.234557 c 4.031985,-8.354058 10.316535,5.545351 12.812979,12.164262 24.48676,-1.891738 41.95272,-1.845633 61.73826,-1.491984 56.74456,1.014261 104.38404,4.605346 104.38404,4.605346 0,0 -1.76194,-17.03137 -0.75852,-26.51218 12.0818,4.665829 13.94043,26.406606 14.7929,34.51095 4.14495,39.406215 5.76022,67.108309 5.01974,102.310809 -0.3233,15.36928 -6.9876,21.25305 -14.429,21.31476 -14.63406,4.44296 -24.816,7.37467 -45.20105,10.01316 l 5.71292,84.50498 c 24.89661,-0.0144 51.13783,-1.12797 74.68702,-1.08851 0.58309,2.59284 2.26879,6.66789 -0.16074,7.02917 -27.48061,4.08648 -56.61631,7.81402 -83.04418,8.9406 -47.00265,2.00367 -91.12051,2.61019 -133.802664,2.41974 -17.155765,0.27901 -36.369562,-0.67302 -51.600186,-5.32333 z m 178.64969,-11.77383 -4.51577,-83.11854 c -18.60063,0.96885 -38.26077,0.98419 -54.23232,0.45692 l -9.33015,82.55366 z m 38.31547,-103.26911 c 4.06085,-0.55127 8.28172,-0.62307 12.68181,-0.80388 2.78034,-12.68889 3.61627,-24.36533 3.61357,-37.2387 -0.006,-27.695798 -1.61968,-50.241081 -4.09592,-74.570818 C 186.23303,53.298836 80.582265,50.337784 80.582265,50.337784 79.975768,62.83805 78.848601,82.009275 78.81996,97.113922 l 131.30824,-0.03641 c 5.63669,-0.0016 32.88039,0.906985 32.61716,3.683448 -0.49901,5.26353 -13.7284,7.86195 -19.18328,8.17811 -36.54106,2.11784 -73.03945,2.90535 -110.48148,1.7712 -15.68207,-0.47502 -10.99547,0.004 -16.482525,-1.18365 -6.805725,-1.47317 -13.296345,-5.8339 -17.725717,-7.10621 l -0.503422,57.44965 c 22.797964,8.43858 40.682214,10.11189 68.918084,10.44445 44.98743,0.52985 62.78113,-2.28512 88.12123,-5.7251 z"
     id="path40" />
</svg>
