<?xml version="1.0" encoding="UTF-8" standalone="no"?>
<!-- Created with Inkscape (http://www.inkscape.org/) -->

<svg
   width="300mm"
   height="300mm"
   viewBox="0 0 300 300"
   version="1.1"
   id="svg1"
   xml:space="preserve"
   inkscape:version="1.3.2 (091e20e, 2023-11-25, custom)"
   sodipodi:docname="囚-bigseal.svg"
   xmlns:inkscape="http://www.inkscape.org/namespaces/inkscape"
   xmlns:sodipodi="http://sodipodi.sourceforge.net/DTD/sodipodi-0.dtd"
   xmlns="http://www.w3.org/2000/svg"
   xmlns:svg="http://www.w3.org/2000/svg"><sodipodi:namedview
     id="namedview1"
     pagecolor="#ffffff"
     bordercolor="#000000"
     borderopacity="0.25"
     inkscape:showpageshadow="2"
     inkscape:pageopacity="0.0"
     inkscape:pagecheckerboard="0"
     inkscape:deskcolor="#d1d1d1"
     inkscape:document-units="mm"
     inkscape:zoom="0.74029882"
     inkscape:cx="397.81233"
     inkscape:cy="547.75178"
     inkscape:window-width="1920"
     inkscape:window-height="1009"
     inkscape:window-x="-8"
     inkscape:window-y="-8"
     inkscape:window-maximized="1"
     inkscape:current-layer="layer1" /><defs
     id="defs1" /><g
     inkscape:label="Layer 1"
     inkscape:groupmode="layer"
     id="layer1"><path
       style="fill:#000000"
       d="m 143.94632,288.54746 c -5.43012,-0.32295 -18.19685,-1.80128 -23.41002,-2.71079 -15.79591,-2.75579 -27.400493,-7.88065 -35.649673,-15.74375 -5.57421,-5.31331 -8.82745,-10.40921 -11.84129,-18.54827 -2.09796,-5.66566 -3.23641,-11.50056 -5.20957,-26.70055 -2.73408,-21.06163 -2.74195,-21.1813 -4.08602,-62.12298 -2.3627,-71.970771 -3.12494,-109.564461 -2.38401,-117.580211 0.58256,-6.30253 1.90751,-11.59346 3.80968,-15.2133 1.8057,-3.43625 3.53626,-4.80361 6.8092,-5.38013 2.42148,-0.42654 4.13548,-1.35837 4.5076,-2.45061 0.91821,-2.69512 8.1899,-4.81202 24.709003,-7.19314 17.91655,-2.58256 35.3652,-3.49532 67.45098,-3.52845 26.33001,-0.0272 34.69659,0.28207 42.35294,1.56546 4.91094,0.82319 6.39707,1.38544 10.10095,3.82149 11.7372,7.7196 14.21118,15.17366 15.57901,46.93928 2.72636,63.315601 2.96907,127.464671 0.58605,154.901961 -1.90881,21.97758 -4.07728,31.80556 -8.69587,39.41176 -4.09115,6.73757 -10.93794,14.65332 -15.18027,17.55029 -3.73521,2.55067 -9.63086,5.11318 -19.05654,8.28281 -12.60325,4.23817 -15.50147,4.6444 -33.92157,4.7546 -7.7647,0.0465 -15.17647,0.0215 -16.47058,-0.0555 z m 19.99999,-18.17862 c 16.16312,-0.84048 22.2121,-1.58568 31.86755,-3.92587 7.83488,-1.89894 11.75992,-3.62063 14.20839,-6.23242 3.29806,-3.51806 8.51535,-14.40188 9.97043,-20.79935 1.67187,-7.35068 1.86254,-11.70003 2.07257,-47.27832 0.23699,-40.14269 -0.43238,-78.92994 -2.06072,-119.411761 -0.85554,-21.26914 -1.4419,-27.14937 -3.53623,-35.4625 -1.17362,-4.65853 -2.62744,-7.50636 -4.26407,-8.35269 -0.78516,-0.40602 -3.06591,-0.73621 -6.68559,-0.96787 -3.02164,-0.19339 -14.14095,-0.95967 -24.70958,-1.70283 -28.67728,-2.01653 -31.97146,-2.18443 -34.36152,-1.75134 -1.15999,0.2102 -9.34436,1.00771 -18.1875,1.77226 -29.113343,2.51704 -36.677233,3.69723 -42.725303,6.66641 -6.86603,3.37073 -7.82681,5.80195 -8.83139,22.34758 -2.0532,33.81642 -0.92949,106.907401 2.16143,140.588231 1.62932,17.7543 6.3938,37.42991 12.92538,53.37724 3.29401,8.04255 7.35788,15.0592 10.133303,17.49605 2.11909,1.86059 7.50643,2.8786 19.08168,3.60574 7.2661,0.45645 34.38614,0.47631 42.94117,0.0314 z m 30.16396,-20.79517 c -1.07422,-0.40515 -3.56199,-3.27764 -5.19944,-6.0035 -9.24743,-15.39417 -18.77018,-60.6085 -20.82721,-98.88827 -0.2318,-4.31373 -0.59113,-16.13725 -0.79851,-26.27451 -0.39362,-19.241331 -0.73447,-23.274431 -2.39273,-28.312111 -1.01201,-3.07442 -3.12702,-5.2892 -5.96796,-6.24948 -1.49406,-0.50502 -3.34723,-0.69439 -6.9534,-0.71052 -7.36942,-0.033 -7.91052,0.53386 -8.59861,9.00767 -0.22357,2.75318 -0.40763,7.40663 -0.40902,10.341001 -0.003,7.22476 -0.68212,19.63729 -1.37454,25.13913 -0.31216,2.48039 -1.1873,10.71117 -1.94474,18.29062 -2.30679,23.08303 -4.95641,38.91857 -8.71769,52.10153 -1.47454,5.16813 -10.40975,28.32221 -12.46593,32.30336 -3.19272,6.18169 -7.64927,10.24566 -11.23538,10.24566 -4.41382,0 -4.19342,-3.67643 1.21074,-20.19608 4.81836,-14.72893 6.89568,-22.70286 9.19486,-35.29501 3.28162,-17.97281 6.32962,-40.87633 9.41987,-70.78342 1.90787,-18.464231 2.39455,-26.323571 1.85478,-29.952711 -0.76245,-5.12635 -1.35894,-5.71654 -7.03007,-6.95584 -9.7447,-2.12949 -16.46689,-9.61707 -17.21029,-19.16988 -0.73772,-9.4798 5.49758,-15.567 9.97644,-9.73948 1.20728,1.57081 1.63616,2.68197 3.01185,7.80334 1.57836,5.87589 3.86721,6.96748 23.36712,11.14422 22.02995,4.71866 27.1278,6.45703 32.00368,10.91332 4.9248,4.50099 6.68326,11.55814 7.59154,30.466841 1.22523,25.50694 2.6574,49.3273 3.56028,59.21568 1.06485,11.66236 3.59241,23.31457 10.57108,48.73347 3.11427,11.34333 4.87274,16.15217 7.07913,19.35904 0.65598,0.95345 1.29153,2.34255 1.41232,3.08691 0.32767,2.01916 -1.39064,5.21605 -4.11998,7.66518 -2.76598,2.48199 -3.93841,3.11732 -5.00819,2.71384 z"
       id="path1" /></g></svg>
