<?xml version="1.0" encoding="UTF-8" standalone="no"?>
<!-- Created with Inkscape (http://www.inkscape.org/) -->

<svg
   version="1.1"
   id="svg4016"
   width="300"
   height="300"
   viewBox="0 0 300 300"
   sodipodi:docname="困-oracle.svg"
   xml:space="preserve"
   inkscape:version="1.2.2 (732a01da63, 2022-12-09)"
   xmlns:inkscape="http://www.inkscape.org/namespaces/inkscape"
   xmlns:sodipodi="http://sodipodi.sourceforge.net/DTD/sodipodi-0.dtd"
   xmlns="http://www.w3.org/2000/svg"
   xmlns:svg="http://www.w3.org/2000/svg"><defs
     id="defs4020" /><sodipodi:namedview
     id="namedview4018"
     pagecolor="#ffffff"
     bordercolor="#666666"
     borderopacity="1.0"
     inkscape:showpageshadow="2"
     inkscape:pageopacity="0.0"
     inkscape:pagecheckerboard="0"
     inkscape:deskcolor="#d1d1d1"
     showgrid="false"
     inkscape:zoom="1.9736716"
     inkscape:cx="38.760248"
     inkscape:cy="168.72108"
     inkscape:window-width="1920"
     inkscape:window-height="982"
     inkscape:window-x="-10"
     inkscape:window-y="-10"
     inkscape:window-maximized="1"
     inkscape:current-layer="g1008" /><g
     inkscape:groupmode="layer"
     inkscape:label="Image"
     id="g4022"><g
       transform="matrix(0.48684706,0,0,-0.48684706,-27.972563,301.84518)"
       fill="#000000"
       stroke="none"
       id="g312"><g
         transform="matrix(0.63153484,0,0,0.63153484,151.01161,1.0958607)"
         fill="#000000"
         stroke="none"
         id="g1008"><path
           d="m 85.894774,975.20641 c -16.573015,-6.2145 -26.931152,-51.7902 -26.931152,-126.36898 0,-64.22016 -8.286458,-151.2284 -20.716225,-190.58961 C 27.88926,618.88709 15.459493,502.87624 9.2446644,399.29489 5.1014056,295.71351 -5.2567317,192.13214 -13.543239,169.34454 -30.116255,115.48203 17.531123,96.837575 297.20061,47.118718 400.78179,30.545592 502.29135,9.8293283 525.07925,5.6861594 578.9415,-8.8151368 659.73487,105.12389 657.66326,192.13214 c -2.07161,35.21805 8.28654,182.3033 22.7878,327.31674 14.50137,145.01392 18.64469,296.2428 12.42976,335.60353 -16.57298,78.72146 -29.00263,82.86509 -364.60596,105.65271 -107.7245,6.21498 -200.94759,14.50129 -207.16247,18.64493 -6.21488,2.07134 -22.787899,0 -35.217616,-4.14364 z M 295.12891,875.76868 c 43.50419,-6.21497 84.93668,-14.50129 89.0799,-18.64493 4.14312,-4.14316 2.07151,-41.43207 -4.14322,-80.79326 -14.50146,-68.36333 -16.57307,-70.43515 -74.57864,-49.71888 -58.00546,22.78809 -109.79607,4.14316 -68.36361,-22.78809 12.42986,-8.28632 43.5041,-53.86202 68.36361,-101.50955 39.36088,-80.79327 41.43249,-95.29456 14.50137,-157.44339 -14.50137,-37.28939 -58.00547,-101.50955 -93.22303,-142.94209 -99.43802,-116.01085 -78.7218,-169.87334 26.93113,-66.29198 53.86214,55.93384 53.86214,55.93384 53.86214,-22.78809 0,-76.65011 -2.07161,-76.65011 -64.22029,-64.22017 -35.21763,6.21498 -91.15152,12.42997 -122.22588,12.42997 -31.074357,0 -62.148768,12.42948 -66.292027,26.93076 -6.214829,12.42996 2.071629,103.58137 16.573015,200.94776 14.501396,97.36639 26.931113,254.80978 26.931113,350.10484 2.071629,171.94467 2.071629,171.94467 60.077149,159.51472 31.07436,-8.28632 93.22317,-18.64446 136.72727,-22.78762 z m 329.3884,-24.85942 C 634.87535,832.26432 583.08472,196.27578 566.51174,123.76883 558.22531,86.479438 545.79545,78.19312 518.86433,90.622596 c -18.64459,8.286798 -66.29201,18.644934 -101.50957,24.859434 -68.36371,8.2868 -91.15151,53.86251 -49.71902,97.36639 10.35814,12.42995 22.7878,39.36121 26.93112,62.14882 6.21493,35.21757 12.42986,33.14623 47.64742,-24.85943 22.7879,-37.28939 47.64741,-68.3638 55.93385,-68.3638 24.85941,0 20.7162,78.72193 -4.14322,93.22323 -10.35814,6.21498 -20.71639,33.14623 -20.71639,58.00565 0,24.85944 -14.50127,64.22018 -31.07424,84.93644 -51.79074,68.3638 -35.21756,128.44081 62.14868,242.38031 118.08274,138.79893 124.29747,186.44598 14.50137,109.79586 -43.5041,-31.07392 -45.57581,-29.00259 -45.57581,31.07441 0,60.07748 6.21493,64.22064 70.43532,64.22064 39.36088,0 76.65015,-6.21498 80.79347,-14.50129 z"
           id="path1632"
           style="fill:#000000;stroke:none;stroke-width:2.07163" /></g></g></g></svg>
