<?xml version="1.0" encoding="UTF-8" standalone="no"?>
<svg
   xmlns:dc="http://purl.org/dc/elements/1.1/"
   xmlns:cc="http://creativecommons.org/ns#"
   xmlns:rdf="http://www.w3.org/1999/02/22-rdf-syntax-ns#"
   xmlns:svg="http://www.w3.org/2000/svg"
   xmlns="http://www.w3.org/2000/svg"
   viewBox="0 0 300 300"
   height="300"
   width="300"
   id="svg143"
   version="1.1">
  <metadata
     id="metadata149">
    <rdf:RDF>
      <cc:Work
         rdf:about="">
        <dc:format>image/svg+xml</dc:format>
        <dc:type
           rdf:resource="http://purl.org/dc/dcmitype/StillImage" />
        <dc:title></dc:title>
      </cc:Work>
    </rdf:RDF>
  </metadata>
  <defs
     id="defs147" />
  <path
     id="path153"
     d="m 91.756646,284.64345 c -1.88776,-0.53257 -7.15707,-6.07095 -7.15707,-7.52253 0,-0.7342 7.45747,-3.92103 11.85743,-5.06707 2.1496,-0.5599 14.697994,-2.29872 27.885324,-3.86406 13.18733,-1.56533 24.67443,-2.98771 25.5269,-3.16085 2.47191,-0.50208 1.8812,-2.81822 -1.80664,-7.08364 -9.03731,-10.45271 -16.0101,-22.01148 -16.67858,-27.64801 -0.29503,-2.48771 -1.88215,-6.86388 -4.62188,-12.74394 -5.39091,-11.57005 -10.06973,-24.18634 -12.58825,-33.9438 -2.02574,-7.84826 -4.08531,-21.21967 -4.08775,-26.53911 -6.9e-4,-1.5908 -0.74152,-5.95146 -1.64618,-9.69035 l -1.64483,-6.79795 1.38648,-5.8816 c 1.23198,-5.22617 1.30311,-6.6156 0.63828,-12.46828 -0.69784,-6.1433 -0.5884,-7.63904 1.62574,-22.22025 1.99942,-13.167207 2.74641,-16.485248 4.73499,-21.032167 1.29859,-2.969234 2.72013,-6.793551 3.15898,-8.498484 0.43886,-1.704933 1.87158,-6.457582 3.18383,-10.561441 1.31225,-4.10386 2.71894,-9.993629 3.12596,-13.088375 0.46467,-3.532957 1.19335,-6.13949 1.95819,-7.004534 2.02868,-2.294472 2.76419,-4.209465 4.16965,-10.856356 0.74026,-3.500854 1.99642,-8.123462 2.7915,-10.272463 1.44543,-3.906849 1.44587,-3.907236 3.96491,-3.55356 3.91685,0.549928 7.06631,1.604272 10.44123,3.495406 4.55919,2.554748 6.76962,4.852296 9.11698,9.476323 1.154,2.273244 3.96058,6.412486 6.23684,9.198314 3.02556,5.93251 7.62604,13.532535 10.7631,19.118567 1.04226,2.678819 4.77257,9.422743 8.28959,14.986497 6.2627,9.907283 6.44297,10.310935 8.74053,19.571506 1.29025,5.20059 3.6973,12.865467 5.34898,17.033077 3.66389,9.70274 5.23682,25.5534 6.94318,34.54737 0.21703,3.57851 1.31154,6.32588 1.5447,12.29524 0.40074,10.26008 -0.51444,16.4384 -4.27302,28.84711 -1.27654,4.21441 -3.41479,13.24234 -4.75169,20.06208 -1.33688,6.81972 -3.69326,16.11935 -5.23641,20.66584 -1.54315,4.54649 -3.28573,10.12627 -3.87242,12.39951 -0.5867,2.27325 -2.71666,7.54305 -4.73326,11.71066 -3.59915,7.43816 -5.80731,14.41711 -4.86135,15.36436 0.65942,0.66032 11.30522,0.5995 22.06445,-0.12606 9.99836,-0.67426 12.99753,-0.0284 15.15451,3.2636 1.78163,2.7191 1.09261,4.60341 -2.34669,6.41771 -2.49873,1.31814 -4.08355,1.60065 -8.95521,1.59638 -3.25556,-0.003 -26.37839,1.09114 -51.38407,2.43111 l -45.46488,2.4363 -4.47761,2.30616 c -5.352244,2.75663 -7.223614,3.20321 -10.064464,2.40176 z m 74.408264,-40.74114 c 2.21773,-3.43643 8.98582,-22.50703 12.81696,-36.1147 3.05907,-10.86534 7.82956,-31.99962 10.05475,-44.5446 l 1.93555,-10.91204 -2.37145,-13.54255 c -1.30429,-7.4484 -2.40965,-15.55748 -2.45634,-18.02015 -0.0802,-4.23087 -0.51071,-5.35043 -7.81264,-20.31723 -4.25028,-8.711797 -8.82461,-18.786402 -10.16519,-22.388011 -6.23763,-16.758013 -12.09592,-27.592281 -18.13777,-33.543817 l -2.92906,-2.885279 -2.67028,2.145899 c -2.92442,2.35013 -2.2466,0.547933 -10.56087,28.079251 -2.1167,7.009169 -5.07852,16.011952 -6.58179,20.00619 -1.94819,5.17639 -2.73668,8.342057 -2.74525,11.021787 -0.007,2.06774 -0.47042,6.54943 -1.03067,9.9593 -0.56025,3.40986 -1.02383,7.43971 -1.03016,8.9552 -0.007,1.51549 -0.67356,4.77036 -1.48272,7.23305 -1.20146,3.65659 -1.46878,6.11962 -1.45786,13.43281 0.02,13.37889 1.46022,20.41923 5.98912,29.27662 3.17501,6.20952 3.82287,8.15467 4.5783,13.74595 0.75513,5.58909 1.487,7.78754 5.15979,15.49938 2.3539,4.94257 5.13569,11.15641 6.18174,13.80853 4.92952,12.49822 14.24992,28.81767 17.12065,29.97722 2.95029,1.19167 6.5282,0.78051 7.59519,-0.87281 z"
     style="fill:#000000;stroke-width:0.68886179" />
</svg>
