<?xml version="1.0" encoding="UTF-8" standalone="no"?>
<!-- Created with Inkscape (http://www.inkscape.org/) -->

<svg
   xmlns:dc="http://purl.org/dc/elements/1.1/"
   xmlns:cc="http://creativecommons.org/ns#"
   xmlns:rdf="http://www.w3.org/1999/02/22-rdf-syntax-ns#"
   xmlns:svg="http://www.w3.org/2000/svg"
   xmlns="http://www.w3.org/2000/svg"
   xmlns:sodipodi="http://sodipodi.sourceforge.net/DTD/sodipodi-0.dtd"
   xmlns:inkscape="http://www.inkscape.org/namespaces/inkscape"
   width="300"
   height="300"
   id="svg2"
   version="1.1"
   inkscape:version="0.48.3.1 r9886"
   sodipodi:docname="安-.svg">
  <defs
     id="defs4" />
  <sodipodi:namedview
     id="base"
     pagecolor="#ffffff"
     bordercolor="#666666"
     borderopacity="1.0"
     inkscape:pageopacity="0.0"
     inkscape:pageshadow="2"
     inkscape:zoom="1.979899"
     inkscape:cx="121.36081"
     inkscape:cy="130.99441"
     inkscape:document-units="px"
     inkscape:current-layer="layer1"
     showgrid="false"
     inkscape:window-width="1215"
     inkscape:window-height="1000"
     inkscape:window-x="65"
     inkscape:window-y="24"
     inkscape:window-maximized="1" />
  <metadata
     id="metadata7">
    <rdf:RDF>
      <cc:Work
         rdf:about="">
        <dc:format>image/svg+xml</dc:format>
        <dc:type
           rdf:resource="http://purl.org/dc/dcmitype/StillImage" />
        <dc:title></dc:title>
      </cc:Work>
    </rdf:RDF>
  </metadata>
  <g
     inkscape:label="Calque 1"
     inkscape:groupmode="layer"
     id="layer1"
     transform="translate(0,-752.36218)">
    <path
       style="fill:#000000"
       d="m 114.58843,1021.0137 c -0.0411,-11.6034 -5.28032,-31.28566 -9.43315,-35.43776 -1.07761,-1.07739 -1.95929,-6.15884 -1.95929,-11.29209 0,-10.73604 8.48332,-18.17525 27.15927,-23.81659 21.24938,-6.41864 24.30041,-8.88561 24.30041,-19.64835 l 0,-9.90975 -13.26393,1.81771 c -7.29517,0.99971 -16.8044,1.81768 -21.13162,1.81768 -6.00791,0 -8.2917,1.68913 -9.6615,7.14587 -2.578,10.26972 -7.40263,8.80562 -7.40263,-2.24644 0,-9.02963 -0.44144,-9.39739 -11.432009,-9.52435 -20.051718,-0.23152 -18.736194,-9.02897 1.623297,-10.8555 10.061502,-0.90271 11.363412,-1.94798 13.233522,-10.62506 2.79912,-12.98749 0.0345,-26.77377 -6.56679,-32.74676 -2.989049,-2.70455 -5.434631,-6.00428 -5.434631,-7.33272 0,-1.32842 11.578421,-2.41533 25.729831,-2.41533 28.83291,0 27.84148,1.04198 21.53849,-22.63687 -2.26792,-8.52004 -3.49794,-16.50297 -2.73339,-17.73981 4.86086,-7.86356 18.36023,13.08518 18.36023,28.49199 0,4.77892 1.1535,9.40172 2.56333,10.27289 1.40983,0.87117 12.64331,1.73542 24.96328,1.92058 22.75973,0.34206 35.36855,3.15327 35.36855,7.88563 0,1.44058 -3.21623,3.4263 -7.14718,4.41271 -5.0104,1.2573 -7.14718,3.7427 -7.14718,8.31325 0,3.58585 -1.17582,7.74168 -2.61297,9.23517 -1.43713,1.49348 -3.04525,6.57419 -3.5736,11.29046 -1.26982,11.33549 -10.80093,21.50671 -21.18272,22.6054 -7.4126,0.78447 -8.54774,2.20678 -9.95535,12.474 -2.20572,16.08871 -5.80262,19.30669 -27.73784,24.81561 -10.54069,2.64725 -20.79761,6.16796 -22.79314,7.8238 -4.88598,4.05428 -4.58565,17.89356 0.60615,27.93154 2.32891,4.5028 5.07902,15.37209 6.11135,24.15399 1.76205,14.9896 1.50282,15.9671 -4.23439,15.9671 -5.27716,0 -6.11723,-1.6582 -6.1544,-12.148 z m 37.89544,-113.35517 c 1.16407,-1.05808 0.84244,-6.3653 -0.71472,-11.79385 -1.55718,-5.42852 -2.83122,-14.05889 -2.83122,-19.17856 0,-9.23662 -0.10793,-9.30848 -13.97905,-9.30848 l -13.97905,0 -2.83365,19.29383 c -1.64244,11.18313 -1.77431,20.61936 -0.31367,22.44701 2.62246,3.28144 30.73823,2.09684 34.65136,-1.45995 z m 30.53073,-5.26616 c 8.32469,-6.80249 10.93147,-23.90668 4.60722,-30.22978 -5.06515,-5.06421 -17.58911,-6.29047 -23.82941,-2.33321 -3.47317,2.2025 -2.08684,14.30811 3.89278,33.99216 1.53385,5.04921 8.15702,4.43175 15.32941,-1.42917 z M 42.251104,952.82125 c -0.866504,-3.31291 -0.368601,-9.19716 1.106451,-13.07613 1.475053,-3.87895 2.387052,-30.09467 2.026672,-58.25715 -0.74582,-58.28274 -1.352232,-56.61997 22.777298,-62.45545 13.416417,-3.24461 31.398975,-11.2637 52.187685,-23.27245 14.00302,-8.08891 20.0121,-15.05707 20.0121,-23.20607 0,-10.81678 9.48605,-10.94279 16.28884,-0.21639 17.30307,27.28291 26.18538,33.84031 60.90067,44.96019 8.64809,2.77014 17.95772,6.16753 20.68803,7.54976 2.73033,1.38228 6.69404,2.51321 8.80824,2.51321 6.47774,0 11.62054,12.62636 7.94194,19.49863 -2.14215,4.00195 -2.56692,17.82854 -1.3103,42.65264 1.32583,26.19133 0.87996,38.56085 -1.55392,43.10773 -1.8773,3.50714 -4.4355,5.74494 -5.68492,4.9729 -1.24938,-0.77201 -3.03787,-19.3165 -3.97437,-41.20997 -2.14244,-50.08433 -4.80179,-57.25175 -23.75871,-64.03398 -7.71149,-2.75892 -16.23313,-5.00988 -18.93696,-5.0021 -7.35899,0.02 -25.15389,-10.60838 -37.22747,-22.23733 l -10.69596,-10.30208 -8.31464,6.14616 c -4.57304,3.38036 -11.65991,6.9856 -15.74859,8.0116 -4.08869,1.026 -7.43398,3.01227 -7.43398,4.41395 0,1.40164 -2.25136,2.54846 -5.00302,2.54846 -2.75166,0 -15.616587,5.30581 -28.588712,11.79068 l -23.585687,11.79068 0,40.92002 c 0,24.19675 -1.168369,41.64197 -2.85887,42.68658 -1.57238,0.97162 -2.858872,4.86266 -2.858872,8.64676 0,7.49593 -8.412166,27.08257 -11.631549,27.08257 -1.097766,0 -2.704896,-2.71057 -3.571396,-6.02345 z"
       id="path3028"
       inkscape:connector-curvature="0" />
  </g>
</svg>
