<?xml version="1.0" encoding="UTF-8" standalone="no"?>
<svg
   xmlns:dc="http://purl.org/dc/elements/1.1/"
   xmlns:cc="http://creativecommons.org/ns#"
   xmlns:rdf="http://www.w3.org/1999/02/22-rdf-syntax-ns#"
   xmlns:svg="http://www.w3.org/2000/svg"
   xmlns="http://www.w3.org/2000/svg"
   viewBox="0 0 300 300"
   height="300"
   width="300"
   id="svg10"
   version="1.1">
  <metadata
     id="metadata16">
    <rdf:RDF>
      <cc:Work
         rdf:about="">
        <dc:format>image/svg+xml</dc:format>
        <dc:type
           rdf:resource="http://purl.org/dc/dcmitype/StillImage" />
        <dc:title></dc:title>
      </cc:Work>
    </rdf:RDF>
  </metadata>
  <defs
     id="defs14" />
  <path
     id="path22"
     d="m 13.600933,201.62623 c 1.97037,-23.94135 4.02192,-52.99252 4.64023,-65.70851 C 19.097221,115.13424 9.9886701,105.02613 8.1190928,87.648002 11.415743,85.677169 148.05404,24.749712 149.17725,24.749712 c 5.8189,0 30.96579,10.861198 67.50733,29.1571 45.1654,22.613762 68.16276,36.284195 74.71692,44.414333 C 281.15753,95.263687 238.13394,82.54732 236.66036,82.083881 187.69088,66.682008 187.22028,66.515734 181.99109,62.768055 166.29074,51.515887 149.8706,48.982282 131.85701,55.032438 102.9586,67.448208 72.23236,81.400242 50.298033,91.875525 33.942778,127.50374 37.612392,170.93117 38.022263,199.08386 c 0.348175,18.98593 0.315278,37.65374 -8.23671,54.04874 -2.29841,4.31224 -8.66506,11.32656 -10.28074,11.32656 -8.865668,-19.07971 -7.358296,-44.78742 -5.90388,-62.83293 z"
     style="fill:#000000;stroke-width:0.72639227" />
  <path
     id="path22-8"
     d="m 164.38433,273.64581 c 0,-4.63562 -5.1188,-53.95242 -5.64009,-54.47371 -17.11837,-0.84629 -38.80627,-4.72167 -59.1823,-7.40619 10.83415,-9.26309 48.36267,-16.11245 58.16114,-18.34824 0.16608,-7.14581 -0.0765,-8.94944 -3.301,-23.16943 -14.70314,-16.53528 -28.34374,-32.55388 -43.84647,-51.6543 16.9582,7.64016 34.66305,14.83728 47.66199,27.82738 5.76646,5.85226 8.31759,6.7476 15.73556,5.52254 27.41986,-5.66022 44.22727,-16.72206 65.52954,-27.86272 2.71884,14.85429 -6.34267,15.54165 -18.64136,24.28822 -20.95524,14.90294 -26.48753,19.53011 -31.90238,26.68296 -3.87565,5.11962 -9.86255,16.46757 -9.09358,17.23655 15.1463,4.58747 34.45026,10.57062 48.27804,14.46449 -17.03455,4.91224 -29.90949,8.49587 -49.98835,13.89939 -1.36021,24.43307 -0.34855,45.46338 -13.77074,52.99306 z"
     style="fill:#bababa;fill-opacity:1;stroke-width:0.72639227" />
</svg>
