<?xml version="1.0" encoding="UTF-8" standalone="no"?>
<!-- Created with Inkscape (http://www.inkscape.org/) -->

<svg
   width="300mm"
   height="300mm"
   viewBox="0 0 300 300"
   version="1.1"
   id="svg1"
   xml:space="preserve"
   inkscape:version="1.3.2 (091e20e, 2023-11-25, custom)"
   sodipodi:docname="庫-seal.svg"
   xmlns:inkscape="http://www.inkscape.org/namespaces/inkscape"
   xmlns:sodipodi="http://sodipodi.sourceforge.net/DTD/sodipodi-0.dtd"
   xmlns="http://www.w3.org/2000/svg"
   xmlns:svg="http://www.w3.org/2000/svg"><sodipodi:namedview
     id="namedview1"
     pagecolor="#ffffff"
     bordercolor="#000000"
     borderopacity="0.25"
     inkscape:showpageshadow="2"
     inkscape:pageopacity="0.0"
     inkscape:pagecheckerboard="0"
     inkscape:deskcolor="#d1d1d1"
     inkscape:document-units="mm"
     inkscape:zoom="0.52347032"
     inkscape:cx="287.50436"
     inkscape:cy="579.78455"
     inkscape:window-width="1920"
     inkscape:window-height="1009"
     inkscape:window-x="-8"
     inkscape:window-y="-8"
     inkscape:window-maximized="1"
     inkscape:current-layer="layer1" /><defs
     id="defs1" /><g
     inkscape:label="Layer 1"
     inkscape:groupmode="layer"
     id="layer1"><path
       style="fill:#000000"
       d="m 57.481394,293.63917 -0.862727,-0.36245 -0.259888,-1.03548 -0.259888,-1.03547 0.237369,-2.96451 0.237369,-2.96451 2.146682,-10.45829 c 1.180675,-5.75206 2.753717,-13.70867 3.495648,-17.68135 0.741932,-3.97268 1.7889,-10.10842 2.326594,-13.63497 0.537695,-3.52656 1.410494,-9.90933 1.939553,-14.18394 0.52906,-4.27461 1.402378,-11.96891 1.940707,-17.09844 0.538329,-5.12954 1.327845,-13.43588 1.754479,-18.45855 0.426635,-5.02267 1.212118,-15.16516 1.745518,-22.53886 0.5334,-7.37371 1.410356,-20.05182 1.948792,-28.17358 0.538436,-8.12176 1.333561,-20.45013 1.766944,-27.39637 0.433383,-6.94625 1.22563,-19.274607 1.760547,-27.396367 0.534918,-8.12177 1.151326,-16.69042 1.369797,-19.04146 0.218471,-2.35103 0.665102,-6.19818 0.992514,-8.54922 0.327411,-2.35103 0.929262,-5.94148 1.337446,-7.97876 0.408184,-2.03728 1.107767,-4.83521 1.554628,-6.21762 0.446862,-1.382403 1.452298,-3.824991 2.234303,-5.427971 l 1.421827,-2.914507 2.575995,-2.582503 2.575995,-2.582502 2.882051,-1.38621 2.88205,-1.386211 2.709469,-0.628401 c 1.490212,-0.345621 4.633042,-0.887728 6.984082,-1.204683 l 4.27461,-0.576281 20.01295,-0.350654 20.01296,-0.350655 2.08295,-0.385463 2.08295,-0.385463 0.91055,-0.596614 0.91054,-0.596614 0.20412,-1.265894 c 0.11226,-0.696241 0.39982,-2.654879 0.63902,-4.352527 l 0.43491,-3.086633 0.90094,-2.662963 0.90094,-2.662963 1.04415,-1.3689415 c 0.57427,-0.752917 1.76932,-1.897034 2.65565,-2.542481 l 1.61152,-1.173541 2.60115,0.142921 2.60115,0.142921 1.47742,1.195774 1.47742,1.195773 0.87034,1.7072695 0.87035,1.707269 1.16985,5.246114 c 0.64342,2.885363 1.33407,5.622736 1.53477,6.08305 l 0.36492,0.836937 2.24659,0.840554 2.24658,0.840555 5.45366,0.920791 5.45367,0.920792 10.10363,1.012261 c 5.55699,0.556744 12.0272,1.277132 14.37824,1.600863 2.35103,0.32373 5.67357,0.930449 7.38342,1.348265 l 3.1088,0.759666 1.55441,1.074412 1.5544,1.074413 0.70157,1.350197 0.70157,1.350198 -0.15915,1.849791 -0.15915,1.849792 -0.67815,0.749337 -0.67814,0.749336 -1.92355,0.41253 -1.92356,0.41253 h -4.05863 c -2.23225,0 -10.92345,-0.364539 -19.31378,-0.810086 l -15.25514,-0.810086 -5.44042,0.157594 -5.44041,0.157594 -1.85898,0.830747 -1.85898,0.830747 -0.62132,1.473299 -0.62132,1.473295 0.24719,5.82902 0.24719,5.82902 0.55659,2.78837 c 0.30612,1.53361 0.83862,3.33377 1.18332,4.00035 l 0.62674,1.21197 1.24032,0.75428 1.24033,0.75429 2.72397,0.58496 c 1.49818,0.32173 4.47267,0.76101 6.60998,0.97617 2.1373,0.21517 9.5693,0.55985 16.51554,0.76595 6.94624,0.2061 14.72798,0.47599 17.29274,0.59977 2.56477,0.12377 5.88731,0.39611 7.38342,0.6052 1.49612,0.20909 3.28526,0.56419 3.97587,0.78912 l 1.25567,0.40896 0.46151,1.54041 0.46152,1.5404 -0.76587,1.05492 -0.76588,1.05493 -1.7285,0.86556 -1.72851,0.86556 -2.91451,0.58342 c -1.60298,0.32088 -4.67084,0.7564 -6.81747,0.96784 -2.14663,0.21143 -8.44197,0.56732 -13.98964,0.79088 -5.54767,0.22355 -13.40921,0.58313 -17.47009,0.79905 l -7.38342,0.39259 -2.2078,0.61723 -2.2078,0.61724 -0.90101,0.95821 -0.90101,0.95821 -0.12503,3.75842 -0.12503,3.75843 0.51363,1.5402 0.51363,1.5402 1.27716,0.8594 1.27716,0.8594 2.02595,0.44143 c 1.11427,0.24278 6.74745,1.03893 12.51818,1.769217 5.77072,0.73029 11.97863,1.61567 13.79534,1.96752 l 3.30311,0.63973 2.7202,1.24571 2.72021,1.24571 1.77106,1.80307 1.77106,1.80307 0.88446,1.77096 0.88446,1.77096 0.79147,3.58414 0.79148,3.58415 0.18872,16.43231 0.18872,16.43232 -0.43496,7.60536 -0.43496,7.60537 -0.5894,2.8535 c -0.32418,1.56943 -0.86297,3.50823 -1.19732,4.30843 -0.33435,0.80021 -1.27124,2.42651 -2.08199,3.614 l -1.47409,2.15907 -2.86096,2.72689 c -1.57353,1.49979 -4.34736,4.05363 -6.16407,5.67522 -1.81671,1.62158 -4.7826,4.0391 -6.59086,5.37228 -1.80826,1.33317 -4.28938,2.92956 -5.51358,3.54754 l -2.22584,1.1236 -3.51503,0.39819 -3.51503,0.39818 -2.24082,0.83211 c -1.23244,0.45766 -3.11516,1.3883 -4.18382,2.06809 l -1.943,1.23597 -1.30126,1.48341 -1.30126,1.4834 -0.7389,1.72377 -0.73889,1.72377 v 3.0583 3.05831 l 0.44137,0.96871 0.44137,0.96871 1.54204,0.617 1.54203,0.61699 3.94276,0.3898 3.94276,0.3898 14.76684,-0.25219 14.76684,-0.25219 8.93782,0.44363 c 4.91581,0.24399 10.07448,0.61898 11.46373,0.83332 1.38925,0.21433 3.32874,0.65121 4.30999,0.97086 l 1.78407,0.58117 0.83898,0.78163 0.83898,0.78163 v 1.3286 1.3286 l -1.45725,1.52778 -1.45725,1.52778 -1.55441,0.42861 c -0.85492,0.23573 -3.0408,0.62988 -4.85751,0.87589 l -3.30311,0.44728 -20.65167,-0.23498 -20.65166,-0.23499 -3.55646,0.39707 -3.55645,0.39707 -1.60716,0.56704 c -0.88394,0.31187 -2.20863,1.0258 -2.94375,1.5865 l -1.33659,1.01947 -0.90416,1.98457 -0.90416,1.98457 -0.40606,2.52591 -0.40606,2.5259 -0.0182,10.29793 c -0.01,5.66386 -0.174,14.58225 -0.36436,19.81865 l -0.34612,9.52073 -0.45849,2.1373 -0.4585,2.13731 -0.79621,1.43976 -0.79621,1.43975 -1.50054,0.6004 -1.50055,0.6004 h -2.14311 -2.14311 l -0.97376,-0.63803 -0.97376,-0.63803 -0.94065,-1.60509 -0.94064,-1.6051 -0.58161,-2.51724 -0.5816,-2.51723 -0.40483,-5.0111 -0.40482,-5.01109 -0.009,-10.92155 -0.009,-10.92155 -0.37409,-4.85751 c -0.20575,-2.67163 -0.48524,-5.60938 -0.6211,-6.52832 l -0.247,-1.67081 -0.53023,-0.53023 -0.53024,-0.53024 -2.04581,-0.44472 c -1.1252,-0.2446 -3.44478,-0.6052 -5.15462,-0.80133 -1.70984,-0.19613 -8.52979,-0.61916 -15.15544,-0.94007 -6.62565,-0.3209 -15.10687,-0.84717 -18.84715,-1.16949 -3.74029,-0.32231 -8.94717,-0.85365 -11.57085,-1.18076 -2.62368,-0.32712 -5.642009,-0.78169 -6.707391,-1.01018 l -1.937059,-0.41542 -0.432712,-0.80853 -0.432712,-0.80853 0.208884,-2.30361 0.208884,-2.3036 0.907902,-0.97634 c 0.499347,-0.53699 1.345079,-1.15191 1.879406,-1.36648 0.534326,-0.21458 2.457901,-0.6399 4.274608,-0.94515 l 3.30311,-0.55501 23.31606,-0.34537 23.31607,-0.34536 2.32611,-0.58155 2.32611,-0.58155 0.93363,-1.08541 0.93363,-1.08541 -0.22577,-3.98678 -0.22577,-3.98678 -0.81436,-1.84099 c -0.4479,-1.01255 -1.1137,-2.17202 -1.47957,-2.5766 -0.36586,-0.40458 -1.27725,-1.04585 -2.02531,-1.42504 -0.74806,-0.37919 -4.77008,-1.83036 -8.93782,-3.22481 l -7.57772,-2.53536 -4.85752,-2.2196 c -2.67163,-1.22078 -6.0816,-2.9283 -7.57772,-3.79449 -1.49611,-0.8662 -3.9443,-2.48618 -5.44041,-3.59996 -1.49612,-1.11379 -3.45453,-2.78915 -4.35204,-3.72303 l -1.63183,-1.69796 -0.97277,-2.13731 -0.97277,-2.1373 -0.97214,-3.88601 c -0.53467,-2.13731 -1.36682,-6.59651 -1.84923,-9.90933 l -0.87709,-6.02332 -0.0151,-13.79533 -0.0151,-13.79534 0.69063,-4.54528 c 0.37985,-2.4999 1.02607,-5.85681 1.43604,-7.4598 0.40998,-1.60298 1.18727,-3.84193 1.72732,-4.97544 l 0.98191,-2.06093 2.04338,-2.48354 2.04339,-2.48354 2.47841,-1.8762 2.4784,-1.8762 3.16389,-1.2561 3.16388,-1.25609 13.01814,-0.2557 13.01813,-0.25569 1.38896,-0.442648 1.38896,-0.44264 0.94265,-1.00289 0.94264,-1.00289 0.11595,-3.36947 0.11594,-3.36946 -0.69884,-1.3601 -0.69885,-1.36011 -2.1373,-0.71519 -2.13731,-0.7152 -12.94356,0.0503 -12.94356,0.0503 -2.40618,-0.46368 -2.40618,-0.46368 -4.08032,-1.73307 c -2.24417,-0.95319 -5.47927,-2.24903 -7.18911,-2.87965 l -3.10881,-1.14656 -0.87435,-0.81985 -0.87436,-0.81984 v -0.91924 -0.91925 l 0.74162,-1.44177 c 0.40788,-0.79298 1.23852,-1.91339 1.84585,-2.48981 0.60733,-0.57642 1.79956,-1.3385 2.64939,-1.6935 0.84983,-0.355 2.59853,-0.81309 3.88601,-1.01798 l 2.34086,-0.37254 18.45855,-0.2834 18.45855,-0.2834 1.83136,-0.82826 1.83136,-0.82827 0.20581,-0.90262 c 0.1132,-0.49644 0.38886,-2.12671 0.61257,-3.62282 0.22372,-1.49612 0.75582,-3.97739 1.18246,-5.51393 0.42664,-1.53655 1.55627,-4.77165 2.5103,-7.18912 0.95403,-2.41747 1.83198,-4.92001 1.95101,-5.561202 l 0.21642,-1.165803 -0.51446,-0.696794 -0.51446,-0.696794 -3.10178,-0.571092 -3.10178,-0.571091 -7.38342,-0.241172 -7.38342,-0.241171 -8.74352,0.460164 c -4.80894,0.25309 -11.71632,0.715553 -15.34974,1.027696 -3.63342,0.312143 -8.09262,0.744386 -9.90933,0.96054 -1.81671,0.216155 -4.70207,0.666771 -6.41192,1.001369 l -3.108805,0.608362 -0.90681,0.57887 -0.906811,0.57887 -0.557986,1.335448 -0.557986,1.33545 -0.935855,5.72629 c -0.514721,3.14947 -1.20826,8.43679 -1.541198,11.74961 -0.332939,3.31283 -0.864871,8.99612 -1.182071,12.62954 -0.3172,3.63342 -0.843203,10.89054 -1.168896,16.12694 -0.325693,5.2364 -0.769422,12.406088 -0.986064,15.932638 -0.216643,3.52656 -1.17899,21.88796 -2.13855,40.80311 -0.95956,18.91516 -2.098726,40.94884 -2.53148,48.96373 -0.432753,8.0149 -0.967672,16.75842 -1.188707,19.43006 -0.221036,2.67163 -0.552239,5.46955 -0.736008,6.21761 -0.183768,0.74806 -0.792833,3.10881 -1.353476,5.24612 l -1.019351,3.88601 -1.739986,11.46373 c -0.956992,6.30505 -2.172672,13.66795 -2.70151,16.36201 -0.528839,2.69405 -1.488725,6.92874 -2.133082,9.41042 -0.644356,2.48168 -1.789005,7.3551 -2.543665,10.82983 l -1.372109,6.31769 -0.944236,1.61122 -0.944237,1.61122 -1.276206,0.59152 -1.276206,0.59153 -3.69171,0.22691 -3.69171,0.22692 z M 155.50229,188.41199 c 0.21808,-0.15702 0.63294,-0.81011 0.92191,-1.4513 l 0.5254,-1.1658 0.19012,-6.21762 0.19012,-6.21762 -0.41799,-5.44041 -0.418,-5.44042 -0.62986,-2.10048 -0.62985,-2.10049 -0.78489,-1.06162 c -0.43169,-0.58389 -1.21677,-1.2584 -1.74461,-1.4989 -0.52785,-0.2405 -1.70934,-0.60527 -2.62554,-0.81059 l -1.66582,-0.37332 -4.42577,0.38435 c -2.43418,0.21139 -6.55342,0.72832 -9.15388,1.14873 l -4.7281,0.76438 -2.26672,0.84591 -2.26671,0.84592 -1.31428,1.31047 -1.31428,1.31047 0.20402,2.61059 0.20401,2.61059 0.85541,1.88748 c 0.47047,1.03811 1.48393,2.96168 2.25212,4.27461 l 1.3967,2.38714 1.95678,2.07251 1.95678,2.07251 2.23477,1.30976 2.23477,1.30977 2.05002,0.61349 2.05002,0.61349 4.58334,0.35225 4.58334,0.35224 1.41694,0.7038 1.41693,0.7038 0.42823,1.30642 0.42824,1.30641 0.73773,0.53944 c 0.40575,0.29669 0.83546,0.53677 0.95491,0.53349 0.11945,-0.003 0.39561,-0.13442 0.61369,-0.29145 z m 36.52059,-5.49613 3.1088,-0.82058 3.1964,-1.52796 3.19639,-1.52796 1.36279,-2.13037 1.36278,-2.13038 0.86017,-3.04108 0.86018,-3.04109 0.0185,-4.27461 0.0185,-4.27461 -0.87647,-1.64534 -0.87647,-1.64534 -0.86963,-0.188 c -0.47829,-0.1034 -2.44346,-0.37556 -4.36704,-0.6048 -1.92357,-0.22924 -6.38277,-0.52233 -9.90932,-0.6513 l -6.41192,-0.23451 -2.32302,0.67539 -2.32302,0.67539 -1.04697,0.74551 -1.04698,0.74551 -0.66968,1.75354 -0.66968,1.75353 0.23515,3.58482 0.23515,3.58482 1.15104,5.44041 c 0.63307,2.99223 1.35177,5.96471 1.59712,6.60551 0.24534,0.6408 0.73993,1.49208 1.09908,1.89172 0.35915,0.39965 1.00274,0.88092 1.4302,1.06949 l 0.77721,0.34285 3.88601,-0.15499 3.88601,-0.155 z m -49.35234,-43.36325 7.77203,-0.23073 2.51036,-0.39151 2.51037,-0.3915 1.3263,-0.62937 1.3263,-0.62937 0.54091,-1.29459 0.54092,-1.29458 0.0232,-5.53612 0.0232,-5.53612 -0.44848,-2.57091 -0.44849,-2.57091 -0.74283,-1.2215 -0.74284,-1.2215 -1.23174,-0.74906 -1.23173,-0.74907 -2.60356,-0.43914 -2.60356,-0.43915 -3.23119,0.44241 -3.23118,0.44241 -3.13785,0.98895 c -1.72582,0.54393 -4.0122,1.42836 -5.08086,1.96541 -1.06865,0.53705 -3.07966,1.712 -4.46891,2.61101 l -2.52591,1.63456 -1.67312,1.71545 -1.67313,1.71544 -1.93594,3.88601 -1.93594,3.88601 -0.23409,1.47851 -0.23408,1.4785 0.5274,0.98547 0.52741,0.98547 1.49264,0.76149 1.49263,0.76148 4.34902,0.31234 c 2.39196,0.17179 4.87363,0.25893 5.51482,0.19365 0.64119,-0.0653 4.66321,-0.22253 8.93782,-0.34944 z m 48.68282,-0.005 2.4393,-0.57511 0.94138,-0.61681 c 0.51775,-0.33925 1.29403,-1.21452 1.72505,-1.94506 l 0.78369,-1.32824 h 0.56508 0.56507 l 2.3139,2.56377 2.31389,2.56377 0.72541,-0.1397 0.72541,-0.13971 1.45096,-2.13261 1.45096,-2.13262 0.59248,-2.3161 0.59248,-2.3161 v -2.40133 -2.40134 l -0.5988,-3.1566 c -0.32934,-1.73613 -0.9238,-3.91481 -1.32103,-4.8415 l -0.72223,-1.6849 -1.06131,-0.83482 c -0.58372,-0.45916 -1.78168,-1.04888 -2.66213,-1.3105 l -1.60082,-0.47567 -8.93783,0.003 -8.93782,0.003 -2.81775,0.50674 -2.81774,0.50675 -0.79442,0.64487 -0.79442,0.64488 -0.58913,3.41856 -0.58914,3.41857 0.12099,7.14366 0.12099,7.14365 0.81223,1.08656 0.81224,1.08656 0.93647,0.26197 c 0.51506,0.14408 3.38465,0.27681 6.37688,0.29495 l 5.44042,0.033 z"
       id="path1" /></g></svg>
