<?xml version="1.0" encoding="UTF-8" standalone="no"?>
<!-- Created with Inkscape (http://www.inkscape.org/) -->

<svg
   width="300mm"
   height="300mm"
   viewBox="0 0 300 300"
   version="1.1"
   id="svg1"
   xml:space="preserve"
   inkscape:version="1.3.2 (091e20e, 2023-11-25, custom)"
   sodipodi:docname="房-seal.svg"
   xmlns:inkscape="http://www.inkscape.org/namespaces/inkscape"
   xmlns:sodipodi="http://sodipodi.sourceforge.net/DTD/sodipodi-0.dtd"
   xmlns="http://www.w3.org/2000/svg"
   xmlns:svg="http://www.w3.org/2000/svg"><sodipodi:namedview
     id="namedview1"
     pagecolor="#ffffff"
     bordercolor="#000000"
     borderopacity="0.25"
     inkscape:showpageshadow="2"
     inkscape:pageopacity="0.0"
     inkscape:pagecheckerboard="0"
     inkscape:deskcolor="#d1d1d1"
     inkscape:document-units="mm"
     inkscape:zoom="0.52347032"
     inkscape:cx="528.20569"
     inkscape:cy="679.1216"
     inkscape:window-width="1920"
     inkscape:window-height="1009"
     inkscape:window-x="-8"
     inkscape:window-y="-8"
     inkscape:window-maximized="1"
     inkscape:current-layer="layer1" /><defs
     id="defs1" /><g
     inkscape:label="Layer 1"
     inkscape:groupmode="layer"
     id="layer1"><path
       style="fill:#000000"
       d="m 167.64306,289.06208 c -2.15952,-2.15952 -0.84497,-6.70237 6.05008,-20.90795 7.02237,-14.46789 11.13014,-24.98322 12.20462,-31.24216 1.09935,-6.4038 2.21339,-10.19359 3.37165,-11.46983 1.78513,-1.96696 2.75052,-9.28788 2.229,-16.90335 -0.46264,-6.75566 -2.37649,-9.55576 -10.09922,-14.7759 -5.48611,-3.70831 -6.93398,-4.39892 -8.61244,-4.10796 -4.84421,0.83973 -9.28454,4.69316 -9.99609,8.67486 -0.58425,3.26935 -4.43131,11.95497 -11.50374,25.9724 -7.94321,15.74328 -10.83328,20.95101 -16.20554,29.20137 -3.63398,5.58081 -6.5146,10.78591 -6.90554,12.47786 -0.30735,1.3302 -4.16109,5.43926 -7.33528,7.82127 -5.56442,4.1757 -8.66235,5.07233 -10.93068,3.16365 -1.00165,-0.84282 -1.15812,-1.22247 -1.15812,-2.80993 0,-3.91068 3.67493,-11.64003 7.63783,-16.06436 3.42047,-3.81876 9.08829,-12.39764 12.14172,-18.37786 1.3358,-2.6162 2.42873,-4.91513 2.42873,-5.10873 0,-0.1936 -0.29642,-0.45712 -0.65872,-0.5856 -1.22522,-0.43451 -1.97616,-1.36018 -1.97616,-2.43599 0,-1.28313 1.17984,-2.576 2.35257,-2.57795 1.56236,-0.003 3.18753,-1.41529 5.26455,-4.57629 4.62285,-7.03547 10.68024,-19.32982 17.06949,-34.64496 2.92801,-7.01851 3.92067,-10.12366 3.92067,-12.26433 0,-1.92302 -1.61793,-6.34381 -4.51555,-12.33815 -2.34166,-4.84421 -2.76369,-5.48429 -4.04811,-6.13955 -2.6865,-1.37055 -5.54609,-1.92239 -13.83283,-2.66945 -8.92465,-0.80456 -13.01112,-1.6403 -16.56211,-3.38719 -4.21072,-2.07145 -6.32159,-4.43161 -7.99572,-8.94002 -0.77521,-2.08763 -0.98207,-3.44841 -1.1322,-7.44768 -0.30695,-8.17706 0.75316,-12.42907 3.52609,-14.14284 l 1.38518,-0.85609 -0.96981,-0.78159 c -0.53339,-0.42987 -1.42298,-1.09908 -1.97686,-1.48713 -1.46378,-1.02551 -2.16684,-3.00346 -1.98097,-5.57314 0.24109,-3.33297 2.01572,-4.82656 4.83331,-4.06786 1.56876,0.42243 2.81617,1.82839 3.38647,3.81694 0.18673,0.65109 0.68979,4.50392 1.1179,8.56184 0.42812,4.05793 1.03853,8.3842 1.35647,9.61394 1.88987,7.30958 5.81477,10.3451 15.8259,12.23977 5.79338,1.09643 10.74005,1.54488 12.29746,1.11486 2.45716,-0.67845 3.10872,-1.61312 7.93114,-11.3772 6.41827,-12.99526 8.95944,-16.84968 14.96733,-22.70237 4.78666,-4.66299 9.73345,-7.93791 14.43216,-9.5545 3.02585,-1.04105 4.8768,-0.98832 6.0371,0.17198 2.55269,2.55269 -0.29976,8.06716 -9.06834,17.53129 -9.20036,9.93019 -14.04454,17.27605 -14.08296,21.35585 -0.0132,1.40021 0.13444,1.69623 1.15558,2.31722 2.64352,1.60762 9.91694,2.79824 21.23363,3.47583 8.31733,0.498 15.48676,0.13086 20.31838,-1.04048 1.5861,-0.38452 4.28298,-0.65228 6.77541,-0.6727 3.42864,-0.0281 4.39854,0.0951 5.64121,0.71637 2.13864,1.06926 3.20446,2.83379 3.20446,5.30519 0,3.34914 -1.1248,4.69761 -4.32873,5.18948 -0.82811,0.12713 -9.72223,0.57178 -19.76472,0.98811 -33.61874,1.39371 -35.17725,1.72552 -34.41728,7.32739 0.53031,3.90897 2.12453,5.92989 7.6075,9.64364 6.89249,4.66846 9.50065,6.83996 15.16265,12.62409 12.04973,12.30963 15.56519,19.40752 14.35557,28.98466 -1.47503,11.67858 -9.40866,40.06446 -14.91646,53.36989 -4.98828,12.0504 -10.05069,18.58917 -15.87139,20.49997 -3.30628,1.08538 -5.20045,1.04717 -6.37624,-0.12863 z m -92.530063,-2.03204 c -1.39695,-1.54362 -1.53983,-4.18029 -1.04744,-19.32977 0.52511,-16.15606 1.83943,-41.51119 3.26422,-62.97148 1.56843,-23.62386 1.97578,-33.5089 3.37372,-81.86951 1.94826,-67.398428 3.94261,-90.910948 8.54642,-100.758428 1.52056,-3.25246 2.9623,-4.382 7.33959,-5.75027 3.892733,-1.216797 15.252123,-3.866671 19.314073,-4.505511 9.47995,-1.49095 39.35453,-2.2499737 61.73149,-1.568413 20.01474,0.609612 28.46154,1.405887 33.02686,3.113425 3.36724,1.259427 3.88781,2.939969 1.91765,6.190719 -1.36605,2.25398 -2.60421,2.94186 -6.33723,3.52074 -8.22128,1.27487 -52.15504,-0.9064 -57.73239,-2.86636 -2.18084,-0.76637 -3.56049,-0.63053 -6.17942,0.60842 -2.90457,1.37409 -9.99321,2.7633 -18.32466,3.5912 -13.96344,1.38755 -22.70297,4.04802 -26.145773,7.95925 -1.82627,2.07475 -2.53189,4.57663 -3.08208,10.92791 -0.39596,4.57097 -0.37537,5.04008 0.28008,6.38226 0.3891,0.79676 1.16633,1.66631 1.72717,1.93232 1.36936,0.64951 7.268663,0.61654 16.859833,-0.0942 9.49599,-0.70371 17.1507,-0.74489 18.42676,-0.0991 0.62503,0.3163 1.05093,0.98458 1.31744,2.06722 l 0.39382,1.59981 0.99528,-1.24989 c 0.67154,-0.84332 1.65107,-1.46172 3.0113,-1.90109 3.21529,-1.03858 10.51486,-2.06882 17.63708,-2.48924 3.62296,-0.21386 9.55145,-0.55948 13.17441,-0.76804 10.09922,-0.5814 21.27531,-1.82263 23.93002,-2.65771 0.73606,-0.23155 1.36919,-0.80647 1.73994,-1.58 1.08189,-2.25724 5.92147,-8.15846 6.89012,-8.40157 1.50908,-0.37875 3.25131,0.89809 4.41704,3.23716 2.13356,4.28102 3.68193,15.45905 3.77964,27.28593 0.0983,11.8974 -0.8218,15.22677 -5.40212,19.54761 -5.5477,5.23341 -11.70646,6.35817 -16.63628,3.03824 -2.39304,-1.61157 -3.10587,-1.64037 -4.60629,-0.18611 -1.55595,1.50809 -6.74335,2.68466 -17.31157,3.92649 -25.92584,3.04645 -54.86457,3.75181 -61.26583,1.49331 -0.82574,-0.29134 -2.4286,-0.5297 -3.56192,-0.5297 -1.823643,0 -2.200833,0.14067 -3.280233,1.22333 -2.25764,2.26447 -3.48005,7.125358 -4.33068,17.220828 -0.21805,2.58783 -0.56315,15.71518 -0.76689,29.1719 -0.84853,56.04282 -1.58507,81.71558 -2.85095,99.37264 -0.94891,13.23578 -1.50867,17.06521 -3.35505,22.9526 -0.91044,2.90305 -2.60437,8.57132 -3.76428,12.59615 -1.95503,6.78384 -2.82688,8.95848 -4.27207,10.65577 -0.73051,0.85795 -2.04552,0.84 -2.8408,-0.0388 z M 112.51588,85.217072 c 28.2883,-1.09652 73.43105,-4.37389 78.02721,-5.66479 3.20673,-0.90065 4.94064,-2.65495 5.68628,-5.75313 0.14132,-0.58721 0.26064,-3.23511 0.26516,-5.88423 0.014,-8.2162 -0.72733,-8.89448 -10.35318,-9.47276 -10.60832,-0.63731 -49.43919,0.83698 -56.12234,2.13079 -1.44918,0.28056 -3.82057,0.76208 -5.26976,1.07004 -3.41318,0.72535 -6.67783,0.97073 -17.69134,1.32976 -11.395523,0.37148 -11.878043,0.55662 -12.435103,4.77123 -0.44672,3.37981 1.00574,14.61921 2.1852,16.90952 0.55842,1.08434 0.71974,1.1379 3.1541,1.04703 1.211353,-0.0452 6.860543,-0.26278 12.553773,-0.48346 z"
       id="path2" /></g></svg>
