<?xml version="1.0" encoding="UTF-8" standalone="no"?>
<svg
   xmlns:dc="http://purl.org/dc/elements/1.1/"
   xmlns:cc="http://creativecommons.org/ns#"
   xmlns:rdf="http://www.w3.org/1999/02/22-rdf-syntax-ns#"
   xmlns:svg="http://www.w3.org/2000/svg"
   xmlns="http://www.w3.org/2000/svg"
   viewBox="0 0 300 300"
   height="300"
   width="300"
   id="svg1016"
   version="1.1">
  <metadata
     id="metadata1022">
    <rdf:RDF>
      <cc:Work
         rdf:about="">
        <dc:format>image/svg+xml</dc:format>
        <dc:type
           rdf:resource="http://purl.org/dc/dcmitype/StillImage" />
        <dc:title></dc:title>
      </cc:Work>
    </rdf:RDF>
  </metadata>
  <defs
     id="defs1020" />
  <path
     id="path1026"
     d="m 141.3666,268.54752 c 0.59674,-4.10299 0.6052,-3.72913 -0.29164,-12.89346 -0.39098,-3.99516 -0.86036,-15.75805 -1.04306,-26.13977 -0.41122,-23.36631 0.8412,-21.43893 -13.93104,-21.43893 H 115.6673 l -1.15525,2.23401 c -0.63538,1.2287 -1.45169,4.05537 -1.814,6.2815 -1.28705,7.90794 -8.92762,18.62414 -16.912287,23.72015 -2.06993,1.32109 -6.46582,4.1328 -9.76864,6.24825 -5.70969,3.65705 -6.1834,3.82515 -9.62895,3.41708 -2.16404,-0.2563 -4.57311,-1.13919 -5.98035,-2.19172 -1.29609,-0.9694 -3.87979,-1.98082 -5.74157,-2.24761 -4.12878,-0.59166 -13.9402,-7.11672 -18.10549,-12.04101 -2.72384,-3.22019 -2.78507,-3.42881 -4.39541,-14.97527 l -1.63309,-11.7096 -5.47291,-0.41391 c -3.0101,-0.22765 -5.64398,-0.24223 -5.85307,-0.0324 -0.20909,0.20984 -0.39183,4.68479 -0.40609,9.94434 -0.610002,7.43653 -4.820391,36.57096 -9.86655,38.82637 -1.00792,0.19296 -1.24978,-1.01487 -1.69419,-8.46078 -0.45579,-7.63657 -0.36331,-8.9226 0.7655,-10.64537 1.14592,-1.7489 1.19138,-2.49906 0.423,-6.97993 -0.4735,-2.76123 -0.86091,-9.09409 -0.86091,-14.07301 0,-8.8278 -0.0413,-9.06295 -1.66274,-9.46991 -0.9145,-0.22952 -2.58864,-0.0653 -3.72031,0.36498 -2.5404801,0.96588 -3.7751701,0.11584 -4.2184201,-2.90427 -0.28053,-1.91134 -0.10415,-2.15762 1.55536,-2.17176 1.5928801,-0.0136 7.9214701,-2.38298 8.1082301,-3.0357 0.33705,-1.17796 1.53384,-22.4417 1.62995,-28.95982 0.14133,-9.58508 0.74501,-10.84567 5.19384,-10.84567 2.33363,0 2.7547,0.29529 3.72189,2.61009 1.00926,2.4155 0.98187,2.81864 -0.36741,5.40727 l -1.45796,2.79717 2.24912,4.21476 c 2.08995,3.91649 2.19044,4.43414 1.41992,7.31502 -0.45606,1.70515 -0.82919,5.9947 -0.82919,9.53233 v 6.43207 l 2.72397,0.45024 c 1.49818,0.24763 4.06783,0.45384 5.71032,0.45823 2.94677,0.008 3.00633,-0.0442 4.49221,-3.92703 1.62234,-4.23943 9.96319,-16.43226 13.11225,-19.16777 2.95903,-2.57043 6.50393,-4.17303 12.35001,-5.58323 4.11247,-0.99202 5.89959,-1.8493 7.7845,-3.73421 3.05134,-3.05134 5.97064,-3.19189 14.95508,-0.72002 7.49688,2.0626 6.9996,1.79006 13.187987,7.22787 5.89191,5.17729 7.11792,7.38969 9.61301,17.34711 1.04352,4.16448 2.17666,8.02377 2.51808,8.5762 0.73842,1.19479 3.53675,1.21625 13.43151,0.10299 8.97019,-1.00922 10.17694,-1.99111 9.4801,-7.71364 -0.88213,-7.24415 -1.27882,-33.21657 -0.51893,-33.97646 0.45141,-0.45141 0.49658,-1.37673 0.11605,-2.37759 -0.78334,-2.06034 -1.23203,-23.66553 -0.5153,-24.81247 0.29166,-0.46673 0.0372,-7.61851 -0.56546,-15.89287 -0.60266,-8.27436 -1.09574,-19.701741 -1.09574,-25.394194 0,-7.986196 -0.2323,-10.542703 -1.01716,-11.194078 -0.76013,-0.630856 -4.10992,-0.663217 -13.25666,-0.12807 -6.73172,0.393853 -16.9792,0.914015 -22.772177,1.155911 -10.39875,0.434223 -10.66017,0.486865 -20.55761,4.139775 l -10.02493,3.699966 -3.72575,4.824392 c -5.91456,7.658638 -7.03176,8.286088 -18.004,10.111538 -5.24092,0.87193 -9.84628,1.38921 -10.23414,1.14951 -0.38785,-0.23971 -2.31791,-0.0225 -4.28901,0.48267 -2.89989,0.74323 -4.9393,0.73912 -10.68654,-0.0215 -9.17234,-1.21391 -11.8121701,-2.77069 -11.8193001,-6.970145 l -0.005,-2.924412 11.0774801,-1.236617 c 6.09261,-0.680136 12.54843,-1.050901 14.34625,-0.823925 1.79782,0.226983 6.15736,0.09134 9.68787,-0.301431 l 6.41911,-0.714124 7.74554,-7.560007 c 6.99257,-6.825076 8.13392,-7.653106 11.7407,-8.517673 2.19946,-0.527225 4.8699,-1.773888 5.94134,-2.773642 1.87908,-1.753351 2.10453,-1.787859 6.53753,-1.000646 4.47692,0.795012 4.66459,0.763938 7.53053,-1.24684 2.52921,-1.774532 3.89704,-2.132749 9.806297,-2.568159 3.77689,-0.278294 9.48211,-0.804659 12.67824,-1.1697 3.19612,-0.365042 9.12665,-0.681337 13.17894,-0.702879 5.57687,-0.02964 7.46157,-0.283521 7.75356,-1.044434 0.21217,-0.552898 0.96976,-8.271179 1.68353,-17.151737 0.97601,-12.14329 1.54634,-16.241854 2.30035,-16.531197 1.70691,-0.655001 5.82389,1.825339 7.19365,4.333921 1.10903,2.031102 1.31231,4.320413 1.35947,15.311159 0.0465,10.831414 0.24372,13.111238 1.21864,14.086161 0.74395,0.743952 3.21111,1.360537 6.84527,1.710752 8.32378,0.802142 23.06817,4.592622 26.37374,6.780145 4.16458,2.755988 6.45054,6.19813 7.34781,11.064147 1.58112,8.574668 3.48235,10.648729 11.91211,12.994932 2.39709,0.667169 7.79055,2.473521 11.98547,4.014101 9.64676,3.54278 12.01103,4.10048 19.61259,4.62637 10.89067,0.75343 16.71448,2.96303 19.00331,7.21004 1.72257,3.19631 -2.75726,4.27171 -9.92341,2.38214 -2.49365,-0.65753 -4.1214,-0.73515 -5.19362,-0.24767 -1.0796,0.49083 -3.68599,0.34789 -8.44348,-0.46306 -3.78501,-0.64518 -8.17735,-1.17305 -9.76075,-1.17305 -4.75078,0 -16.15082,-3.86835 -24.33117,-8.25624 -8.84528,-4.74454 -13.5882,-9.61435 -15.44128,-15.854343 -2.62497,-8.839249 -4.81195,-10.02985 -18.42351,-10.02985 h -8.78603 l -0.90953,3.087167 c -1.56712,5.319233 -1.08692,41.552116 0.71,53.571426 1.00096,6.69526 1.34776,11.76509 1.09315,15.98063 -0.2051,3.39589 -0.0402,9.76998 0.36633,14.16465 0.42823,4.62863 0.49522,10.58798 0.15922,14.16465 -0.57393,6.10941 -0.0597,16.1854 0.87359,17.11873 1.62593,1.62592 11.00587,1.17181 15.93647,-0.77153 0.71092,-0.2802 2.78986,-4.40339 5.01087,-9.93812 2.08773,-5.20257 4.60006,-10.41497 5.58298,-11.58309 0.98291,-1.16813 4.45571,-3.39754 7.71732,-4.95424 3.26161,-1.5567 6.52503,-3.48763 7.25203,-4.29096 2.87849,-3.18071 19.32181,-6.60993 31.80622,-6.63313 l 7.01058,-0.013 1.50003,-2.54237 c 1.04041,-1.76336 2.02518,-2.54237 3.21389,-2.54237 3.40154,0 4.49249,2.48309 7.65938,17.43341 1.65026,7.79056 3.212,15.88524 3.47055,17.98819 0.37952,3.08691 0.76667,3.89501 2.00956,4.19449 3.56402,0.85879 15.29469,0.067 17.6538,-1.19154 2.2882,-1.22073 3.3743,-4.4444 2.9578,-8.77902 -0.19826,-2.06344 0.0882,-5.6752 0.63667,-8.02614 0.71729,-3.07475 0.78315,-4.67432 0.23465,-5.69921 -0.80314,-1.50066 -0.35735,-8.37529 0.85571,-13.19621 0.55595,-2.20945 1.0178,-2.72397 2.4451,-2.72397 4.51014,0 5.44824,4.39356 5.44824,25.51657 0,11.42767 0.0107,11.50293 1.79658,12.67311 1.37111,0.89838 2.66131,1.05823 5.44794,0.67497 l 3.65137,-0.50222 v 4.42652 4.42651 l -2.36078,0.001 c -1.29842,6.2e-4 -3.50484,0.57266 -4.90315,1.27118 l -2.54237,1.27006 -0.42458,11.62228 c -0.40014,10.95306 -0.58105,12.08236 -3.14184,19.61259 -2.49083,7.32452 -4.83372,11.45459 -5.89555,10.39275 -0.69527,-0.69527 -2.37108,-28.9469 -1.98251,-33.42215 0.45189,-5.2045 -0.1377,-7.61637 -2.00684,-8.20961 -1.95115,-0.61927 -17.2119,1.76376 -18.00555,2.81165 -0.34343,0.45345 -1.3658,3.92978 -2.2719,7.72518 -2.09992,8.79579 -4.25761,13.33255 -9.43629,19.84064 -4.53167,5.69499 -7.3029,7.8519 -14.76856,11.4947 -4.56269,2.22631 -5.07237,2.32597 -7.26393,1.42035 -1.29631,-0.53568 -4.99538,-1.36165 -8.22016,-1.83549 -4.67171,-0.68644 -6.44312,-1.31637 -8.71671,-3.09972 -1.56941,-1.23101 -4.16098,-2.64457 -5.75904,-3.14124 -3.40394,-1.05794 -17.33242,-13.99928 -19.50875,-18.12615 -0.74193,-1.40686 -2.10374,-3.28121 -3.02626,-4.16522 -1.09322,-1.04759 -1.54218,-2.12396 -1.28928,-3.09104 0.74686,-2.85604 -1.01399,-3.78676 -6.26515,-3.31149 -11.10272,1.00488 -10.84616,0.91937 -11.62555,3.87507 -0.38897,1.47508 -0.85046,11.18075 -1.02555,21.56816 -0.28531,16.92629 -0.48097,19.36531 -1.88546,23.50301 -0.86192,2.53923 -2.075,5.39191 -2.69575,6.33929 -0.62074,0.94736 -1.12861,2.88338 -1.12861,4.30225 0,2.89764 -1.40148,4.71744 -3.63304,4.71744 -1.37012,0 -1.45334,-0.289 -0.99355,-3.45037 z M 69.378333,231.7051 c 1.70873,-1.70874 2.9936,-18.43456 1.59052,-20.70479 -1.66608,-2.69578 -14.37737,-4.10488 -17.2638,-1.91377 -3.96443,3.00943 1.43427,18.4624 7.80872,22.35128 2.62722,1.60279 6.4008,1.73104 7.86456,0.26728 z m 22.94339,-4.27616 c 0.56421,-0.45682 2.93407,-3.04538 5.26634,-5.75238 3.793727,-4.40326 4.240477,-5.26151 4.240477,-8.14635 0,-3.87655 -1.17428,-4.74871 -6.308177,-4.68515 -3.88355,0.0481 -10.19801,0.96651 -10.80276,1.57127 -0.2145,0.2145 -1.02669,4.43352 -1.80487,9.3756 -1.08401,6.88443 -1.22984,9.44192 -0.62363,10.93701 l 0.79123,1.95139 4.10776,-2.21041 c 2.25927,-1.21572 4.5694,-2.58416 5.13363,-3.04098 z m 123.545437,-7.70896 -0.005,-11.28142 -2.52275,-1.71798 c -2.05872,-1.40196 -3.02649,-1.6207 -5.26137,-1.18917 -1.50625,0.29083 -7.64178,0.75886 -13.63452,1.04006 -5.99273,0.2812 -11.60589,0.89593 -12.47369,1.36605 -1.54268,0.83576 -1.55124,0.92361 -0.3845,3.94668 2.61093,6.76509 14.09427,15.16234 24.98829,18.27281 2.27688,0.65009 4.32128,1.47565 4.5431,1.83456 0.23126,0.37419 1.33156,0.30218 2.57933,-0.16879 l 2.17616,-0.82137 -0.005,-11.28143 z m 16.51562,3.06483 c 3.1925,-4.95485 5.2246,-10.41388 5.25739,-14.12347 0.037,-4.18142 -3.10294,-5.73533 -9.14698,-4.52673 l -2.08838,0.41761 0.20023,8.84389 c 0.3451,15.2424 1.15652,16.56095 5.77774,9.3887 z M 69.821263,197.71357 c 1.44186,-0.73096 2.00994,-1.97452 3.0645,-6.70842 1.65487,-7.42866 1.65141,-9.26063 -0.0214,-11.32647 l -1.36129,-1.68112 -4.73008,2.01032 c -2.60155,1.10567 -5.39672,2.72487 -6.21149,3.59822 -1.86347,1.99745 -4.91412,8.12413 -5.55198,11.15019 -0.48354,2.29391 -0.477,2.29973 3.37309,3.00088 5.51511,1.00437 9.40067,0.98956 11.43866,-0.0436 z m 31.274957,-0.35362 c 2.39991,-1.20169 2.52451,-1.44601 2.31481,-4.53882 -0.33083,-4.87941 -4.705017,-12.11824 -9.101767,-15.06244 -3.51452,-2.35344 -3.83631,-2.37003 -6.83114,-0.35228 -1.14391,0.77071 -2.46653,14.0992 -1.74319,17.56687 0.61189,2.93342 1.89788,3.47803 8.46649,3.58545 2.82273,0.0461 5.25204,-0.37621 6.894797,-1.19878 z m 92.33804,-4.68404 c 2.94012,0.74628 13.82639,-0.1048 17.05843,-1.33362 1.70344,-0.64765 1.74737,-0.87072 1.74342,-8.85427 -0.004,-7.18088 -0.87348,-13.63784 -1.83739,-13.63784 -1.99041,0 -14.84287,4.93967 -17.52144,6.73414 -5.68571,3.80903 -11.41849,14.3968 -10.07948,18.61562 0.47433,1.4945 0.50365,1.49195 4.16423,-0.363 3.17068,-1.60671 4.07632,-1.76917 6.47223,-1.16103 z m 41.30158,-1.53016 2.51989,-0.867 0.16322,-6.02784 c 0.12453,-4.59907 -0.16657,-6.79719 -1.22811,-9.27367 -0.8588,-2.00348 -1.23124,-4.04631 -0.97306,-5.33718 0.30408,-1.5204 0.0184,-2.4912 -1.04649,-3.55608 -1.34818,-1.34818 -1.68661,-1.38564 -4.25242,-0.47075 -1.53322,0.54671 -3.44142,1.01336 -4.24045,1.03702 -3.27302,0.0969 -3.57763,0.94707 -2.243,6.26028 0.69627,2.77187 1.1632,7.01968 1.06596,9.69754 -0.0952,2.62081 0.0778,5.52175 0.38429,6.44654 0.94942,2.86443 5.06387,3.7379 9.85017,2.09114 z"
     style="fill:#000000;stroke-width:0.72639227" />
</svg>
