<?xml version="1.0" encoding="UTF-8" standalone="no"?>
<svg
   xmlns:dc="http://purl.org/dc/elements/1.1/"
   xmlns:cc="http://creativecommons.org/ns#"
   xmlns:rdf="http://www.w3.org/1999/02/22-rdf-syntax-ns#"
   xmlns:svg="http://www.w3.org/2000/svg"
   xmlns="http://www.w3.org/2000/svg"
   viewBox="0 0 300 300"
   height="300"
   width="300"
   id="svg10"
   version="1.1">
  <metadata
     id="metadata16">
    <rdf:RDF>
      <cc:Work
         rdf:about="">
        <dc:format>image/svg+xml</dc:format>
        <dc:type
           rdf:resource="http://purl.org/dc/dcmitype/StillImage" />
        <dc:title></dc:title>
      </cc:Work>
    </rdf:RDF>
  </metadata>
  <defs
     id="defs14" />
  <path
     id="path20"
     d="M 65.158527,280.49985 C 60.446572,121.73081 56.701735,22.927681 56.661693,21.867657 c 3.524728,-7.88335 15.727093,-9.766571 19.676535,-1.47398 1.898682,7.092227 1.940281,22.806585 2.370329,36.567542 18.877395,0.239079 39.273193,0.09188 54.446413,-0.349304 5.62722,0.192783 10.15074,1.032045 10.29052,4.622403 -0.99463,54.151692 -2.52268,104.053872 -3.85579,160.911762 -1.00905,19.17817 -2.61843,22.76585 -5.03967,25.44131 -4.48865,3.48146 -8.22445,-4.34091 -9.33504,-5.72007 -13.67926,-0.46971 -29.150822,0.003 -43.474314,0.89499 -0.3701,19.42195 2.359268,41.2911 -9.668359,42.06796 -6.193547,0.006 -5.90977,1.47355 -6.91379,-4.33042 z m 58.837963,-53.0159 c 1.37365,-22.82989 1.54373,-42.1708 1.844,-70.58774 -11.88784,0.0555 -37.445853,1.82273 -45.661196,2.73008 0.536465,23.60524 0.82067,50.35528 1.095647,69.05264 13.21789,0.1194 20.374769,-0.97083 42.721549,-1.19498 z m 1.67759,-86.47109 c 0.2892,-20.23719 0.53585,-55.587247 -0.23997,-72.67241 -13.40913,-0.482758 -31.001242,-0.78861 -46.680979,-0.648135 0.679149,25.953708 0.665724,50.887495 1.064467,75.954165 8.847951,-0.465 41.858152,-2.2058 45.856482,-2.63362 z M 231.1045,280.49985 c -5.06363,-9.26827 -5.11951,-31.36552 -5.368,-39.46946 -13.96509,0.22828 -45.61135,1.2683 -58.54179,1.20217 -0.72964,-56.32662 -1.85466,-132.06437 -1.65644,-190.226047 19.14507,-6.190972 43.38729,-8.813122 62.21258,-9.89363 0.36787,-8.866804 0.36276,-23.405347 10.53445,-18.841811 5.63859,4.253525 4.09001,17.20256 4.32617,27.141519 -0.78077,74.919499 1.19618,144.932249 0.61985,213.978109 0.0467,9.56069 -8.79125,23.38242 -12.12685,16.10917 z m -5.49684,-54.358 c 0.19663,-22.76541 1.20965,-54.18987 0.87799,-79.13943 -14.19471,-0.0794 -31.20414,0.12697 -47.19265,0.34036 0.21158,26.9091 1.11543,53.12792 1.49865,80.07563 12.82525,-0.37943 26.76525,-0.37956 44.81601,-1.27656 z m 1.22329,-90.37567 c 0.5091,-12.92662 0.27291,-59.844778 0.15342,-78.799108 -11.70115,0.397414 -35.77027,2.240905 -48.87,3.59847 -0.0319,24.782061 0.5343,49.967578 1.44921,75.411958 13.19268,0.33206 32.61549,-0.004 47.26737,-0.21132 z"
     style="fill:#000000;stroke-width:0.69286734" />
</svg>
