<?xml version="1.0" encoding="UTF-8" standalone="no"?>
<!-- Created with Inkscape (http://www.inkscape.org/) -->

<svg
   xmlns:dc="http://purl.org/dc/elements/1.1/"
   xmlns:cc="http://creativecommons.org/ns#"
   xmlns:rdf="http://www.w3.org/1999/02/22-rdf-syntax-ns#"
   xmlns:svg="http://www.w3.org/2000/svg"
   xmlns="http://www.w3.org/2000/svg"
   xmlns:sodipodi="http://sodipodi.sourceforge.net/DTD/sodipodi-0.dtd"
   xmlns:inkscape="http://www.inkscape.org/namespaces/inkscape"
   width="300"
   height="300"
   viewBox="0 0 300 300"
   id="svg2"
   version="1.1"
   inkscape:version="0.91 r13725"
   sodipodi:docname="間-bronze.svg">
  <defs
     id="defs4" />
  <sodipodi:namedview
     id="base"
     pagecolor="#ffffff"
     bordercolor="#666666"
     borderopacity="1.0"
     inkscape:pageopacity="0.0"
     inkscape:pageshadow="2"
     inkscape:zoom="1.01"
     inkscape:cx="163.14457"
     inkscape:cy="147.29765"
     inkscape:document-units="px"
     inkscape:current-layer="layer1"
     showgrid="false"
     units="px"
     inkscape:window-width="861"
     inkscape:window-height="648"
     inkscape:window-x="124"
     inkscape:window-y="8"
     inkscape:window-maximized="0" />
  <metadata
     id="metadata7">
    <rdf:RDF>
      <cc:Work
         rdf:about="">
        <dc:format>image/svg+xml</dc:format>
        <dc:type
           rdf:resource="http://purl.org/dc/dcmitype/StillImage" />
        <dc:title></dc:title>
      </cc:Work>
    </rdf:RDF>
  </metadata>
  <g
     inkscape:label="Layer 1"
     inkscape:groupmode="layer"
     id="layer1"
     transform="translate(0,-752.36216)">
    <path
       style="fill:#000000"
       d="m 81.533477,1032.9332 c -0.60605,-1.5793 -0.61418,-11.9949 -0.0181,-23.1458 0.59612,-11.15077 1.39092,-33.40593 1.76621,-49.45584 1.60721,-68.73408 2.97241,-94.21986 5.17109,-96.53441 3.37456,-3.55239 7.48266,5.94384 7.48266,17.29681 0,6.53873 0.62403,9.22676 2.085264,8.9824 1.14689,-0.1918 8.267579,0.24662 15.823739,0.97427 11.84735,1.14087 14.41952,1.97382 18.68601,6.05111 6.6968,6.39983 8.52129,14.47045 7.67478,33.94936 -1.00756,23.18491 -3.5899,32.00276 -11.78286,40.23468 -6.61429,6.64572 -12.62295,9.14183 -27.80585,11.55097 -5.907213,0.93733 -6.203553,1.30337 -7.159733,8.84375 -0.54861,4.32627 -1.39151,9.7426 -1.87312,12.0364 -0.4816,2.2938 -1.2762,8.6521 -1.76576,14.1295 -0.98439,11.0138 -6.20147,20.5148 -8.28437,15.0868 z m 36.320483,-62.35144 c 5.5188,-2.09824 7.05521,-4.41163 10.57633,-15.92485 2.9359,-9.59967 2.93215,-9.91889 -0.14331,-12.22112 -2.452,-1.8355 -6.3279,-2.11135 -17.33773,-1.23397 -7.79886,0.62149 -14.299283,1.24148 -14.445373,1.37777 -0.47639,0.44441 -0.8955,13.38622 -0.73012,22.54541 l 0.16162,8.95197 8.921423,-0.9728 c 4.90677,-0.53504 10.7555,-1.67012 12.99716,-2.52241 z m 12.07308,-40.28032 c 0.83669,-0.80571 0.83669,-6.20263 0,-12.62263 -1.91449,-14.69001 -5.38287,-17.56544 -21.65367,-17.95173 l -11.503883,-0.27312 -0.47606,16.14853 -0.47605,16.14853 4.646573,0.73531 c 6.63705,1.05032 27.72762,-0.51371 29.46309,-2.18489 z m 69.08506,77.18776 c -0.43272,-13.08763 -0.8231,-14.63419 -3.81841,-15.1272 -1.83503,-0.30205 -5.58849,-1.56203 -8.34103,-2.79997 -2.75254,-1.23794 -7.81972,-2.77188 -11.2604,-3.40875 -3.44068,-0.63685 -6.25578,-1.73752 -6.25578,-2.44591 0,-0.70839 -1.42493,-1.66062 -3.16651,-2.11605 -6.64292,-1.73716 -8.88958,-8.56892 -10.1561,-30.8832 -0.92317,-16.265 -0.67674,-22.54128 1.0543,-26.85181 1.24249,-3.09398 2.25907,-7.6748 2.25907,-10.17961 0,-5.85842 6.34339,-15.2715 12.18421,-18.08038 2.504,-1.20419 11.38355,-2.52733 19.73234,-2.94031 8.3488,-0.41298 15.84338,-1.1611 16.65464,-1.66249 0.81126,-0.50138 1.47502,-4.62077 1.47502,-9.1542 0,-8.11498 0.78,-9.38887 4.26523,-6.96588 2.55955,1.77944 6.23895,11.58672 5.06166,13.49163 -1.7334,2.8047 -8.11327,69.43366 -7.93037,82.82183 0.0723,5.28931 -3.13099,42.9793 -4.00529,47.1268 -0.49165,2.3324 -2.01779,3.7535 -4.03089,3.7535 -2.92352,0 -3.28673,-1.4227 -3.72169,-14.578 z m 4.04308,-34.81826 c 0.67055,-4.68888 0.66531,-11.76969 -0.0117,-15.73515 -1.44163,-8.44482 -3.22431,-9.24206 -23.94461,-10.70828 l -13.09882,-0.92691 0,9.94529 c 0,5.46992 0.83261,11.77268 1.85024,14.00613 2.75548,6.04762 17.30797,12.82576 26.49402,12.34016 l 7.49167,-0.39603 1.21918,-8.52521 z m 1.41846,-34.43114 c 0.0576,-0.22938 0.49286,-8.03036 0.96715,-17.3355 0.59309,-11.63577 0.27339,-17.28245 -1.02389,-18.08421 -2.7758,-1.71554 -23.78023,-2.17039 -27.02084,-0.58513 -1.53107,0.74897 -3.31558,3.78313 -3.96558,6.74257 -0.65001,2.95943 -1.74948,6.53147 -2.44328,7.93786 -5.24873,10.6396 -5.50966,11.76077 -3.67447,15.78859 1.46793,3.22174 3.37646,4.22065 9.03236,4.72742 9.1018,0.81554 27.99033,1.35839 28.12855,0.8084 z m -95.70197,-77.48824 c -6.20323,-1.608 -1.46157,-4.68501 7.98043,-5.17875 l 9.70979,-0.50774 -1.28201,-21.17896 c -0.70511,-11.64843 -1.49152,-24.18174 -1.74758,-27.8518 -0.25605,-3.67005 -0.54207,-9.78189 -0.63558,-13.58187 -0.14876,-6.04492 -0.7438,-7.0724 -4.7576,-8.21526 -2.52316,-0.71842 -7.02732,-1.2704 -10.00924,-1.22661 -8.746349,0.12844 -6.32228,-3.76922 3.74543,-6.02227 13.26071,-2.96762 46.47773,-6.70792 60.10935,-6.76842 19.98073,-0.0887 22.0464,3.81497 19.09159,36.079 -1.93169,21.09245 -3.06505,24.79729 -10.38071,33.9337 -10.05168,12.55337 -14.63545,15.2685 -33.38674,19.77611 -7.70253,1.8516 -32.32421,2.32747 -38.43713,0.74287 z m 45.44495,-11.75797 c 13.02391,-5.43629 24.69699,-16.74214 25.27123,-24.47623 1.01692,-13.69629 -0.0145,-43.21176 -1.56425,-44.76147 -1.19968,-1.19968 -5.48784,-1.15865 -13.91857,0.13319 -6.7016,1.02688 -15.54698,2.32434 -19.6564,2.88326 -4.10943,0.55891 -8.15961,1.44136 -9.0004,1.96099 -0.89529,0.55333 -1.09071,12.07419 -0.47161,27.80497 0.5814,14.7731 1.06578,30.08464 1.07641,34.02565 l 0.0193,7.16547 6.25577,-1.17147 c 3.44068,-0.64431 8.8355,-2.24827 11.9885,-3.56436 z m -1.5622,-16.01167 c 0,-3.07035 -0.42119,-12.26635 -0.93597,-20.43555 -1.08764,-17.25997 0.17557,-20.66571 6.58234,-17.74659 4.0128,1.82836 4.21564,2.58037 4.1872,15.52329 -0.0165,7.48102 -0.64675,14.83132 -1.40069,16.334 -0.75393,1.50269 -2.33592,4.79656 -3.51552,7.31973 -2.89375,6.18971 -4.91736,5.78029 -4.91736,-0.99488 z"
       id="path3512"
       inkscape:connector-curvature="0" />
  </g>
</svg>
