<?xml version="1.0" encoding="UTF-8" standalone="no"?>
<svg
   xmlns:dc="http://purl.org/dc/elements/1.1/"
   xmlns:cc="http://creativecommons.org/ns#"
   xmlns:rdf="http://www.w3.org/1999/02/22-rdf-syntax-ns#"
   xmlns:svg="http://www.w3.org/2000/svg"
   xmlns="http://www.w3.org/2000/svg"
   viewBox="0 0 300 300"
   height="300"
   width="300"
   id="svg504"
   version="1.1">
  <metadata
     id="metadata510">
    <rdf:RDF>
      <cc:Work
         rdf:about="">
        <dc:format>image/svg+xml</dc:format>
        <dc:type
           rdf:resource="http://purl.org/dc/dcmitype/StillImage" />
        <dc:title></dc:title>
      </cc:Work>
    </rdf:RDF>
  </metadata>
  <defs
     id="defs508" />
  <path
     id="path514"
     d="m 271.56013,276.41441 c -2.69725,-0.48842 -5.02499,-1.0238 -5.17274,-1.18974 -1.02485,-1.15099 -5.95374,-15.27223 -7.51487,-21.53004 -1.04341,-4.18254 -2.58244,-8.62158 -3.42007,-9.86453 -3.8709,-5.74403 -13.01055,-10.23015 -20.75577,-10.18778 -5.48655,0.03 -21.79667,3.71533 -47.94189,10.83263 -17.05836,4.64366 -18.1582,4.84835 -26.51331,4.93445 -7.98992,0.0824 -9.05506,-0.0689 -12.77469,-1.81318 -4.93015,-2.31202 -8.76996,-6.02079 -11.20151,-10.81921 -2.37002,-4.67702 -4.18193,-12.32127 -3.20072,-13.50355 1.49681,-1.80355 11.56498,-8.32966 17.09134,-11.07846 6.40063,-3.18367 15.21736,-6.13815 21.73995,-7.28505 2.37944,-0.41839 11.02723,-1.44924 19.2173,-2.29078 24.4235,-2.50954 48.78966,-7.29567 56.2954,-11.05784 6.75688,-3.38682 11.31261,-8.70537 12.35807,-14.42732 0.30083,-1.64654 0.0299,-4.23844 -0.72369,-6.92436 -1.19219,-4.24895 -1.2466,-4.30897 -5.32985,-5.87844 -8.389,-3.22448 -12.59708,-3.95873 -24.895,-4.34385 -14.32741,-0.44867 -21.714,0.297 -42.06329,4.2462 -11.34244,2.20123 -16.72935,2.90043 -22.60517,2.93407 -17.78317,0.10181 -25.5377,-5.94887 -27.14327,-21.17929 l -0.49775,-4.72155 4.60252,-2.6755 c 12.90884,-7.50409 26.72394,-9.43346 47.6067,-6.64863 7.16616,0.95565 10.07511,1.048 13.90089,0.44134 6.39598,-1.01422 12.36791,-3.33892 16.03787,-6.24306 2.62942,-2.08073 9.47451,-10.32804 9.49494,-11.43996 0.0105,-0.57008 -24.44365,-16.657746 -35.62733,-23.438199 -11.30981,-6.856932 -18.40051,-10.141947 -25.16219,-11.657266 -9.47932,-2.124356 -21.05404,-1.178259 -30.72827,2.511668 -3.75375,1.431756 -4.45603,2.131082 -11.62228,11.573339 l -7.62712,10.049498 -13.37643,6.41472 -13.37643,6.41471 -11.37018,15.25424 c -6.2536,8.38983 -15.63268,20.97458 -20.84241,27.9661 -10.0454,13.48107 -18.38832,22.54237 -25.83602,28.06063 -4.86894,3.60758 -15.2645,8.98538 -17.36919,8.98538 -2.63667,0 -7.15137,-10.81083 -7.15137,-17.12457 0,-2.69172 2.6208,-14.01014 5.20153,-22.46381 0.7476,-2.44889 7.21746,-9.0707 41.16396,-42.13075 C 76.58011,93.542825 96.7641,73.495124 99.2811,70.566228 c 5.90646,-6.873023 11.0489,-14.66253 15.30905,-23.189385 2.67887,-5.361853 4.37016,-7.697959 7.94404,-10.972778 4.61906,-4.232527 15.3081,-10.30864 22.60735,-12.850991 3.59784,-1.253142 4.06533,-1.258205 9.39449,-0.101734 9.3822,2.036016 17.21231,6.272318 26.40763,14.28724 9.48827,8.270276 20.79,16.967743 29.00081,22.318147 20.16446,13.139744 34.03786,23.034759 46.34693,33.056335 13.61252,11.082778 22.71706,23.307828 28.4209,38.161858 4.34833,11.32401 4.44125,12.26749 4.45392,45.22189 0.009,24.03606 0.23498,31.24936 1.11384,35.59322 1.5745,7.78217 2.18826,26.51633 1.13038,34.50364 -1.34959,10.1898 -2.98625,15.59769 -7.52938,24.87893 -3.32994,6.80277 -2.92993,6.64233 -12.32093,4.94181 z"
     style="fill:#000000;stroke-width:0.72639227" />
</svg>
