<?xml version="1.0" encoding="UTF-8" standalone="no"?>
<svg
   xmlns:dc="http://purl.org/dc/elements/1.1/"
   xmlns:cc="http://creativecommons.org/ns#"
   xmlns:rdf="http://www.w3.org/1999/02/22-rdf-syntax-ns#"
   xmlns:svg="http://www.w3.org/2000/svg"
   xmlns="http://www.w3.org/2000/svg"
   version="1.1"
   id="svg681"
   width="300"
   height="300"
   viewBox="0 0 300 300">
  <metadata
     id="metadata687">
    <rdf:RDF>
      <cc:Work
         rdf:about="">
        <dc:format>image/svg+xml</dc:format>
        <dc:type
           rdf:resource="http://purl.org/dc/dcmitype/StillImage" />
        <dc:title></dc:title>
      </cc:Work>
    </rdf:RDF>
  </metadata>
  <defs
     id="defs685" />
  <path
     style="fill:#000000;stroke-width:0.72639227"
     d="m 132.40567,271.70712 c -5.73363,-0.58823 0.6564,-16.66503 2.32422,-18.18455 10.19211,-8.37059 15.02193,-19.15171 16.52224,-36.88098 0.97535,-26.60907 -10.13911,-38.77642 -23.44617,-58.84946 C 88.405449,153.4311 61.149253,133.7113 29.129137,114.24964 21.798521,109.42257 2.5790718,96.089784 12.006157,88.208794 75.799537,59.070647 151.20361,19.854574 213.58517,28.903828 c 25.90055,3.731261 58.63754,13.944654 73.86423,35.928052 11.44364,40.53584 -10.04291,65.81366 -44.99531,74.09893 -13.59204,3.20175 -36.2893,9.99089 -37.65535,11.26337 3.53806,18.8594 13.2627,43.07161 10.20788,60.45851 -7.70993,27.61992 -33.16732,52.16844 -58.32024,59.75719 -9.06337,1.76633 -14.98792,2.77766 -24.28071,1.29724 z"
     id="path691" />
</svg>
