<?xml version="1.0" encoding="UTF-8" standalone="no"?>
<svg
   xmlns:dc="http://purl.org/dc/elements/1.1/"
   xmlns:cc="http://creativecommons.org/ns#"
   xmlns:rdf="http://www.w3.org/1999/02/22-rdf-syntax-ns#"
   xmlns:svg="http://www.w3.org/2000/svg"
   xmlns="http://www.w3.org/2000/svg"
   version="1.1"
   id="svg418"
   width="300"
   height="300"
   viewBox="0 0 300 300">
  <metadata
     id="metadata424">
    <rdf:RDF>
      <cc:Work
         rdf:about="">
        <dc:format>image/svg+xml</dc:format>
        <dc:type
           rdf:resource="http://purl.org/dc/dcmitype/StillImage" />
        <dc:title></dc:title>
      </cc:Work>
    </rdf:RDF>
  </metadata>
  <defs
     id="defs422" />
  <path
     style="fill:#000000;stroke-width:0.71938747"
     d="m 244.3384,231.55889 c -15.4315,-12.79269 -54.65195,-7.73186 -71.3706,-2.83941 -8.87128,2.59604 -8.38223,16.29915 -8.34187,21.89293 0.14915,12.9948 -4.52884,15.31471 -14.98906,17.99771 -10.02013,2.57011 -16.55548,-17.62516 -17.84285,-25.54265 -2.5706,-15.80953 -2.41605,-35.20931 10.3628,-43.45953 26.85811,-17.33999 58.00515,-8.66251 90.66602,-2.15901 -2.07967,-5.96233 -14.70438,-45.29687 -15.52205,-46.38527 C 188.73553,141.51073 139.1291,145.2293 112.77281,149.37564 91.487347,175.56403 75.387108,198.05798 52.315766,228.61496 44.518063,238.94268 35.939369,244.29397 25.668682,245.343 12.563838,246.68151 7.4951313,236.21212 13.644919,227.4288 59.165785,162.4145 153.53905,38.696657 153.53905,38.696657 c 11.1739,-14.843544 21.45039,-23.111431 29.54704,-22.05346 19.44878,2.541329 30.41781,25.247944 36.97254,44.354471 l 64.74736,188.733422 c 3.44969,15.60314 8.54525,28.24124 -3.01743,32.50525 -19.7258,7.27435 -27.0561,-19.30856 -37.45016,-50.67745 z M 203.82001,111.35056 C 191.83735,74.603637 191.11417,73.190564 178.82514,69.376289 c -2.5438,-0.698751 -4.6601,-0.03923 -5.97133,1.660282 l -29.10773,37.727209 c 20.09827,6.84784 43.60515,7.1147 60.07393,2.58678 z"
     id="path428" />
</svg>
