<?xml version="1.0" encoding="UTF-8" standalone="no"?>
<svg
   xmlns:dc="http://purl.org/dc/elements/1.1/"
   xmlns:cc="http://creativecommons.org/ns#"
   xmlns:rdf="http://www.w3.org/1999/02/22-rdf-syntax-ns#"
   xmlns:svg="http://www.w3.org/2000/svg"
   xmlns="http://www.w3.org/2000/svg"
   viewBox="0 0 300 300"
   height="300"
   width="300"
   id="svg3797"
   version="1.1">
  <metadata
     id="metadata3803">
    <rdf:RDF>
      <cc:Work
         rdf:about="">
        <dc:format>image/svg+xml</dc:format>
        <dc:type
           rdf:resource="http://purl.org/dc/dcmitype/StillImage" />
        <dc:title></dc:title>
      </cc:Work>
    </rdf:RDF>
  </metadata>
  <defs
     id="defs3801" />
  <path
     id="path3807"
     d="M 99.805053,264.0098 C 68.317415,232.24868 89.586304,152.26492 93.846583,116.05398 c 7.051927,-15.37682 16.496667,-12.33684 27.481377,-5.00841 21.62049,6.69923 53.22618,23.81084 58.91147,43.8705 1.88326,15.45961 -3.52705,27.75096 -12.98947,37.37273 -15.65652,12.83763 -36.04838,24.27529 -49.26697,31.48863 -1.84051,17.05621 7.82422,17.63111 20.49819,14.50105 9.01623,-2.30596 31.07144,-12.72139 43.60312,-20.59128 14.69491,-9.2284 34.52688,-18.91221 40.77861,-19.9119 5.08031,-0.81238 5.53715,3.36488 1.40817,12.87604 -10.91376,18.37672 -44.6203,41.63904 -66.03551,51.4275 -23.22876,7.7385 -40.03706,13.9902 -58.430517,1.93096 z m 56.691517,-94.98889 c 5.3009,-12.73964 2.10087,-20.03776 -12.92234,-26.44118 -9.00394,-3.83781 -24.08233,-8.52486 -24.85534,-7.72619 -2.09318,20.20764 -1.83781,42.18311 -1.43923,64.02023 9.99853,-5.47954 35.09007,-19.2952 39.21691,-29.85286 z m 77.85414,70.74865 c -2.26493,-10.98814 2.64908,-24.58787 8.01837,-35.64879 10.94872,-22.66469 12.73761,-29.53128 11.44903,-43.94689 -1.78528,-24.33458 -12.82545,-33.3779 -27.53424,-45.18566 C 200.54721,98.71724 163.25083,81.629102 141.30375,72.527417 117.22495,61.619871 94.823305,53.820411 73.583863,47.040519 68.233538,76.000378 63.340968,106.36334 57.912923,135.41743 c -2.73477,7.38877 -8.05411,15.34156 -14.17978,21.19975 -13.535282,11.44291 -23.879614,13.50198 -31.94592,-2.6171 -4.7884547,-9.13335 -2.3254204,-15.89967 0.10844,-25.11529 7.172485,-20.39383 14.93853,-42.273365 21.90657,-57.13956 7.96664,-16.938599 21.47724,-41.939622 22.97481,-42.514294 40.731729,2.88829 83.148887,11.285144 119.393537,27.219037 61.06275,28.523788 115.52034,59.066497 114.76997,125.922467 -0.25229,23.74427 -21.30107,43.86681 -42.61924,55.89434 -3.36839,1.63138 -12.36763,2.5994 -13.9706,1.50278 z"
     style="fill:#000000;stroke-width:0.72639227" />
</svg>
