<?xml version="1.0" encoding="UTF-8" standalone="no"?>
<!-- Created with Inkscape (http://www.inkscape.org/) -->

<svg
   xmlns:dc="http://purl.org/dc/elements/1.1/"
   xmlns:cc="http://creativecommons.org/ns#"
   xmlns:rdf="http://www.w3.org/1999/02/22-rdf-syntax-ns#"
   xmlns:svg="http://www.w3.org/2000/svg"
   xmlns="http://www.w3.org/2000/svg"
   xmlns:sodipodi="http://sodipodi.sourceforge.net/DTD/sodipodi-0.dtd"
   xmlns:inkscape="http://www.inkscape.org/namespaces/inkscape"
   width="300"
   height="300"
   id="svg2"
   version="1.1"
   inkscape:version="0.48.3.1 r9886"
   sodipodi:docname="多-.svg">
  <defs
     id="defs4" />
  <sodipodi:namedview
     id="base"
     pagecolor="#ffffff"
     bordercolor="#666666"
     borderopacity="1.0"
     inkscape:pageopacity="0.0"
     inkscape:pageshadow="2"
     inkscape:zoom="1.979899"
     inkscape:cx="172.22723"
     inkscape:cy="117.26327"
     inkscape:document-units="px"
     inkscape:current-layer="layer1"
     showgrid="false"
     inkscape:window-width="1215"
     inkscape:window-height="1000"
     inkscape:window-x="65"
     inkscape:window-y="24"
     inkscape:window-maximized="1" />
  <metadata
     id="metadata7">
    <rdf:RDF>
      <cc:Work
         rdf:about="">
        <dc:format>image/svg+xml</dc:format>
        <dc:type
           rdf:resource="http://purl.org/dc/dcmitype/StillImage" />
        <dc:title></dc:title>
      </cc:Work>
    </rdf:RDF>
  </metadata>
  <g
     inkscape:label="Calque 1"
     inkscape:groupmode="layer"
     id="layer1"
     transform="translate(0,-752.36218)">
    <path
       style="fill:#000000"
       d="m 49.582131,1037.6047 c -4.169642,-13.3941 16.609822,-12.1821 24.981179,-13.7625 23.873596,-1.8847 47.82987,-2.359 71.74635,-3.4914 -0.68155,-19.9588 -2.84972,-39.83837 -6.79207,-59.42139 -21.42507,-0.58009 -43.212353,1.53373 -64.248505,-3.40736 -10.891486,-1.19524 -10.725733,-15.4255 1.006715,-13.04784 44.63217,0.32002 89.28717,-1.29815 133.90278,-0.003 11.30056,0.43281 27.21985,2.69877 28.86918,16.62678 2.20787,18.71103 0.57909,37.6881 0.13793,56.47575 0.43133,10.4312 -4.69845,22.781 -16.20285,24.1509 -8.29997,-7.9199 -20.83843,-4.9002 -31.40332,-5.3352 -43.38602,1.0169 -86.66032,5.0748 -130.042705,5.8234 -4.130858,-0.3379 -9.956402,-0.01 -11.954684,-4.6084 z M 217.30298,990.64008 c -1.39146,-11.29466 -1.76947,-23.01488 -5.55732,-33.7938 -14.41596,-2.6354 -29.17083,1.1971 -43.66378,2.35664 -2.08014,2.31662 -0.56012,7.96696 -1.28102,11.54223 -0.65608,17.10108 -1.3121,34.20215 -1.96813,51.30325 18.45377,0 36.90753,0 55.3613,0 -0.96368,-10.4694 -1.92738,-20.9392 -2.89105,-31.40832 z M 52.325076,867.74994 c -11.25205,-11.90561 13.01823,-11.48335 20.592061,-12.24672 23.143076,-1.81088 46.442183,-0.93107 69.544153,-3.10123 10.4697,-5.07519 -1.97727,-20.4549 -0.45177,-30.36503 -1.68812,-12.48812 -1.73809,-25.09893 -1.97896,-37.67387 -18.07718,-0.54388 -36.74572,1.91135 -54.20407,-3.84742 -14.15923,-3.64641 -3.081502,-20.9808 7.8086,-14.44564 37.45849,3.55295 75.42009,1.0865 112.60606,7.40549 7.24249,1.50465 13.84161,4.96117 20.70733,7.58922 -0.42973,23.49663 -3.63511,47.20458 0.14865,70.54515 9.03135,12.42353 -13.25755,11.86823 -21.11842,13.52531 -43.42039,4.32688 -87.07992,5.98963 -130.682017,7.26513 -7.613466,-0.42762 -16.917173,1.03574 -22.971617,-4.65039 z M 207.00735,816.6204 c -0.87851,-11.08625 2.42002,-23.65234 -3.66634,-33.55387 -9.76548,-5.48606 -21.5547,-0.22159 -32.09147,0.24471 -4.74987,0.63693 -9.49975,1.27386 -14.24962,1.91079 1.25723,21.50173 2.48246,43.00537 3.7825,64.50456 10.88399,3.83007 23.12354,2.16492 34.65494,2.54663 3.58694,-0.49429 9.12386,0.96139 11.56999,-0.67372 0,-11.6597 0,-23.3194 0,-34.9791 z"
       id="path3057"
       inkscape:connector-curvature="0" />
  </g>
</svg>
