<?xml version="1.0" encoding="UTF-8" standalone="no"?>
<svg
   xmlns:dc="http://purl.org/dc/elements/1.1/"
   xmlns:cc="http://creativecommons.org/ns#"
   xmlns:rdf="http://www.w3.org/1999/02/22-rdf-syntax-ns#"
   xmlns:svg="http://www.w3.org/2000/svg"
   xmlns="http://www.w3.org/2000/svg"
   viewBox="0 0 300 300"
   height="300"
   width="300"
   id="svg10"
   version="1.1">
  <metadata
     id="metadata16">
    <rdf:RDF>
      <cc:Work
         rdf:about="">
        <dc:format>image/svg+xml</dc:format>
        <dc:type
           rdf:resource="http://purl.org/dc/dcmitype/StillImage" />
        <dc:title></dc:title>
      </cc:Work>
    </rdf:RDF>
  </metadata>
  <defs
     id="defs14" />
  <path
     id="path20"
     d="M 141.14503,268.51939 C 115.63798,239.75243 99.61158,214.78179 86.432157,191.95436 64.331287,153.67454 44.050788,101.53554 63.681308,70.32982 54.206024,60.671268 45.447993,49.855735 45.30423,39.499406 59.491654,39.9085 70.926043,51.558667 81.791875,60.681794 c 12.356719,-6.167803 38.199315,0.946643 46.391185,11.617009 15.07841,19.640488 -3.07627,13.603539 -16.49979,8.364858 -55.548783,-20.808922 -33.945426,58.602319 -17.914159,85.535799 9.905699,-27.8741 34.378629,-24.5313 49.001039,-5.82311 2.23779,2.86307 4.1511,7.09182 2.90598,9.02216 -3.54496,5.49584 -10.62406,1.55373 -13.90188,-1.73481 -17.01908,-17.07472 -25.62204,4.40176 -26.40793,21.45654 16.25074,28.61114 30.24957,46.51399 48.96422,66.687 13.5488,14.60458 16.92562,2.47072 20.94529,-5.86448 12.8394,-26.62379 23.88283,-59.05628 31.99142,-86.04241 -10.86166,-10.02384 -16.94228,2.2539 -22.01223,8.62029 -2.73802,3.43817 -10.59065,5.70936 -11.42599,1.35503 -0.53808,-3.36496 -0.36046,-7.34125 3.09422,-14.51706 5.99897,-12.46062 24.60221,-20.16296 36.49447,-14.67433 8.09737,-22.40627 21.34711,-61.005618 8.91291,-75.222581 -17.43264,-19.932058 -51.83703,16.384745 -52.47927,12.207832 -4.32494,-28.127798 43.27498,-55.26111 59.58633,-39.911894 8.08675,-11.193832 13.58539,-18.867332 21.78832,-26.757638 10.16344,9.847352 -4.5883,28.351605 -11.20316,38.432907 16.80893,24.632738 -1.17395,74.766464 -11.93886,106.679694 -11.49335,33.96242 -24.7524,65.85145 -37.86841,97.08152 -14.75563,35.13415 -28.32055,34.7272 -49.07055,11.32527 z"
     style="fill:#000000;stroke-width:0.69998306" />
</svg>
