<?xml version="1.0" encoding="UTF-8" standalone="no"?>
<svg
   xmlns:dc="http://purl.org/dc/elements/1.1/"
   xmlns:cc="http://creativecommons.org/ns#"
   xmlns:rdf="http://www.w3.org/1999/02/22-rdf-syntax-ns#"
   xmlns:svg="http://www.w3.org/2000/svg"
   xmlns="http://www.w3.org/2000/svg"
   viewBox="0 0 300 300"
   height="300"
   width="300"
   id="svg10"
   version="1.1">
  <metadata
     id="metadata16">
    <rdf:RDF>
      <cc:Work
         rdf:about="">
        <dc:format>image/svg+xml</dc:format>
        <dc:type
           rdf:resource="http://purl.org/dc/dcmitype/StillImage" />
        <dc:title></dc:title>
      </cc:Work>
    </rdf:RDF>
  </metadata>
  <defs
     id="defs14" />
  <path
     id="path20"
     d="m 140.10038,283.99446 c -7.74476,-2.98362 -9.995,-12.20313 -9.66518,-18.34566 0.52262,-9.73297 1.90016,-15.97472 4.2849,-26.95405 -13.48394,-1.07568 -41.389916,-4.33864 -32.54374,-24.6619 L 113.788,187.35619 c 4.61535,-10.60333 9.87259,-1.61783 9.41753,3.96946 -0.37187,4.56583 -4.00438,14.63224 -6.63725,22.54171 -4.20746,12.63971 13.10369,12.34568 20.69202,12.57443 4.05662,-18.37523 5.76087,-24.72079 7.82721,-37.744 1.35701,-8.55262 1.45081,-12.30614 4.17311,-12.86935 8.15928,-1.68803 6.53139,8.41783 5.03984,18.31394 10.74484,2.87523 22.94127,11.1025 27.85599,21.09374 15.21646,-11.1887 13.79819,-25.50046 9.94416,-39.13927 -1.15514,-2.7661 -4.51574,-19.75416 0.23759,-20.23597 0.92243,-0.0935 4.38152,4.84041 6.44022,9.7737 12.29437,28.43516 7.87292,45.03873 -13.10167,61.32688 2.31296,10.41595 1.40787,22.27095 -2.77294,31.8482 -3.90569,8.947 -10.06527,16.51107 -18.52579,21.2159 -7.95329,4.42276 -17.70863,6.29662 -24.27764,3.9689 z m 17.57407,-12.75195 c 13.00344,-6.48497 22.06119,-26.3492 19.29909,-39.68811 -6.91257,2.81417 -19.22487,5.96309 -32.01656,6.88989 -2.59455,11.44982 -3.41913,18.48121 -3.83058,25.65823 -0.60895,10.62181 8.85729,10.97546 16.54805,7.13999 z m 15.88447,-51.24919 c -3.60856,-9.18611 -11.8025,-15.8253 -20.94304,-17.35321 l -4.74501,23.95034 c 10.50957,0.0367 20.24329,-4.19576 25.68805,-6.59713 z m -72.46477,-44.56257 c -12.79817,-1.33922 -4.479501,-7.89846 2.71674,-8.30435 3.83045,-0.21604 19.56426,-1.64114 28.89028,-4.46607 17.57104,-5.32244 43.8974,-12.91023 44.37043,-30.75259 -20.69536,3.55755 -33.40468,2.02611 -47.88701,-5.54475 -8.54756,5.08132 -15.31747,7.33671 -25.41807,9.87968 -12.656718,3.18652 -8.321175,-4.78653 -2.42133,-6.60625 8.88529,-2.74054 13.82914,-4.58305 20.43573,-9.3317 -5.36976,-5.70319 -10.07218,-14.08235 -9.08436,-20.415993 0.90949,-5.83147 5.45744,-4.2197 7.38414,-0.29427 2.28322,4.651793 5.38218,10.198663 11.44111,14.196483 9.2526,-7.74928 14.90357,-18.589073 15.17482,-29.547839 C 134.26607,68.65972 118.66312,49.470746 106.99484,35.36657 103.06216,30.612899 99.25316,25.502045 98.556996,23.987048 97.290477,21.230853 96.80481,15.728975 97.777467,15.156265 c 1.20658,-0.710439 3.751753,1.077788 5.433663,3.817668 l 71.23592,78.771394 c 21.80214,24.108413 22.02674,46.427733 -2.96218,62.326863 -13.57957,8.26864 -26.95788,11.35683 -41.22301,14.05081 -9.56329,1.80603 -22.32664,2.02361 -29.16771,1.30775 z m 74.02983,-55.3848 c -2.78518,-10.60666 -13.32309,-20.580273 -19.65812,-26.631093 -3.91377,9.481623 -6.61781,15.380173 -16.20264,25.453853 7.14589,3.42973 18.82105,4.90297 35.86076,1.17724 z"
     style="fill:#000000;stroke-width:0.68863624" />
</svg>
