<?xml version="1.0" encoding="UTF-8" standalone="no"?>
<!-- Created with Inkscape (http://www.inkscape.org/) -->

<svg
   xmlns:dc="http://purl.org/dc/elements/1.1/"
   xmlns:cc="http://creativecommons.org/ns#"
   xmlns:rdf="http://www.w3.org/1999/02/22-rdf-syntax-ns#"
   xmlns:svg="http://www.w3.org/2000/svg"
   xmlns="http://www.w3.org/2000/svg"
   xmlns:sodipodi="http://sodipodi.sourceforge.net/DTD/sodipodi-0.dtd"
   xmlns:inkscape="http://www.inkscape.org/namespaces/inkscape"
   width="300"
   height="300"
   id="svg2"
   version="1.1"
   inkscape:version="0.48.4 r9939"
   sodipodi:docname="image-seal.svg">
  <defs
     id="defs4" />
  <sodipodi:namedview
     id="base"
     pagecolor="#ffffff"
     bordercolor="#666666"
     borderopacity="1.0"
     inkscape:pageopacity="0.0"
     inkscape:pageshadow="2"
     inkscape:zoom="2.0506101"
     inkscape:cx="156.21232"
     inkscape:cy="110.79688"
     inkscape:document-units="px"
     inkscape:current-layer="layer1"
     showgrid="false"
     inkscape:window-width="1215"
     inkscape:window-height="1000"
     inkscape:window-x="65"
     inkscape:window-y="24"
     inkscape:window-maximized="1"
     fit-margin-top="10"
     fit-margin-left="10"
     fit-margin-right="10"
     fit-margin-bottom="10" />
  <metadata
     id="metadata7">
    <rdf:RDF>
      <cc:Work
         rdf:about="">
        <dc:format>image/svg+xml</dc:format>
        <dc:type
           rdf:resource="http://purl.org/dc/dcmitype/StillImage" />
        <dc:title />
      </cc:Work>
    </rdf:RDF>
  </metadata>
  <g
     inkscape:label="Calque 1"
     inkscape:groupmode="layer"
     id="layer1"
     transform="translate(0,-752.36218)">
    <path
       style="fill:#000000"
       d="m 154.19052,1043.173 c -6.3387,-5.9054 -8.86597,-12.8508 -10.19007,-28.0043 l -1.14396,-13.0917 -8.05645,-1.7409 c -17.52821,-3.78734 -25.7619,-10.1322 -29.23194,-22.52605 -2.98463,-10.6599 -1.83842,-16.00797 5.26993,-24.5883 4.39248,-5.30215 6.87501,-6.53298 13.17649,-6.53298 4.27041,0 7.76435,0.90635 7.76435,2.01412 0,1.10776 -1.15302,2.01411 -2.56228,2.01411 -1.40923,0 -5.94099,2.78512 -10.07056,6.18897 -6.74463,5.55956 -7.5083,7.16138 -7.5083,15.74976 0,7.42121 1.01441,10.43069 4.53295,13.44864 5.44439,4.66972 16.94874,8.92313 24.13413,8.92313 5.70387,0 5.95644,-0.80323 8.70881,-27.69769 1.24522,-12.16766 3.52518,-17.25551 5.40846,-12.06937 0.98693,2.71764 0.73803,7.39582 -1.49462,28.09124 -1.42448,13.20413 -1.3471,13.528 3.52464,14.75077 2.73958,0.68761 8.05213,0.9567 11.80565,0.59819 6.69614,-0.63968 6.81945,-0.82236 6.55304,-9.71548 -0.14945,-4.98493 -0.95862,-16.54091 -1.79838,-25.67995 -1.10364,-12.01056 -0.88881,-16.61644 0.77505,-16.61644 1.26605,0 2.30191,1.98471 2.30191,4.41051 0,5.01695 3.41573,24.66201 6.49533,37.35697 1.90944,7.87116 2.48099,8.43531 7.35454,7.25907 5.31106,-1.28158 14.80792,-7.12453 20.34428,-12.51651 1.63647,-1.59377 2.97539,-6.32613 2.97539,-10.51629 0,-5.95453 -1.30968,-8.74468 -5.99656,-12.77532 -3.29811,-2.83628 -8.03585,-5.15815 -10.52832,-5.15935 -2.49246,-10e-4 -4.53175,-0.90897 -4.53175,-2.01674 0,-4.19076 14.67136,-2.0554 21.46161,3.12369 6.01779,4.58997 6.73598,6.18655 6.73598,14.97474 0,5.41031 -1.05272,12.38841 -2.33936,15.50686 -1.28665,3.11845 -2.11747,6.57628 -1.84627,7.68404 0.2712,1.10776 -0.10574,1.41532 -0.83771,0.68339 -0.73195,-0.73193 -6.27143,0.85419 -12.30996,3.5247 -6.03854,2.67047 -12.21983,4.85547 -13.73622,4.85547 -2.06434,0 -2.93569,4.3495 -3.468,17.3115 -0.67521,16.4413 -1.01465,17.5545 -6.75256,22.1455 -7.71868,6.1755 -18.67087,6.4532 -24.91927,0.632 z m 24.65971,-14.5924 c 0.97244,-3.8745 -0.17442,-21.2845 -1.50486,-22.8438 -0.17281,-0.2024 -5.59926,-0.8697 -12.05868,-1.4824 -10.52439,-0.9984 -11.85306,-0.6985 -12.79045,2.886 -0.57533,2.2 -2.02797,4.0001 -3.22808,4.0001 -1.43612,0 -1.35582,0.8262 0.23491,2.4169 1.32931,1.3293 2.44576,5.1813 2.48098,8.56 0.0763,7.3206 3.55852,12.4161 10.18924,14.9105 6.39336,2.4049 15.05425,-1.982 16.67694,-8.4473 z M 120.60785,917.59551 c -4.48241,-2.68723 -9.39391,-7.21033 -10.91444,-10.05144 -1.52052,-2.84111 -3.51779,-5.1658 -4.43836,-5.1658 -0.92057,0 -1.67377,-1.63143 -1.67377,-3.6254 0,-1.99397 -1.00603,-4.63146 -2.23561,-5.86087 -2.489278,-2.48945 -1.358108,-27.04552 2.02165,-43.88768 5.13323,-25.58019 6.11249,-32.4714 5.08028,-35.75051 -0.61026,-1.93859 -0.21414,-3.5247 0.88027,-3.5247 2.72803,0 4.98618,-10.76836 5.17431,-24.67487 0.0862,-6.3707 1.06307,-11.57767 2.17084,-11.571 3.70834,0.0224 0.99908,61.33852 -2.84744,64.44346 -4.97641,4.01699 -8.40322,44.09392 -4.43695,51.89075 0.97852,1.92348 2.94437,5.98978 4.36857,9.03612 3.50736,7.50217 8.15914,6.96561 17.4576,-2.01411 15.11062,-14.59247 16.17693,-19.23176 17.47567,-76.03273 1.16555,-50.9756 2.24103,-63.44458 5.47225,-63.44458 0.99632,0 1.78551,25.46579 1.78551,57.61594 l 0,57.61591 6.51691,8.34631 c 7.94386,10.17383 8.25229,10.48038 20.23471,20.11308 l 9.62623,7.73842 6.98751,-7.62865 c 7.74137,-8.45142 9.57616,-5.60488 3.70512,5.74848 -7.37202,14.2559 -11.32183,15.61139 -45.42748,15.58884 -26.92006,-0.0201 -29.37438,-0.34341 -36.98338,-4.90497 z m 60.30031,-4.33518 c 3.6174,-1.38813 2.73724,-2.45682 -9.64727,-11.71429 -4.31731,-3.22721 -10.33784,-8.47136 -13.37899,-11.65366 -5.27696,-5.52177 -5.68109,-5.62169 -8.85368,-2.18878 -11.29438,12.22108 -18.65875,18.87893 -22.08574,19.96656 -3.67177,1.16536 -3.61155,1.41209 0.96341,3.94665 5.01128,2.77625 46.68312,4.06831 53.00227,1.64352 z M 145.76759,902.3104 c -3.1005,-1.91623 -1.08589,-5.19178 4.01331,-6.52533 4.22591,-1.10514 12.0991,3.34706 9.86671,5.5793 -2.01626,2.01633 -11.14185,2.63829 -13.88002,0.94603 z"
       id="path3080"
       inkscape:connector-curvature="0" />
  </g>
</svg>
