<?xml version="1.0" encoding="UTF-8" standalone="no"?>
<svg
   xmlns:dc="http://purl.org/dc/elements/1.1/"
   xmlns:cc="http://creativecommons.org/ns#"
   xmlns:rdf="http://www.w3.org/1999/02/22-rdf-syntax-ns#"
   xmlns:svg="http://www.w3.org/2000/svg"
   xmlns="http://www.w3.org/2000/svg"
   viewBox="0 0 300 300"
   height="300"
   width="300"
   id="svg56"
   version="1.1">
  <metadata
     id="metadata62">
    <rdf:RDF>
      <cc:Work
         rdf:about="">
        <dc:format>image/svg+xml</dc:format>
        <dc:type
           rdf:resource="http://purl.org/dc/dcmitype/StillImage" />
        <dc:title></dc:title>
      </cc:Work>
    </rdf:RDF>
  </metadata>
  <defs
     id="defs60" />
  <path
     id="path66"
     d="M 132.4455,282.52037 87.082143,179.05132 c -3.694866,-8.4276 -9.541379,-20.79047 -9.762887,-26.57631 -0.735062,-19.19998 15.570324,-33.30188 31.489394,-50.11261 -1.29153,-3.115576 -1.1429,-11.645056 1.82928,-11.691956 3.24875,-0.0512 6.7402,5.94631 10.01701,13.839496 l 8.04353,19.37528 c 2.22149,5.35115 5.46389,13.92345 -1.47409,14.63595 -2.28086,0.23423 -3.26056,0.37651 -5.22667,-3.94192 l -11.35734,-24.9457 c -11.111724,12.52148 -24.732855,26.29949 -24.471803,41.86693 0.09615,5.73377 2.553428,9.71325 9.667209,25.14504 l 16.847734,37.94033 5.16042,-12.32671 c 1.4348,-3.4533 6.5402,-12.83438 9.55514,-9.13258 2.57377,3.17848 1.49292,7.76415 -5.00303,21.22599 l -5.7559,11.92822 21.39611,48.21472 52.12538,-58.6 -13.32619,-20.82016 c -6.38427,-9.97446 -12.10587,-25.75849 -4.92785,-21.93471 4.18323,2.22842 8.48065,9.97994 11.48784,14.40626 l 13.28462,19.55387 c 6.67715,-8.0108 12.36634,-14.14727 15.45696,-23.34088 4.76338,-14.16951 -1.25163,-28.51672 -5.85102,-40.67651 l -13.30653,-33.84461 -13.12608,31.34318 c -1.17544,2.80681 -5.20647,7.24429 -6.84308,3.69392 -1.92613,-4.17842 -0.67639,-9.48273 7.02536,-30.21693 6.47958,-17.443906 8.64784,-21.772696 11.23049,-22.420896 2.24761,-0.56412 3.52957,1.23059 4.60127,4.82453 l 17.98286,44.030056 c 5.99826,14.27907 11.16407,30.40915 6.37364,44.4877 -4.07991,11.99042 -11.17213,21.18065 -20.52587,31.97549 l -53.27362,61.48128 c -3.28376,3.78969 -11.04827,10.08142 -13.97893,4.08329 z M 70.481461,99.155314 C 69.788434,91.580984 70.005457,77.771906 71.147746,66.344104 72.410101,53.71513 76.685122,30.401009 78.004237,28.951772 102.17206,18.7317 123.23074,14.88122 146.546,15.002783 c 26.12187,0.136196 44.53281,4.961844 66.48322,10.295164 13.25909,3.095257 15.48434,7.243176 13.86364,21.707636 -1.64713,14.700318 -0.35582,27.706901 2.8743,44.659441 1.26367,6.63214 -6.04758,7.19747 -6.88262,3.73368 -2.4688,-10.240589 -4.4237,-19.375188 -5.64577,-28.043876 L 84.010702,72.490089 c -1.050876,9.678038 -1.584533,18.447505 -5.52644,28.057021 -3.685426,8.98426 -7.411945,5.06587 -8.002801,-1.391796 z M 217.23703,58.232402 c 0.14677,-2.126032 0.1424,-4.634835 0.6284,-10.329625 0.99621,-11.673526 0.80202,-11.844918 -5.43258,-13.314173 -23.65525,-5.574628 -42.01976,-9.906165 -67.90911,-10.426349 -19.56357,-0.393083 -41.2524,5.124687 -57.965819,9.271214 l -1.293891,30.29989 z"
     style="fill:#000000;stroke-width:0.69197452" />
</svg>
