<?xml version="1.0" encoding="UTF-8" standalone="no"?>
<!-- Created with Inkscape (http://www.inkscape.org/) -->

<svg
   width="300mm"
   height="300mm"
   viewBox="0 0 300 300"
   version="1.1"
   id="svg1"
   xml:space="preserve"
   inkscape:version="1.3.2 (091e20e, 2023-11-25, custom)"
   sodipodi:docname="悲-seal.svg"
   xmlns:inkscape="http://www.inkscape.org/namespaces/inkscape"
   xmlns:sodipodi="http://sodipodi.sourceforge.net/DTD/sodipodi-0.dtd"
   xmlns="http://www.w3.org/2000/svg"
   xmlns:svg="http://www.w3.org/2000/svg"><sodipodi:namedview
     id="namedview1"
     pagecolor="#ffffff"
     bordercolor="#000000"
     borderopacity="0.25"
     inkscape:showpageshadow="2"
     inkscape:pageopacity="0.0"
     inkscape:pagecheckerboard="0"
     inkscape:deskcolor="#d1d1d1"
     inkscape:document-units="mm"
     inkscape:zoom="0.74029882"
     inkscape:cx="396.46153"
     inkscape:cy="561.25984"
     inkscape:window-width="1920"
     inkscape:window-height="1009"
     inkscape:window-x="-8"
     inkscape:window-y="-8"
     inkscape:window-maximized="1"
     inkscape:current-layer="layer1" /><defs
     id="defs1" /><g
     inkscape:label="Layer 1"
     inkscape:groupmode="layer"
     id="layer1"><path
       style="fill:#000000"
       d="m 206.01632,288.80088 c -10.81463,-1.12741 -29.9105,-7.63905 -46.13971,-15.73352 -14.37151,-7.16792 -19.00492,-10.96964 -24.36951,-19.99524 -3.42051,-5.7548 -6.72569,-10.29575 -8.40754,-11.55104 -0.77727,-0.58013 -1.97488,-1.01144 -3.25236,-1.1713 -8.03902,-1.00602 -26.71541,-8.74516 -31.99038,-13.25621 -1.31154,-1.1216 -3.44259,-2.56693 -4.73566,-3.21183 -1.51284,-0.75451 -2.71473,-1.67461 -3.37115,-2.58077 -2.2277,-3.07525 -4.93699,-12.71269 -5.3488,-19.02665 -0.19442,-2.98095 -0.11594,-3.80787 0.53567,-5.64425 1.67554,-4.72201 6.74253,-11.09321 12.83569,-16.1395 3.70417,-3.06775 6.40023,-4.84533 11.05548,-7.28914 6.04491,-3.17333 8.676,-6.40273 9.19819,-11.28985 0.34042,-3.18604 0.0389,-4.5672 -1.93933,-8.88428 -1.86037,-4.05979 -2.63283,-7.35098 -2.15665,-9.18863 0.86685,-3.34527 2.94502,-2.23722 11.29542,6.02253 9.00493,8.90719 10.99297,12.20831 10.12743,16.8165 -1.64009,8.73187 -5.85732,14.64074 -10.44926,14.64074 -4.9654,0 -19.62127,7.31328 -24.67775,12.31421 -2.17993,2.15598 -2.74107,3.82146 -2.76982,8.22097 -0.0317,4.84304 1.70899,9.90362 4.4952,13.06892 1.12189,1.27453 2.67766,2.17401 8.84285,5.11257 10.27379,4.89688 14.39037,5.66061 18.84522,3.49628 3.15254,-1.53163 3.80404,-4.6236 3.86057,-18.32217 0.03,-7.26682 0.65713,-16.74154 1.3152,-19.8699 1.47857,-7.02889 3.40826,-9.16794 8.2706,-9.16794 2.84968,0 3.8968,0.86311 4.40959,3.63474 0.2124,1.14801 0.36639,9.77213 0.36639,20.51934 0,27.58527 1.09007,38.82187 4.45818,45.95552 1.23509,2.61591 2.50985,3.78746 4.12116,3.78746 1.7085,0 4.82988,-3.40393 6.74261,-7.35294 2.9711,-6.13414 3.93979,-11.96475 4.51998,-27.20589 1.07579,-28.26057 1.3975,-32.21863 2.90442,-35.73414 1.02432,-2.38963 2.63561,-3.60602 4.76348,-3.59602 4.86324,0.0229 7.5347,3.49897 8.71708,11.3427 0.72889,4.83531 0.67289,10.99053 -0.20638,22.68411 -0.95045,12.64039 -0.7726,14.14082 1.75954,14.84404 6.78854,1.88531 16.05427,-2.39228 20.77098,-9.58908 2.72246,-4.15394 5.18187,-11.73057 5.12437,-15.78646 -0.0765,-5.39557 -6.03525,-14.96868 -10.91806,-17.54057 -0.60662,-0.31952 -1.95133,-0.69949 -2.98826,-0.84438 -3.98188,-0.55638 -12.07731,-4.59532 -15.88254,-7.92404 -3.11139,-2.72176 -3.50505,-3.98467 -3.66835,-11.76828 -0.15121,-7.20794 0.20884,-10.11577 1.44756,-11.69054 1.26083,-1.60288 4.1807,-0.96024 6.95006,1.52966 2.12691,1.91226 2.7391,3.48952 2.41727,6.2278 -0.50645,4.30908 2.19618,6.32357 13.74595,10.24598 13.93549,4.73261 22.46561,10.91978 24.71814,17.92885 0.95375,2.96774 1.29626,11.76392 0.66836,17.1649 -1.22576,10.54359 -4.96446,19.21179 -10.86407,25.18842 -5.20534,5.27329 -8.94794,6.93817 -17.4261,7.75195 -8.28375,0.79511 -13.67938,2.45102 -18.92933,5.80937 -4.30073,2.75115 -6.77302,5.66715 -9.73501,11.48219 -1.7888,3.51181 -1.88434,4.70223 -0.51807,6.4551 3.31739,4.2561 9.96167,6.89438 26.2041,10.40501 12.02204,2.59844 20.2591,4.71178 21.73484,5.57639 0.64083,0.37545 1.67412,1.31236 2.29622,2.08203 0.96951,1.19952 1.15175,1.7655 1.27589,3.96247 0.12898,2.28248 0.0396,2.72213 -0.81676,4.01613 -1.61378,2.43858 -4.87461,3.52202 -9.23284,3.06768 z M 80.8814,162.737 c -3.20341,-2.69549 -4.06273,-12.51645 -2.39435,-27.36439 0.9675,-8.61035 3.09402,-18.70265 4.62873,-21.9676 1.38967,-2.95641 5.5246,-5.61879 12.05494,-7.76187 6.4957,-2.13172 10.86605,-2.89363 19.20252,-3.34769 5.87361,-0.31992 6.97759,-0.67982 7.66977,-2.500398 0.42344,-1.113718 0.52019,-7.495137 0.1368,-9.022539 -0.58588,-2.334078 -3.29315,-2.739166 -20.02379,-2.996149 -14.17548,-0.217736 -18.45591,-0.57301 -20.8702,-1.732218 -1.76462,-0.847271 -2.1043,-1.330459 -2.65134,-3.77147 -0.43237,-1.92931 -0.20036,-3.375238 0.59027,-3.678631 0.97969,-0.37594 10.55223,-1.661905 16.68127,-2.240942 20.10957,-1.899841 24.07921,-2.7231 25.01641,-5.188122 0.47157,-1.240321 0.44618,-5.273278 -0.042,-6.673704 -0.67198,-1.927643 -2.2732,-2.384416 -11.92293,-3.401187 -7.62523,-0.803455 -13.36862,-2.334023 -15.84443,-4.222415 -3.82599,-2.918224 -5.93331,-10.334927 -5.56328,-19.579947 0.21573,-5.389872 0.92693,-8.374616 2.64337,-11.093637 1.71195,-2.711899 4.33862,-3.395773 6.39541,-1.665094 1.52761,1.285395 1.79035,2.354561 2.40445,9.784386 0.63148,7.640067 1.28397,9.67353 3.65515,11.391206 2.21474,1.604354 4.6472,2.182184 9.18944,2.182953 3.42736,5.81e-4 4.25257,-0.122716 5.91491,-0.883764 3.47429,-1.590582 4.34238,-4.338196 4.78145,-15.133871 0.24998,-6.146162 0.60654,-8.937426 1.57222,-12.307579 0.89917,-3.138085 3.32878,-5.04785 6.8894,-5.415339 1.75772,-0.181412 1.98366,-0.115301 2.69456,0.788467 2.1869,2.780188 2.74958,12.923045 3.40734,61.419745 0.66738,49.206809 -0.15373,64.296929 -3.71963,68.358269 -1.42196,1.61952 -3.11605,2.16569 -6.1235,1.97419 -4.12813,-0.26286 -4.3613,-1.04518 -4.69021,-15.73687 -0.24707,-11.03596 -0.59652,-13.91781 -1.86679,-15.39478 l -0.83038,-0.96552 -8.57974,5.8e-4 c -11.87576,7.9e-4 -13.83692,0.63305 -17.55412,5.65927 -2.96167,4.00463 -4.79558,8.02348 -5.54352,12.14812 -0.34335,1.89344 -0.29745,2.47272 0.34767,4.38773 1.48327,4.40302 1.35989,10.33354 -0.37259,17.9096 -1.39314,6.09214 -3.09904,8.97559 -5.31012,8.97559 -0.47449,0 -1.3624,-0.42047 -1.97315,-0.93438 z m 129.43526,-11.38664 c -2.40741,-1.04582 -3.8507,-5.57211 -7.38401,-23.15692 -1.83952,-9.15503 -2.99887,-12.10305 -5.2092,-13.24606 -1.94217,-1.00433 -11.07922,-0.69604 -16.72231,0.56422 -2.91805,0.65168 -4.9022,2.01519 -5.80255,3.9875 -0.68947,1.51037 -0.8082,2.6493 -1.02134,9.79728 -0.26707,8.95633 -0.51595,10.2797 -2.72319,14.48007 -1.5196,2.89181 -4.37081,5.55669 -5.9452,5.55669 -2.22149,0 -3.98727,-2.02667 -4.83968,-5.55475 -1.15891,-4.79668 -1.8315,-57.093529 -1.19812,-93.158483 0.4864,-27.69552 0.72961,-31.753812 2.0803,-34.712057 1.22279,-2.678128 3.28322,-4.810002 4.64881,-4.810002 1.54449,0 3.76454,2.232627 5.25371,5.283481 2.34125,4.796485 2.50322,5.873255 2.74459,18.245931 0.25118,12.875563 0.43129,13.784724 2.98931,15.089729 2.72114,1.388224 13.20607,0.788343 16.77959,-0.96002 3.7505,-1.834945 4.95555,-4.385203 6.53276,-13.82532 1.33111,-7.96709 2.19124,-10.714422 3.7954,-12.122892 1.14407,-1.004509 1.46989,-1.107891 2.88176,-0.914373 2.26387,0.310299 4.97925,1.795032 6.47173,3.538667 2.03152,2.373367 2.66414,4.879657 2.64557,10.480974 -0.0172,5.198249 -0.36945,7.359428 -2.066,12.676853 -1.30686,4.096056 -1.71682,4.931679 -3.20834,6.539578 -2.17277,2.342313 -5.90149,3.354571 -21.97135,5.964696 -12.69904,2.062625 -15.37128,2.916472 -16.34392,5.222289 -0.56002,1.327607 -0.70633,7.135993 -0.22337,8.867134 0.65374,2.343277 3.03646,2.507568 22.19171,1.530138 17.34832,-0.885227 21.64436,-0.389419 23.42449,2.703432 0.43923,0.763142 0.71565,1.969208 0.73345,3.200149 0.0646,4.467507 -1.92448,4.960375 -22.92523,5.680632 -17.90665,0.61414 -20.75059,1.117277 -21.90282,3.87495 -0.55186,1.320804 -0.69472,9.407634 -0.19769,11.190714 0.51427,1.84492 2.21079,2.35852 8.33396,2.52304 6.23876,0.16762 15.10858,-0.40569 19.71981,-1.27461 5.68162,-1.07063 7.1142,-1.07689 8.68414,-0.038 2.75496,1.82314 4.96618,7.81495 7.5629,20.49337 2.18017,10.64461 2.46314,16.00748 1.10239,20.89224 -0.73474,2.63757 -2.89145,4.98283 -5.09173,5.53686 -2.03408,0.51219 -2.30679,0.50163 -3.80033,-0.14718 z"
       id="path1" /></g></svg>
