<?xml version="1.0" encoding="UTF-8" standalone="no"?>
<!-- Created with Inkscape (http://www.inkscape.org/) -->

<svg
   xmlns:dc="http://purl.org/dc/elements/1.1/"
   xmlns:cc="http://creativecommons.org/ns#"
   xmlns:rdf="http://www.w3.org/1999/02/22-rdf-syntax-ns#"
   xmlns:svg="http://www.w3.org/2000/svg"
   xmlns="http://www.w3.org/2000/svg"
   xmlns:sodipodi="http://sodipodi.sourceforge.net/DTD/sodipodi-0.dtd"
   xmlns:inkscape="http://www.inkscape.org/namespaces/inkscape"
   width="300"
   height="300"
   id="svg2"
   version="1.1"
   inkscape:version="0.48.4 r9939"
   sodipodi:docname="image-seal.svg">
  <defs
     id="defs4" />
  <sodipodi:namedview
     id="base"
     pagecolor="#ffffff"
     bordercolor="#666666"
     borderopacity="1.0"
     inkscape:pageopacity="0.0"
     inkscape:pageshadow="2"
     inkscape:zoom="2.0506101"
     inkscape:cx="180.10765"
     inkscape:cy="122.98837"
     inkscape:document-units="px"
     inkscape:current-layer="layer1"
     showgrid="false"
     inkscape:window-width="1215"
     inkscape:window-height="1000"
     inkscape:window-x="65"
     inkscape:window-y="24"
     inkscape:window-maximized="1"
     fit-margin-top="10"
     fit-margin-left="10"
     fit-margin-right="10"
     fit-margin-bottom="10" />
  <metadata
     id="metadata7">
    <rdf:RDF>
      <cc:Work
         rdf:about="">
        <dc:format>image/svg+xml</dc:format>
        <dc:type
           rdf:resource="http://purl.org/dc/dcmitype/StillImage" />
        <dc:title />
      </cc:Work>
    </rdf:RDF>
  </metadata>
  <g
     inkscape:label="Calque 1"
     inkscape:groupmode="layer"
     id="layer1"
     transform="translate(0,-752.36218)">
    <path
       style="fill:#000000"
       d="m 197.63148,1024.025 c 0,-1.9013 16.45467,-19.1147 36.56592,-38.25195 27.47474,-26.14403 36.56594,-38.98172 36.56594,-51.63475 0,-20.7628 -17.58889,-54.52504 -44.51128,-85.44043 l -20.35918,-23.37879 -26.98443,18.30831 c -14.84138,10.06959 -36.34251,26.71702 -47.78027,36.99437 -11.43776,10.27727 -25.69531,20.241 -31.683475,22.14158 -12.12288,3.84765 -14.74843,10.72052 -20.65858,54.07698 -10.05296,73.74778 -27.33784,78.78178 -22.83774,6.65116 l 3.23176,-51.80173 -21.44293,0 c -24.15332,0 -37.33569978,-11.5226 -31.2690498,-27.332 3.21012,-8.36549 9.0010098,-9.93185 27.5295698,-7.44665 29.20868,3.91768 30.68759,-6.10565 3.42306,-23.19974 -12.84482,-8.05333 -20.23461,-18.00304 -21.50015,-28.94803 -2.30524,-19.93622 0.76471,-20.50537 23.45497,-4.34847 l 17.31384,12.32851 5.14982,-26.04074 c 6.77592,-34.26336 17.303,-32.83327 28.90165,3.92633 2.80991,8.90533 5.37842,9.99237 10.800055,4.57075 3.91237,-3.91238 10.67859,-7.11342 15.03603,-7.11342 13.35559,0 8.80173,17.42598 -7.31318,27.98488 -18.681475,12.24056 -22.568865,47.24464 -4.57075,41.15727 5.86579,-1.98395 16.14996,-9.80559 22.85371,-17.3815 6.70376,-7.57584 25.3706,-25.05375 41.48191,-38.83977 28.09336,-24.03881 29.9843,-24.70815 46.16539,-16.34059 22.414,11.59073 60.74461,54.58068 71.39724,80.07603 21.67414,51.87352 0.62801,103.29564 -53.6747,131.14369 -22.73152,11.6574 -35.28515,14.5529 -35.28515,8.1387 z m -52.47759,-39.07974 c -24.04466,-9.71551 -22.72121,-29.15707 6.79322,-99.79506 7.53995,-18.04565 12.47946,-22.21502 26.31839,-22.21502 25.40729,0 39.06277,12.60141 36.6482,33.81928 -1.6704,14.67799 -7.40686,20.54292 -31.21724,31.91614 -16.04398,7.66348 -27.53751,16.57643 -25.54119,19.80654 6.51258,10.53757 30.07493,6.19738 53.77123,-9.90474 26.74725,-18.17515 34.42646,-15.71085 19.93965,6.3988 -7.88514,12.03421 -63.87672,47.40352 -72.1216,45.5584 -0.94937,-0.21269 -7.51521,-2.72537 -14.59066,-5.58434 z m 46.38327,-91.10084 c 0,-9.7553 -17.25357,-11.91056 -20.82576,-2.60154 -6.47381,16.87054 -3.93881,21.083 8.63712,14.35255 6.70375,-3.58773 12.18864,-8.87571 12.18864,-11.75101 z"
       id="path3121"
       inkscape:connector-curvature="0" />
  </g>
</svg>
