<?xml version="1.0" encoding="UTF-8" standalone="no"?>
<!-- Created with Inkscape (http://www.inkscape.org/) -->

<svg
   version="1.1"
   id="svg4016"
   width="300"
   height="300"
   viewBox="0 0 300 300"
   xml:space="preserve"
   sodipodi:docname="艮-oracle.svg"
   inkscape:version="1.2.2 (732a01da63, 2022-12-09)"
   xmlns:inkscape="http://www.inkscape.org/namespaces/inkscape"
   xmlns:sodipodi="http://sodipodi.sourceforge.net/DTD/sodipodi-0.dtd"
   xmlns="http://www.w3.org/2000/svg"
   xmlns:svg="http://www.w3.org/2000/svg"><sodipodi:namedview
     id="namedview24"
     pagecolor="#ffffff"
     bordercolor="#666666"
     borderopacity="1.0"
     inkscape:showpageshadow="2"
     inkscape:pageopacity="0.0"
     inkscape:pagecheckerboard="0"
     inkscape:deskcolor="#d1d1d1"
     showgrid="false"
     inkscape:zoom="1.1798697"
     inkscape:cx="-169.93402"
     inkscape:cy="155.10187"
     inkscape:window-width="1920"
     inkscape:window-height="982"
     inkscape:window-x="-10"
     inkscape:window-y="-10"
     inkscape:window-maximized="1"
     inkscape:current-layer="g1855" /><defs
     id="defs4020"><pattern
       id="EMFhbasepattern"
       patternUnits="userSpaceOnUse"
       width="6"
       height="6"
       x="0"
       y="0" /><pattern
       id="EMFhbasepattern-5"
       patternUnits="userSpaceOnUse"
       width="6"
       height="6"
       x="0"
       y="0" /><pattern
       id="EMFhbasepattern-2"
       patternUnits="userSpaceOnUse"
       width="6"
       height="6"
       x="0"
       y="0" /><pattern
       id="EMFhbasepattern-25"
       patternUnits="userSpaceOnUse"
       width="6"
       height="6"
       x="0"
       y="0" /><pattern
       id="EMFhbasepattern-5-1"
       patternUnits="userSpaceOnUse"
       width="6"
       height="6"
       x="0"
       y="0" /><pattern
       id="EMFhbasepattern-2-9"
       patternUnits="userSpaceOnUse"
       width="6"
       height="6"
       x="0"
       y="0" /><pattern
       id="EMFhbasepattern-8"
       patternUnits="userSpaceOnUse"
       width="6"
       height="6"
       x="0"
       y="0" /><pattern
       id="EMFhbasepattern-5-5"
       patternUnits="userSpaceOnUse"
       width="6"
       height="6"
       x="0"
       y="0" /><pattern
       id="EMFhbasepattern-2-95"
       patternUnits="userSpaceOnUse"
       width="6"
       height="6"
       x="0"
       y="0" /><pattern
       id="EMFhbasepattern-4"
       patternUnits="userSpaceOnUse"
       width="6"
       height="6"
       x="0"
       y="0" /><pattern
       id="EMFhbasepattern-1"
       patternUnits="userSpaceOnUse"
       width="6"
       height="6"
       x="0"
       y="0" /><pattern
       id="EMFhbasepattern-7"
       patternUnits="userSpaceOnUse"
       width="6"
       height="6"
       x="0"
       y="0" /><pattern
       id="EMFhbasepattern-87"
       patternUnits="userSpaceOnUse"
       width="6"
       height="6"
       x="0"
       y="0" /><pattern
       id="EMFhbasepattern-0"
       patternUnits="userSpaceOnUse"
       width="6"
       height="6"
       x="0"
       y="0" /><pattern
       id="EMFhbasepattern-80"
       patternUnits="userSpaceOnUse"
       width="6"
       height="6"
       x="0"
       y="0" /><pattern
       id="EMFhbasepattern-81"
       patternUnits="userSpaceOnUse"
       width="6"
       height="6"
       x="0"
       y="0" /><pattern
       id="EMFhbasepattern-72"
       patternUnits="userSpaceOnUse"
       width="6"
       height="6"
       x="0"
       y="0" /><pattern
       id="EMFhbasepattern-9"
       patternUnits="userSpaceOnUse"
       width="6"
       height="6"
       x="0"
       y="0" /><pattern
       id="EMFhbasepattern-13"
       patternUnits="userSpaceOnUse"
       width="6"
       height="6"
       x="0"
       y="0" /><pattern
       id="EMFhbasepattern-96"
       patternUnits="userSpaceOnUse"
       width="6"
       height="6"
       x="0"
       y="0" /><pattern
       id="EMFhbasepattern-54"
       patternUnits="userSpaceOnUse"
       width="6"
       height="6"
       x="0"
       y="0" /><pattern
       id="EMFhbasepattern-97"
       patternUnits="userSpaceOnUse"
       width="6"
       height="6"
       x="0"
       y="0" /><pattern
       id="EMFhbasepattern-09"
       patternUnits="userSpaceOnUse"
       width="6"
       height="6"
       x="0"
       y="0" /><pattern
       id="EMFhbasepattern-3"
       patternUnits="userSpaceOnUse"
       width="6"
       height="6"
       x="0"
       y="0" /><pattern
       id="EMFhbasepattern-95"
       patternUnits="userSpaceOnUse"
       width="6"
       height="6"
       x="0"
       y="0" /></defs><g
     transform="matrix(0.14672507,0,0,-0.14672507,63.041979,300.64171)"
     fill="#000000"
     stroke="none"
     id="g1732"><g
       transform="matrix(2.3440564,0,0,2.3440564,-135.69915,-127.22848)"
       fill="#000000"
       stroke="none"
       id="g1855"><path
         style="fill:#010101;stroke:none;stroke-width:6.65864"
         d="m 877.85697,837.06471 6.6807,-6.63669 -6.6807,6.63669"
         id="path4854" /><path
         style="fill:#000000;stroke-width:6.68103"
         d="m 313.00429,72.736863 c -1.76833,9.12669 -3.67656,91.995497 -4.24055,184.152917 -1.11137,181.61289 3.33984,213.75862 41.12057,296.96365 16.45409,36.23701 16.49889,36.88817 6.24429,90.79132 -10.14436,53.3234 -10.79647,54.50064 -36.53463,65.95149 -20.59462,9.16249 -30.45909,19.97155 -46.06884,50.4802 -13.29607,25.9866 -22.56777,37.18843 -28.04419,33.88244 -4.49971,-2.71633 -20.52204,-14.0289 -35.60527,-25.13904 C 161.90848,734.48772 67.463421,688.9789 59.113415,697.17428 49.48712,706.62225 101.11028,862.63087 122.70395,889.34924 l 15.07918,18.65778 106.93115,0.85003 c 61.25149,0.48689 125.60806,4.73373 150.65168,9.94137 24.04625,5.00022 70.96166,9.2951 104.25646,9.54415 54.41132,0.40702 60.53602,-0.7796 60.53602,-11.72846 0,-7.31818 -16.1118,-23.48503 -40.35735,-40.49521 -23.04794,-16.16997 -39.33878,-32.29235 -37.98251,-37.58975 1.30616,-5.10173 3.21366,-23.62734 4.23886,-41.16802 1.63966,-28.05427 -0.73571,-34.61168 -19.73877,-54.49095 -15.2807,-15.98532 -29.97669,-23.91993 -50.21718,-27.11317 -33.71391,-5.31887 -37.08738,-11.15153 -27.7489,-47.97718 3.85736,-15.21111 10.04581,-39.55956 13.75217,-54.1077 9.27021,-36.38728 52.59739,-127.44433 88.76577,-186.55158 46.75459,-76.40749 72.65102,-125.25718 72.65102,-137.04496 0,-29.74961 -84.72991,83.17213 -144.39527,192.43933 -17.43889,31.93643 -32.86817,58.06624 -34.2872,58.06624 -6.52222,0 -24.09455,-43.20627 -33.02657,-81.20446 C 339.87932,408.61085 335.30394,342.90584 334.82389,215.41024 334.43848,113.10205 329.60031,56.142863 321.2951,56.142863 c -2.79158,0 -6.52242,7.46732 -8.29081,16.594 z m 79.07019,670.543827 c 45.08359,11.58551 63.82749,25.06348 63.82749,45.89572 0,19.74965 -26.09559,94.19628 -35.80517,102.14661 -5.27248,4.31717 -20.24721,3.37022 -44.38271,-2.80661 -20.03399,-5.12714 -50.29252,-10.60292 -67.24125,-12.16839 -16.94868,-1.56546 -33.32637,-3.09684 -36.39493,-3.40306 -15.25656,-1.52251 20.64332,-92.01397 48.26765,-121.66633 19.87592,-21.33514 19.84317,-21.33147 71.72892,-7.99794 z m -80.40494,37.67812 c -14.68187,20.6806 -13.33709,59.34668 2.65289,76.28009 10.75408,11.38853 17.2905,12.97074 36.20094,8.76286 12.69245,-2.82428 26.81025,-7.41127 31.37279,-10.19332 11.7384,-7.15758 4.57053,-60.36311 -10.31898,-76.5955 -16.24753,-17.71282 -46.72377,-16.82465 -59.90764,1.74587 z m 48.73935,29.72025 c 2.23668,14.89547 -17.05379,26.32158 -27.32682,16.18616 -8.16295,-8.05365 6.70685,-35.78675 17.33725,-32.33512 4.37385,1.42014 8.86912,8.68718 9.98957,16.14896 z M 161.41135,780.21097 c 65.06216,32.40341 79.25146,44.90178 79.25146,69.80707 0,11.87279 -2.2701,22.93104 -5.04467,24.57391 -2.77456,1.64287 -24.71887,4.05881 -48.76512,5.36875 l -43.72046,2.38172 -18.05742,-53.08913 C 97.566428,748.37714 97.546595,748.4039 161.41135,780.21097 Z m 333.01258,112.08566 17.10203,13.27228 h -27.81199 c -18.69252,0 -27.812,-2.9013 -27.812,-8.84819 0,-20.99486 14.95637,-22.71254 38.52196,-4.42409 z"
         id="path610" /></g></g></svg>
