<?xml version="1.0" encoding="UTF-8"?>
<!DOCTYPE svg PUBLIC "-//W3C//DTD SVG 1.1//EN" "http://www.w3.org/Graphics/SVG/1.1/DTD/svg11.dtd">
<svg width="300" height="300" version="1.1" viewBox="0 0 79.375 79.375" xmlns="http://www.w3.org/2000/svg">
 <path id="a" d="m49.904 4.024c-1.013 0.46128-1.0646 1.5866-1.4042 2.5838-0.52968 1.5553-1.3058 4.5603-1.3805 6.1036-0.07461 1.5433-2.2447 33.35-2.1694 36.826 0.07533 3.4762 0.53286 7.0685 1.3225 10.593 1.2613 5.6291 2.5162 7.1307 5.3151 11.975 0.65659 1.1364 1.6285 3.7418 3.3106 3.2372 0.85292-0.25589 1.64-0.94147 1.1733-1.4709-0.27318-0.3099-3.0726-5.8768-4.7011-12.039-1.1587-4.3842-2.1485-17.502-1.0258-18.61 0.73074-0.72121 2.377 0.49506 3.5782 1.2597 2.7328 1.7396 5.009 3.2082 7.7926 4.3016 0.69946 0.27474 3.9231 1.4883 4.2336 0.75385 0.29351-0.69432-0.23919-1.858-0.96861-2.4508-0.72942-0.59284-3.1561-2.1403-5.9999-4.3423-2.4619-1.9063-5.4142-4.6088-6.2841-5.4695-1.4379-1.4227-1.9486-1.5415-1.8561-3.2414 0.09615-1.767 0.29602-11.412 0.91477-12.065 0.63936-0.6743 3.271 0.99205 4.2548 1.3294 2.0458 0.70146 9.4586 5.2161 13.828 6.1317 0.79536 0.16667 2.0282 0.71775 2.2594-0.20781 0.60225-2.4109-1.9872-3.6518-3.413-4.2439-2.9991-1.2455-10.446-4.4431-12.749-7.3929-4.0422-5.1777-2.9686-7.6929-3.613-10.545-0.25445-1.126-1.445-3.4599-2.4184-3.0167zm-29.531 70.582c0.754 1.4088 3.4946-1.831 4.5576-3.2728 1.6453-2.2315 3.6065-5.5085 5.1242-10.554 1.5832-5.2638 4.0873-11.914 5.2995-21.301 1.1555-8.9477-0.54177-15.305-1.312-18.537-1.4119-5.9243-2.9997-10.821-4.6413-12.736-0.87045-1.0155-3.5633-3.7769-4.0996-1.1468-0.21674 1.0631 0.88013 3.2183 0.41886 4.4683-0.09065 0.24567-1.8427 2.496-3.8454 5.0692-2.2509 2.892-4.8811 6.2073-7.0124 7.9001-1.8665 1.4826-3.5321 2.6402-5.6781 3.6869-0.63169 0.30811-2.2216 0.55593-1.9673 1.4162 0.55361 1.8725 2.6781 1.3304 5.9945 0.15567 4.1334-1.4641 8.8641-5.3766 12.191-8.2182 1.1966-1.022 3.3371-3.6711 3.9657 5e-3 0.24922 1.4573 1.4101 8.3471 1.1577 9.223-0.06137 0.21297-2.3501 3.2181-5.9283 5.7724-4.9428 3.5286-11.167 7.7581-11.865 8.4951-0.79652 0.84061 0.59078 1.642 1.8569 1.6203 2.3331-0.04006 7.3731-1.578 9.4924-2.5978 1.0291-0.49521 4.1233-2.5888 4.6675-2.3819 0.41762 0.1588 0.20316 2.1857 0.12134 2.8468-0.39741 3.2111-5.9015 19.511-6.7937 22.128-0.89217 2.6166-2.458 6.5505-1.704 7.9592z"/>
</svg>
