<?xml version="1.0" encoding="UTF-8" standalone="no"?>
<svg
   xmlns:dc="http://purl.org/dc/elements/1.1/"
   xmlns:cc="http://creativecommons.org/ns#"
   xmlns:rdf="http://www.w3.org/1999/02/22-rdf-syntax-ns#"
   xmlns:svg="http://www.w3.org/2000/svg"
   xmlns="http://www.w3.org/2000/svg"
   version="1.1"
   id="svg451"
   width="300"
   height="300"
   viewBox="0 0 300 300">
  <metadata
     id="metadata457">
    <rdf:RDF>
      <cc:Work
         rdf:about="">
        <dc:format>image/svg+xml</dc:format>
        <dc:type
           rdf:resource="http://purl.org/dc/dcmitype/StillImage" />
        <dc:title></dc:title>
      </cc:Work>
    </rdf:RDF>
  </metadata>
  <defs
     id="defs455" />
  <path
     style="fill:#000000;stroke-width:0.69007134"
     d="m 191.36513,275.44129 c -5.13054,-5.89153 -7.88257,-9.80233 -10.68325,-15.18157 -9.677,-18.58647 -13.52113,-37.89801 -10.50775,-56.28532 2.16611,-13.21734 7.58633,-22.07965 14.42545,-32.73388 2.45884,-3.83049 4.76505,-7.9711 7.00147,-12.07532 L 158.25332,58.067593 109.52093,158.48285 l 4.33097,19.18438 c 6.29408,27.8801 14.72562,56.45704 -3.48826,78.8464 -2.39372,2.94248 -8.44153,9.71607 -17.852312,18.41011 -7.704796,7.11799 -11.029534,5.37417 -18.139038,-9.51276 -5.938498,-12.4349 -8.931893,-27.65062 -8.939074,-35.85943 -0.01295,-14.80596 1.240726,-26.74993 6.802215,-37.90797 L 140.36072,54.963515 c 15.92546,-31.951312 21.42768,-40.60924 23.6887,-39.926771 2.76321,0.834051 3.65238,8.761579 3.65456,14.517774 l 53.09158,141.497552 c 5.71069,15.21989 13.73148,41.173 13.77105,52.97891 0.0331,9.87275 -2.9146,17.16995 -9.97312,31.34812 -4.61443,9.26883 -8.06029,13.53788 -12.14768,17.23927 -0.30655,3.92972 -1.50473,8.19971 -4.08491,10.93126 -4.6339,4.90573 -13.2779,-3.86041 -16.99577,-8.10834 z m 18.35161,-59.00109 c -0.14018,-9.45457 -1.54951,-14.41159 -5.98433,-24.4988 -9.48217,10.955 -11.02882,29.50335 -7.91975,40.37254 1.73084,6.05096 5.51474,14.14436 6.57146,14.14436 5.41909,-8.97057 7.49151,-19.3021 7.33262,-30.0181 z M 99.185305,232.05171 c 4.567985,-12.48675 4.398255,-33.97394 -3.400085,-41.53167 -5.733285,7.53724 -11.100854,18.48694 -11.972009,25.88793 -1.427775,12.1298 0.726396,20.19344 4.680784,29.36026 5.662873,-5.08485 9.150779,-9.50542 10.69131,-13.71652 z"
     id="path461" />
</svg>
