<?xml version="1.0" encoding="UTF-8" standalone="no"?>
<!-- Created with Inkscape (http://www.inkscape.org/) -->

<svg
   xmlns:dc="http://purl.org/dc/elements/1.1/"
   xmlns:cc="http://creativecommons.org/ns#"
   xmlns:rdf="http://www.w3.org/1999/02/22-rdf-syntax-ns#"
   xmlns:svg="http://www.w3.org/2000/svg"
   xmlns="http://www.w3.org/2000/svg"
   xmlns:sodipodi="http://sodipodi.sourceforge.net/DTD/sodipodi-0.dtd"
   xmlns:inkscape="http://www.inkscape.org/namespaces/inkscape"
   width="300"
   height="300"
   id="svg2"
   version="1.1"
   inkscape:version="0.48.3.1 r9886"
   sodipodi:docname="dessin.svg">
  <defs
     id="defs4" />
  <sodipodi:namedview
     id="base"
     pagecolor="#ffffff"
     bordercolor="#666666"
     borderopacity="1.0"
     inkscape:pageopacity="0.0"
     inkscape:pageshadow="2"
     inkscape:zoom="1.979899"
     inkscape:cx="66.959549"
     inkscape:cy="132.51351"
     inkscape:document-units="px"
     inkscape:current-layer="layer1"
     showgrid="false"
     inkscape:window-width="1215"
     inkscape:window-height="1000"
     inkscape:window-x="65"
     inkscape:window-y="24"
     inkscape:window-maximized="1" />
  <metadata
     id="metadata7">
    <rdf:RDF>
      <cc:Work
         rdf:about="">
        <dc:format>image/svg+xml</dc:format>
        <dc:type
           rdf:resource="http://purl.org/dc/dcmitype/StillImage" />
        <dc:title />
      </cc:Work>
    </rdf:RDF>
  </metadata>
  <g
     inkscape:label="Calque 1"
     inkscape:groupmode="layer"
     id="layer1"
     transform="translate(0,-752.36218)">
    <path
       style="fill:#000000"
       d="m 234.17926,1035.0128 c -6.56869,-5.5272 -10.30931,-16.701 -18.01574,-53.81544 -6.85965,-33.03637 -6.36576,-31.55436 -10.5158,-31.55436 -4.295,0 -27.64039,5.94917 -39.61669,10.09563 -6.77503,2.34566 -10.11603,3.00183 -13.18707,2.58992 -4.33534,-0.58149 -23.69225,-7.75572 -23.69225,-8.78103 0,-0.66772 17.28585,-7.42291 30.7483,-12.01622 4.81344,-1.64231 15.0517,-4.54309 22.7517,-6.44617 23.24586,-5.74531 22.49999,-5.22268 22.49999,-15.7656 0,-12.67892 -3.75668,-13.67098 -31.064,-8.20335 -21.32508,4.26984 -29.08576,4.39287 -37.68599,0.59744 -11.19275,-4.93954 -3.54521,-10.96378 19.11641,-15.05869 30.66777,-5.5416 44.42717,-12.75447 46.13397,-24.18406 0.66524,-4.45481 -0.66493,-9.67637 -2.81295,-11.04221 -2.57929,-1.64005 -9.19106,-0.62026 -17.97513,2.77247 -6.27869,2.42505 -10.48297,3.46647 -13.20252,3.27031 -3.05516,-0.22036 -4.0644,0.0974 -4.30679,1.35602 -0.5455,2.83259 -8.00481,5.10939 -18.31199,5.58937 -9.8098,0.45681 -13.891,-0.48495 -13.891,-3.20542 0,-1.92297 5.90093,-6.87035 11.1011,-9.30723 21.81009,-10.22058 31.00152,-14.75364 34.86685,-17.19575 2.49263,-1.57483 6.10705,-3.17792 8.03205,-3.56242 8.19332,-1.63654 16.1755,-8.7807 21.90332,-19.60379 3.19691,-6.04077 2.4176,-8.8358 -3.56926,-12.80133 -5.72247,-3.79042 -9.76923,-3.94187 -29.33406,-1.09789 -16.33906,2.37508 -23.01503,2.48167 -29.77108,0.47534 -8.50963,-2.52709 -13.66043,-8.31579 -9.97892,-11.21475 0.6875,-0.54136 3.29003,-1.24949 5.7834,-1.57362 2.49338,-0.32414 7.66838,-2.05819 11.5,-3.85346 6.75693,-3.16589 7.43576,-3.27617 22.55524,-3.66419 14.9964,-0.38486 28.17376,0.67163 36.23214,2.9049 5.45226,1.51102 11.15824,7.12208 14.83269,14.58598 2.69352,5.47131 3.1843,7.60785 3.24862,14.14239 0.0466,4.73321 -0.69015,10.58559 -1.91317,15.19741 -1.71669,6.47341 -1.98406,10.64822 -1.95335,30.5 0.0632,40.88442 1.42571,77.16312 3.0433,81.03455 2.48392,5.94485 4.26017,15.29249 6.45293,33.95899 1.98414,16.89055 4.54152,31.46826 6.92952,39.49986 1.41715,4.7664 1.31575,15.3295 -0.16133,16.8066 -1.797,1.797 -3.31908,1.4756 -6.77244,-1.4302 z"
       id="path3015"
       inkscape:connector-curvature="0"
       sodipodi:nodetypes="ssssssssssssssssssssssssssssssssssssssss" />
    <path
       style="fill:#b3b3b3"
       d="m 77.926844,971.0842 c -1.49867,-0.8133 -3.18617,-2.3407 -3.75,-3.39422 -1.42418,-2.6611 -1.22148,-9.43879 0.49486,-16.54698 1.68554,-6.98065 1.91381,-14.11386 0.48,-15 -1.53342,-0.9477 -1.18168,-8.69632 1.04406,-23 1.81387,-11.65688 6.95594,-46.33858 6.95594,-46.91574 0,-0.12652 -7.7625,1.06028 -17.25,2.63733 -9.4875,1.57705 -20.625,2.95985 -24.75,3.07289 -6.90184,0.18913 -7.5,0.046 -7.5,-1.79448 0,-2.03714 5.04188,-4.88029 26.46798,-14.92549 6.01649,-2.8207 10.11092,-5.63508 14.54826,-10 7.09137,-6.97562 9.69667,-12.68077 11.40736,-24.98018 1.75263,-12.60094 2.46259,-11.5932 -8.1736,-11.60188 -18.93845,-0.0155 -26.5623,-2.73896 -36.04464,-12.87636 -5.49005,-5.86931 -7.92531,-10.38395 -7.51538,-13.93249 0.30439,-2.63485 0.43038,-2.67979 6.93623,-2.47367 12.97526,0.41108 26.96598,3.11489 34.37379,6.64299 12.40928,5.91013 30.032826,20.65789 32.527676,27.21985 0.53478,1.40659 0.94639,7.36563 0.91468,13.24233 -0.0561,10.40033 -0.36003,12.06982 -5.31296,29.1849 -0.87541,3.025 -2.07952,9.04537 -2.67581,13.37861 -0.59628,4.33324 -1.959013,10.09814 -3.028283,12.8109 -2.959,7.50705 -3.81952,12.36912 -5.961653,33.68428 -3.95118,39.31601 -7.36633,57.30754 -10.8361,57.08617 -0.34515,-0.022 -1.85374,-0.70546 -3.35241,-1.51876 z"
       id="path3015-9"
       inkscape:connector-curvature="0"
       sodipodi:nodetypes="ssssssssssssssssssssssscs" />
  </g>
</svg>
