<?xml version="1.0" encoding="UTF-8" standalone="no"?>
<!-- Created with Inkscape (http://www.inkscape.org/) -->

<svg
   xmlns:dc="http://purl.org/dc/elements/1.1/"
   xmlns:cc="http://creativecommons.org/ns#"
   xmlns:rdf="http://www.w3.org/1999/02/22-rdf-syntax-ns#"
   xmlns:svg="http://www.w3.org/2000/svg"
   xmlns="http://www.w3.org/2000/svg"
   xmlns:sodipodi="http://sodipodi.sourceforge.net/DTD/sodipodi-0.dtd"
   xmlns:inkscape="http://www.inkscape.org/namespaces/inkscape"
   version="1.0"
   width="300"
   height="300"
   id="svg2"
   inkscape:version="0.48.3.1 r9886"
   sodipodi:docname="dessin.svg">
  <metadata
     id="metadata2990">
    <rdf:RDF>
      <cc:Work
         rdf:about="">
        <dc:format>image/svg+xml</dc:format>
        <dc:type
           rdf:resource="http://purl.org/dc/dcmitype/StillImage" />
      </cc:Work>
    </rdf:RDF>
  </metadata>
  <sodipodi:namedview
     pagecolor="#ffffff"
     bordercolor="#666666"
     borderopacity="1"
     objecttolerance="10"
     gridtolerance="10"
     guidetolerance="10"
     inkscape:pageopacity="0"
     inkscape:pageshadow="2"
     inkscape:window-width="1215"
     inkscape:window-height="1000"
     id="namedview2988"
     showgrid="false"
     inkscape:zoom="2.2250294"
     inkscape:cx="136.51293"
     inkscape:cy="138.64666"
     inkscape:window-x="65"
     inkscape:window-y="24"
     inkscape:window-maximized="1"
     inkscape:current-layer="svg2" />
  <defs
     id="defs5" />
  <path
     style="fill:#000000"
     d="m 118.92055,278.11697 c -6.68171,-3.74403 -20.220621,-6.85564 -30.086463,-6.91484 -23.474325,-0.14045 -31.596686,-15.23428 -36.902851,-68.57541 l -4.365947,-43.88968 23.529076,0 c 27.464559,0 30.137805,-7.08772 7.331004,-19.43737 C 61.34669,130.0518 57.579665,103.39574 67.359575,60.996841 73.73538,33.355684 104.44498,18.290079 154.41254,18.290079 c 30.38029,0 38.86225,3.147627 52.03891,19.311457 8.65835,10.621302 18.23814,29.307561 21.2883,41.525113 4.95354,19.841574 1.57899,25.653061 -31.60226,54.423201 -20.43145,17.71521 -32.49641,32.73889 -26.81113,33.38586 5.68535,0.64675 21.27065,1.43691 34.63406,1.75559 22.84326,0.54493 24.45059,2.44441 26.86224,31.75027 1.55217,18.86098 -2.93169,41.74035 -11.3538,57.93438 -13.21196,25.40384 -15.81077,26.75788 -51.15934,26.65585 -20.48222,-0.0562 -42.70727,-3.1708 -49.38897,-6.91483 z m 84.27338,-43.07158 c 2.94424,-15.96482 3.39511,-30.72474 1.00185,-32.79984 -2.39334,-2.0751 -28.93728,-4.02325 -58.98665,-4.32928 l -54.635208,-0.55617 -2.537914,22.82264 c -1.395868,12.55244 0.42601,22.96209 4.049519,23.13252 3.623102,0.17064 24.810263,4.69726 47.082603,10.05958 57.62748,13.87442 58.11221,13.73565 64.0258,-18.32931 z M 173.32453,127.9095 C 196.34669,104.95168 201.80729,86.730307 192.21861,64.862854 183.23758,44.381403 155.77553,40.162236 124.46239,54.453066 89.754057,70.293447 85.530653,92.829287 111.37297,124.29685 c 20.3553,24.78609 39.59376,25.90797 61.95156,3.61265 z M 131.93561,91.450377 c -7.09799,-16.037989 -6.51923,-16.981512 10.41554,-16.981512 12.69856,0 25.16361,12.459541 25.16361,25.152577 0,8.502728 -31.39032,1.293728 -35.57915,-8.171065 z"
     id="path3056"
     inkscape:connector-curvature="0" />
</svg>
