<?xml version="1.0" encoding="UTF-8" standalone="no"?>
<svg
   xmlns:dc="http://purl.org/dc/elements/1.1/"
   xmlns:cc="http://creativecommons.org/ns#"
   xmlns:rdf="http://www.w3.org/1999/02/22-rdf-syntax-ns#"
   xmlns:svg="http://www.w3.org/2000/svg"
   xmlns="http://www.w3.org/2000/svg"
   version="1.1"
   id="svg10"
   width="300"
   height="300"
   viewBox="0 0 300 300">
  <metadata
     id="metadata16">
    <rdf:RDF>
      <cc:Work
         rdf:about="">
        <dc:format>image/svg+xml</dc:format>
        <dc:type
           rdf:resource="http://purl.org/dc/dcmitype/StillImage" />
        <dc:title></dc:title>
      </cc:Work>
    </rdf:RDF>
  </metadata>
  <defs
     id="defs14" />
  <path
     style="fill:#000000;stroke-width:0.69112587"
     d="m 141.14236,284.40726 c 1.82082,-26.08555 -1.29789,-58.83403 -2.5395,-81.79483 -10.85416,7.12035 -16.79401,10.11455 -26.35734,15.05995 -2.36378,1.18796 -15.319069,4.13243 -15.850033,3.6024 -0.420286,-4.25768 3.05907,-6.78462 5.211443,-8.22347 12.18627,-8.50751 25.03002,-17.37454 35.7048,-27.67202 l -1.01156,-13.13105 c -22.47799,-9.58596 -44.510323,-19.45053 -63.461187,-28.94327 -6.277448,12.90507 -20.765596,31.36289 -33.709235,36.66184 -2.751244,-6.20207 -6.104582,-6.56577 -1.565848,-11.61716 13.98689,-17.07294 18.157308,-32.79809 17.979549,-47.17235 0.455084,-13.52151 -1.271854,-16.47596 9.39079,-21.854519 l 2.380582,3.612589 c 12.859217,25.98216 41.902009,43.71073 68.274959,55.08569 -1.59765,-11.43794 -3.13908,-23.03666 -5.03,-31.97371 -1.96919,-9.00554 -2.76083,-9.98473 -11.71399,-14.48914 C 103.17969,103.68285 93.024883,86.369805 82.752348,76.397886 81.517819,75.654772 71.540471,74.4387 66.67806,74.4387 54.710974,73.681719 57.173457,65.531984 65.489754,61.43472 85.405775,47.91182 109.39074,24.26311 133.87919,17.321028 c 14.52103,-2.276743 25.67076,-3.663131 40.27618,-0.354835 24.31919,7.5482 31.51548,18.458953 45.27667,32.270894 5.69906,3.473292 3.52751,14.56956 1.2857,17.919412 -2.18681,2.630347 -6.45389,4.066359 -13.51511,4.548287 -11.99085,0.818374 -11.79778,0.694114 -18.61917,11.983163 -6.39728,10.587158 -7.72718,11.881223 -19.77188,19.239141 -5.77521,3.52799 -11.22335,8.60287 -12.47567,11.62093 0.64699,13.55535 2.68972,38.3247 4.2767,49.30514 8.4663,-8.5596 23.07603,-53.56958 32.20905,-47.95747 21.34877,15.15664 49.12142,36.64208 67.48526,52.27755 9.96868,9.45419 0.9045,12.99811 -7.8771,16.9918 -15.35355,-15.03478 -34.58447,-31.41754 -49.09003,-42.02927 -0.99508,-1.89273 -25.63745,28.10761 -29.23,31.81602 24.28724,12.68496 57.5745,30.54226 84.09974,38.52719 5.06761,1.13762 3.38425,7.04637 0.12285,7.48816 -27.35697,-8.85951 -78.87517,-30.11633 -94.16346,-36.2906 -0.53579,-0.31558 -1.31926,0.44924 -2.17182,2.12017 -0.56316,32.69965 1.36513,83.40509 -17.56902,96.87763 -2.48793,1.51428 -3.28572,1.69223 -3.28572,0.73292 z M 165.2644,88.019771 c 7.72045,-1.910971 13.58555,-12.681614 14.09754,-17.094524 -11.73373,1.954481 -21.38823,4.34678 -37.30872,8.686745 2.13943,2.705694 4.17503,8.512762 7.19934,10.269205 3.10752,0.908506 11.71165,-0.09176 16.01184,-1.861426 z M 116.43576,82.74297 c 1.09673,-4.186538 -3.04136,-11.687683 -8.40356,-15.233258 -5.69828,-5.010811 -9.895612,-1.674498 -10.828871,2.96354 -0.617698,3.28684 0.39613,5.21816 5.072111,9.662253 2.24308,3.4241 13.02626,6.583721 14.16032,2.607465 z m 37.84948,-24.495783 c 3.73062,-0.243438 30.20242,-4.526678 31.39285,-5.815963 -0.60211,-9.614641 -10.49837,-13.985524 -13.22201,-14.892465 -11.28281,-3.562062 -36.14734,3.559576 -42.1751,8.330339 -7.16057,6.25826 -5.41341,6.451884 -3.49677,14.068646 9.36058,0.22091 19.58056,-0.463842 27.50103,-1.69056 z"
     id="path22" />
</svg>
