<?xml version="1.0" encoding="UTF-8" standalone="no"?>
<!-- Created with Inkscape (http://www.inkscape.org/) -->

<svg
   xmlns:dc="http://purl.org/dc/elements/1.1/"
   xmlns:cc="http://creativecommons.org/ns#"
   xmlns:rdf="http://www.w3.org/1999/02/22-rdf-syntax-ns#"
   xmlns:svg="http://www.w3.org/2000/svg"
   xmlns="http://www.w3.org/2000/svg"
   xmlns:sodipodi="http://sodipodi.sourceforge.net/DTD/sodipodi-0.dtd"
   xmlns:inkscape="http://www.inkscape.org/namespaces/inkscape"
   width="300"
   height="300"
   viewBox="0 0 300 300"
   id="svg2"
   version="1.1"
   inkscape:version="0.91 r13725"
   sodipodi:docname="時-oracle.svg">
  <defs
     id="defs4">
    <clipPath
       clipPathUnits="userSpaceOnUse"
       id="clipPath4027">
      <rect
         style="fill:#0000ff;fill-rule:evenodd;stroke:#000000;stroke-width:1.00952923px;stroke-linecap:butt;stroke-linejoin:miter;stroke-opacity:1"
         id="rect4029"
         width="209.43353"
         height="276.638"
         x="54.159828"
         y="765.27985" />
    </clipPath>
    <clipPath
       clipPathUnits="userSpaceOnUse"
       id="clipPath4037">
      <rect
         style="fill:#0000ff;fill-rule:evenodd;stroke:#000000;stroke-width:1px;stroke-linecap:butt;stroke-linejoin:miter;stroke-opacity:1"
         id="rect4039"
         width="210.09554"
         height="265.55554"
         x="54.15506"
         y="774.40967" />
    </clipPath>
  </defs>
  <sodipodi:namedview
     id="base"
     pagecolor="#ffffff"
     bordercolor="#666666"
     borderopacity="1.0"
     inkscape:pageopacity="0.0"
     inkscape:pageshadow="2"
     inkscape:zoom="1.5326361"
     inkscape:cx="172.18066"
     inkscape:cy="151.18248"
     inkscape:document-units="px"
     inkscape:current-layer="layer1"
     showgrid="false"
     units="px"
     inkscape:window-width="1028"
     inkscape:window-height="640"
     inkscape:window-x="65"
     inkscape:window-y="50"
     inkscape:window-maximized="0" />
  <metadata
     id="metadata7">
    <rdf:RDF>
      <cc:Work
         rdf:about="">
        <dc:format>image/svg+xml</dc:format>
        <dc:type
           rdf:resource="http://purl.org/dc/dcmitype/StillImage" />
        <dc:title></dc:title>
      </cc:Work>
    </rdf:RDF>
  </metadata>
  <g
     inkscape:label="Layer 1"
     inkscape:groupmode="layer"
     id="layer1"
     transform="translate(0,-752.36216)">
    <path
       style="fill:#000000"
       d="m 87.05244,1032.3728 c -4.467275,-9.8046 -4.326486,-14.9088 0.803992,-29.1503 2.303955,-6.39519 4.266477,-17.51431 4.36116,-24.70892 0.288188,-21.90424 -1.960399,-21.02853 65.793358,-25.62372 16.15539,-1.09582 34.36237,-1.18131 40.45961,-0.19002 12.06677,1.96155 20.08201,9.96556 17.03308,17.00947 -1.63852,3.78582 -2.95146,19.45541 -3.81396,45.51509 -0.33526,10.1314 -15.97053,14.3317 -68.69924,18.4497 -17.68678,1.3804 -36.72712,3.3673 -42.31159,4.4152 -9.007269,1.6899 -10.545934,1.0452 -13.62641,-5.7165 z m 60.48001,-14.9394 c 15.18876,-2.5776 31.87855,-5.3375 37.08866,-6.1355 10.99658,-1.6832 13.15755,-6.9258 11.78365,-28.58671 l -0.90792,-14.31223 -23.25539,1.09627 c -42.77213,2.01631 -55.1996,2.62072 -59.90349,2.91372 -3.74546,0.2329 -4.99667,5.03141 -6.31039,24.19647 -0.90123,13.14818 -1.00805,24.92568 -0.23724,26.17218 0.77081,1.2481 4.26439,1.6106 7.76361,0.8058 3.49947,-0.8065 18.78967,-3.5722 33.97851,-6.15 z m -18.31369,-16.0295 c -10.66209,-4.09119 -8.65713,-8.9306 5.46555,-13.19163 16.94939,-5.11406 31.65181,-4.61416 38.98699,1.32546 5.97333,4.83682 6.08302,5.50173 1.53097,9.27969 -6.15502,5.10828 -35.16047,6.73978 -45.98351,2.58648 z M 118.6312,924.46574 c -7.10212,-2.22494 -14.14723,-5.2795 -15.65592,-6.78804 -5.07465,-5.07479 5.03076,-10.83297 22.64422,-12.90315 9.49001,-1.11519 17.71004,-2.48334 18.26668,-3.04 0.5566,-0.55653 -3.90684,-9.96076 -9.91883,-20.89821 -10.66252,-19.39806 -10.94054,-20.67337 -11.32439,-51.94634 -0.21671,-17.63294 -1.3078,-34.92064 -2.42454,-38.4168 -1.78433,-5.58629 -1.07151,-6.25475 5.87909,-5.51383 5.1264,0.54661 8.77536,3.18307 10.36937,7.4921 5.26812,14.24118 11.90722,26.30797 13.56332,24.65177 0.95525,-0.95527 2.41923,-12.79762 3.25321,-26.3165 0.83395,-13.51879 2.82451,-24.73828 4.42328,-24.93202 3.79182,-0.45987 12.76218,17.48432 12.94159,25.88812 0.12247,5.73575 5.93722,9.98709 5.9638,4.36055 0.0186,-4.14216 21.07497,-26.88916 24.88952,-26.88916 13.57733,0 5.13044,21.72162 -17.51869,45.04959 l -18.32688,18.87616 0.21082,33.44321 0.21105,33.44307 13.256,0.0966 c 8.59183,0.0625 15.55739,2.0166 19.79656,5.55303 10.77986,8.99284 8.03058,11.78893 -11.62778,11.82642 -15.48891,0.029 -33.52229,3.35699 -51.59798,9.52136 -2.3982,0.8179 -10.17132,-0.33341 -17.2735,-2.55817 z m 34.71501,-68.96911 c 0,-9.06228 -1.49889,-13.14669 -5.81376,-15.8413 -5.45673,-3.40763 -5.8139,-2.90313 -5.8139,8.21263 0,13.0795 4.57542,24.19752 8.86658,21.54537 1.51876,-0.93846 2.76108,-7.20119 2.76108,-13.9167 z"
       id="path4192"
       inkscape:connector-curvature="0" />
  </g>
</svg>
