<?xml version="1.0" encoding="UTF-8" standalone="no"?>
<svg
   xmlns:dc="http://purl.org/dc/elements/1.1/"
   xmlns:cc="http://creativecommons.org/ns#"
   xmlns:rdf="http://www.w3.org/1999/02/22-rdf-syntax-ns#"
   xmlns:svg="http://www.w3.org/2000/svg"
   xmlns="http://www.w3.org/2000/svg"
   viewBox="0 0 300 300"
   height="300"
   width="300"
   id="svg185"
   version="1.1">
  <metadata
     id="metadata191">
    <rdf:RDF>
      <cc:Work
         rdf:about="">
        <dc:format>image/svg+xml</dc:format>
        <dc:type
           rdf:resource="http://purl.org/dc/dcmitype/StillImage" />
        <dc:title></dc:title>
      </cc:Work>
    </rdf:RDF>
  </metadata>
  <defs
     id="defs189" />
  <path
     id="path195"
     d="m 221.89283,278.68393 c -0.24659,-3.47386 -0.44833,-8.21095 -0.44833,-10.52687 0,-4.46235 -1.34943,-17.23503 -3.12738,-29.60118 -1.16077,-8.07354 -3.6036,-15.60681 -6.0373,-18.61795 -1.42928,-1.76841 -2.01651,-1.93086 -8.88268,-2.45732 -6.43304,-0.49325 -7.77018,-0.82336 -10.69514,-2.64038 l -3.34291,-2.07665 -8.8364,0.6546 c -8.02068,0.59416 -8.96022,0.54254 -10.17763,-0.5592 -1.62923,-1.47443 -1.7258,-4.45546 -0.28165,-8.69382 0.98272,-2.88413 1.32057,-3.1886 4.65756,-4.19743 6.35376,-1.92086 10.29088,-2.60714 20.23796,-3.52768 8.34059,-0.77187 10.18978,-1.16502 12.87139,-2.73654 4.08204,-2.39224 6.02984,-6.25127 6.00899,-11.90517 -0.0176,-4.75397 -3.59708,-19.54685 -4.93829,-20.40812 -3.3861,-2.1744 -9.03604,-3.49806 -16.43688,-3.85079 -4.57842,-0.2182 -8.72271,-0.77613 -9.79697,-1.31891 -2.69727,-1.36283 -5.45222,-5.30754 -5.86713,-8.40097 l -0.35952,-2.68039 15.16988,-5.07985 15.16988,-5.07983 0.79448,-9.34331 c 0.43696,-5.13883 0.96991,-10.51205 1.18432,-11.94051 0.38981,-2.597 0.38954,-2.59733 -3.64001,-4.47683 -3.6745,-1.71392 -4.76463,-1.88172 -12.36356,-1.90312 -9.21626,-0.0259 -10.45873,-0.45113 -13.68707,-4.68372 -2.37725,-3.11674 -4.11139,-8.0313 -2.97178,-8.42208 0.46325,-0.15885 6.73077,-1.37471 13.92783,-2.701914 16.18395,-2.98446 15.8084,-2.689972 15.23119,-11.943675 -0.35126,-5.631437 0.38106,-27.635918 1.33936,-40.244162 l 0.34367,-4.521766 -2.28372,-0.825802 c -2.79779,-1.011695 -6.91034,-1.060956 -10.12538,-0.121282 -5.96538,1.743524 -11.55635,2.043908 -19.22269,1.032769 l -7.60285,-1.002764 -14.01281,2.804851 c -13.49664,2.701536 -14.46413,2.800607 -26.26572,2.689599 -11.97605,-0.112648 -12.3376,-0.07382 -16.00097,1.718509 -4.15573,2.033202 -7.02713,2.273896 -17.631697,1.477968 -5.413046,-0.406279 -7.156153,-0.278425 -10.00513,0.733849 -5.189864,1.844027 -6.079209,3.997527 -5.559076,13.461027 0.662593,12.055557 0.913341,13.141358 3.413253,14.780086 3.566445,2.337866 9.934846,4.253379 17.818927,5.359647 7.182583,1.007837 11.300383,2.472953 14.940843,5.315959 2.01618,1.574539 2.76062,1.329599 -12.64426,4.160215 -9.199167,1.690322 -12.795117,2.636434 -13.960744,3.673138 -2.572771,2.2882 -3.663935,8.288858 -3.663935,20.149228 v 10.52782 l 3.622547,2.71475 c 1.992403,1.49311 6.572338,4.11876 10.177634,5.83479 3.904568,1.85847 8.085718,4.49738 10.340558,6.52638 l 3.78549,3.40635 -5.51051,0.51599 c -6.10619,0.57178 -11.941912,2.46396 -13.745443,4.45683 -1.625813,1.79651 -2.957276,7.51136 -3.467978,14.8851 -0.531846,7.67894 1.390814,19.08494 3.49618,20.74083 4.209346,3.3107 9.403231,5.04475 19.476511,6.50253 5.08322,0.73564 9.48079,2.47913 11.06368,4.38639 0.7195,0.86696 0.17981,1.34615 -3.49621,3.10427 -2.52072,1.20558 -6.08642,2.26182 -8.48711,2.51406 -5.5302,0.58107 -8.37426,1.52975 -11.987392,3.99864 -4.79566,3.27691 -8.367871,12.58231 -8.367871,21.79781 0,4.52254 -1.427443,9.90358 -3.947037,14.87911 -1.23518,2.43915 -1.870833,3.12301 -2.244785,2.41502 -0.28693,-0.54321 -1.721573,-8.5885 -3.188085,-17.87844 -1.960268,-12.41768 -2.980359,-17.20475 -3.851942,-18.07634 -2.354699,-2.3547 -6.456695,-2.8215 -20.307287,-2.31095 -12.659774,0.46665 -13.32551,0.42504 -16.746847,-1.04678 -3.552129,-1.52809 -6.568338,-4.61486 -8.187777,-8.37933 -0.777094,-1.80642 -0.714809,-1.87988 2.44534,-2.88397 5.633482,-1.78993 7.79685,-2.02623 19.457953,-2.12531 10.760462,-0.0914 11.603309,-0.19733 15.361199,-1.9302 2.186831,-1.00841 4.154574,-2.29869 4.372769,-2.86729 0.37246,-0.97062 -2.232313,-32.91176 -2.830805,-34.71277 -0.46919,-1.41194 -9.660748,-3.78366 -15.00997,-3.87308 -2.749026,-0.046 -8.258517,0.18061 -12.243322,0.50346 -6.746741,0.54664 -7.470831,0.48054 -10.526936,-0.96095 -3.355887,-1.58288 -5.981767,-4.16659 -7.791635,-7.66648 -1.010497,-1.9541 -0.99661,-1.98009 1.826643,-3.42042 4.877448,-2.48828 11.64541,-3.49107 22.283637,-3.30166 11.897507,0.21183 15.032559,-0.79421 17.875988,-5.73637 2.627561,-4.56697 2.869675,-6.86695 1.242447,-11.80249 -0.78154,-2.37048 -1.875364,-7.37125 -2.430721,-11.11284 -0.555356,-3.74159 -1.130499,-6.92365 -1.278097,-7.071247 -0.147597,-0.147594 -2.373194,-0.787777 -4.945765,-1.422627 -4.031873,-0.994964 -5.610694,-1.044762 -11.439953,-0.360832 -8.568369,1.005301 -11.966993,0.147455 -16.312641,-4.117476 -1.646236,-1.615656 -2.993154,-3.133027 -2.993154,-3.371935 0,-0.650609 6.850044,-3.867346 10.005129,-4.698353 1.518017,-0.399826 5.737527,-1.026624 9.376688,-1.392886 7.552646,-0.760132 10.370466,-1.749581 13.961295,-4.902365 l 2.537348,-2.227823 V 60.073842 49.883378 l -2.93254,-0.534117 C 60.95708,49.055496 54.048369,48.741072 47.217285,48.65054 40.386192,48.560004 34.020859,48.172613 33.072096,47.78966 29.555408,46.370207 27.98203,43.804568 27.675427,38.989573 c -0.156289,-2.454522 -0.170367,-4.470476 -0.03125,-4.479898 5.118706,-0.346767 36.911039,-5.190587 42.343425,-6.451363 12.382295,-2.87375 19.13067,-3.859874 36.225468,-5.293543 8.91836,-0.747947 21.82084,-2.13414 28.67218,-3.08043 12.33781,-1.704068 12.55727,-1.710097 22.93851,-0.630073 l 10.48153,1.090455 10.77219,-2.57236 L 189.84967,15 l 10.47159,1.487933 c 9.58702,1.362243 12.19084,1.449302 30.82444,1.030614 l 20.35285,-0.457319 5.63681,1.877228 c 6.21292,2.069091 8.66904,3.667817 10.20854,6.644896 1.61019,3.113769 1.28162,4.423634 -1.43456,5.718889 -4.19212,1.999084 -11.09648,2.587647 -21.0203,1.791879 -8.77445,-0.703601 -14.31375,-0.348968 -20.33947,1.302153 -3.11992,0.854896 -4.02652,4.244422 -3.54152,13.240701 0.45982,8.528842 2.85523,25.745207 4.34583,31.23447 0.84456,3.110131 10.38817,5.725299 24.04284,6.58828 10.76389,0.680286 13.33282,1.533572 15.5463,5.163798 0.74081,1.214967 1.34809,3.184148 1.3495,4.375968 0.003,2.11924 -0.11514,2.19869 -5.34498,3.6093 -2.94117,0.79331 -8.76311,1.91754 -12.93767,2.4983 -4.17455,0.58075 -9.48798,1.32779 -11.80761,1.66008 -7.90766,1.13278 -10.27264,4.13013 -10.12767,12.83568 0.0505,3.03603 0.51647,6.91733 1.03536,8.6251 0.8533,2.80845 1.3487,3.30785 5.18613,5.22815 5.90621,2.95556 10.69723,3.89618 22.26887,4.37203 8.35716,0.34366 10.40254,0.64435 12.41782,1.82552 2.70295,1.5842 5.67702,5.54712 5.36784,7.15258 -0.3056,1.58685 -13.47935,6.55436 -22.96072,8.65794 -8.98339,1.99309 -11.84973,3.44911 -14.44299,7.33661 -3.68484,5.52387 -4.57079,12.6882 -2.93485,23.73292 l 0.81762,5.52006 5.61125,1.88223 c 4.06328,1.36297 8.06065,2.07068 14.49019,2.5654 11.09701,0.85384 15.43722,2.10698 19.08614,5.51065 l 2.79963,2.61146 -20.11996,6.70653 -20.11996,6.70652 -1.44784,4.60383 c -2.12547,6.75854 -2.49651,18.55483 -1.00027,31.80148 1.88712,16.70722 0.4302,24.68696 -5.70473,31.2457 C 224.72,283.50941 223.1042,285 222.83345,285 c -0.27075,0 -0.69401,-2.84223 -0.94059,-6.31607 z"
     style="fill:#000000;stroke-width:0.69000882" />
</svg>
